<?xml version="1.0" encoding="UTF-8"?>
<svg id="Layer_1" data-name="Layer 1" xmlns="http://www.w3.org/2000/svg" viewBox="0 0 2126.77 2057.19">
  <path d="M411.79,1647.34c-.1-.02-.21-.05-.32-.08-9.98-2.7-19.86-5.7-29.63-8.98-19.54-6.55-38.69-14.11-57.18-22.92s-36.3-18.86-53.2-30.15c-16.88-11.29-32.72-24-47.16-38.02-7.21-7.02-14.1-14.31-20.5-22.04-6.43-7.71-12.45-15.8-18.09-24.19-5.63-8.4-10.88-17.1-15.85-26.01-4.93-8.93-9.47-18.11-13.8-27.44-15.78-34.42-27.55-71.16-37.13-108.82,3.11,1.9,6.32,3.67,9.6,5.33,4.95,2.48,10.09,4.66,15.37,6.51,10.55,3.67,21.66,5.94,32.72,6.7,6.32.45,12.6.43,18.79.01,4.38,25.16,10.06,49.85,17.62,73.76,3.15,9.79,6.52,19.47,10.32,28.94,3.83,9.45,7.96,18.73,12.51,27.76,4.56,9.02,9.54,17.79,14.97,26.24,5.4,8.45,11.33,16.54,17.62,24.4,12.59,15.7,26.75,30.26,42.1,43.55,15.38,13.29,31.81,25.47,49.08,36.5,16.71,10.67,34.19,20.26,52.16,28.95Z" style="fill: #fdc99a; stroke-width: 0px;"/>
  <path d="M463.73,1449.05c-1.7,17.19-5.15,34.67-9.34,52.3-4.17,17.65-9.07,35.45-13.78,53.66-4.68,18.22-9.28,36.84-12.25,56.44-.72,4.91-1.35,9.88-1.82,14.91-.46,5.04-.77,10.15-.87,15.32-.07,3.09-.04,6.18.09,9.32-4.67-1.17-9.33-2.41-13.98-3.66-17.97-8.68-35.45-18.27-52.16-28.95-17.26-11.03-33.7-23.2-49.08-36.5-15.35-13.28-29.51-27.84-42.1-43.55-6.3-7.86-12.22-15.95-17.62-24.4-5.43-8.45-10.41-17.22-14.97-26.24-4.55-9.03-8.68-18.31-12.51-27.76-3.8-9.47-7.16-19.14-10.32-28.94-7.56-23.91-13.24-48.6-17.62-73.76,4.66-.31,9.26-.84,13.79-1.55,10.55-1.67,20.68-4.34,30.36-7.54,3.23-1.07,6.41-2.2,9.55-3.39,1.57-.58,3.12-1.18,4.67-1.8,2.32-.92,4.61-1.86,6.88-2.82l6.53-2.8c16.66-7.17,33.1-13.51,49.68-18.01,16.53-4.5,33.16-7.13,49.06-6.67,14.14.4,27.59,3.36,39.63,9.22,1.48.72,2.94,1.49,4.38,2.31,13.15,7.35,24.5,18.35,33.8,31.68.59.83,1.14,1.68,1.71,2.53.58.85,1.14,1.69,1.64,2.52l1.56,2.49,1.46,2.55c1.91,3.42,3.66,6.92,5.16,10.54.81,1.79,1.45,3.64,2.17,5.47.61,1.88,1.31,3.71,1.85,5.62,1.17,3.78,2.09,7.66,2.87,11.6,3.1,15.77,3.26,32.65,1.55,49.83l.03.03Z" style="fill: #e9a24a; stroke-width: 0px;"/>
  <path d="M736.49,1496.11s-.01-.01-.02-.01c-1.4-.43-2.82-.81-4.21-1.22l-4.31-1.06-4.39-.88-1.98-.32-1.98-.24c-10.53-1.19-21.1,1-30.93,6.44-4.91,2.68-9.6,6.13-14.01,10.11-4.4,4.01-8.9,8.24-12.32,13.44-7.21,10.96-4.12,28.51-1.62,37.19,2.5,8.71,5.24,17.63,7.85,26.84,2.6,9.2,5.02,18.71,6.91,28.47,1.92,9.73,3.25,19.72,3.95,29.74.58,8.51.68,17.03.35,25.51-13.05.87-26.1,1.49-39.15,1.86,1.22-7.29,1.97-14.55,2.37-21.69.57-9.97.55-20.03-.13-30.06-.69-10.02-2.03-20.01-3.95-29.74-1.89-9.75-4.31-19.26-6.91-28.47s-5.35-18.13-7.85-26.84c-2.5-8.68-4.66-17.14-6.45-25.55,2.53-4.05,5.21-7.95,8.07-11.64,3.82-4.9,7.92-9.43,12.32-13.44,4.41-3.98,9.1-7.43,14.01-10.11,9.83-5.44,20.4-7.63,30.93-6.44l1.98.25,1.98.32,4.39.88,4.31,1.06c1.4.42,2.82.8,4.21,1.22,5.54,1.77,10.79,4,15.69,6.74,8.07,4.48,15.05,10.46,20.9,17.65h0Z" style="fill: #c5744c; stroke-width: 0px;"/>
  <path d="M762.75,1608.7c-.35,17.74-1.73,35.61-3.79,53.49-1.75.23-3.5.47-5.25.69-20.91,2.75-41.86,4.83-62.82,6.44-3.7.29-7.41.55-11.11.79.34-8.48.23-17-.35-25.51-.69-10.02-2.03-20.01-3.95-29.74-1.89-9.75-4.31-19.26-6.91-28.47s-5.35-18.13-7.85-26.84c-2.5-8.68-5.59-26.23,1.62-37.19,3.42-5.19,7.92-9.43,12.32-13.44,4.41-3.98,9.1-7.43,14.01-10.11,9.83-5.44,20.4-7.63,30.93-6.44l1.98.24,1.98.32,4.39.88,4.31,1.06c1.4.42,2.82.8,4.21,1.22.93.28.93.28.02.01,1.27,1.54,2.48,3.14,3.63,4.81,6.51,9.38,11.25,20.42,14.66,32.16,3.41,11.76,5.48,24.23,6.69,36.92,1.18,12.71,1.54,25.66,1.28,38.7h0Z" style="fill: #e9a24a; stroke-width: 0px;"/>
  <path d="M1858.18,278.96c-1.21-23.5-6.07-46.76-14.27-68.78-.47-1.27-.95-2.52-1.45-3.78l-1.56-3.88c-7.96-19.18-18.57-37.27-31.47-53.63-7.3-9.26-15.35-17.95-23.98-26.03-8.67-8.03-17.93-15.49-27.73-22.17-19.08-13.1-40.15-23.42-62.28-30.93-.58-.2-1.17-.41-1.77-.6-22.78-7.57-46.61-12.4-70.86-14.8-22.9-2.31-46.18-2.35-69.53-.72h-.01c-2.89.4-5.79.82-8.68,1.25-8.67,1.32-17.34,2.89-25.99,4.63-.29.06-.56.11-.85.17-3.44.69-6.88,1.41-10.32,2.15-12.39,2.67-24.73,5.76-37.08,9.1-12.36,3.35-24.67,7.01-37.09,10.72l-.58-1.24c4.37-2.86,8.81-5.6,13.3-8.25,6.69-3.95,13.52-7.69,20.46-11.25,11.57-5.99,23.48-11.41,35.62-16.36,1.1-.45,2.2-.89,3.31-1.33,7.77-3.08,15.66-5.92,23.64-8.53-1.74-.14-3.51-.26-5.25-.41-2.3-.12-4.56-.33-6.86-.44-18.23-1.1-36.37-1.39-54.5-1.15-18.13.19-36.24.95-54.36,1.98-18.13,1.08-36.28,2.33-54.42,4.2-5.97.62-11.94,1.3-17.91,2.03-10.52,1.3-21.03,2.78-31.52,4.4-30.49,6.67-60.79,14.42-90.88,22.98-70.76,20.18-140.3,44.92-208.46,72.98-68.18,28.06-134.97,59.53-200.06,94.14-65.1,34.6-128.46,72.41-189.63,113.37-61.14,40.98-120.02,85.26-175.54,133.23-27.74,24.01-54.62,48.95-80.36,74.94-25.76,25.97-50.4,52.97-73.56,81.11-23.13,28.14-44.8,57.41-64.47,87.85-19.66,30.44-37.3,62.08-52.19,94.83-14.9,32.75-27.07,66.62-35.66,101.27-8.57,34.64-13.54,70.05-14.32,105.54-.4,17.74.24,35.49,1.94,53.15.41,4.42.93,8.81,1.46,13.3.55,4.54,1.13,9.03,1.74,13.5,1.22,8.93,2.61,17.78,4.24,26.51,3.29,17.43,7.51,34.42,13.37,50.34.69,2.02,1.5,3.95,2.27,5.92.74,1.98,1.61,3.87,2.43,5.79.79,1.88,1.75,3.93,2.68,5.94.92,2.02,1.88,4,2.84,5.99,3.81,7.86,7.84,15.5,12.16,22.86h0l13.62,20.64h0c.18.27.37.52.56.78,2.54,3.33,5.12,6.6,7.86,9.71,1.33,1.59,2.75,3.09,4.13,4.64,1.44,1.49,2.86,3.03,4.3,4.44,11.42,11.43,24.27,20.33,38.2,25.28.05.02.11.04.16.06,3.4,1.19,6.85,2.17,10.36,2.93,1.49.33,2.99.6,4.5.85l2.99-1.27c17.54-7.42,35.91-14.46,55.28-19.61,6.33-1.68,12.77-3.16,19.32-4.37,3.48-.65,6.99-1.21,10.53-1.7,8-1.09,16.18-1.72,24.48-1.75,2.28-.02,4.57.02,6.88.1,10.64.4,21.46,1.87,32.07,4.7,9.53,2.53,18.88,6.18,27.63,10.91,10.2,2.81,20.17,6.91,29.41,12.21,9.6,5.5,18.46,12.2,26.23,19.73,3.9,3.76,7.57,7.7,10.99,11.78,3.4,4.09,6.6,8.31,9.58,12.62.74,1.07,1.45,2.17,2.17,3.25s1.44,2.17,2.14,3.34l2.1,3.45,1.98,3.52c2.59,4.71,4.96,9.57,6.99,14.55,1.07,2.47,1.96,5.01,2.91,7.52.84,2.54,1.73,5.07,2.45,7.65,1.53,5.12,2.72,10.31,3.7,15.49,3.9,20.81,3.72,41.55,1.6,61.33-2.13,19.81-6.11,38.87-10.65,57.39-4.55,18.52-9.67,36.55-14.42,54.31-4.73,17.75-9.15,35.28-11.89,52.46-.66,4.29-1.22,8.55-1.67,12.77-.43,4.21-.7,8.4-.83,12.51-.14,4.11-.03,8.22.2,12.09.12,1.58.27,3.15.46,4.72.28,2.24.63,4.48,1.09,6.68,2.99,14.96,10.12,28.84,20.56,39.88.63.67,1.29,1.35,1.95,2,4.32,4.28,9.12,8.07,14.27,11.28,1.11.21,2.22.41,3.33.57,12.2,1.82,24.55.4,35.19-4.49,5.7-2.55,10.9-6.1,15.51-10.48,1.63-1.54,3.19-3.18,4.67-4.92,3.82-4.46,7.11-9.53,9.85-15.09,3.44-6.9,6.02-14.49,7.87-22.44.05-.2.09-.41.13-.62.88-3.78,1.58-7.63,2.12-11.55.58-4.14.98-8.3,1.28-12.64,1.18-17.2.19-34.23-3-51.26-1.57-8.53-3.64-17.08-6.01-25.79-1.08-4-2.23-8.04-3.4-12.12-1.38-4.82-2.78-9.69-4.15-14.67-.95-3.48-1.9-7-2.8-10.56-1.49-5.86-2.85-11.84-3.93-17.94-1.75-9.81-2.72-19.92-2.81-30.01-.01-2.38.03-4.75.12-7.13.29-7.7,1.1-15.37,2.45-22.87,1.71-9.83,4.35-19.37,7.58-28.58,3.25-9.2,7.24-18.05,11.74-26.56,4.53-8.5,9.57-16.66,15.47-24.31l.9.36c-1.11,9.58-2.53,18.87-3.74,28.06-1.24,9.18-2.28,18.26-3.1,27.2-.59,6.8-1,13.52-1.17,20.17-.08,2.84-.11,5.65-.1,8.46.02,5.84.23,11.63.67,17.36,2.48-3.48,5.17-6.87,8.09-10.11,5.1-5.62,10.93-10.83,17.53-15.23.24-.16.48-.32.72-.47,5.45-3.54,11.42-6.52,17.76-8.65.84-.29,1.68-.55,2.53-.8.32-.1.62-.18.94-.28,7.92-2.28,16.3-3.16,24.52-2.75l2.35.17.72.05,3.05.33,5.61.84,5.6,1.09c1.58.38,3.15.74,4.73,1.15.29.07.58.14.87.22,7.44,2,14.8,4.82,21.81,8.49,1.05.55,2.09,1.12,3.12,1.7.21.05.43.11.64.16.29.07.58.14.87.22,7.44,2,14.8,4.82,21.81,8.49,7.02,3.66,13.67,8.2,19.62,13.5,5.96,5.3,11.25,11.25,15.82,17.6,9.13,12.75,15.3,26.85,19.64,40.98,4.34,14.17,6.89,28.47,8.48,42.67,1.54,14.2,2.13,28.32,2.07,42.34-.07,16.17-.93,32.21-2.32,48.13-1.02,11.67-2.33,23.27-3.82,34.83-.17,1.31-.35,2.62-.52,3.93-3.5,25.98-7.99,51.7-13.08,77.22l-2.04,10.05-2.13,10.23c-.7,3.56-1.55,6.76-2.36,10.07-.41,1.65-.72,3.17-1.09,4.76-.36,1.57-.72,3.14-1.03,4.71-1.35,6.3-2.44,12.61-3.43,18.94-.95,6.33-1.67,12.65-2.23,18.98-2.12,25.26-.74,50.59,5.63,74.11,3.18,11.75,7.62,23.02,13.35,33.4,5.71,10.41,12.78,19.89,20.96,28.12,6.98,6.98,14.79,13.02,23.24,17.85,3.39.83,6.81,1.46,10.24,1.92,1.68.22,3.38.41,5.06.53,9.47.74,18.97,0,28.05-2.18,10.71-2.55,20.82-7.17,29.73-13.57.45-.32.9-.64,1.34-.98,8.36-6.2,15.59-14.01,21.52-22.91,6.21-9.39,11.05-19.96,14.43-31.23,3.39-11.28,5.39-23.22,6.27-35.41.84-12.2.58-24.66-.57-37.17-1.16-12.51-3.19-25.06-5.92-37.56-1.36-6.24-2.87-12.48-4.57-18.69-.82-3.11-1.71-6.2-2.62-9.31l-2.88-9.81c-7.69-26.55-14.24-53.32-19.83-80.32-3.59-17.45-6.81-35-9.57-52.63-1.93-12.33-3.63-24.71-5.07-37.14-2.89-24.78-4.74-49.76-5.31-74.94-.53-27.93.52-56.12,4.65-84.43,1.02-7.07,2.31-14.15,3.78-21.22,1.47-7.07,3.21-14.14,5.23-21.18,4.03-14.07,9.27-28.08,16.27-41.6,3.5-6.76,7.43-13.4,11.92-19.77,1.13-1.59,2.31-3.15,3.47-4.73,1.17-1.55,2.31-2.99,3.5-4.47,2.37-2.95,4.87-5.85,7.46-8.68,5.18-5.67,10.88-11.1,17.12-16.09s13.07-9.53,20.44-13.33c7.31-3.75,15.13-6.77,23.17-8.81.06-.02.12-.03.18-.05,8.1-2.04,16.39-3.14,24.5-3.39,7.45-.23,14.72.2,21.77,1.1,8.37,1.05,16.44,2.74,24.17,4.74,14.29,3.68,27.59,8.48,40.37,13.07,12.77,4.61,25.07,9.12,36.95,12.39,6.15,1.7,12.18,3.04,17.98,3.84,5.37.74,10.52,1.03,15.38.7,5.05-.34,9.76-1.28,14.21-2.9,2.23-.81,4.41-1.77,6.52-2.93.53-.3,1.06-.58,1.58-.9.52-.3,1.06-.64,1.61-1,.54-.36,1.1-.69,1.63-1.05l1.58-1.11c4.03-2.91,7.57-6.2,10.59-9.91,3.2-3.9,5.86-8.26,8-13.13,4.19-9.47,6.36-20.78,7.15-32.77.83-12.01.31-24.67-.77-37.52-1.09-12.86-2.8-25.93-4.72-39.1-3.88-26.36-8.57-53.16-12.28-80.39-3.72-27.23-6.52-54.97-6.85-83.11-.04-3.43-.05-6.86,0-10.29.26-24.78,2.63-49.83,8.17-74.47,3.23-14.48,7.74-28.75,13.5-42.51,5.38-12.89,11.87-25.31,19.4-37.04,14.72-23.05,33.39-43.14,54.24-59.76,1.11-.9,2.23-1.78,3.36-2.64,11.09-8.59,22.8-16.2,34.9-22.92,3.04-1.66,6.06-3.32,9.16-4.86l4.62-2.31c1.54-.78,3.13-1.47,4.68-2.19,6.23-2.93,12.61-5.52,19.06-7.9-10.39,9.01-20.65,17.85-30.44,27.03-9.74,9.22-19.12,18.62-27.87,28.43-4.05,4.53-7.98,9.14-11.76,13.82-2.33,2.87-4.59,5.76-6.81,8.69.46-.21.92-.42,1.39-.62,9.83-4.35,20.14-7.77,30.8-10.09,1.97-.43,3.96-.83,5.96-1.17.62-.11,1.24-.22,1.88-.33,1.99-.33,4-.6,6.01-.86,12.49-1.51,25.31-1.49,38.06.44,14.24,2.15,28.38,6.66,41.33,13.72.48.26.96.52,1.44.79,13.39,7.42,25.28,17.59,34.95,29.35,4.81,5.91,9.08,12.19,12.79,18.72,3.68,6.54,6.82,13.31,9.45,20.21,5.24,13.8,8.45,28.05,10.15,42.18,1.7,14.15,1.95,28.23,1.22,42.09-.39,6.93-1.02,13.79-1.85,20.62-.84,6.82-1.92,13.56-3.12,20.27l-1.8,9.39c-.47,2.77-.91,5.52-1.21,8.26-.66,5.49-.93,10.94-.85,16.28.19,10.7,2.05,20.98,5.62,30.31,3.55,9.34,8.9,17.7,15.74,24.68,6.85,6.97,15.19,12.56,24.44,16.39,4.75,1.97,9.72,3.5,14.81,4.54,3.06.63,6.17,1.09,9.29,1.37.84-.26,1.66-.52,2.48-.81,8.6-2.98,16.64-7.37,23.73-12.98.74-.58,1.49-1.19,2.21-1.81,7.64-6.46,14.1-14.38,19.22-23.34s8.91-18.97,11.41-29.56c1.26-5.3,2.17-10.75,2.84-16.29.32-2.78.58-5.56.75-8.38.09-1.41.18-2.83.22-4.24l.09-2.13.03-2.23c.26-11.92-.1-23.86-1.2-35.81-2.07-23.91-6.87-47.77-13.21-71.65-6.31-23.9-14.24-47.82-22.21-72.36s-15.97-49.78-21.69-76.46c-1.43-6.66-2.7-13.42-3.75-20.26-1.06-6.84-1.95-13.75-2.53-20.75-1.22-13.98-1.33-28.27-.14-42.55,1.2-14.26,3.74-28.51,7.62-42.31.45-1.73.97-3.45,1.5-5.15.54-1.71,1.04-3.43,1.61-5.12,1.16-3.38,2.29-6.77,3.59-10.08,2.49-6.68,5.37-13.17,8.4-19.56,1.6-3.19,3.01-6.19,4.94-9.72,1.89-3.4,3.89-6.75,6.07-10.01,2.18-3.25,4.51-6.44,6.96-9.5,2.47-3.04,5.06-5.98,7.73-8.78,5.38-5.58,11.11-10.63,16.92-15.13,5.81-4.53,11.67-8.54,17.45-12.28,11.58-7.46,22.77-13.84,33.39-20.33,10.64-6.48,20.76-13.05,30.38-20.15,19.26-14.13,36.58-30.45,52.17-48.81,15.66-18.42,29.39-38.27,40.62-59.35,11.24-21.07,19.91-43.39,25.37-66.41,5.49-23.01,7.79-46.71,6.51-70.21l.05.07ZM1183.56,623.35c-8.48,8.23-17.15,16.25-26,24.06-17.71,15.62-36.12,30.39-55.09,44.36-37.93,27.99-78.05,52.85-119.75,74.71-20.88,10.88-42.12,21.08-63.77,30.36-21.65,9.29-43.66,17.79-66.04,25.28-19.31,6.53-38.91,12.27-58.74,17.2-3.12.78-6.25,1.54-9.39,2.28-11.53,2.68-23.12,5.12-34.79,7.19-11.67,2.05-23.42,3.78-35.2,5.18-7.49.91-15.01,1.6-22.54,2.13-4.34.32-8.67.57-13.01.78-11.89.57-23.8.74-35.73.3-.68-.02-1.37-.05-2.05-.08-4.36-.15-8.7-.39-13.05-.7-18.79-1.32-37.54-4.04-55.89-8.54-7.11-1.79-14.18-3.82-21.14-6.15-14.14-4.72-27.87-10.65-40.74-18.07-1.47-.84-2.93-1.7-4.37-2.58-10.17-6.17-19.79-13.2-28.51-21.13-8.68-7.96-16.58-16.66-23.31-26.09,8.65,7.71,17.78,14.68,27.41,20.71,2.4,1.51,4.86,2.93,7.28,4.37l3.72,2.03c1.1.61,2.2,1.21,3.34,1.77.13.07.28.14.41.2,2.52,1.25,5.02,2.54,7.59,3.68,1.28.58,2.54,1.18,3.83,1.74l3.88,1.62c2.56,1.12,5.22,2.03,7.83,3.04,2.57.93,5.15,1.81,7.72,2.67.06.03.13.05.19.07,5.32,1.68,10.66,3.27,16.08,4.56,10.8,2.65,21.75,4.67,32.79,5.97,5.5.67,11.01,1.19,16.53,1.57,5.56.38,11.13.61,16.71.7,5.72.09,11.45.09,17.18-.04-.08-.28-.15-.56-.24-.84-.71-2.52-1.52-5.07-2.36-7.63-1.45-4.47-3.04-9.02-4.64-13.64-.57-1.65-1.15-3.32-1.72-4.99-4.38-12.72-8.72-26.01-11.49-40.59-1.4-7.29-2.45-14.93-2.65-23.08-.14-8.15.61-17.01,3.7-26.04,1.54-4.49,3.69-8.96,6.44-13.09,1.38-2.07,2.9-4.03,4.52-5.9.83-.9,1.68-1.84,2.5-2.68l2.39-2.28c3.27-2.99,6.85-5.81,10.79-8.25,3.9-2.38,8.1-4.41,12.47-5.96.07-.02.13-.05.2-.07,4.43-1.55,9.02-2.63,13.54-3.2,4.52-.58,8.98-.72,13.27-.55,8.64.34,16.6,1.92,24.09,3.84.2.05.41.11.6.16,3.52.95,6.95,1.97,10.29,3.07,3.52,1.17,6.96,2.4,10.34,3.65,6.72,2.52,13.2,5.15,19.53,7.7,12.61,5.12,24.72,9.98,36.39,13.22,4.17,1.16,8.27,2.09,12.25,2.74,7.14,1.16,13.9,1.41,20,.45,4.76-.76,9.19-2.1,13.41-4.22,2.13-1,4.16-2.35,6.13-3.65,1.88-1.4,3.7-2.81,5.29-4.42,1.58-1.61,3.08-3.27,4.37-5.13l.51-.68.46-.72c.3-.49.62-.95.92-1.45.11-.2.23-.41.35-.61.46-.81.93-1.61,1.33-2.48.56-1.03,1-2.18,1.5-3.29.43-1.17.92-2.29,1.3-3.52.83-2.39,1.47-4.96,2.05-7.6.58-2.64,1-5.43,1.38-8.24.32-2.87.6-5.76.73-8.76.34-5.96.26-12.17.04-18.52-.45-12.7-1.77-25.93-3.03-39.61-.63-6.84-1.23-13.83-1.68-20.99-.45-7.14-.71-14.52-.6-22.15.08-3.84.26-7.74.6-11.74.38-4.01.91-8.11,1.7-12.33.85-4.22,1.97-8.55,3.53-12.96,1.54-4.39,3.61-8.88,6.27-13.22,2.65-4.34,5.94-8.52,9.73-12.2.97-.9,1.93-1.81,2.93-2.67,1.02-.83,2.05-1.64,3.09-2.45,1.99-1.43,3.94-2.67,5.95-3.97,4.62-2.82,9.66-5.14,14.87-6.89,3.99-1.33,8.07-2.31,12.12-2.9,9.39-1.43,18.46-1.03,26.78.21,4.05.6,7.95,1.41,11.72,2.34,3.99.98,7.85,2.11,11.58,3.32,7.28,2.33,14.06,5.02,20.63,7.71,3.7,1.52,7.33,3.05,10.89,4.57,2.74,1.16,5.46,2.32,8.14,3.45,6.14,2.59,12.12,5.02,17.95,7.11.63.22,1.26.45,1.89.66,4.68,1.62,9.26,3.02,13.62,4,.43.1.86.19,1.28.29,5.32,1.1,10.25,1.54,14.55,1.23,1.07-.09,2.07-.29,3.11-.37,1-.18,1.94-.47,2.92-.64.21-.02.58-.16.9-.26l.96-.31,1.94-.59c1.24-.48,2.52-.89,3.74-1.39,4.92-1.96,9.52-4.37,13.77-7.33,4.22-3.01,8.19-6.44,11.79-10.49.14-.16.29-.32.42-.48,7.1-7.93,12.93-17.94,18.08-28.99,5.25-11.34,9.73-23.72,14.68-36.72,2.5-6.49,5.12-13.16,8.16-19.95,3.05-6.79,6.51-13.71,10.97-20.63,2.19-3.45,4.71-6.89,7.54-10.21,2.83-3.33,5.96-6.58,9.55-9.53,3.56-2.95,7.5-5.62,11.67-7.85,3.25-1.77,6.68-3.17,10.13-4.32.98-.33,1.97-.63,2.95-.92,2.22-.67,4.46-1.13,6.68-1.58,1.12-.21,2.22-.35,3.33-.52l1.66-.23,1.64-.15c4.41-.48,8.65-.44,12.85-.3,7.28.42,14.68,1.56,21.96,3.62.99.29,1.97.58,2.95.9,6.12,2.02,12,4.81,17.47,8.19,9.23,5.69,17.3,13.09,23.41,21.3l1.89,2.43c.2.28.39.55.57.83.39.56.76,1.12,1.13,1.68,1.09,1.68,2.28,3.34,3.28,5.05l2.79,4.94.13.22c.5.86.94,1.73,1.35,2.61l1.28,2.62c1.79,3.49,3.07,7.07,4.54,10.6.65,1.79,1.27,3.57,1.87,5.36l.91,2.67c.29.9.53,1.8.79,2.69,1.22,4.18,2.31,8.38,3.23,12.56,2.06-5.58,3.9-11.24,5.48-17.01,1.54-5.64,2.82-11.39,3.79-17.19,2.76-16.35,3.13-33.24.52-50.17,4.16,10.8,6.95,22.31,8.18,34.07.68,5.88.88,11.82.89,17.76l-.08,4.47c-.01,1.49-.16,2.97-.23,4.46-.11,2.28-.33,4.53-.55,6.8-.07.7-.14,1.42-.21,2.12-1.25,11.89-3.87,23.6-7.13,35.11-.83,2.88-1.74,5.72-2.66,8.58-1,2.81-1.93,5.66-3,8.45-1.06,2.8-2.1,5.61-3.25,8.36l-1.7,4.15-1.8,4.11c-3.91,8.78-8.24,17.38-12.88,25.79-1.12,2.04-2.27,4.06-3.42,6.08-5.96,10.34-12.46,20.31-19.25,30.08-6.76,9.77-14.01,19.19-21.49,28.41-7.49,9.2-15.21,18.2-23.27,26.87-8.04,8.69-16.29,17.16-24.75,25.43l-.05.05Z" style="fill: #e272ad; stroke-width: 0px;"/>
  <path d="M1884.35,345.73c-5.47,23.02-14.13,45.34-25.38,66.41-11.22,21.08-24.96,40.93-40.62,59.35-15.59,18.37-32.9,34.68-52.17,48.81-9.62,7.1-19.74,13.67-30.38,20.15-10.62,6.5-21.81,12.88-33.39,20.33-5.77,3.74-11.64,7.75-17.45,12.28-5.81,4.5-11.54,9.55-16.92,15.13-2.67,2.81-5.26,5.74-7.73,8.78-2.45,3.06-4.78,6.24-6.96,9.5-2.18,3.25-4.18,6.61-6.07,10.01-1.93,3.53-3.34,6.53-4.94,9.72-3.03,6.39-5.91,12.88-8.4,19.56-1.31,3.31-2.43,6.7-3.59,10.08-.57,1.69-1.07,3.41-1.61,5.12-.53,1.7-1.05,3.42-1.5,5.15-3.88,13.8-6.42,28.05-7.62,42.31-1.18,14.27-1.08,28.57.14,42.55.58,7,1.47,13.92,2.53,20.75,1.05,6.85,2.33,13.6,3.75,20.26,5.72,26.68,13.72,51.92,21.69,76.46,7.97,24.54,15.91,48.46,22.21,72.36,6.35,23.88,11.14,47.74,13.21,71.65,1.1,11.95,1.46,23.9,1.2,35.81l-.03,2.23-.09,2.13c-.04,1.42-.13,2.84-.22,4.24-.17,2.82-.44,5.6-.76,8.38-.66,5.54-1.58,11-2.84,16.29-2.5,10.59-6.29,20.6-11.41,29.56-5.12,8.97-11.58,16.89-19.22,23.34-.72.61-1.47,1.22-2.21,1.81-7.09,5.61-15.13,10-23.73,12.98-9.5,3.29-19.68,4.85-29.82,4.56-1.79-.05-3.56-.15-5.34-.33.84-.26,1.66-.52,2.48-.81,8.6-2.98,16.64-7.37,23.73-12.98.74-.58,1.49-1.19,2.21-1.81,7.64-6.46,14.1-14.38,19.22-23.34s8.91-18.97,11.41-29.56c1.26-5.3,2.17-10.75,2.84-16.29.32-2.78.58-5.56.75-8.38.09-1.41.18-2.83.22-4.24l.09-2.13.03-2.23c.26-11.92-.1-23.86-1.2-35.81-2.07-23.91-6.87-47.77-13.21-71.65-6.31-23.9-14.24-47.82-22.21-72.36s-15.97-49.78-21.69-76.46c-1.43-6.66-2.7-13.42-3.75-20.26-1.06-6.84-1.95-13.75-2.53-20.75-1.22-13.98-1.33-28.27-.14-42.55,1.2-14.26,3.74-28.51,7.62-42.31.45-1.73.97-3.45,1.5-5.15.54-1.71,1.04-3.43,1.61-5.12,1.16-3.38,2.29-6.77,3.59-10.08,2.49-6.68,5.37-13.17,8.4-19.56,1.6-3.19,3.01-6.19,4.94-9.72,1.89-3.4,3.89-6.75,6.07-10.01,2.18-3.25,4.51-6.44,6.96-9.5,2.47-3.04,5.06-5.98,7.73-8.78,5.38-5.58,11.11-10.63,16.92-15.13,5.81-4.53,11.67-8.54,17.45-12.28,11.58-7.46,22.77-13.84,33.39-20.33,10.64-6.48,20.76-13.05,30.38-20.15,19.26-14.13,36.58-30.45,52.17-48.81,15.66-18.42,29.39-38.27,40.62-59.35,11.24-21.07,19.91-43.39,25.37-66.41,5.49-23.01,7.79-46.71,6.51-70.21-1.21-23.5-6.07-46.76-14.27-68.78-.47-1.27-.95-2.52-1.45-3.78l-1.56-3.88c-7.96-19.18-18.57-37.27-31.47-53.63-7.3-9.26-15.35-17.95-23.98-26.03-8.67-8.03-17.93-15.49-27.73-22.17-19.08-13.1-40.15-23.42-62.28-30.93-.58-.2-1.17-.41-1.77-.6-22.78-7.57-46.61-12.4-70.86-14.8-22.9-2.31-46.18-2.35-69.53-.72,2.91-.4,5.81-.78,8.7-1.12,6.6-.8,13.19-1.46,19.78-2,24.76-1.93,49.46-2.03,73.73.42,24.25,2.41,48.08,7.23,70.86,14.8,9.62,3.19,19.05,6.92,28.21,11.18,12.52,5.8,24.53,12.58,35.83,20.34,9.81,6.68,19.06,14.14,27.73,22.17,8.63,8.08,16.68,16.76,23.98,26.03,12.9,16.36,23.51,34.45,31.47,53.63l1.56,3.88c.5,1.25.98,2.51,1.45,3.77,8.2,22.02,13.06,45.28,14.27,68.78,1.28,23.5-1.02,47.2-6.51,70.21l.03.02Z" style="fill: #ca559f; stroke-width: 0px;"/>
  <path d="M851.1,2014.97c-7.56-1.84-14.96-4.57-21.97-8.16-10.17-5.16-19.53-12.07-27.72-20.26-8.17-8.23-15.24-17.71-20.96-28.12-5.72-10.39-10.16-21.65-13.35-33.4-6.38-23.53-7.75-48.85-5.63-74.11.56-6.33,1.29-12.65,2.23-18.98.99-6.33,2.08-12.64,3.43-18.94.31-1.57.67-3.14,1.03-4.71.37-1.59.68-3.11,1.09-4.76.81-3.31,1.65-6.51,2.36-10.07l2.13-10.23,2.04-10.05c5.09-25.52,9.58-51.24,13.08-77.22.17-1.31.35-2.62.52-3.93,1.49-11.56,2.8-23.16,3.82-34.83,1.39-15.92,2.24-31.96,2.32-48.13.06-14.02-.53-28.14-2.07-42.34-1.59-14.2-4.14-28.5-8.48-42.67-4.34-14.12-10.51-28.22-19.64-40.98-4.57-6.35-9.87-12.3-15.82-17.6-5.06-4.5-10.62-8.46-16.5-11.79.21.05.43.11.64.16.29.07.58.14.87.22,7.44,2,14.8,4.82,21.81,8.49,7.02,3.66,13.67,8.2,19.62,13.5,5.96,5.3,11.25,11.25,15.82,17.6,9.13,12.75,15.3,26.85,19.64,40.98,4.34,14.17,6.89,28.47,8.48,42.67,1.54,14.2,2.13,28.32,2.07,42.34-.07,16.17-.93,32.21-2.32,48.13-1.02,11.67-2.33,23.27-3.82,34.83-.17,1.31-.35,2.62-.52,3.93-3.5,25.98-7.99,51.7-13.08,77.22l-2.04,10.05-2.13,10.23c-.7,3.56-1.55,6.76-2.36,10.07-.41,1.65-.72,3.17-1.09,4.76-.36,1.57-.72,3.14-1.03,4.71-1.35,6.3-2.44,12.61-3.43,18.94-.95,6.33-1.67,12.65-2.23,18.98-2.12,25.26-.74,50.59,5.63,74.11,3.18,11.75,7.62,23.02,13.35,33.4,5.71,10.41,12.78,19.89,20.96,28.12,6.98,6.98,14.79,13.02,23.24,17.85h0Z" style="fill: #f2c2db; stroke-width: 0px;"/>
  <path d="M489.84,1653.1c-.14,4.11-.03,8.22.2,12.09.12,1.58.27,3.15.46,4.72.28,2.24.63,4.48,1.09,6.68,2.99,14.96,10.12,28.84,20.56,39.88.63.67,1.29,1.35,1.95,2,4.32,4.28,9.12,8.07,14.27,11.28-1.38-.27-2.74-.58-4.1-.93-13.66-3.49-26.51-10.91-36.62-20.94-.66-.65-1.32-1.33-1.95-2-10.44-11.04-17.57-24.93-20.56-39.88-.46-2.2-.82-4.44-1.09-6.68-.19-1.57-.34-3.14-.46-4.72-.23-3.87-.35-7.98-.2-12.09.12-4.11.4-8.3.83-12.51.45-4.22,1.01-8.49,1.67-12.77,2.73-17.18,7.15-34.71,11.89-52.46,4.74-17.76,9.87-35.79,14.42-54.31,4.54-18.52,8.52-37.58,10.65-57.39,2.12-19.78,2.3-40.52-1.6-61.33-.98-5.18-2.17-10.37-3.7-15.49-.71-2.58-1.61-5.11-2.45-7.65-.95-2.51-1.84-5.05-2.91-7.52-2.03-4.98-4.4-9.84-6.99-14.55l-1.98-3.52-2.1-3.45c-.7-1.16-1.42-2.25-2.14-3.34-.72-1.08-1.43-2.18-2.17-3.25-2.98-4.32-6.18-8.53-9.58-12.62-3.42-4.08-7.09-8.02-10.99-11.78-7.77-7.53-16.63-14.23-26.23-19.73-.98-.56-1.96-1.11-2.96-1.63,10.2,2.81,20.17,6.91,29.41,12.21,9.6,5.5,18.46,12.2,26.23,19.73,3.9,3.76,7.57,7.7,10.99,11.78,3.4,4.09,6.6,8.31,9.58,12.62.74,1.07,1.45,2.17,2.17,3.25s1.44,2.17,2.14,3.34l2.1,3.45,1.98,3.52c2.59,4.71,4.96,9.57,6.99,14.55,1.07,2.47,1.96,5.01,2.91,7.52.84,2.54,1.73,5.07,2.45,7.65,1.53,5.12,2.72,10.31,3.7,15.49,3.9,20.81,3.72,41.55,1.6,61.33-2.13,19.81-6.11,38.87-10.65,57.39-4.55,18.52-9.67,36.55-14.42,54.31-4.73,17.75-9.15,35.28-11.89,52.46-.66,4.29-1.22,8.55-1.67,12.77-.43,4.21-.7,8.4-.83,12.51h0Z" style="fill: #f2c2db; stroke-width: 0px;"/>
  <path d="M1304.2,45.33c-30.49,6.67-60.79,14.42-90.88,22.98-70.76,20.18-140.3,44.92-208.46,72.98-68.18,28.06-134.97,59.53-200.06,94.14-65.1,34.6-128.46,72.41-189.63,113.37-61.14,40.98-120.02,85.26-175.54,133.23-27.74,24.01-54.62,48.95-80.36,74.94-25.76,25.97-50.4,52.97-73.56,81.11-23.13,28.14-44.8,57.41-64.47,87.85-19.66,30.44-37.3,62.08-52.19,94.83-14.9,32.75-27.07,66.62-35.66,101.27-8.57,34.64-13.54,70.05-14.32,105.54-.4,17.74.24,35.49,1.94,53.15.41,4.42.93,8.81,1.46,13.3.55,4.54,1.13,9.03,1.74,13.5,1.22,8.93,2.61,17.78,4.24,26.51,3.29,17.43,7.51,34.42,13.37,50.34.69,2.02,1.5,3.95,2.27,5.92.74,1.98,1.61,3.87,2.43,5.79.79,1.88,1.75,3.93,2.68,5.94.92,2.02,1.88,4,2.84,5.99,3.81,7.86,7.84,15.5,12.16,22.86h0l13.62,20.64h0c.18.27.37.52.56.78,2.54,3.33,5.12,6.6,7.86,9.71,1.33,1.59,2.75,3.09,4.13,4.64,1.44,1.49,2.86,3.03,4.3,4.44,11.46,11.47,24.38,20.41,38.36,25.34,4.84,1.7,9.78,2.97,14.86,3.78l-3.32,1.4c-2.02.84-4.03,1.65-6.04,2.43-4.02,1.57-8.02,3.01-12.02,4.31-7.98,2.6-15.92,4.6-23.75,5.78-7.83,1.2-15.54,1.57-23.03,1.01-7.5-.57-14.75-2.11-21.75-4.58-13.99-4.94-26.91-13.88-38.36-25.34-1.44-1.41-2.86-2.95-4.3-4.44-1.38-1.55-2.81-3.05-4.13-4.64-2.73-3.11-5.32-6.39-7.86-9.71-.19-.26-.38-.51-.56-.77h0l-13.62-20.64h0c-4.33-7.38-8.36-15.02-12.16-22.88-.96-1.99-1.92-3.97-2.84-5.99-.93-2.01-1.9-4.06-2.68-5.94-.82-1.92-1.68-3.81-2.43-5.79-.77-1.97-1.57-3.9-2.27-5.92-5.86-15.92-10.08-32.91-13.37-50.34-1.63-8.72-3.02-17.58-4.24-26.51-.61-4.47-1.19-8.96-1.74-13.5-.53-4.5-1.05-8.89-1.46-13.3-1.69-17.66-2.34-35.4-1.94-53.15.79-35.49,5.75-70.9,14.33-105.54,8.59-34.65,20.76-68.51,35.66-101.27,14.89-32.75,32.53-64.39,52.19-94.83,19.67-30.44,41.34-59.71,64.47-87.85,23.16-28.14,47.8-55.15,73.56-81.11,25.74-25.99,52.62-50.93,80.36-74.94,55.52-47.97,114.41-92.26,175.54-133.23,61.18-40.95,124.54-78.77,189.63-113.37,65.1-34.61,131.88-66.09,200.06-94.14,68.16-28.06,137.7-52.8,208.46-72.98,35.37-10.07,71.04-19,106.97-26.42,19.59-4.03,39.25-7.63,58.96-10.68h0Z" style="fill: #f2c2db; stroke-width: 0px;"/>
  <path d="M770.3,783.22c9.55,4.13,19.43,8.46,30.01,12.25-8.48,2.74-16.99,5.4-25.54,7.87-10.77,3.14-21.61,6.03-32.49,8.7-10.88,2.69-21.81,5.08-32.8,7.15-7.5,1.39-15.01,2.7-22.54,3.86-.51-2.67-.98-5.31-1.4-7.91-.99-6.15-1.55-12.1-1.51-17.59.06-5.48.84-10.4,2.34-14.24.74-1.94,1.65-3.62,2.74-5.12.54-.77,1.15-1.46,1.79-2.15l1.02-1.03,1.37-1.2c1.83-1.55,3.67-2.9,5.57-3.99,1.91-1.06,3.85-1.9,5.87-2.53,4.02-1.28,8.52-1.66,13.54-1.3,5.01.34,10.5,1.54,16.16,3.18,11.37,3.38,23.39,8.61,35.87,14.05h0Z" style="fill: #e69049; stroke-width: 0px;"/>
  <path d="M1481.48,942.06c-.61-.39-1.23-.76-1.86-1.12-4.46-2.65-9.23-4.84-14.15-6.7-4.96-1.81-10.09-3.23-15.38-4.2-2.62-.53-5.31-.86-8-1.18-2.69-.24-5.41-.48-8.14-.53-5.47-.2-11,.08-16.52.69-22.14,2.5-45.76,9-63.14,24.38-18.23,16.13-30.59,50.9-33.18,63.32-5.27,24.81-7.03,50.55-6.41,76.49.6,25.97,3.52,52.14,7.44,78.44,3.89,26.32,8.85,52.77,13.16,79.88,2.14,13.56,4.12,27.3,5.48,41.39.69,7.04,1.19,14.17,1.44,21.42.24,7.24.23,14.6-.22,22.11-.43,7.49-1.34,15.13-2.89,22.86-.78,3.87-1.77,7.75-2.92,11.64-1.19,3.89-2.6,7.76-4.23,11.6-1.65,3.84-3.57,7.61-5.72,11.29-2.15,3.67-4.61,7.21-7.27,10.59-5.34,6.76-11.65,12.73-18.43,17.7l-2.57,1.84c-.86.59-1.73,1.14-2.6,1.71s-1.74,1.14-2.69,1.69c-.92.57-1.87,1.1-2.82,1.63-3.8,2.11-7.8,3.95-11.91,5.49-8.23,3.08-16.92,4.84-25.35,5.45-8.45.61-16.64.14-24.44-.92-7.8-1.07-15.22-2.7-22.34-4.6-14.24-3.81-27.4-8.57-40.1-13.02-12.68-4.47-24.94-8.67-36.86-11.7-11.91-3.03-23.48-4.79-34.27-4.37-10.8.38-20.77,2.94-30.08,7.81-9.29,4.83-17.93,11.98-25.78,20.61-1.96,2.16-3.89,4.39-5.74,6.72-.93,1.14-1.88,2.37-2.73,3.52l-2.53,3.45c-3.29,4.69-6.25,9.72-8.97,14.98-5.41,10.52-9.73,21.96-13.11,33.88-1.69,5.96-3.19,12.04-4.45,18.21-1.27,6.17-2.4,12.41-3.29,18.72-3.03,20.94-4.27,42.41-4.32,64.06l-16.46,6.8-19.72,8.03c-2.02-19.82-3.37-39.67-3.78-59.42-.52-26.15.53-52.2,4.19-77.44.89-6.32,2.02-12.55,3.29-18.72,1.26-6.17,2.75-12.25,4.45-18.21,3.38-11.93,7.7-23.37,13.11-33.88,2.71-5.25,5.68-10.28,8.97-14.98l2.53-3.45c.86-1.15,1.81-2.38,2.73-3.52,1.86-2.34,3.79-4.56,5.74-6.72,7.86-8.63,16.49-15.78,25.78-20.61,9.31-4.87,19.27-7.43,30.08-7.81,10.79-.42,22.37,1.34,34.27,4.37,11.93,3.03,24.18,7.23,36.86,11.7,12.7,4.45,25.85,9.21,40.1,13.02,7.12,1.9,14.55,3.53,22.34,4.6,7.79,1.06,15.99,1.53,24.44.92,8.44-.61,17.12-2.37,25.35-5.45,4.11-1.54,8.11-3.38,11.91-5.49.95-.53,1.9-1.06,2.82-1.63.95-.55,1.83-1.12,2.69-1.69.87-.57,1.74-1.12,2.6-1.71l2.57-1.84c6.77-4.97,13.09-10.94,18.43-17.7,2.66-3.38,5.12-6.92,7.27-10.59,2.15-3.68,4.07-7.46,5.72-11.29,1.63-3.84,3.04-7.71,4.23-11.6,1.15-3.89,2.14-7.77,2.92-11.64,1.55-7.73,2.46-15.38,2.89-22.87.46-7.51.47-14.87.22-22.11-.24-7.24-.74-14.38-1.44-21.42-1.36-14.09-3.34-27.83-5.48-41.39-4.32-27.11-9.27-53.56-13.16-79.88-3.92-26.3-6.84-52.47-7.44-78.44-.62-25.95,1.13-51.68,6.41-76.49,2.59-12.42,6.02-24.59,10.23-36.48,1.44-4.06,2.97-8.08,4.61-12.06,5.76-5.41,11.9-10.36,18.33-14.78,19.1-13.18,41-21.88,63.14-24.37,5.52-.61,11.05-.9,16.52-.69,2.73.05,5.45.29,8.14.53,2.69.33,5.38.65,8,1.18,5.29.97,10.42,2.4,15.38,4.2,4.92,1.87,9.69,4.05,14.15,6.7,8.97,5.26,16.82,12.17,23.32,20.35,3.22,4.11,6.13,8.53,8.69,13.2,2.54,4.69,4.72,9.63,6.58,14.76,1.28,3.51,2.39,7.11,3.34,10.77h.03Z" style="fill: #c5744c; stroke-width: 0px;"/>
  <path d="M1639.5,1257.04c-.46.35-.92.68-1.38,1.02-4.53,3.32-9.04,6.58-13.63,9.83l-13.83,9.74c-37.04,25.72-74.97,50.25-113.7,73.58-38.74,23.31-78.16,45.61-118.12,66.96l-7.49,4.02-7.52,3.95-15.05,7.91c-10.09,5.16-20.12,10.44-30.25,15.53l-15.18,7.68-15.23,7.58c-10.13,5.08-20.38,9.98-30.56,14.98-40.87,19.74-82.09,38.83-123.61,57.33-41.49,18.54-83.28,36.5-125.29,53.92l-15.08,6.23c.04-21.65,1.29-43.13,4.32-64.06.89-6.32,2.02-12.55,3.29-18.72,1.25-6.17,2.75-12.25,4.45-18.21,3.38-11.93,7.7-23.37,13.11-33.88,2.71-5.25,5.68-10.28,8.97-14.98l2.53-3.45c.86-1.15,1.81-2.38,2.73-3.52,1.86-2.34,3.79-4.56,5.74-6.72,7.86-8.63,16.49-15.78,25.78-20.61,9.31-4.87,19.27-7.43,30.08-7.81,10.79-.42,22.37,1.34,34.27,4.37,11.93,3.03,24.18,7.23,36.86,11.7,12.7,4.45,25.85,9.21,40.1,13.02,7.12,1.9,14.55,3.53,22.34,4.6,7.79,1.06,15.99,1.53,24.44.92,8.44-.61,17.12-2.37,25.35-5.45,4.11-1.54,8.11-3.38,11.91-5.49.95-.53,1.9-1.06,2.82-1.63.95-.55,1.83-1.12,2.69-1.69.87-.57,1.74-1.12,2.6-1.71l2.57-1.84c6.77-4.97,13.09-10.94,18.43-17.7,2.66-3.38,5.12-6.92,7.27-10.59,2.15-3.68,4.07-7.46,5.72-11.29,1.63-3.84,3.04-7.71,4.23-11.6,1.15-3.89,2.14-7.77,2.92-11.64,1.55-7.73,2.46-15.38,2.89-22.86.46-7.51.47-14.87.22-22.11s-.75-14.38-1.44-21.42c-1.36-14.09-3.34-27.83-5.48-41.39-4.32-27.11-9.27-53.56-13.16-79.88-3.92-26.3-6.84-52.47-7.44-78.44-.62-25.95,1.13-51.68,6.41-76.49,2.59-12.42,14.95-47.19,33.18-63.32,17.38-15.38,41-21.88,63.14-24.38,5.52-.61,11.05-.9,16.52-.69,2.73.05,5.45.29,8.14.53,2.69.33,5.38.65,8,1.18,5.29.97,10.42,2.4,15.38,4.2,4.92,1.87,9.69,4.05,14.15,6.7.62.37,1.24.73,1.86,1.12,1.85,7.07,3.13,14.41,3.91,21.9,1.17,11.38,1.21,23.08.41,34.84-.44,5.9-1.07,11.8-1.89,17.71-.82,5.92-1.88,11.84-3.03,17.75l-1.97,9.49c-.68,3.56-1.31,7.13-1.78,10.76-.99,7.24-1.5,14.64-1.5,22.13.04,14.97,2.36,30.43,7.81,45.16,5.36,14.74,13.9,28.63,24.91,40.12,4.07,4.25,8.47,8.18,13.11,11.75.62,2.05,1.32,4.08,2.06,6.1,5.36,14.74,13.9,28.63,24.91,40.12,11.01,11.5,24.34,20.6,38.74,26.79,14.41,6.21,29.83,9.64,45.36,10.25,2.33.09,4.65.13,6.98.09h0Z" style="fill: #e9a24a; stroke-width: 0px;"/>
  <path d="M2042.88,782.38c-16.17,38.72-36.02,76.06-58.33,111.96-23.58,37.87-49.87,74.21-78.1,109.05-28.24,34.84-58.46,68.18-90.07,100.17-16.54,16.73-33.48,33.09-50.78,49.05.17-.68.35-1.36.51-2.03,1.78-7.18,3.05-14.41,3.98-21.6.45-3.6.82-7.2,1.07-10.78.13-1.8.27-3.59.34-5.38l.12-2.68.07-2.57c.44-13.75.07-27.52-1.08-41.15-2.2-27.3-7.46-54.01-14.14-79.8-6.71-25.79-14.91-50.67-22.71-74.99-7.79-24.33-15.3-48.14-20.31-71.72-5.04-23.55-7.46-46.84-5.59-69.48.92-11.33,2.88-22.48,5.92-33.4.35-1.38.76-2.73,1.18-4.09.43-1.36.81-2.72,1.26-4.07.94-2.69,1.81-5.41,2.86-8.06,1.98-5.37,4.31-10.63,6.73-15.87,1.27-2.54,2.59-5.37,3.73-7.47,1.22-2.21,2.49-4.39,3.87-6.47,1.39-2.08,2.85-4.1,4.39-6.06,1.57-1.95,3.22-3.85,4.96-5.69,6.98-7.38,15.72-14,25.72-20.52,9.98-6.51,21.05-12.98,32.27-19.96,11.23-6.97,22.62-14.48,33.6-22.71,10.99-8.22,21.58-17.14,31.54-26.66,9.96-9.52,19.29-19.62,28.02-30.11,17.38-20.9,32.85-43.66,45.45-68.08,12.59-24.42,22.31-50.51,28.33-77.55,1.7-7.59,3.11-15.26,4.2-22.98,76.3,87.97,115.94,211.49,71,391.71h0Z" style="fill: #e9a24a; stroke-width: 0px;"/>
  <path d="M2121.25,512.74c-1.86-11.78-4.17-23.5-6.95-35.09-.65-2.89-1.47-5.84-2.23-8.76-.83-2.91-1.64-5.83-2.53-8.71-1.75-5.79-3.65-11.52-5.71-17.18-2.04-5.66-4.21-11.27-6.54-16.8-2.31-5.54-4.72-11.03-7.31-16.43-2.58-5.4-5.26-10.73-8.09-15.99-2.8-5.26-5.7-10.46-8.73-15.58-24.29-40.92-55.27-77.11-90.36-107.98-17.44-15.38-35.99-29.38-55.4-41.88-2.92-12.49-6.76-24.74-11.45-36.68-10.17-25.94-24.44-50.24-42.02-71.76-8.78-10.76-18.43-20.79-28.7-30.09-10.33-9.23-21.29-17.73-32.83-25.31-23.04-15.24-48.25-26.9-74.35-35.06-26.12-8.16-53.21-12.55-80.19-13.58-26.99-1.06-53.86,1.25-79.98,6.21-8.83,1.69-17.57,3.68-26.22,5.98-1.46-.72-2.93-1.43-4.4-2.11-8.72-3.96-17.71-7.45-26.87-10.34-9.15-2.92-18.46-5.35-27.85-7.35-9.39-2.01-18.86-3.62-28.35-4.83-19.01-2.45-38.13-3.5-57.18-3.41-19.06.05-38.04,1.36-56.91,3.13-37.76,3.58-75.14,9.39-112.14,16.67-37.01,7.3-73.64,16.11-109.91,26.09-72.52,20.01-143.63,44.55-213.27,72.56-69.62,28.1-137.8,59.68-204.33,94.47-33.25,17.4-66.1,35.61-98.47,54.66-32.37,19.04-64.27,38.91-95.58,59.71-62.64,41.57-123.15,86.56-180.36,135.73-57.19,49.15-111.15,102.48-159.5,161.03-24.15,29.28-46.89,59.86-67.57,91.93-20.7,32.05-39.4,65.56-55.3,100.54-15.92,34.96-28.93,71.44-38.18,109.03C6.24,963.15.82,1001.86.09,1040.78c-.37,19.45.41,38.93,2.33,58.3.47,4.85,1.05,9.69,1.63,14.43.58,4.68,1.2,9.42,1.88,14.16,1.34,9.49,2.87,19.01,4.68,28.57,3.66,19.09,8.45,38.32,15.5,57.31.84,2.38,1.83,4.73,2.76,7.09.92,2.37,1.98,4.71,3.01,7.06,1.03,2.41,2.06,4.55,3.09,6.76,1.02,2.2,2.1,4.4,3.18,6.59,4.32,8.78,8.96,17.51,14.07,26.09,5.1,8.59,10.74,17.02,16.93,25.16,3.11,4.05,6.33,8.06,9.74,11.93,1.67,1.95,3.45,3.83,5.18,5.73,1.8,1.86,3.54,3.71,5.44,5.56.78.77,1.56,1.53,2.36,2.28.44,5.02.94,10.04,1.5,15.06,4.91,43.29,14.13,86.72,30.52,128.34,4.03,10.42,8.67,20.63,13.68,30.71,2.53,5.03,5.14,10.02,7.91,14.95,2.8,4.91,5.66,9.78,8.69,14.58,6.05,9.59,12.57,18.94,19.62,27.92,3.52,4.49,7.16,8.92,10.93,13.19,1.88,2.15,3.77,4.3,5.71,6.37l2.9,3.14,2.97,3.07c15.86,16.36,33.33,30.97,51.75,44.02,18.43,13.07,37.91,24.45,57.97,34.45,10.03,5,20.21,9.67,30.53,13.98,10.32,4.29,20.76,8.22,31.28,11.87,21.05,7.33,42.49,13.34,64.11,18.25,1.61.37,3.22.72,4.85,1.07.91,1.99,1.88,3.95,2.9,5.89,5.14,9.76,11.68,18.79,19.31,26.73,15.27,15.88,34.88,27.43,56.46,32.74,10.77,2.65,22.07,3.71,33.38,2.85,11.3-.86,22.63-3.7,33.1-8.6,5.23-2.44,10.22-5.41,14.91-8.76,4.65-3.39,9.01-7.16,12.93-11.28,6.74-7.03,12.26-14.94,16.68-23.21,22.8-.71,45.54-2.31,68.15-4.68l8.16-.87,8.14-.97c5.43-.6,10.84-1.39,16.25-2.11,5.41-.79,10.8-1.58,16.2-2.41,3.33-.55,6.65-1.06,9.98-1.61-3.44,21.23-7.55,42.43-12.06,63.6l-2.12,9.81-2.14,9.6c-.63,3.07-1.55,6.39-2.39,9.64-.43,1.62-.84,3.42-1.26,5.11-.41,1.72-.84,3.44-1.19,5.18-1.58,6.91-2.9,13.9-4.08,20.93-1.16,7.04-2.08,14.13-2.81,21.27-1.37,14.28-1.85,28.77-1,43.34.84,14.56,2.92,29.2,6.62,43.62,3.68,14.4,9,28.57,16.15,41.97,7.11,13.42,16.18,25.98,26.97,37.04,5.42,5.51,11.23,10.66,17.47,15.33,6.24,4.63,12.83,8.87,19.77,12.46,13.86,7.28,29.04,12.23,44.71,14.49,15.67,2.25,31.87,1.66,47.51-1.92,7.83-1.78,15.48-4.35,22.84-7.58,7.35-3.3,14.42-7.23,20.99-11.87,13.22-9.2,24.48-20.98,33.35-34.02,8.86-13.08,15.36-27.39,19.83-41.99,4.49-14.61,7.03-29.51,8.18-44.27,1.11-14.77.87-29.45-.37-43.88-1.26-14.43-3.47-28.64-6.42-42.59-1.48-6.98-3.11-13.91-4.94-20.75-.89-3.43-1.85-6.84-2.83-10.23l-2.79-9.67c-7.21-25.45-13.48-51.27-18.82-77.26-4.05-19.71-7.53-39.53-10.41-59.39l29.02-11.18,31.98-12.55c42.56-16.93,84.92-34.4,127.05-52.5,42.1-18.16,83.96-36.93,125.47-56.56,41.47-19.69,82.69-40,123.33-61.49,40.69-21.42,80.92-43.82,120.46-67.48,39.56-23.64,78.45-48.52,116.4-74.87l14.17-9.97c4.73-3.34,9.47-6.75,14.15-10.18,9.38-6.86,18.65-13.84,27.82-20.93,18.35-14.18,36.33-28.76,53.96-43.77,35.24-30.01,69.2-61.5,101.7-94.49,32.51-33,63.49-67.55,92.62-103.73,29.1-36.19,56.3-74.06,80.69-113.88,24.39-39.79,46.04-81.51,63.45-125.23,17.38-43.69,30.48-89.45,37.22-136.48,3.39-23.5,5.18-47.29,5.18-71.12s-1.84-47.69-5.56-71.26l.04-.04ZM454.4,1501.35c-4.17,17.65-9.07,35.45-13.78,53.66-4.68,18.22-9.28,36.84-12.25,56.44-.72,4.91-1.35,9.88-1.82,14.91-.46,5.04-.77,10.15-.87,15.32-.07,3.09-.04,6.18.09,9.32-4.78-1.2-9.54-2.46-14.29-3.74-9.98-2.7-19.86-5.7-29.63-8.98-19.54-6.55-38.69-14.11-57.18-22.92s-36.3-18.86-53.2-30.15c-16.88-11.29-32.72-24-47.16-38.02-7.21-7.02-14.1-14.31-20.5-22.04-6.43-7.71-12.45-15.8-18.09-24.19-5.63-8.4-10.88-17.1-15.85-26.01-4.93-8.93-9.47-18.11-13.8-27.44-15.78-34.42-27.55-71.16-37.13-108.82,3.11,1.9,6.32,3.67,9.6,5.33,4.95,2.48,10.09,4.66,15.37,6.51,10.55,3.67,21.66,5.94,32.72,6.7,11.07.79,22.05.12,32.59-1.54,10.55-1.67,20.68-4.34,30.36-7.54,4.85-1.6,9.58-3.35,14.22-5.18,2.32-.92,4.61-1.86,6.88-2.82l6.53-2.8c16.66-7.17,33.1-13.51,49.68-18.01,16.53-4.5,33.16-7.13,49.06-6.67,15.89.45,30.89,4.12,44.01,11.53,13.15,7.35,24.5,18.35,33.8,31.68.59.83,1.14,1.68,1.71,2.53.58.85,1.14,1.69,1.64,2.52l1.56,2.49,1.46,2.55c1.91,3.42,3.66,6.92,5.16,10.54.81,1.79,1.45,3.64,2.17,5.47.61,1.88,1.31,3.71,1.85,5.62,1.17,3.78,2.09,7.66,2.87,11.6,3.1,15.77,3.26,32.65,1.55,49.83-1.7,17.19-5.15,34.67-9.34,52.3v.02ZM690.89,1669.32c-16.74,1.29-33.51,2.17-50.26,2.64,1.22-7.29,1.97-14.55,2.37-21.69.57-9.97.55-20.03-.13-30.06-.69-10.02-2.03-20.01-3.95-29.74-1.89-9.75-4.31-19.26-6.91-28.47s-5.35-18.13-7.85-26.84c-2.5-8.68-4.66-17.14-6.45-25.55,2.53-4.05,5.21-7.95,8.07-11.64,3.82-4.9,7.92-9.43,12.32-13.44,4.41-3.98,9.1-7.43,14.01-10.11,9.83-5.44,20.4-7.63,30.93-6.44l1.98.25,1.98.32,4.39.88,4.31,1.06c1.4.42,2.82.8,4.21,1.22,5.54,1.77,10.79,4,15.69,6.74,9.81,5.45,18.01,13.1,24.53,22.46,6.51,9.38,11.25,20.42,14.66,32.16,3.41,11.76,5.48,24.23,6.69,36.92,1.18,12.71,1.54,25.66,1.28,38.7-.35,17.74-1.73,35.61-3.79,53.49-1.75.23-3.5.47-5.25.69-20.91,2.75-41.86,4.83-62.82,6.44h-.01ZM967.17,1873.97c1.15,12.51,1.41,24.97.57,37.17-.89,12.19-2.89,24.13-6.27,35.41-3.38,11.27-8.21,21.84-14.43,31.23-6.24,9.37-13.93,17.53-22.85,23.89-8.91,6.4-19.02,11.02-29.73,13.57-10.7,2.57-21.99,3.14-33.11,1.65-11.11-1.48-22.07-4.88-32.21-10.08-10.17-5.16-19.53-12.07-27.72-20.26-8.17-8.23-15.24-17.71-20.96-28.12-5.72-10.39-10.16-21.65-13.35-33.4-6.38-23.53-7.75-48.85-5.63-74.11.56-6.33,1.29-12.65,2.23-18.98.99-6.33,2.08-12.64,3.43-18.94.31-1.57.67-3.14,1.03-4.71.37-1.59.68-3.11,1.09-4.76.81-3.31,1.65-6.51,2.36-10.07l2.13-10.23,2.04-10.05c5.09-25.52,9.58-51.24,13.08-77.22.17-1.31.35-2.62.52-3.93,1.49-11.56,2.8-23.16,3.82-34.83,1.39-15.92,2.24-31.96,2.32-48.13.06-14.02-.53-28.14-2.07-42.34-1.59-14.2-4.14-28.5-8.48-42.67-4.34-14.12-10.51-28.22-19.64-40.98-4.57-6.35-9.87-12.3-15.82-17.6-5.95-5.3-12.6-9.84-19.62-13.5-7.01-3.67-14.38-6.49-21.81-8.49-1.87-.5-3.73-.93-5.6-1.38l-5.6-1.09-5.61-.84-3.05-.33-3.07-.22c-8.21-.41-16.6.48-24.52,2.75-7.93,2.22-15.35,5.81-21.96,10.19-6.6,4.41-12.43,9.61-17.53,15.23-2.92,3.24-5.61,6.63-8.09,10.11-1.14-14.95-.77-30.26.6-45.98.83-8.94,1.86-18.02,3.1-27.2,1.21-9.19,2.63-18.48,3.74-28.06l-.9-.36c-5.9,7.65-10.94,15.81-15.47,24.31-4.5,8.51-8.49,17.36-11.74,26.56-3.23,9.21-5.87,18.75-7.58,28.58-1.77,9.81-2.61,19.9-2.57,30,.08,10.09,1.05,20.2,2.81,30.01,1.08,6.1,2.44,12.08,3.93,17.94.9,3.56,1.85,7.08,2.8,10.56,1.38,4.98,2.78,9.86,4.15,14.67,1.16,4.08,2.32,8.12,3.4,12.12,2.37,8.71,4.44,17.26,6.01,25.79,3.19,17.03,4.18,34.06,3,51.26-.3,4.35-.69,8.5-1.28,12.64-.54,3.92-1.24,7.77-2.12,11.55-.04.21-.08.42-.13.62-1.85,7.95-4.43,15.54-7.87,22.44-3.8,7.72-8.69,14.52-14.52,20.01-4.61,4.38-9.81,7.93-15.51,10.48-12.82,5.89-28.1,6.74-42.62,2.99-13.66-3.49-26.51-10.91-36.62-20.94-.66-.65-1.32-1.33-1.95-2-10.44-11.04-17.57-24.93-20.56-39.88-.46-2.2-.82-4.44-1.09-6.68-.19-1.57-.34-3.14-.46-4.72-.23-3.87-.35-7.98-.2-12.09.12-4.11.4-8.3.83-12.51.45-4.22,1.01-8.49,1.67-12.77,2.73-17.18,7.15-34.71,11.89-52.46,4.74-17.76,9.87-35.79,14.42-54.31,4.54-18.52,8.52-37.58,10.65-57.39,2.12-19.78,2.3-40.52-1.6-61.33-.98-5.18-2.17-10.37-3.7-15.49-.71-2.58-1.61-5.11-2.45-7.65-.95-2.51-1.84-5.05-2.91-7.52-2.03-4.98-4.4-9.84-6.99-14.55l-1.98-3.52-2.1-3.45c-.7-1.16-1.42-2.25-2.14-3.34-.72-1.08-1.43-2.18-2.17-3.25-2.98-4.32-6.18-8.53-9.58-12.62-3.42-4.08-7.09-8.02-10.99-11.78-7.77-7.53-16.63-14.23-26.23-19.73-9.59-5.51-19.98-9.72-30.59-12.54-10.61-2.84-21.43-4.31-32.07-4.7-10.66-.4-21.14.27-31.35,1.65-10.21,1.4-20.16,3.5-29.85,6.07-19.37,5.15-37.74,12.19-55.28,19.61l-6.31,2.66c-2.02.84-4.03,1.65-6.04,2.43-4.02,1.57-8.02,3.01-12.02,4.31-7.98,2.6-15.92,4.6-23.75,5.78-7.83,1.2-15.54,1.57-23.03,1.01-7.5-.57-14.75-2.11-21.75-4.58-13.99-4.94-26.91-13.88-38.36-25.34-1.44-1.41-2.86-2.95-4.3-4.44-1.38-1.55-2.81-3.05-4.13-4.64-2.73-3.11-5.32-6.39-7.86-9.71-.19-.26-.38-.51-.56-.77h0l-13.62-20.64h0c-4.33-7.38-8.36-15.02-12.16-22.88-.96-1.99-1.92-3.97-2.84-5.99-.93-2.01-1.9-4.06-2.68-5.94-.82-1.92-1.68-3.81-2.43-5.79-.77-1.97-1.57-3.9-2.27-5.92-5.86-15.92-10.08-32.91-13.37-50.34-1.63-8.72-3.02-17.58-4.24-26.51-.61-4.47-1.19-8.96-1.74-13.5-.53-4.5-1.05-8.89-1.46-13.3-1.69-17.66-2.34-35.4-1.94-53.15.79-35.49,5.75-70.9,14.33-105.54,8.59-34.65,20.76-68.51,35.66-101.27,14.89-32.75,32.53-64.39,52.19-94.83,19.67-30.44,41.34-59.71,64.47-87.85,23.16-28.14,47.8-55.15,73.56-81.11,25.74-25.99,52.62-50.93,80.36-74.94,55.52-47.97,114.41-92.26,175.54-133.23,61.18-40.95,124.54-78.77,189.63-113.37,65.1-34.61,131.88-66.09,200.06-94.14,68.16-28.06,137.7-52.8,208.46-72.98,35.37-10.07,71.04-19,106.97-26.42,35.92-7.4,72.1-13.34,108.39-17.11,18.14-1.88,36.29-3.12,54.42-4.2,18.12-1.03,36.23-1.79,54.36-1.98,18.13-.23,36.27.05,54.5,1.15,2.3.11,4.56.32,6.86.44,1.74.15,3.51.27,5.25.41-9.11,2.98-18.1,6.26-26.95,9.86-12.14,4.95-24.05,10.37-35.62,16.36-11.59,5.96-22.89,12.41-33.76,19.51l.58,1.24c12.42-3.71,24.73-7.38,37.09-10.72,12.35-3.34,24.69-6.43,37.08-9.1,12.38-2.68,24.75-5.07,37.15-6.96s24.8-3.37,37.18-4.38c24.76-1.93,49.46-2.03,73.73.42,24.25,2.41,48.08,7.23,70.86,14.8,22.77,7.56,44.45,18.08,64.04,31.53,9.81,6.68,19.06,14.14,27.73,22.17,8.63,8.08,16.68,16.76,23.98,26.03,12.9,16.36,23.51,34.45,31.47,53.63l1.56,3.88c.5,1.25.98,2.51,1.45,3.77,8.2,22.02,13.06,45.28,14.27,68.78,1.28,23.5-1.02,47.2-6.51,70.21-5.47,23.02-14.13,45.34-25.38,66.41-11.22,21.08-24.96,40.93-40.62,59.35-15.59,18.37-32.9,34.68-52.17,48.81-9.62,7.1-19.74,13.67-30.38,20.15-10.62,6.5-21.81,12.88-33.39,20.33-5.77,3.74-11.64,7.75-17.45,12.28-5.81,4.5-11.54,9.55-16.92,15.13-2.67,2.81-5.26,5.74-7.73,8.78-2.45,3.06-4.78,6.24-6.96,9.5-2.18,3.25-4.18,6.61-6.07,10.01-1.93,3.53-3.34,6.53-4.94,9.72-3.03,6.39-5.91,12.88-8.4,19.56-1.31,3.31-2.43,6.7-3.59,10.08-.57,1.69-1.07,3.41-1.61,5.12-.53,1.7-1.05,3.42-1.5,5.15-3.88,13.8-6.42,28.05-7.62,42.31-1.18,14.27-1.08,28.57.14,42.55.58,7,1.47,13.92,2.53,20.75,1.05,6.85,2.33,13.6,3.75,20.26,5.72,26.68,13.72,51.92,21.69,76.46,7.97,24.54,15.91,48.46,22.21,72.36,6.35,23.88,11.14,47.74,13.21,71.65,1.1,11.95,1.46,23.9,1.2,35.81l-.03,2.23-.09,2.13c-.04,1.42-.13,2.84-.22,4.24-.17,2.82-.44,5.6-.76,8.38-.66,5.54-1.58,11-2.84,16.29-2.5,10.59-6.29,20.6-11.41,29.56-5.12,8.97-11.58,16.89-19.22,23.34-7.62,6.48-16.44,11.49-25.95,14.78-9.5,3.29-19.68,4.85-29.82,4.56-10.13-.27-20.21-2.4-29.45-6.23s-17.59-9.42-24.44-16.39c-6.85-6.98-12.19-15.35-15.74-24.68-3.57-9.34-5.43-19.61-5.62-30.31-.08-5.35.18-10.79.85-16.28.31-2.74.74-5.5,1.21-8.26l1.8-9.39c1.2-6.71,2.29-13.46,3.12-20.27.83-6.83,1.46-13.69,1.85-20.62.72-13.86.48-27.94-1.22-42.09-1.7-14.13-4.91-28.37-10.15-42.18-2.63-6.9-5.76-13.67-9.45-20.21-3.71-6.53-7.99-12.81-12.79-18.72-9.66-11.76-21.56-21.94-34.95-29.35-13.34-7.51-28-12.27-42.77-14.51-14.79-2.24-29.7-1.91-44.07.42-13.97,2.29-27.41,6.49-40.03,12.21,5.83-7.7,12.03-15.21,18.57-22.52,8.75-9.81,18.13-19.2,27.87-28.43,9.78-9.18,20.05-18.02,30.44-27.03-6.45,2.38-12.83,4.97-19.06,7.9-1.55.72-3.14,1.42-4.68,2.19l-4.62,2.31c-3.1,1.54-6.12,3.19-9.16,4.86-12.1,6.71-23.81,14.33-34.9,22.92-22.19,17.12-42.09,38.12-57.6,62.4-7.53,11.72-14.02,24.15-19.4,37.04-5.75,13.75-10.26,28.03-13.5,42.51-5.54,24.64-7.92,49.69-8.17,74.47-.05,3.44-.04,6.87,0,10.29.33,28.14,3.12,55.88,6.85,83.11,3.71,27.23,8.41,54.03,12.28,80.39,1.93,13.17,3.63,26.24,4.72,39.1,1.07,12.85,1.59,25.51.77,37.52-.8,11.99-2.96,23.3-7.15,32.77-4.17,9.49-10.29,17.06-18.59,23.04l-1.58,1.11c-.53.36-1.09.69-1.63,1.05-.55.36-1.09.7-1.61,1-.52.32-1.05.6-1.58.9-2.11,1.16-4.29,2.12-6.52,2.93-4.45,1.62-9.16,2.56-14.21,2.9-10.09.67-21.51-1.27-33.35-4.54-11.88-3.26-24.17-7.77-36.95-12.39-12.78-4.59-26.08-9.39-40.37-13.07-14.25-3.68-29.66-6.36-45.94-5.85-8.11.24-16.4,1.35-24.5,3.39s-16,5.07-23.35,8.86c-7.37,3.8-14.19,8.34-20.44,13.33-6.24,4.99-11.94,10.42-17.12,16.09-2.59,2.84-5.09,5.73-7.46,8.68-1.19,1.48-2.33,2.92-3.5,4.47-1.16,1.58-2.34,3.14-3.47,4.73-4.49,6.38-8.42,13.01-11.92,19.77-7,13.52-12.24,27.53-16.27,41.6-2.02,7.04-3.76,14.11-5.23,21.18-1.47,7.07-2.75,14.15-3.78,21.22-4.13,28.31-5.18,56.5-4.65,84.43.56,25.18,2.42,50.16,5.31,74.94,1.44,12.43,3.14,24.81,5.07,37.14,2.77,17.63,5.98,35.18,9.57,52.63,5.59,27,12.14,53.77,19.83,80.32l2.88,9.81c.91,3.1,1.81,6.19,2.62,9.31,1.7,6.21,3.21,12.45,4.57,18.69,2.72,12.5,4.75,25.05,5.92,37.56h-.02ZM2081.36,649.13c-6.6,43.33-19.19,85.85-35.84,126.82-16.63,41.02-37.42,80.51-60.97,118.39-23.58,37.87-49.87,74.21-78.1,109.05-28.24,34.84-58.46,68.18-90.07,100.17-31.62,31.99-64.7,62.61-99.01,91.73-17.17,14.54-34.6,28.76-52.36,42.52-8.89,6.87-17.85,13.63-26.87,20.25-4.53,3.32-9.04,6.58-13.63,9.83l-13.83,9.74c-37.04,25.72-74.97,50.25-113.7,73.58-38.74,23.31-78.16,45.61-118.12,66.96l-7.49,4.02-7.52,3.95-15.05,7.91c-10.09,5.16-20.12,10.44-30.25,15.53l-15.18,7.68-15.23,7.58c-10.13,5.08-20.38,9.98-30.56,14.98-40.87,19.74-82.09,38.83-123.61,57.33-41.49,18.54-83.28,36.5-125.29,53.92l-31.54,13.03-19.72,8.03c-2.02-19.82-3.37-39.67-3.78-59.42-.52-26.15.53-52.2,4.19-77.44.89-6.32,2.02-12.55,3.29-18.72,1.26-6.17,2.75-12.25,4.45-18.21,3.38-11.93,7.7-23.37,13.11-33.88,2.71-5.25,5.68-10.28,8.97-14.98l2.53-3.45c.86-1.15,1.81-2.38,2.73-3.52,1.86-2.34,3.79-4.56,5.74-6.72,7.86-8.63,16.49-15.78,25.78-20.61,9.31-4.87,19.27-7.43,30.08-7.81,10.79-.42,22.37,1.34,34.27,4.37,11.93,3.03,24.18,7.23,36.86,11.7,12.7,4.45,25.85,9.21,40.1,13.02,7.12,1.9,14.55,3.53,22.34,4.6,7.79,1.06,15.99,1.53,24.44.92,8.44-.61,17.12-2.37,25.35-5.45,4.11-1.54,8.11-3.38,11.91-5.49.95-.53,1.9-1.06,2.82-1.63.95-.55,1.83-1.12,2.69-1.69.87-.57,1.74-1.12,2.6-1.71l2.57-1.84c6.77-4.97,13.09-10.94,18.43-17.7,2.66-3.38,5.12-6.92,7.27-10.59,2.15-3.68,4.07-7.46,5.72-11.29,1.63-3.84,3.04-7.71,4.23-11.6,1.15-3.89,2.14-7.77,2.92-11.64,1.55-7.73,2.46-15.38,2.89-22.87.46-7.51.47-14.87.22-22.11-.24-7.24-.74-14.38-1.44-21.42-1.36-14.09-3.34-27.83-5.48-41.39-4.32-27.11-9.27-53.56-13.16-79.88-3.92-26.3-6.84-52.47-7.44-78.44-.62-25.95,1.13-51.68,6.41-76.49,2.59-12.42,6.02-24.59,10.23-36.48,1.44-4.06,2.97-8.08,4.61-12.06,5.76-5.41,11.9-10.36,18.33-14.78,19.1-13.18,41-21.88,63.14-24.37,5.52-.61,11.05-.9,16.52-.69,2.73.05,5.45.29,8.14.53,2.69.33,5.38.65,8,1.18,5.29.97,10.42,2.4,15.38,4.2,4.92,1.87,9.69,4.05,14.15,6.7,8.97,5.26,16.82,12.17,23.32,20.35,3.22,4.11,6.13,8.53,8.69,13.2,2.54,4.69,4.72,9.63,6.58,14.76,3.72,10.27,6.06,21.3,7.24,32.67,1.17,11.38,1.21,23.08.41,34.84-.44,5.9-1.07,11.8-1.89,17.71-.82,5.92-1.88,11.84-3.03,17.75l-1.97,9.49c-.68,3.56-1.31,7.13-1.78,10.76-.99,7.24-1.5,14.64-1.5,22.13.04,14.97,2.36,30.43,7.81,45.16,5.36,14.74,13.9,28.63,24.91,40.12,11.01,11.5,24.34,20.6,38.74,26.79,14.41,6.21,29.83,9.64,45.36,10.25,15.52.64,31.17-1.53,46.01-6.45,14.83-4.91,28.82-12.61,40.9-22.61,6.06-4.97,11.6-10.54,16.63-16.48,5-5.96,9.47-12.33,13.33-18.96,7.75-13.27,13.19-27.52,16.71-41.87,1.78-7.18,3.05-14.41,3.98-21.6.45-3.6.82-7.2,1.07-10.78.13-1.8.27-3.59.34-5.38l.12-2.68.07-2.57c.44-13.75.07-27.52-1.08-41.15-2.2-27.3-7.46-54.01-14.14-79.8-6.71-25.79-14.91-50.67-22.71-74.99-7.78-24.33-15.3-48.14-20.31-71.72-5.04-23.55-7.46-46.84-5.59-69.48.92-11.33,2.88-22.48,5.92-33.4.35-1.38.75-2.73,1.18-4.09.43-1.36.81-2.72,1.26-4.07.94-2.69,1.81-5.41,2.86-8.06,1.98-5.37,4.31-10.63,6.73-15.87,1.27-2.54,2.59-5.37,3.73-7.47,1.22-2.21,2.49-4.39,3.87-6.47,1.39-2.08,2.85-4.1,4.39-6.06,1.57-1.95,3.22-3.85,4.96-5.69,6.98-7.38,15.72-14,25.72-20.52,9.98-6.51,21.05-12.98,32.27-19.96,11.23-6.97,22.62-14.48,33.6-22.71,10.99-8.22,21.58-17.14,31.54-26.66,9.96-9.52,19.29-19.62,28.02-30.11,17.38-20.9,32.85-43.66,45.45-68.08,12.59-24.42,22.31-50.5,28.33-77.55,6.05-27.03,8.38-55,6.47-82.79-.46-6.93-1.18-13.87-2.17-20.74,11.76,11.38,23.06,23.15,33.88,35.25,7.41,8.37,14.65,16.85,21.58,25.56,3.45,4.37,6.89,8.72,10.23,13.15,3.33,4.44,6.61,8.91,9.79,13.43,6.43,9.01,12.55,18.2,18.31,27.58,5.84,9.33,11.32,18.84,16.39,28.54,2.58,4.82,5.06,9.68,7.42,14.6,2.38,4.9,4.63,9.86,6.77,14.85,4.34,9.96,8.23,20.07,11.58,30.31,1.69,5.12,3.23,10.27,4.64,15.46.72,2.58,1.36,5.18,2.02,7.78l1.82,7.87c2.41,10.63,4.41,21.34,5.98,32.13,3.13,21.57,4.57,43.36,4.41,65.19-.2,21.82-2.05,43.65-5.36,65.3h.02Z" style="fill: #651449; stroke-width: 0px;"/>
  <path d="M2082.31,518.65c-1.57-10.78-3.57-21.5-5.98-32.13l-1.82-7.87c-.66-2.6-1.3-5.2-2.02-7.78-1.41-5.18-2.95-10.34-4.64-15.46-3.35-10.24-7.24-20.36-11.58-30.31-2.14-4.99-4.4-9.95-6.77-14.85-2.36-4.92-4.84-9.78-7.42-14.6-3.77-7.2-7.76-14.31-11.96-21.31-1.45-2.42-2.93-4.83-4.43-7.22-5.76-9.38-11.89-18.57-18.31-27.58-3.18-4.52-6.47-8.99-9.79-13.43-3.35-4.43-6.78-8.78-10.23-13.15-6.93-8.71-14.17-17.19-21.58-25.56-10.83-12.1-22.12-23.88-33.88-35.25.99,6.88,1.71,13.81,2.17,20.74,1.91,27.78-.42,55.76-6.47,82.79-6.02,27.05-15.74,53.14-28.33,77.55-12.6,24.43-28.08,47.19-45.45,68.08-8.72,10.49-18.06,20.59-28.02,30.11-9.96,9.52-20.55,18.44-31.54,26.66-10.98,8.23-22.36,15.74-33.6,22.71-11.22,6.98-22.29,13.45-32.27,19.96-10,6.52-18.74,13.14-25.72,20.52-1.73,1.85-3.39,3.74-4.96,5.69-1.54,1.96-3,3.98-4.39,6.06-1.38,2.08-2.64,4.25-3.87,6.47-1.14,2.1-2.47,4.93-3.73,7.47-2.43,5.23-4.75,10.5-6.73,15.87-1.05,2.65-1.92,5.37-2.86,8.06-.45,1.35-.83,2.71-1.26,4.07s-.84,2.71-1.18,4.09c-3.04,10.93-5,22.08-5.92,33.4-1.87,22.64.55,45.93,5.59,69.48,5.01,23.58,12.53,47.38,20.31,71.72,7.81,24.32,16,49.2,22.71,74.99,6.68,25.78,11.94,52.49,14.14,79.8,1.15,13.63,1.52,27.4,1.08,41.15l-.07,2.57-.12,2.68c-.07,1.79-.2,3.58-.34,5.38-.26,3.58-.62,7.18-1.07,10.78-.93,7.19-2.2,14.42-3.98,21.6-3.52,14.36-8.96,28.6-16.71,41.87-3.86,6.63-8.33,13-13.33,18.96-5.03,5.94-10.57,11.51-16.63,16.48-12.08,10-26.08,17.7-40.9,22.61-14.84,4.92-30.49,7.09-46.01,6.45-15.53-.61-30.96-4.04-45.36-10.25-9.07-3.9-17.71-8.96-25.63-15.04.62,2.05,1.32,4.08,2.06,6.1,5.36,14.74,13.9,28.63,24.91,40.12,11.01,11.5,24.34,20.6,38.74,26.79,14.41,6.21,29.83,9.64,45.36,10.25,2.33.09,4.65.13,6.98.09,8.57-6.3,17.06-12.71,25.5-19.23,17.76-13.75,35.19-27.98,52.36-42.52,16.37-13.89,32.46-28.12,48.23-42.68.17-.68.35-1.36.51-2.03,1.78-7.18,3.05-14.41,3.98-21.6.45-3.6.82-7.2,1.07-10.78.13-1.8.27-3.59.34-5.38l.12-2.68.07-2.57c.44-13.75.07-27.52-1.08-41.15-2.2-27.3-7.46-54.01-14.14-79.8-6.71-25.79-14.91-50.67-22.71-74.99-7.79-24.33-15.3-48.14-20.31-71.72-5.04-23.55-7.46-46.84-5.59-69.48.92-11.33,2.88-22.48,5.92-33.4.35-1.38.76-2.73,1.18-4.09.43-1.36.81-2.72,1.26-4.07.94-2.69,1.81-5.41,2.86-8.06,1.98-5.37,4.31-10.63,6.73-15.87,1.27-2.54,2.59-5.37,3.73-7.47,1.22-2.21,2.49-4.39,3.87-6.47,1.39-2.08,2.85-4.1,4.39-6.06,1.57-1.95,3.22-3.85,4.96-5.69,6.98-7.38,15.72-14,25.72-20.52,9.98-6.51,21.05-12.98,32.27-19.96,11.23-6.97,22.62-14.48,33.6-22.71,10.99-8.22,21.58-17.14,31.54-26.66,9.96-9.52,19.29-19.62,28.02-30.11,17.38-20.9,32.69-43.75,45.45-68.08,4.96-9.45,9.18-18.65,12.76-27.39,12.08-29.47,52.98-31.39,67.8-3.2,42.45,80.73,57.11,184.9,22.98,321.78.89-2.13,1.78-4.29,2.64-6.43,16.65-40.98,29.24-83.49,35.84-126.82,3.31-21.65,5.15-43.48,5.36-65.3.16-21.82-1.28-43.62-4.41-65.19h-.01Z" style="fill: #c5744c; stroke-width: 0px;"/>
  <path d="M1751.59,272.78c-1.07-19.59-5.33-38.98-12.54-57.33-.41-1.05-.83-2.1-1.27-3.15l-1.37-3.23c-6.99-15.99-16.31-31.07-27.63-44.7-6.41-7.72-13.48-14.96-21.06-21.7-7.62-6.69-15.74-12.91-24.36-18.48-17.2-11.21-36.25-19.98-56.25-26.28-20.01-6.31-41.35-7.9-62.23-12.34-88.91-18.91-201.41-14.4-217.32-13.54-15.92.9-31.86,1.94-47.8,3.5-14.49,1.43-28.96,3.23-43.41,5.36-26.77,5.56-53.39,12.02-79.81,19.15-62.14,16.82-123.22,37.45-183.08,60.84-59.88,23.39-118.53,49.63-175.7,78.47-57.17,28.84-112.81,60.36-166.54,94.5-53.69,34.16-105.4,71.07-154.17,111.06-24.36,20.01-47.97,40.81-70.57,62.47-22.63,21.64-44.27,44.16-64.61,67.61-20.31,23.46-39.35,47.86-56.62,73.23s-32.76,51.74-45.83,79.04c-13.08,27.3-23.77,55.53-31.32,84.41-7.53,28.87-11.89,58.39-12.58,87.97-.35,14.79-.43,29.66,1.7,44.3,19.61,134.5,107.31,175.81,162.6,165.55,8.63-1.6,17.25-3.9,26.22-5.06,7.03-.91,46.38.18,55.7,2.54,9.32,2.35,18.44,5.86,26.86,10.45,8.43,4.58,16.21,10.17,23.04,16.45,3.42,3.14,30.1,39.52,31.58,43.77,50.64,146.38,567.87-32.97,660.98-201.81,39.92-72.39,38.18-187.68,149.62-248.77,68.86-37.75,168.71,6.78,179.55-93.42.79,11.91,3.29-23.76,6.69-35.27.39-1.45.85-2.87,1.32-4.3s.91-2.86,1.42-4.27c1.02-2.82,2.01-5.65,3.15-8.4,2.19-5.57,4.71-10.98,7.37-16.3,1.41-2.66,2.64-5.16,4.34-8.11,1.66-2.83,3.41-5.63,5.33-8.34,1.92-2.71,3.96-5.37,6.11-7.92,2.17-2.53,4.44-4.98,6.79-7.32,4.72-4.65,9.76-8.86,14.86-12.61,5.1-3.78,10.25-7.12,15.32-10.24,10.17-6.22,20-11.53,29.33-16.95,9.35-5.4,18.23-10.88,26.68-16.8,16.92-11.78,32.12-25.38,45.82-40.69,13.75-15.35,25.82-31.9,35.67-49.47,9.87-17.56,17.48-36.17,22.29-55.36,4.82-19.18,6.84-38.94,5.72-58.52h.01ZM687.5,757.38c-36.82-3.7-50.89-38.23-52.29-42.08-.5-1.38-1.01-2.76-1.51-4.16-3.84-10.61-7.66-21.68-10.09-33.83-1.23-6.07-2.15-12.44-2.33-19.24-.13-6.8.54-14.18,3.25-21.7,1.35-3.74,3.24-7.47,5.65-10.91,1.21-1.73,2.54-3.36,3.97-4.92.73-.75,1.48-1.53,2.2-2.24l2.1-1.9c2.87-2.49,6.01-4.84,9.48-6.88,3.48-2.02,7.23-3.73,11.13-5.03,3.89-1.29,7.92-2.19,11.89-2.67,3.97-.48,7.89-.6,11.66-.46,7.59.28,14.58,1.6,21.16,3.2.18.04.36.09.53.14,3.09.79,6.1,1.64,9.04,2.56,3.09.98,6.11,2,9.08,3.04,5.91,2.1,11.6,4.3,17.15,6.42,11.08,4.27,21.71,8.32,31.96,11.02,10.23,2.71,19.98,3.91,28.32,2.66,4.18-.63,8.07-1.75,11.77-3.52,1.87-.83,3.66-1.96,5.39-3.04,1.65-1.17,3.25-2.34,4.64-3.68,1.39-1.34,2.71-2.72,3.84-4.28l.45-.57.4-.6c.26-.41.55-.79.81-1.21.1-.17.21-.34.3-.51.4-.67.82-1.34,1.16-2.07.49-.86.88-1.82,1.32-2.74.38-.98.81-1.91,1.14-2.93.73-1.99,1.29-4.13,1.8-6.34.51-2.2.88-4.52,1.21-6.87.28-2.39.53-4.81.65-7.31.3-4.97.22-10.15.04-15.44-.39-10.59-1.55-21.61-2.66-33.02-.56-5.7-1.08-11.52-1.48-17.49-.39-5.95-.63-12.1-.53-18.46.07-3.2.22-6.46.53-9.79.33-3.34.8-6.76,1.5-10.27.74-3.52,1.73-7.13,3.1-10.8,1.35-3.66,3.17-7.4,5.51-11.02,2.33-3.61,5.22-7.1,8.55-10.17.85-.75,1.69-1.51,2.57-2.23.9-.69,1.8-1.37,2.72-2.04,1.75-1.19,3.46-2.23,5.22-3.31,7.16-4.15,15.48-7.01,23.7-8.16,8.24-1.19,16.21-.86,23.52.18,3.56.5,6.98,1.17,10.3,1.95,3.5.82,6.89,1.76,10.17,2.76,6.4,1.94,12.35,4.18,18.12,6.43,5.76,2.25,11.31,4.52,16.71,6.68,5.39,2.16,10.65,4.18,15.76,5.93,5.1,1.73,10.07,3.19,14.74,4.12,4.67.92,9.01,1.28,12.78,1.03.94-.08,1.82-.24,2.73-.31.88-.15,1.7-.39,2.56-.54.19-.02.51-.14.79-.21l.84-.26,1.7-.49c1.09-.4,2.21-.74,3.29-1.16,4.32-1.63,8.36-3.64,12.1-6.11,3.71-2.51,7.2-5.37,10.36-8.74.13-.14.25-.26.37-.4,6.24-6.61,11.35-14.95,15.88-24.16,4.61-9.45,8.55-19.77,12.89-30.61,2.2-5.41,4.5-10.97,7.17-16.63,2.68-5.66,5.72-11.43,9.63-17.2,1.93-2.87,4.14-5.74,6.62-8.51,2.48-2.77,5.23-5.49,8.39-7.94,3.13-2.46,6.59-4.69,10.25-6.54,3.67-1.89,7.58-3.29,11.49-4.36,1.95-.56,3.92-.94,5.87-1.32.99-.18,1.95-.29,2.92-.43l1.46-.2,1.44-.13c3.87-.4,7.6-.37,11.28-.25,6.4.35,12.89,1.3,19.28,3.02.87.24,1.73.48,2.59.75,14.44,4.52,83.33,25.77,66.09,86.84-.68,2.41-1.53,4.77-2.34,7.15-.88,2.34-1.69,4.72-2.63,7.04-.93,2.33-1.85,4.68-2.86,6.97l-1.5,3.46-1.58,3.43c-3.43,7.32-7.24,14.48-11.31,21.5-.99,1.7-1.99,3.38-3,5.07-5.23,8.62-10.94,16.93-16.91,25.07-5.94,8.15-12.3,16-18.87,23.68-6.58,7.67-13.36,15.17-20.44,22.4-7.06,7.25-14.31,14.31-21.74,21.19-7.45,6.86-15.06,13.55-22.83,20.05-15.56,13.02-31.72,25.34-48.38,36.98-33.32,23.33-68.55,44.06-105.17,62.27-18.33,9.07-36.99,17.57-56,25.31-19.01,7.75-38.34,14.83-58,21.08-16.96,5.44-34.18,10.23-51.59,14.34-2.74.65-5.49,1.28-8.24,1.9-10.13,2.24-20.3,4.27-30.56,6-10.25,1.71-20.56,3.15-30.91,4.32-10.36,1.19-20.83,3.47-31.22,2.42v.03Z" style="fill: #e591be; stroke-width: 0px;"/>
  <path d="M1308.36,376.32c-1.23-11.75-4.02-23.26-8.18-34.07,3.54,22.95,1.59,45.83-4.31,67.36-1.58,5.76-3.42,11.43-5.48,17.01-.93-4.18-2.01-8.38-3.23-12.56-.26-.9-.5-1.8-.79-2.69l-.91-2.67c-.6-1.79-1.21-3.57-1.87-5.36-1.47-3.53-2.75-7.11-4.54-10.6l-1.28-2.62c-.41-.88-.85-1.75-1.35-2.61l-2.92-5.16c-1-1.71-2.18-3.37-3.28-5.05-.57-.84-1.1-1.69-1.7-2.51l-1.89-2.43c-9.72-13.09-24.43-24.08-40.87-29.5-8.21-2.64-16.63-4.04-24.91-4.52-4.19-.14-8.44-.18-12.85.3l-1.64.15-1.66.23c-1.1.17-2.2.31-3.33.52-2.22.45-4.46.91-6.68,1.58-4.45,1.29-8.9,2.97-13.08,5.23-4.17,2.22-8.11,4.9-11.67,7.85-3.59,2.95-6.72,6.2-9.55,9.53-2.83,3.33-5.35,6.76-7.54,10.21-4.46,6.92-7.92,13.85-10.97,20.63-3.04,6.78-5.66,13.46-8.16,19.95-4.95,13-9.43,25.39-14.68,36.72-5.25,11.27-11.21,21.47-18.5,29.47-3.6,4.05-7.57,7.48-11.79,10.49-4.25,2.96-8.86,5.37-13.77,7.33-1.22.5-2.5.91-3.74,1.39l-1.94.59-.96.31c-.32.09-.68.23-.9.26-.98.17-1.92.46-2.92.64-1.04.08-2.04.28-3.11.37-4.3.31-9.23-.13-14.55-1.23-5.32-1.12-10.98-2.87-16.78-4.95-5.83-2.09-11.8-4.52-17.95-7.11s-12.47-5.33-19.03-8.02c-6.57-2.69-13.35-5.39-20.63-7.71-7.26-2.34-14.96-4.41-23.3-5.65-8.33-1.24-17.4-1.64-26.78-.21-9.36,1.38-18.83,4.81-26.99,9.78-2.01,1.3-3.96,2.54-5.95,3.97-1.04.81-2.07,1.62-3.09,2.45-1,.87-1.96,1.78-2.93,2.67-3.8,3.68-7.08,7.87-9.73,12.2-2.66,4.35-4.73,8.84-6.27,13.22-1.56,4.41-2.68,8.73-3.53,12.96-.8,4.21-1.33,8.32-1.7,12.33-.35,4-.52,7.91-.6,11.74-.11,7.63.15,15.01.6,22.15.45,7.16,1.05,14.15,1.68,20.99,1.27,13.68,2.58,26.91,3.03,39.61.21,6.35.3,12.56-.04,18.52-.13,3-.42,5.9-.73,8.76-.38,2.82-.8,5.6-1.38,8.24s-1.22,5.21-2.05,7.6c-.38,1.23-.87,2.35-1.3,3.52-.5,1.1-.94,2.25-1.5,3.29-.5,1.09-1.11,2.07-1.67,3.09-.3.5-.62.96-.92,1.45l-.46.72-.51.68c-1.29,1.87-2.79,3.52-4.37,5.13s-3.41,3.02-5.29,4.42c-1.97,1.31-4,2.65-6.13,3.65-4.21,2.12-8.64,3.47-13.41,4.22-9.5,1.5-20.6.06-32.25-3.19-11.67-3.24-23.78-8.1-36.39-13.22-6.33-2.55-12.8-5.18-19.53-7.7-3.38-1.26-6.82-2.48-10.34-3.65-3.54-1.16-7.16-2.24-10.9-3.23-7.49-1.92-15.45-3.5-24.09-3.84-4.3-.17-8.75-.03-13.27.55-4.52.57-9.11,1.65-13.54,3.2-4.44,1.56-8.71,3.61-12.67,6.03-3.95,2.45-7.53,5.26-10.79,8.25l-2.39,2.28c-.82.85-1.67,1.79-2.5,2.68-1.62,1.87-3.14,3.83-4.52,5.9-2.74,4.13-4.9,8.6-6.44,13.09-3.09,9.03-3.85,17.89-3.7,26.04.2,8.15,1.25,15.79,2.65,23.08,2.76,14.58,7.11,27.86,11.49,40.59,2.17,6.35,4.4,12.56,6.37,18.63.93,2.85,1.82,5.67,2.6,8.47-5.73.13-11.46.13-17.18.04-11.11-.18-22.21-.93-33.24-2.28-11.04-1.3-21.99-3.32-32.79-5.97-5.42-1.3-10.76-2.88-16.08-4.56-2.63-.9-5.29-1.8-7.92-2.74-2.6-1.01-5.26-1.92-7.83-3.04l-3.88-1.62c-1.29-.56-2.55-1.16-3.83-1.74-2.57-1.14-5.07-2.43-7.59-3.68-1.28-.61-2.51-1.29-3.74-1.97l-3.72-2.03c-2.43-1.44-4.89-2.86-7.28-4.37-9.62-6.03-18.75-13-27.41-20.71,6.73,9.43,14.63,18.13,23.31,26.09,8.71,7.93,18.33,14.96,28.51,21.13,20.36,12.45,43.04,21,66.25,26.8,18.36,4.5,37.1,7.22,55.89,8.54,4.35.32,8.69.55,13.05.7.68.03,1.37.06,2.05.08,11.93.45,23.84.28,35.73-.3,11.89-.57,23.75-1.48,35.55-2.91,11.78-1.41,23.53-3.13,35.2-5.18,11.67-2.07,23.26-4.51,34.79-7.19,23.03-5.42,45.77-11.92,68.13-19.48,22.39-7.49,44.39-15.99,66.04-25.28,21.65-9.28,42.89-19.49,63.77-30.36,41.7-21.85,81.82-46.72,119.75-74.71,18.97-13.97,37.37-28.74,55.09-44.36,8.85-7.81,17.52-15.82,26-24.06,8.46-8.26,16.71-16.73,24.75-25.43,8.06-8.67,15.78-17.67,23.27-26.87,7.48-9.21,14.72-18.63,21.49-28.41,6.8-9.76,13.29-19.74,19.25-30.08,1.15-2.02,2.3-4.04,3.42-6.08,4.63-8.42,8.97-17.01,12.88-25.79l1.8-4.11,1.7-4.15c1.15-2.74,2.19-5.56,3.25-8.36,1.07-2.79,2-5.64,3-8.45.92-2.86,1.84-5.7,2.66-8.58,3.26-11.51,5.88-23.22,7.13-35.11.3-2.98.62-5.94.77-8.92.07-1.49.22-2.97.23-4.46l.08-4.47c-.01-5.95-.2-11.89-.89-17.76v-.02ZM1269.01,470.57c-5.71,9.55-11.88,18.85-18.5,27.81-6.62,8.99-13.53,17.76-20.8,26.25-7.3,8.47-14.77,16.78-22.55,24.85-7.76,8.07-15.81,15.89-23.95,23.6-8.16,7.7-16.54,15.18-25.09,22.47-8.53,7.32-17.22,14.46-26.03,21.45s-17.76,13.8-26.81,20.5c-9.08,6.65-18.25,13.18-27.54,19.56-37.14,25.52-75.93,48.7-115.83,69.66-9.98,5.24-20.05,10.32-30.18,15.24-.59.29-1.18.58-1.78.87-1.94.95-3.88,1.89-5.83,2.82-2.88,1.38-5.76,2.73-8.66,4.09-2.21,1.03-4.43,2.05-6.65,3.07-.14.06-.3.13-.45.2-2.41,1.1-4.83,2.19-7.24,3.29-10.25,4.65-20.62,9.06-31.01,13.4-10.41,4.3-20.89,8.39-31.4,12.36-5.26,1.99-10.56,3.88-15.86,5.76l-7.95,2.8-7.98,2.7c-1.97.65-3.95,1.3-5.92,1.94-.23.07-.46.15-.69.22-8.48,2.74-16.99,5.4-25.54,7.87-10.77,3.14-21.61,6.03-32.49,8.7-10.88,2.69-21.81,5.08-32.8,7.15-7.5,1.39-15.01,2.7-22.54,3.86-1.76.28-3.51.54-5.26.79-1.75.26-3.52.5-5.27.72-8.91,1.16-17.84,2.08-26.8,2.78.1-4.07-.05-8.06-.33-11.97-.53-7.34-1.57-14.39-2.75-21.25-2.36-13.71-5.47-26.72-7.47-39.03-.99-6.15-1.55-12.1-1.51-17.59.06-5.48.84-10.4,2.34-14.24.74-1.94,1.65-3.62,2.74-5.12.54-.77,1.15-1.46,1.79-2.15l1.02-1.03,1.37-1.2c1.83-1.55,3.67-2.9,5.57-3.99,1.91-1.06,3.85-1.9,5.87-2.53,4.02-1.28,8.52-1.66,13.54-1.3,5.01.34,10.5,1.54,16.16,3.18,11.37,3.38,23.39,8.61,35.87,14.05,12.54,5.43,25.63,11.18,40.16,15.64,3.63,1.11,7.38,2.11,11.2,3.01,3.84.88,7.8,1.61,11.85,2.17,4.06.54,8.24.86,12.5.95,4.26.08,8.62-.16,13-.69,8.75-1.06,17.58-3.62,25.64-7.47,4.07-1.88,7.83-4.16,11.56-6.6,3.67-2.56,7.26-5.32,10.56-8.5,3.29-3.15,6.4-6.56,9.09-10.24l1.02-1.37.96-1.41c.62-.94,1.28-1.88,1.87-2.84,1.16-1.93,2.34-3.86,3.33-5.84,1.07-1.97,1.94-3.97,2.86-5.97.82-2.01,1.68-4.02,2.36-6.04,1.47-4.04,2.57-8.07,3.52-12.07.95-4.01,1.62-7.97,2.2-11.9.51-3.91.95-7.81,1.19-11.62.54-7.65.61-15.09.44-22.39-.38-14.58-1.65-28.55-2.74-42.05-1.08-13.47-2.13-26.55-1.87-38.58.08-2.98.23-5.9.49-8.69.29-2.78.65-5.45,1.13-7.94,1.02-4.92,2.46-9.12,4.3-12.01.92-1.47,1.89-2.68,2.98-3.76.3-.24.56-.52.85-.78.32-.23.62-.47.92-.72.8-.53,1.73-1.11,2.57-1.69,3.51-2.1,7.1-3.4,11.22-4.06,4.11-.65,8.83-.59,13.98.16,5.15.74,10.7,2.14,16.43,3.96,5.72,1.82,11.68,4.07,17.76,6.48,6.09,2.42,12.33,5.03,18.77,7.66,6.47,2.63,13.15,5.29,20.2,7.72,7.06,2.43,14.48,4.68,22.54,6.28,8.05,1.56,16.84,2.46,26.15,1.67,2.33-.2,4.69-.59,7.03-.93,2.36-.44,4.71-1.07,7.05-1.65.63-.14,1.06-.31,1.56-.47l1.48-.47,2.93-.97c1.95-.73,3.91-1.42,5.83-2.24,7.69-3.23,15.17-7.36,22.02-12.34,6.81-5.01,13.06-10.75,18.41-17.01,2.73-3.09,5.16-6.34,7.53-9.6,2.29-3.3,4.49-6.61,6.45-9.99,4-6.73,7.32-13.57,10.34-20.36,5.95-13.57,10.48-26.97,14.97-39.57,2.23-6.31,4.48-12.39,6.87-18.12,2.4-5.72,4.96-11.08,7.78-15.71,2.82-4.65,5.9-8.53,9.18-11.43,3.32-2.88,6.8-4.93,10.99-6.22,4.13-1.37,9.04-1.88,14.33-1.82,5.35.2,10.48.94,15.31,2.32,4.81,1.47,9.26,3.65,13.46,6.45l1.56,1.08c.53.35,1.06.69,1.54,1.13.99.84,1.98,1.65,2.99,2.47,1.87,1.87,3.83,3.64,5.57,5.77l1.36,1.53c.44.52.84,1.11,1.27,1.66.83,1.13,1.7,2.2,2.51,3.38l2.37,3.59c.42.59.79,1.21,1.14,1.87l1.08,1.91c1.54,2.49,2.79,5.25,4.17,7.91l1.86,4.18.94,2.09c.3.71.57,1.44.86,2.16.43,1.07.84,2.14,1.24,3.22.79,2.07,1.53,4.16,2.24,6.29.41,1.2.82,2.42,1.2,3.64,2.43,7.59,4.49,15.47,6.2,23.49l1.01,4.81.51,2.4.13.7c-.35.59-.69,1.17-1.04,1.76h-.03Z" style="fill: #651449; stroke-width: 0px;"/>
  <path d="M800.31,795.47c-8.48,2.74-16.99,5.4-25.54,7.87-10.77,3.14-21.61,6.03-32.49,8.7-10.88,2.69-21.81,5.08-32.8,7.15-7.5,1.39-15.01,2.7-22.54,3.86-.51-2.67-.98-5.31-1.4-7.91-.99-6.15-1.55-12.1-1.51-17.59.06-5.48.84-10.4,2.34-14.24.74-1.94,1.65-3.62,2.74-5.12.54-.77,1.15-1.46,1.79-2.15l1.02-1.03,1.37-1.2c1.83-1.55,3.67-2.9,5.57-3.99,1.91-1.06,3.85-1.9,5.87-2.53,4.02-1.28,8.52-1.66,13.54-1.3,5.01.34,10.5,1.54,16.16,3.18,11.37,3.38,23.39,8.61,35.87,14.05,9.55,4.13,19.43,8.46,30.01,12.25h0Z" style="fill: #e9a24a; stroke-width: 0px;"/>
  <path d="M1262.19,437.42c-.29-.1-.57-.19-.87-.29-4.84-1.38-9.97-2.11-15.31-2.32-5.29-.06-10.19.45-14.33,1.82-4.19,1.3-7.67,3.35-10.99,6.22-3.29,2.9-6.37,6.77-9.18,11.43-2.83,4.63-5.4,9.99-7.79,15.71-2.39,5.73-4.63,11.81-6.87,18.12-4.49,12.6-9.02,26-14.98,39.57-3.01,6.78-6.33,13.62-10.33,20.35-1.97,3.38-4.16,6.69-6.45,9.99-2.38,3.27-4.8,6.51-7.53,9.6-5.35,6.25-11.6,12-18.41,17.01-6.85,4.98-14.32,9.1-22.02,12.34-1.92.83-3.89,1.51-5.83,2.24l-2.93.97-1.48.47c-.5.16-.93.33-1.57.47-2.33.58-4.68,1.21-7.04,1.65-2.34.34-4.7.72-7.03.93-9.32.79-18.1-.11-26.15-1.67-8.06-1.59-15.48-3.85-22.54-6.27-7.05-2.44-13.73-5.09-20.2-7.72-6.45-2.63-12.69-5.24-18.77-7.66-6.08-2.41-12.04-4.66-17.76-6.48-5.73-1.82-11.27-3.21-16.43-3.96-5.15-.75-9.87-.82-13.98-.16-4.12.66-7.72,1.96-11.22,4.06-.85.58-1.78,1.16-2.57,1.69-.31.26-.6.49-.92.72-.29.26-.55.53-.85.78-1.1,1.08-2.06,2.3-2.98,3.76-1.84,2.89-3.28,7.09-4.3,12.01-.48,2.49-.85,5.16-1.13,7.94-.26,2.8-.41,5.71-.49,8.69-.27,12.03.79,25.11,1.87,38.58,1.08,13.5,2.36,27.47,2.74,42.05.17,7.3.1,14.73-.44,22.39-.24,3.82-.68,7.71-1.19,11.62-.58,3.93-1.25,7.89-2.2,11.9-.54,2.28-1.13,4.57-1.82,6.87-1.94.95-3.88,1.89-5.83,2.82-2.88,1.38-5.76,2.73-8.66,4.09-2.21,1.03-4.43,2.05-6.65,3.07-.14.06-.3.13-.45.2-2.41,1.1-4.83,2.19-7.24,3.29-10.25,4.65-20.62,9.06-31.01,13.4-10.41,4.3-20.89,8.39-31.4,12.36-5.26,1.99-10.56,3.88-15.86,5.76l-7.95,2.8-7.98,2.7c-1.97.65-3.95,1.3-5.92,1.94-.23.07-.46.15-.69.22-10.58-3.8-20.46-8.12-30.01-12.25-12.49-5.44-24.51-10.67-35.87-14.05-5.66-1.64-11.15-2.85-16.16-3.18-5.02-.37-9.52.02-13.54,1.3-2.02.63-3.96,1.47-5.87,2.53-1.9,1.09-3.74,2.44-5.57,3.99l-1.37,1.2-1.02,1.03c-.63.69-1.24,1.39-1.79,2.15-1.09,1.5-2,3.18-2.74,5.12-1.5,3.85-2.28,8.76-2.34,14.24-.04,5.49.52,11.44,1.51,17.59.42,2.6.89,5.23,1.4,7.91-1.76.28-3.51.54-5.26.79-1.75.26-3.51.5-5.27.72-8.91,1.16-17.84,2.08-26.8,2.78.1-4.07-.05-8.06-.33-11.97-.53-7.34-1.57-14.39-2.75-21.25-2.36-13.71-5.47-26.72-7.47-39.03-.99-6.15-1.55-12.1-1.51-17.59.06-5.48.84-10.4,2.34-14.24.74-1.94,1.65-3.62,2.74-5.12.54-.77,1.15-1.46,1.79-2.15l1.02-1.03,1.37-1.2c1.83-1.55,3.67-2.9,5.57-3.99,1.91-1.06,3.85-1.9,5.87-2.53,4.02-1.28,8.52-1.66,13.54-1.3,5.01.34,10.5,1.54,16.16,3.18,11.37,3.38,23.39,8.61,35.87,14.05,12.54,5.43,25.63,11.18,40.16,15.64,3.63,1.11,7.38,2.11,11.2,3.01,3.84.88,7.8,1.61,11.85,2.17,4.06.54,8.24.86,12.5.95,4.26.08,8.62-.16,13-.69,8.75-1.06,17.58-3.62,25.64-7.47,4.07-1.88,7.83-4.16,11.56-6.6,3.67-2.56,7.26-5.32,10.56-8.5,3.29-3.15,6.4-6.56,9.09-10.24l1.02-1.37.96-1.41c.62-.94,1.28-1.88,1.87-2.84,1.16-1.93,2.34-3.86,3.33-5.84,1.07-1.97,1.94-3.97,2.86-5.97.82-2.01,1.68-4.02,2.36-6.04,1.47-4.04,2.57-8.07,3.52-12.07.95-4.01,1.62-7.97,2.2-11.9.51-3.91.95-7.81,1.19-11.62.54-7.65.61-15.09.44-22.39-.38-14.58-1.65-28.55-2.74-42.05-1.08-13.47-2.13-26.55-1.87-38.58.08-2.98.23-5.9.49-8.69.29-2.78.65-5.45,1.13-7.94,1.02-4.92,2.46-9.12,4.3-12.01.92-1.47,1.89-2.68,2.98-3.76.3-.24.56-.52.85-.78.32-.23.62-.47.92-.72.8-.53,1.73-1.11,2.57-1.69,3.51-2.1,7.1-3.4,11.22-4.06,4.11-.65,8.83-.59,13.98.16,5.15.74,10.7,2.14,16.43,3.96,5.72,1.82,11.68,4.07,17.76,6.48,6.09,2.42,12.33,5.03,18.77,7.66,6.47,2.63,13.15,5.29,20.2,7.72,7.06,2.43,14.48,4.68,22.54,6.28,8.05,1.56,16.84,2.46,26.15,1.67,2.33-.2,4.69-.59,7.03-.93,2.36-.44,4.71-1.07,7.05-1.65.63-.14,1.06-.31,1.56-.47l1.48-.47,2.93-.97c1.95-.73,3.91-1.42,5.83-2.24,7.69-3.23,15.17-7.36,22.02-12.34,6.81-5.01,13.06-10.75,18.41-17.01,2.73-3.09,5.16-6.34,7.53-9.6,2.29-3.3,4.49-6.61,6.45-9.99,4-6.73,7.32-13.57,10.34-20.36,5.95-13.57,10.48-26.97,14.97-39.57,2.23-6.31,4.48-12.39,6.87-18.12,2.4-5.72,4.96-11.08,7.78-15.71,2.82-4.65,5.9-8.53,9.18-11.43,3.32-2.88,6.8-4.93,10.99-6.22,4.13-1.37,9.04-1.88,14.33-1.82,5.35.2,10.48.94,15.31,2.32,4.81,1.47,9.26,3.65,13.46,6.45l1.56,1.08c.53.35,1.06.69,1.54,1.13.99.84,1.98,1.65,2.99,2.47,1.87,1.87,3.83,3.64,5.57,5.77l1.36,1.53c.44.52.84,1.11,1.27,1.66.83,1.13,1.7,2.2,2.51,3.38l2.37,3.59c.42.59.79,1.21,1.14,1.87l1.08,1.91c1.54,2.49,2.79,5.25,4.17,7.91l1.86,4.18.94,2.09c.3.71.57,1.44.86,2.16.43,1.07.84,2.14,1.24,3.22.78,2.07,1.53,4.16,2.24,6.29.41,1.2.82,2.42,1.2,3.64h0Z" style="fill: #c5744c; stroke-width: 0px;"/>
  <path d="M1270.05,468.81c-.35.59-.69,1.17-1.04,1.76-5.71,9.55-11.88,18.85-18.5,27.81-6.62,8.99-13.53,17.76-20.8,26.25-7.3,8.47-14.77,16.78-22.55,24.85-7.76,8.07-15.81,15.89-23.95,23.6-8.16,7.7-16.54,15.18-25.09,22.47-8.53,7.32-17.22,14.46-26.03,21.45s-17.76,13.8-26.81,20.5c-9.08,6.65-18.25,13.18-27.54,19.56-37.14,25.52-75.93,48.7-115.83,69.66-9.98,5.24-20.05,10.32-30.18,15.24-.59.29-1.18.58-1.78.87.68-2.3,1.28-4.59,1.82-6.87.95-4.01,1.62-7.97,2.2-11.9.51-3.91.95-7.81,1.19-11.62.54-7.65.61-15.09.44-22.39-.39-14.58-1.66-28.55-2.74-42.05-1.08-13.47-2.13-26.55-1.87-38.58.08-2.98.23-5.9.49-8.69.29-2.78.65-5.45,1.13-7.94,1.02-4.92,2.46-9.12,4.3-12.01.92-1.47,1.88-2.68,2.98-3.76.3-.24.56-.52.85-.78.32-.23.61-.47.92-.72.8-.53,1.72-1.11,2.57-1.69,3.5-2.1,7.1-3.4,11.22-4.06,4.11-.65,8.83-.59,13.98.16,5.15.74,10.69,2.14,16.43,3.96,5.72,1.82,11.68,4.07,17.76,6.48,6.08,2.42,12.33,5.03,18.77,7.66,6.47,2.63,13.15,5.29,20.2,7.72,7.06,2.43,14.48,4.68,22.54,6.27,8.05,1.56,16.84,2.46,26.15,1.67,2.33-.2,4.69-.59,7.03-.93,2.36-.44,4.71-1.07,7.04-1.65.64-.14,1.07-.31,1.57-.47l1.48-.47,2.93-.97c1.94-.73,3.91-1.42,5.83-2.24,7.69-3.23,15.17-7.36,22.02-12.34,6.81-5.01,13.06-10.75,18.41-17.01,2.73-3.09,5.15-6.34,7.53-9.6,2.29-3.3,4.48-6.61,6.45-9.99,4-6.73,7.32-13.57,10.33-20.35,5.96-13.57,10.49-26.97,14.98-39.57,2.23-6.31,4.48-12.39,6.87-18.12,2.39-5.72,4.96-11.08,7.79-15.71,2.82-4.65,5.9-8.53,9.18-11.43,3.32-2.88,6.8-4.93,10.99-6.22,4.13-1.37,9.04-1.88,14.33-1.82,5.35.2,10.48.94,15.31,2.32.3.09.58.18.87.29,2.43,7.59,4.49,15.47,6.2,23.49l1.01,4.81.51,2.4.13.7h-.02Z" style="fill: #e9a24a; stroke-width: 0px;"/>
  <path d="M341.72,761.19c-3.89,0-7.82-1.23-11.15-3.78-8.05-6.17-9.58-17.69-3.42-25.75l70.06-91.51c6.16-8.05,17.69-9.58,25.75-3.42,8.05,6.17,9.58,17.69,3.42,25.75l-70.06,91.51c-3.62,4.72-9.08,7.2-14.6,7.2Z" style="fill: #ed248e; stroke-width: 0px;"/>
  <path d="M562.07,575.3c-1.64,0-3.3-.22-4.96-.68-9.77-2.73-15.47-12.86-12.74-22.63l25.06-89.62c2.73-9.77,12.86-15.48,22.63-12.74,9.77,2.73,15.47,12.86,12.74,22.63l-25.06,89.62c-2.27,8.11-9.65,13.42-17.68,13.42h.01Z" style="fill: #6e5da8; stroke-width: 0px;"/>
  <path d="M1275.98,711.57c-4.89,0-9.78-1.94-13.39-5.79-6.94-7.39-6.58-19.02.81-25.96l66.54-62.5c7.39-6.94,19.02-6.58,25.96.81s6.58,19.02-.81,25.96l-66.54,62.5c-3.54,3.33-8.06,4.98-12.57,4.98Z" style="fill: #6e5da8; stroke-width: 0px;"/>
  <path d="M739.9,1075.03c-.31,0-.62,0-.94-.02-10.13-.51-17.93-9.13-17.42-19.26l4.58-91.18c.51-10.13,9.15-17.92,19.26-17.42,10.13.51,17.93,9.13,17.42,19.26l-4.58,91.18c-.49,9.82-8.61,17.45-18.33,17.45h.01Z" style="fill: #ed248e; stroke-width: 0px;"/>
  <path d="M597.68,1146.5c-7.21,0-14.06-4.28-16.98-11.36l-34.84-84.38c-3.87-9.38.59-20.11,9.97-23.98,9.37-3.87,20.11.59,23.98,9.97l34.84,84.38c3.87,9.38-.59,20.11-9.97,23.98-2.29.95-4.67,1.4-7,1.4h0Z" style="fill: #6e5da8; stroke-width: 0px;"/>
  <path d="M354.1,976.43c-5.83,0-11.57-2.77-15.13-7.94-5.76-8.35-3.66-19.79,4.68-25.55l75.14-51.85c8.35-5.76,19.79-3.66,25.55,4.68,5.76,8.35,3.66,19.79-4.68,25.55l-75.14,51.85c-3.18,2.2-6.82,3.25-10.41,3.25h0Z" style="fill: #fff; stroke-width: 0px;"/>
  <path d="M983.03,343.77c-2.11,0-4.26-.37-6.36-1.14-9.52-3.51-14.38-14.07-10.87-23.59l28.83-78.11c3.51-9.52,14.08-14.38,23.59-10.87,9.52,3.51,14.38,14.07,10.87,23.59l-28.83,78.11c-2.74,7.42-9.76,12.01-17.23,12.01h0Z" style="fill: #ed248e; stroke-width: 0px;"/>
  <path d="M1428.28,263.36c-5.04,0-10.06-2.06-13.69-6.11-6.77-7.56-6.13-19.17,1.43-25.93l68.01-60.9c7.56-6.76,19.17-6.13,25.93,1.43,6.77,7.56,6.13,19.17-1.43,25.93l-68.01,60.9c-3.51,3.14-7.88,4.68-12.25,4.68h0Z" style="fill: #6e5da8; stroke-width: 0px;"/>
  <path d="M831.99,393.13c-3.09,0-6.22-.78-9.09-2.42l-48.35-27.6c-8.81-5.03-11.87-16.25-6.84-25.05,5.03-8.81,16.25-11.87,25.05-6.84l48.35,27.61c8.81,5.03,11.87,16.25,6.84,25.05-3.39,5.94-9.59,9.26-15.97,9.26h.01Z" style="fill: #fff; stroke-width: 0px;"/>
  <path d="M1023.87,985.68c-1.49,0-3-.18-4.5-.56l-85.05-21.44c-9.84-2.48-15.8-12.46-13.32-22.3,2.48-9.83,12.46-15.8,22.3-13.32l85.05,21.44c9.84,2.48,15.8,12.46,13.32,22.3-2.1,8.33-9.58,13.88-17.8,13.88h0Z" style="fill: #fff; stroke-width: 0px;"/>
  <path d="M1428,513.11c-.31,0-.62,0-.94-.02-10.13-.51-17.93-9.13-17.42-19.26l4.58-91.18c.51-10.13,9.12-17.92,19.26-17.42,10.13.51,17.93,9.13,17.42,19.26l-4.58,91.18c-.49,9.82-8.61,17.45-18.33,17.45h0Z" style="fill: #ed248e; stroke-width: 0px;"/>
  <path d="M1588.12,347.96c-9.2,0-17.13-6.89-18.22-16.25-1.17-10.08,6.05-19.19,16.12-20.36l78.04-9.06c10.07-1.17,19.19,6.05,20.36,16.12,1.17,10.08-6.05,19.19-16.12,20.36l-78.04,9.06c-.72.08-1.43.12-2.14.12h0Z" style="fill: #fff; stroke-width: 0px;"/>
  <path d="M1080.01,919.01c-1.04,0-2.1-.09-3.16-.27-9.99-1.74-16.69-11.24-14.95-21.24l15.01-86.41c1.74-9.99,11.25-16.69,21.24-14.95s16.69,11.24,14.95,21.24l-15.01,86.41c-1.55,8.93-9.31,15.23-18.07,15.23h-.01Z" style="fill: #fee800; stroke-width: 0px;"/>
  <path d="M1208.01,284.56c-6.86,0-13.44-3.86-16.59-10.46-4.37-9.15-.49-20.12,8.66-24.49l79.15-37.79c9.16-4.37,20.12-.49,24.49,8.66,4.37,9.15.49,20.12-8.66,24.49l-79.15,37.79c-2.55,1.22-5.25,1.8-7.9,1.8Z" style="fill: #fee800; stroke-width: 0px;"/>
</svg>