<?xml version="1.0" encoding="UTF-8"?>
<svg id="Layer_1" data-name="Layer 1" xmlns="http://www.w3.org/2000/svg" viewBox="0 0 368.64 274.63">
  <path d="M0,135l17.11-12.89C57.28,86.93,98.81,53.61,140.33,20.07l7.14-5.77,4.65-3.8c2.27-1.86,4.54-3.72,6.79-5.61l10.43-3.06c21.12-3.46,43.91-1.76,64.43,2.97,46.69,10.75,99.02,36.29,129.18,74.02C238.68,96.56,122.76,114.42,0,136.73v-1.74Z" style="fill: #fde35a; fill-rule: evenodd; stroke-width: 0px;"/>
  <path d="M126.24,112.93l-.04-.31,236.75-33.8.12,9.38c.25,19.74,1.75,39.17,3.5,58.81,1.05,11.85,2.33,24.2,2.03,36.09-.26,9.97-1.75,19.98-6.86,28.71-11.7,20-39.21,25.86-60.29,29.17-18.33,2.88-36.64,5.95-54.97,8.86-25.57,4.05-51.17,7.96-76.8,11.55-.58-4.25-2.53-8.21-5.6-11.29-3.72-3.72-8.71-5.79-13.97-5.79s-10.25,2.07-13.97,5.79c-3.72,3.72-5.79,8.71-5.79,13.97,0,.86.06,1.7.16,2.54-8.29,1.04-16.59,2.03-24.89,2.95-15.89,1.77-31.86,3.34-47.82,4.29-11.52.69-23.95,1.25-35.45.23-7.76-.69-19.23-2.35-21.65-11.3l-.29-1.06v-125.88l125.84-22.91h0ZM200.59,169.06c0-5.26-2.07-10.25-5.79-13.97-3.72-3.72-8.71-5.79-13.97-5.79s-10.25,2.07-13.97,5.79c-3.72,3.72-5.79,8.71-5.79,13.97s2.07,10.25,5.79,13.97c3.72,3.72,8.71,5.79,13.97,5.79s10.25-2.07,13.97-5.79c3.72-3.72,5.79-8.71,5.79-13.97h0ZM304.44,185.09c0-7.7-3.03-15.01-8.47-20.45-5.44-5.44-12.76-8.47-20.45-8.47s-15.01,3.03-20.45,8.47c-5.44,5.44-8.47,12.76-8.47,20.45s3.03,15.01,8.47,20.45c5.44,5.44,12.76,8.47,20.45,8.47s15.01-3.03,20.45-8.47c5.44-5.44,8.47-12.75,8.47-20.45h0ZM77.13,192.65c-6.09,0-11.86,2.39-16.17,6.7-4.31,4.31-6.7,10.08-6.7,16.17s2.39,11.86,6.7,16.17c4.31,4.31,10.08,6.7,16.17,6.7s11.86-2.39,16.17-6.7c4.31-4.31,6.7-10.08,6.7-16.17s-2.39-11.86-6.7-16.17c-4.31-4.31-10.08-6.7-16.17-6.7Z" style="fill: #e4b023; fill-rule: evenodd; stroke-width: 0px;"/>
  <path d="M157.97,23.04c8.13-4.69,16.46-5.46,18.62-1.72,2.16,3.74-2.67,10.58-10.8,15.27-8.12,4.69-16.46,5.46-18.62,1.72-2.16-3.74,2.67-10.58,10.8-15.27Z" style="fill: #fbc112; fill-rule: evenodd; stroke-width: 0px;"/>
  <path d="M144.9,88.06c0-7.56-10.23-13.69-22.85-13.69s-22.85,6.13-22.85,13.69,10.23,13.69,22.85,13.69,22.85-6.13,22.85-13.69h0ZM122.05,82.62c3.77,0,8.04.72,11.39,2.54.79.43,3.03,1.88,3.21,2.89-.18,1.05-2.43,2.51-3.21,2.93-3.35,1.82-7.62,2.54-11.39,2.54s-8.04-.72-11.39-2.54c-.79-.43-3.03-1.88-3.21-2.89.18-1.05,2.42-2.51,3.21-2.93,3.35-1.81,7.62-2.54,11.39-2.54Z" style="fill: #fbc112; fill-rule: evenodd; stroke-width: 0px;"/>
  <path d="M265.96,46.63c0-5.14-6.95-9.3-15.53-9.3s-15.53,4.16-15.53,9.3,6.95,9.3,15.53,9.3,15.53-4.17,15.53-9.3h0ZM250.43,45.57c1.28,0,3.97.31,5.84,1.06-1.87.75-4.56,1.06-5.84,1.06s-3.97-.31-5.84-1.06c1.87-.75,4.56-1.06,5.84-1.06Z" style="fill: #ce6e28; fill-rule: evenodd; stroke-width: 0px;"/>
  <path d="M122.05,80.85c-3.78,0-8.04.96-11.39,3.36-.79.56-3.03,2.49-3.21,3.89.18,1.33,2.42,3.26,3.21,3.82,3.35,2.41,7.62,3.36,11.39,3.36s8.04-.95,11.39-3.36c.79-.56,3.03-2.5,3.21-3.89-.18-1.33-2.43-3.26-3.21-3.82-3.35-2.41-7.62-3.36-11.39-3.36Z" style="fill: #da7a27; fill-rule: evenodd; stroke-width: 0px;"/>
  <path d="M250.43,45.37c-1.28,0-3.97.37-5.84,1.26,1.87.89,4.56,1.26,5.84,1.26s3.97-.37,5.84-1.26c-1.87-.89-4.56-1.26-5.84-1.26Z" style="fill: #ae6828; fill-rule: evenodd; stroke-width: 0px;"/>
  <path d="M272.4,46.63c0-7.27-9.84-13.16-21.97-13.16s-21.97,5.89-21.97,13.16,9.84,13.16,21.97,13.16,21.97-5.89,21.97-13.16h0ZM250.43,45.13c1.81,0,5.62.44,8.27,1.5-2.65,1.06-6.45,1.5-8.27,1.5s-5.62-.44-8.27-1.5c2.65-1.06,6.45-1.5,8.27-1.5Z" style="fill: #de8026; fill-rule: evenodd; stroke-width: 0px;"/>
  <path d="M180.84,149.3c-5.26,0-10.25,2.07-13.97,5.79-3.72,3.72-5.79,8.71-5.79,13.97s2.07,10.25,5.79,13.97c3.72,3.72,8.71,5.79,13.97,5.79s10.25-2.07,13.97-5.79c3.72-3.72,5.79-8.71,5.79-13.97s-2.07-10.25-5.79-13.97c-3.72-3.72-8.71-5.79-13.97-5.79Z" style="fill: #db8e27; fill-rule: evenodd; stroke-width: 0px;"/>
  <path d="M275.51,156.17c-7.7,0-15.01,3.03-20.45,8.47-5.44,5.44-8.47,12.76-8.47,20.45s3.03,15.01,8.47,20.45c5.44,5.44,12.76,8.47,20.45,8.47s15.01-3.03,20.45-8.47c5.44-5.44,8.47-12.75,8.47-20.45s-3.03-15.01-8.47-20.45c-5.44-5.44-12.76-8.47-20.45-8.47Z" style="fill: #db8e27; fill-rule: evenodd; stroke-width: 0px;"/>
  <path d="M77.13,192.65c-6.09,0-11.86,2.39-16.17,6.7-4.31,4.31-6.7,10.08-6.7,16.17s2.39,11.86,6.7,16.17c4.31,4.31,10.08,6.7,16.17,6.7s11.86-2.39,16.17-6.7c4.31-4.31,6.7-10.08,6.7-16.17s-2.39-11.86-6.7-16.17c-4.31-4.31-10.08-6.7-16.17-6.7Z" style="fill: #db8e27; fill-rule: evenodd; stroke-width: 0px;"/>
  <path d="M80.56,192.48c-5.22,0-10.17,2.05-13.86,5.74-3.69,3.69-5.74,8.64-5.74,13.86s2.05,10.17,5.74,13.86c3.69,3.69,8.64,5.74,13.86,5.74s10.17-2.05,13.86-5.74c3.69-3.69,5.74-8.64,5.74-13.86s-2.05-10.17-5.74-13.86c-3.69-3.69-8.64-5.74-13.86-5.74Z" style="fill: #da7a27; fill-rule: evenodd; stroke-width: 0px;"/>
  <path d="M270.46,159.76c-6.23,0-12.13,2.45-16.54,6.85-4.41,4.41-6.85,10.3-6.85,16.54s2.44,12.13,6.85,16.54c4.41,4.4,10.31,6.85,16.54,6.85s12.13-2.44,16.54-6.85c4.41-4.41,6.85-10.3,6.85-16.54s-2.44-12.13-6.85-16.54c-4.41-4.41-10.3-6.85-16.54-6.85Z" style="fill: #da7a27; fill-rule: evenodd; stroke-width: 0px;"/>
</svg>