<?xml version="1.0" encoding="UTF-8"?>
<svg id="Layer_1" data-name="Layer 1" xmlns="http://www.w3.org/2000/svg" viewBox="0 0 144.19 168.58">
  <path d="M93.37,88.23c0-4.13,1.86-8.93,2.93-13.11,1.16-4.52,2.31-9.04,3.47-13.56,2.34-9.12,4.07-18.84,7.43-27.66-.13.02-.25-.02-.35-.07-.09.04-.2.06-.33.05-3.78-.38-7.52-1.19-11.07-2.56.12.16.18.36.11.61-4.36,15.6-8.15,31.75-13.85,46.93,0,3.62.02,7.23.05,10.84,3.42-.02,6.82-.25,10.11-.81-.03-.13-.04-.26,0-.38.05-.15.1-.3.15-.46.24-.72,1.35-.61,1.35.18ZM143.92,46.47c.33.25.37.71,0,.96-.16.1-.32.2-.49.31-2.22,7.01-6.35,13.73-11.12,19.35.02.14.02.29-.02.44.12.14.2.32.18.57-1.76,23.03-4.38,46.02-7.57,68.89-.72,5.22-1.49,10.43-2.3,15.63-.51,3.21-.85,6.64-2.61,9.46-3.63,5.8-12.35,5.71-18.35,5.9-10.2.32-20.41.33-30.61.32-9.18,0-19.18.96-28.24-.63-6.49-1.15-9.95-5.21-11.77-11.34-2.67-9.01-3.92-18.52-5.11-27.82-2.61-20.37-4.78-40.89-5.76-61.41,0-.33.25-.47.5-.44-2.89-4.61-5.8-9.16-9.25-13.39-3.16-3.87-7.63-7.01-10.54-10.97-.61-.84-.8-1.64-.68-2.4-.6-2.64.31-5.8,2.07-7.71.05-.05.11-.09.17-.12-.02-.13.03-.27.18-.37,3.56-2.37,7.5-4.07,11.65-5.08.37-.09.66.16.69.52,0,.15.02.3.02.45.03.01.06.02.08.05,2.69,2.72,5.2,5.61,7.55,8.63-1.3-2.43-2.36-4.95-3.28-7.55-.45-1.27-1.9-3.92-1.78-5.65-.14-.11-.21-.3-.11-.51,1.19-2.55,1-4.95,3.79-6.28,3.08-1.47,6.87-2.17,10.22-2.79.31-.06.63.13.62.48,0,.07,0,.14,0,.22.12-.02.25.03.34.18,2.92,5.22,5.49,10.68,7.66,16.26.83-.45,1.67-.87,2.54-1.26.26-.12.51-.06.7.07.1-.1.24-.16.4-.11h0c.07.01.13.03.19.07,1.32.43,2.61.96,3.92,1.43-1.36-3.89-2.24-7.95-3.07-11.98-.48-2.32-2.31-6.57-1.34-8.86,0-.03.03-.06.05-.09.51-2.37,1.8-4.96,3.7-6.46.19-.16.46-.14.66-.03C51.93,1.76,56.28.63,60.68,0c.5-.07.93.48.52.9-.06.06-.11.13-.17.19,2.18,6.61,3.85,13.42,5.45,20.2,3.36.48,6.71.81,10.08,1.15.11-2.93.48-5.86.87-8.77.18-1.31.02-4.19,1.01-5.34-.06-.2,0-.43.2-.55,2.34-1.26,5.25-3.34,8.05-3.18,3.56.2,7.46,1.94,10.89,2.9.5.14.65.91.15,1.16-.07.04-.13.07-.2.1.24-.04.53.11.5.4-.76,7-1.8,14-2.83,20.97,0-.01,0-.02.02-.03.78-.68,1.72-1.09,2.63-1.56.71-.37,1.41-.74,2.14-1.08-.03-.18.06-.37.29-.35.14.01.27.02.41.04.15-.05.28-.03.38.03.42.04.83.1,1.24.15,0-2.44.17-4.88.64-7.28.15-.82.19-1.86,1.01-2.31.12-.06.25-.1.39-.14,4.55-4.82,10.85-1.18,16.59-.94.58.03.7.68.31,1.02.18.7.36,1.42.5,2.14,1.51-.51,3.61-.45,5.11-.07.07-.21.33-.33.55-.15,3.75,2.99,7.21,6.73,10.18,10.48.12.15.15.31.14.46.02,0,.04.01.06.01.54.08.58.78.3,1.11-2.87,3.32-5.43,6.79-7.79,10.36,1.98-.59,4.03-1.54,6-.93,2.75.85,5.36,3.67,7.62,5.37ZM140.4,48.44l2.31-1.53c-1.84-1.49-3.78-3.39-5.83-4.36-2.5-1.18-4.74.03-7.18.39-.17.27-.35.53-.52.8,2.88.75,8.26,1.53,10.4,3.49.59.55.79.74.82,1.21ZM142.4,48.41c-.73.47-1.47.95-2.2,1.42-.44,1.07-1.51,2.17-2.04,2.98-1.34,2.02-2.67,4.05-4.01,6.07-1.77,2.65-3.5,5.33-5.43,7.87.85-.09,1.7-.15,2.54-.21,4.38-5.78,7.8-11.73,11.14-18.13ZM138.05,50.64c.22-2.14-1.26-2.76-2.65-3.5-2-1.06-4.63-1.47-6.78-2.17-.07-.02-.11-.06-.17-.09-6.72,10.81-11.72,22.52-16.98,34.23,2.89-3.12,5.04-7.11,8.5-9.57,2.31-1.64,5.02-2.32,7.79-2.68,2.31-4.29,5.14-8.34,7.8-12.41.6-.92,2.37-2.68,2.49-3.81ZM131.27,38.1c.78-1.08,4.83-5.04,4.77-6.09-.03-.53-2.34-1.2-3.6-1.64-11.18,17.51-21.13,35.08-28.59,54.51,2.03-1.1,3.98-2.44,5.82-4.05,3.51-9.47,7.63-18.81,12.35-27.7,2.75-5.21,5.79-10.26,9.25-15.03ZM133.09,29.34c1.01.39,2.02.69,3.06.92-2.9-3.12-5.85-6.25-8.61-9.49-.08.07-.19.12-.32.11-1.09-.03-2.16-.26-3.26-.28-.64-.01-1.29.06-1.94.06,3.5,2.61,7.07,5.05,10.87,7.21.41.24.42.68.22.98.08.13.1.3,0,.44,0,.02-.02.03-.03.05ZM131.59,29.84c-.12-.32.09-.75.43-.83-2.38-1.35-4.69-2.77-6.92-4.35-2.03-1.45-2.86-3.18-4.69-1.2-2.04,2.2-3.42,5.76-4.98,8.34-1.36,2.23-2.73,4.45-4.17,6.64-1.7,7.1-3.92,14.14-5.83,21.13-2.56,9.32-5.15,18.62-7.76,27.92,1.44-.45,2.84-1,4.22-1.63,7.22-19.7,16.87-39.32,29.7-56.02ZM125.39,121.12c2.21-17.57,3.9-35.19,5.3-52.84-4.04.45-8,1.07-11.05,4.07-1.61,1.59-2.82,3.52-4.23,5.27-1.76,2.18-3.75,4.15-5.93,5.89-.16.34-.31.68-.47,1.02-.15.32-.67.1-.59-.22-1.16.85-2.37,1.65-3.64,2.35-8.9,4.97-19.2,5.29-29.15,4.73-8.88-.5-18.07-2.13-25.77-6.81.04.41-.55.53-.71.13-.1-.27-.19-.53-.29-.79-3.78-2.56-6.58-5.98-9.94-9.05-5.24-4.79-11.07-5.47-17.71-6.61,2,19.45,3.65,38.93,6.06,58.34,1.14,9.13,2.45,18.3,4.73,27.22,1.26,4.88,3.14,9.79,8.3,11.59,3.72,1.3,7.9,1.09,11.79,1.15,17.35.25,34.91.68,52.24-.35,4.93-.29,11.86-.65,14.56-5.56,1.81-3.3,1.98-7.77,2.54-11.4,1.43-9.36,2.78-18.74,3.96-28.13ZM120.65,20.53s.05-.05.07-.07c-.13-.71-.21-1.44-.27-2.16-.7.53-1.4,1.05-2.11,1.57.09.04.16.1.18.2.19,1.17.25,2.41.25,3.63.63-1.05,1.26-2.11,1.88-3.17ZM117.33,19.41c.72-.59,1.45-1.16,2.17-1.74-4.74-.61-9.73-2.84-13.78-.13,1.04.11,2.19.47,2.94.58,2.89.42,5.79.84,8.67,1.29ZM117.67,25.56s0-.04,0-.07c-.08-1.59-.07-3.3.15-4.91-.12.07-.27.12-.44.09-3.37-.49-6.77-1.24-10.16-1.55-1.29-.11-2.41-.35-3.09.69-.31.49-.32,1.59-.42,2.15-.31,1.83-.5,3.66-.62,5.5,3.16.51,6.3,1.41,9.31,2.3.32.1.44.36.42.63.06.07.09.17.07.29-.28,1.63-.61,3.25-.96,4.87,1.84-3.36,3.79-6.68,5.75-9.99ZM111.94,31.29c-1.25.83-2.53,1.6-3.89,2.25,0,.04.02.08,0,.13-1.35,10.17-4.78,20.3-7.3,30.24-1.39,5.49-2.79,10.98-4.19,16.47-.55,2.15-.73,5.73-1.96,7.96.49-.11.97-.25,1.45-.38v-.02c2.69-9.57,5.36-19.16,7.99-28.75,2.55-9.26,4.63-18.86,7.89-27.9ZM106.92,32.72c1.32-.66,2.59-1.36,3.83-2.13-3.15-.9-6.36-1.61-9.5-2.54-.04.06-.1.11-.16.15-.92.53-1.92.93-2.88,1.38-.74.34-1.46.71-2.24.94,3.5.86,6.98,1.57,10.55,2.01.17.02.3.09.4.19ZM97.2,9.06c.02-.08.07-.14.12-.19-1.48.74-2.96,1.47-4.47,2.17.02.04.04.09.03.15-.24,12.34-1.82,25.12-3.74,37.5,1.55-5.2,3.1-10.39,4.56-15.58-.05-.08-.08-.17-.07-.28.65-7.91,1.73-16.05,3.57-23.77ZM92.12,10.1c1.18-.63,2.37-1.23,3.57-1.82-2.43-.73-4.88-1.55-7.34-2.03-2.82-.54-5.14.55-7.56,1.66.78.15,1.55.42,2.06.52,3.03.6,6.06,1.19,9.09,1.81.05-.05.11-.1.18-.14ZM92.07,11.51c-.12.05-.25.08-.41.05-2.16-.41-4.32-.85-6.48-1.28-1.06-.21-2.16-.48-3.23-.64-1.16-.16-2-.55-2.63.48-.82,1.33-.7,4.55-.93,6.15-.31,2.09-.58,4.19-.94,6.27l1.74.18c.38.04.54.37.49.65.03.05.04.11.04.17,0,.07-.02.15-.07.22-1.35,1.85-2.99,3.44-4.78,4.85,1.01,11.6,1.16,23.32,1.62,34.95.23,5.9.44,11.79.67,17.69.07,1.85,1.14,6.14.24,8.38.96.03,1.92.05,2.88.06-.33-21.99-1.11-44.16-.4-66.15v-.05c.02-.5.75-.5.78,0,.96,17.47.98,35.06,1.04,52.59,1.44-6.36,3.16-12.69,4.98-19-.03-.07-.05-.15-.04-.25.73-7.93,1.9-15.84,2.81-23.75.83-7.18,1.34-14.46,2.62-21.57ZM78.41,23.78c-3.9.03-8.01-.59-11.77-1.59,0,.04,0,.08-.02.12.04.19,0,.4-.22.55-1.3.88-2.52,1.83-3.72,2.8,0,.01,0,.02,0,.03.15.64-.54.99-.99.76-.07.06-.14.11-.21.17,4.06-.1,8.24.07,12.22.78.24.04.37.2.42.38.17-.08.38-.05.53.07,1.36-1.26,2.58-2.63,3.75-4.07ZM75.9,88.93c.12-.08.23-.11.35-.11-.33-1.88-.57-5.28-.58-5.6-.1-2.62-.19-5.25-.29-7.87-.2-5.24-.4-10.48-.59-15.72-.37-10.35-1-20.75-.88-31.11-.1.08-.22.13-.36.12-3.98-.21-7.97-.63-11.95-.96-.27,20.24,1.26,40.2,2.31,60.38,3.78.82,7.66,1.25,11.48,1.47.04-.16.13-.31.3-.44.07-.05.14-.1.21-.16ZM65.28,22.34h0c-1.69-6.83-3.5-13.63-4.93-20.5-1.09,1.15-2.18,2.31-3.25,3.47,0,0,0,0,0,.03,1.94,6.34,3.74,12.75,5.3,19.19.91-.8,1.88-1.53,2.88-2.19ZM62.95,87.84c-.56-3.65-1.02-7.31-1.41-11-.31.02-.63-.11-.77-.46-5.95-15.2-12.2-30.41-17.4-45.88-.03.02-.05.05-.09.07-3.71,1.78-7.22,3.82-10.6,6.16.02.03.05.05.07.09,3.59,7.27,6.18,15.17,8.94,22.79,2.67,7.38,5.42,14.84,7.5,22.42,4.16,2.82,8.86,4.65,13.76,5.81ZM60.56,26.34c.22-.25.47-.49.71-.73-1.88-6.53-3.5-13.14-4.98-19.77-.06-.01-.11-.03-.16-.07-2.53.72-5.58,1.42-7.8,2.77-3.51,2.12-3.28,4.44-2.6,8.04.92,4.87,2.19,9.68,3.03,14.56.31.1.63.21.94.29.19-.07.42-.04.52.18,3.61,8.13,6.76,16.52,9.89,24.85-.38-9.8-.39-19.62-.26-29.3,0-.49.34-.76.71-.82ZM61.21,73.53c-.4-4.34-.7-8.71-.91-13.08-.03-.03-.06-.06-.08-.11-3.67-9.14-7.44-18.33-10.56-27.68-.12.03-.26.02-.41-.06-1.54-.8-3.21-1.38-4.82-2.05,6.11,14.08,11.38,28.6,16.78,42.98ZM56.41,4.53c.98-1.05,1.95-2.1,2.91-3.15-3.84.75-7.58,1.72-11.33,2.89-.08.02-.14.03-.2.02-.7.89-1.45,1.7-2.05,2.68-.25.4-.46.82-.67,1.25,2.98-1.99,8.76-3.15,10.94-3.73.16-.04.29-.01.4.04ZM45.93,79.53c.59.53,1.21,1.03,1.84,1.51-2.49-6.67-4.71-13.45-7.2-20.12-2.93-7.87-6.5-15.57-9.17-23.53-.05-.15-.03-.29,0-.42-.1-.17-.11-.39.07-.54,1.5-1.29,3.09-2.46,4.74-3.54,0-.01,0-.02-.02-.03-2.01-4.7-4.04-9.43-5.8-14.24-.06-.15-.02-.29.07-.39.19-.23.62-.29.78.03,2.19,4.56,4.15,9.25,6.09,13.92.5-.31,1.02-.6,1.53-.89-2.36-5.33-4.67-10.69-6.94-16.06-.23,1.09-.75,2.01-1.63,2.83-.03.04-.07.07-.1.1-.02.02-.04.02-.05.04-.05.22-.19.43-.48.51-1.84.53-3.66,1.11-5.44,1.82-2.46.98-4.83,1.54-4.6,4.59.27,3.48,2.61,7.55,3.78,10.85.15.41-.39.69-.69.47,8.94,11.5,15.44,24.93,19.36,38.9.05.17.02.3-.03.43,1.27,1.28,2.52,2.57,3.88,3.76ZM34.8,69.94c2.05,1.05,3.78,2.48,5.42,4.03-5.2-16.88-13.88-31.64-25.3-45.1-.14,1.25-.56,2.39-1.33,3.51-.07.1-.15.15-.24.18,5.25,4.4,8.76,10.87,12.11,16.72,3.67,6.41,6.91,13.06,9.65,19.92.12.32-.05.59-.31.74ZM29.61,17.34c.78-.76,1.25-1.68,1.39-2.73-2.59.61-5.18,1.25-7.7,2.11-2.19.74-3.32,1.59-4.1,3.81-.08.22-.15.43-.23.64.98-.55,2.23-.91,2.94-1.22,2.4-1.06,4.87-1.89,7.39-2.59.11-.03.21-.04.31-.02ZM21.95,67.24c3.97.07,8.12.6,11.77,2.19-5.26-12.37-11.48-26.53-21.02-36.23-.07.2-.2.37-.44.46-2.63,1-5.11,2.16-7.45,3.73-2.84,1.9-3.14,2.66-1.14,5.42,1.95,2.68,4.97,4.85,7.15,7.41,4.42,5.16,8.34,10.83,11.13,17.02ZM12.74,31.89c.85-1.27,1.28-2.55,1.19-4.03-3.77,1.15-7.34,2.63-10.83,4.46.09.16.11.35,0,.54-.74,1.29-1.45,2.49-1.78,3.97-.08.38-.14.76-.18,1.14,2.41-2.8,8.43-4.84,10.73-5.68.2-.07.37-.05.5.02.07-.08.17-.13.28-.15,0-.08,0-.18.08-.27Z" style="fill: #1d1d1b; stroke-width: 0px;"/>
  <path d="M142.71,46.91l-2.31,1.53c-.03-.47-.23-.66-.82-1.21-2.14-1.96-7.52-2.74-10.4-3.49.17-.27.35-.53.52-.8,2.44-.36,4.68-1.57,7.18-.39,2.05.97,3.99,2.87,5.83,4.36Z" style="fill: #f9cb61; stroke-width: 0px;"/>
  <path d="M140.2,49.83c.73-.47,1.47-.95,2.2-1.42-3.34,6.4-6.76,12.35-11.14,18.13-.84.06-1.69.12-2.54.21,1.93-2.54,3.66-5.22,5.43-7.87,1.34-2.02,2.67-4.05,4.01-6.07.53-.81,1.6-1.91,2.04-2.98Z" style="fill: #f9cb61; stroke-width: 0px;"/>
  <path d="M135.4,47.14c1.39.74,2.87,1.36,2.65,3.5-.12,1.13-1.89,2.89-2.49,3.81-2.66,4.07-5.49,8.12-7.8,12.41-2.77.36-5.48,1.04-7.79,2.68-3.46,2.46-5.61,6.45-8.5,9.57,5.26-11.71,10.26-23.42,16.98-34.23.06.03.1.07.17.09,2.15.7,4.78,1.11,6.78,2.17Z" style="fill: #f9cb61; stroke-width: 0px;"/>
  <path d="M136.04,32.01c.06,1.05-3.99,5.01-4.77,6.09-3.46,4.77-6.5,9.82-9.25,15.03-4.72,8.89-8.84,18.23-12.35,27.7-1.84,1.61-3.79,2.95-5.82,4.05,7.46-19.43,17.41-37,28.59-54.51,1.26.44,3.57,1.11,3.6,1.64Z" style="fill: #f9cb61; stroke-width: 0px;"/>
  <path d="M136.15,30.26c-1.04-.23-2.05-.53-3.06-.92,0-.02.02-.03.03-.05.09-.14.07-.31,0-.44.2-.3.19-.74-.22-.98-3.8-2.16-7.37-4.6-10.87-7.21.65,0,1.3-.07,1.94-.06,1.1.02,2.17.25,3.26.28.13.01.24-.04.32-.11,2.76,3.24,5.71,6.37,8.61,9.49Z" style="fill: #f9cb61; stroke-width: 0px;"/>
  <path d="M132.02,29.01c-.34.08-.55.51-.43.83-12.83,16.7-22.48,36.32-29.7,56.02-1.38.63-2.78,1.18-4.22,1.63,2.61-9.3,5.2-18.6,7.76-27.92,1.91-6.99,4.13-14.03,5.83-21.13,1.44-2.19,2.81-4.41,4.17-6.64,1.56-2.58,2.94-6.14,4.98-8.34,1.83-1.98,2.66-.25,4.69,1.2,2.23,1.58,4.54,3,6.92,4.35Z" style="fill: #f9cb61; stroke-width: 0px;"/>
  <path d="M130.69,68.28c-1.4,17.65-3.09,35.27-5.3,52.84-1.18,9.39-2.53,18.77-3.96,28.13-.56,3.63-.73,8.1-2.54,11.4-2.7,4.91-9.63,5.27-14.56,5.56-17.33,1.03-34.89.6-52.24.35-3.89-.06-8.07.15-11.79-1.15-5.16-1.8-7.04-6.71-8.3-11.59-2.28-8.92-3.59-18.09-4.73-27.22-2.41-19.41-4.06-38.89-6.06-58.34,6.64,1.14,12.47,1.82,17.71,6.61,3.36,3.07,6.16,6.49,9.94,9.05.1.26.19.52.29.79.16.4.75.28.71-.13,7.7,4.68,16.89,6.31,25.77,6.81,9.95.56,20.25.24,29.15-4.73,1.27-.7,2.48-1.5,3.64-2.35-.08.32.44.54.59.22.16-.34.31-.68.47-1.02,2.18-1.74,4.17-3.71,5.93-5.89,1.41-1.75,2.62-3.68,4.23-5.27,3.05-3,7.01-3.62,11.05-4.07ZM112.7,132.86c.95-1.18.76-3.05-.78-3.61-.94-.34-2.12-.05-3.08.05-1.54.15-3.16.21-4.62.77-.22.08-.31.34-.26.54-.6.15-1.2.32-1.81.54-.52.19-.74.71-.49,1.22.89,1.8,2.75,2.66,4.72,2.63,1.92-.02,5.03-.54,6.32-2.14ZM111.53,123.25c.74-.03.99-1.25.18-1.37-2.27-.34-4.58-.53-6.88-.68,2.08-1.56,4.24-2.99,6.4-4.45.93-.63.13-2.02-.88-1.51-3.18,1.62-6.07,3.81-8.8,6.08-.7.58-.08,1.62.68,1.66,3.09.17,6.21.36,9.3.27ZM76.9,136.84c5.5.16,10.75-5.58,9.43-11.07-.03-.1-.07-.19-.12-.27.7-.5.17-1.89-.9-1.71-3.08.51-6.14.79-9.27.74-2.36-.04-4.76-.54-7.09-.16-.26.05-.35.32-.29.55-.15.06-.29.19-.35.38-.95,3.07.15,6.32,2.3,8.58-.04.64.19,1.27.78,1.63.51.31,1.03.33,1.49.16,1.22.7,2.59,1.13,4.02,1.17ZM47.34,135.25c1.74-.25,5.47-1.64,3.96-4.06-1.64-2.65-6.61-1.34-8.88-.63-.37.11-.47.44-.38.71-.49.2-.91.49-1.12.95-1.32,2.78,4.98,3.24,6.42,3.03ZM51.02,121.5c.1-1.99-1.68-3.58-3.56-3.81-2.26-.27-4.15,1.66-3.92,3.92.06.54.26,1.04.56,1.47.52,1.05,1.6,1.78,2.91,1.81,1.9.03,3.92-1.37,4.01-3.39Z" style="fill: #90cfd5; stroke-width: 0px;"/>
  <path d="M120.72,20.46s-.05.04-.07.07c-.62,1.06-1.25,2.12-1.88,3.17,0-1.22-.06-2.46-.25-3.63-.02-.1-.09-.16-.18-.2.71-.52,1.41-1.04,2.11-1.57.06.72.14,1.45.27,2.16Z" style="fill: #f9cb61; stroke-width: 0px;"/>
  <path d="M119.5,17.67c-.72.58-1.45,1.15-2.17,1.74-2.88-.45-5.78-.87-8.67-1.29-.75-.11-1.9-.47-2.94-.58,4.05-2.71,9.04-.48,13.78.13Z" style="fill: #f9cb61; stroke-width: 0px;"/>
  <path d="M117.66,25.49s0,.05,0,.07c-1.96,3.31-3.91,6.63-5.75,9.99.35-1.62.68-3.24.96-4.87.02-.12,0-.22-.07-.29.02-.27-.1-.53-.42-.63-3.01-.89-6.15-1.79-9.31-2.3.12-1.84.31-3.67.62-5.5.1-.56.11-1.66.42-2.15.68-1.04,1.8-.8,3.09-.69,3.39.31,6.79,1.06,10.16,1.55.17.03.32-.02.44-.09-.22,1.61-.23,3.32-.15,4.91Z" style="fill: #f9cb61; stroke-width: 0px;"/>
  <path d="M111.92,129.25c1.54.56,1.73,2.43.78,3.61-1.29,1.6-4.4,2.12-6.32,2.14-1.97.03-3.83-.83-4.72-2.63-.25-.51-.03-1.03.49-1.22.61-.22,1.21-.39,1.81-.54-.05-.2.04-.46.26-.54,1.46-.56,3.08-.62,4.62-.77.96-.1,2.14-.39,3.08-.05Z" style="fill: #eea3a2; stroke-width: 0px;"/>
  <path d="M111.71,121.88c.81.12.56,1.34-.18,1.37-3.09.09-6.21-.1-9.3-.27-.76-.04-1.38-1.08-.68-1.66,2.73-2.27,5.62-4.46,8.8-6.08,1.01-.51,1.81.88.88,1.51-2.16,1.46-4.32,2.89-6.4,4.45,2.3.15,4.61.34,6.88.68Z" style="fill: #1d1d1b; stroke-width: 0px;"/>
  <path d="M108.05,33.54c1.36-.65,2.64-1.42,3.89-2.25-3.26,9.04-5.34,18.64-7.89,27.9-2.63,9.59-5.3,19.18-7.99,28.75v.02c-.48.13-.96.27-1.45.38,1.23-2.23,1.41-5.81,1.96-7.96,1.4-5.49,2.8-10.98,4.19-16.47,2.52-9.94,5.95-20.07,7.3-30.24,0-.05,0-.09,0-.13Z" style="fill: #f9cb61; stroke-width: 0px;"/>
  <path d="M110.75,30.59c-1.24.77-2.51,1.47-3.83,2.13-.1-.1-.23-.17-.4-.19-3.57-.44-7.05-1.15-10.55-2.01.78-.23,1.5-.6,2.24-.94.96-.45,1.96-.85,2.88-1.38.06-.04.12-.09.16-.15,3.14.93,6.35,1.64,9.5,2.54Z" style="fill: #f9cb61; stroke-width: 0px;"/>
  <path d="M106.85,33.83c.1.05.22.09.35.07-3.36,8.82-5.09,18.54-7.43,27.66-1.16,4.52-2.31,9.04-3.47,13.56-1.07,4.18-2.92,8.98-2.93,13.11,0-.79-1.11-.9-1.35-.18-.05.16-.1.31-.15.46-.04.12-.03.25,0,.38-3.29.56-6.69.79-10.11.81-.03-3.61-.04-7.22-.05-10.84,5.7-15.18,9.49-31.33,13.85-46.93.07-.25,0-.45-.11-.61,3.55,1.37,7.29,2.18,11.07,2.56.13.01.24-.01.33-.05Z" style="fill: #f9cb61; stroke-width: 0px;"/>
  <path d="M97.32,8.87c-.05.05-.1.11-.12.19-1.84,7.72-2.92,15.86-3.57,23.77,0,.11.02.2.07.28-1.46,5.19-3.01,10.38-4.56,15.58,1.92-12.38,3.5-25.16,3.74-37.5,0-.06,0-.11-.03-.15,1.51-.7,2.99-1.43,4.47-2.17Z" style="fill: #f9cb61; stroke-width: 0px;"/>
  <path d="M95.69,8.28c-1.2.59-2.39,1.19-3.57,1.82-.07.04-.13.09-.18.14-3.03-.62-6.06-1.21-9.09-1.81-.51-.1-1.28-.37-2.06-.52,2.42-1.11,4.74-2.2,7.56-1.66,2.46.48,4.91,1.3,7.34,2.03Z" style="fill: #f9cb61; stroke-width: 0px;"/>
  <path d="M91.66,11.56c.16.03.29,0,.41-.05-1.28,7.11-1.79,14.39-2.62,21.57-.91,7.91-2.08,15.82-2.81,23.75,0,.1,0,.18.04.25-1.82,6.31-3.54,12.64-4.98,19-.06-17.53-.08-35.12-1.04-52.59-.03-.5-.76-.5-.78,0v.05h-.16c0-.06,0-.12-.04-.17.05-.28-.11-.61-.49-.65l-1.74-.18c.36-2.08.63-4.18.94-6.27.23-1.6.11-4.82.93-6.15.63-1.03,1.47-.64,2.63-.48,1.07.16,2.17.43,3.23.64,2.16.43,4.32.87,6.48,1.28Z" style="fill: #f9cb61; stroke-width: 0px;"/>
  <path d="M86.33,125.77c1.32,5.49-3.93,11.23-9.43,11.07-1.43-.04-2.8-.47-4.02-1.17-.46.17-.98.15-1.49-.16-.59-.36-.82-.99-.78-1.63-2.15-2.26-3.25-5.51-2.3-8.58.06-.19.2-.32.35-.38-.06-.23.03-.5.29-.55,2.33-.38,4.73.12,7.09.16,3.13.05,6.19-.23,9.27-.74,1.07-.18,1.6,1.21.9,1.71.05.08.09.17.12.27ZM72.76,133.25c.1-.01.2-.01.3-.02-.03-.06-.05-.12-.09-.16-.08-.09-.12-.17-.15-.26-.18-.04-.35-.1-.52-.18-.08.03-.16.07-.23.12.18.18.36.36.55.53.05,0,.09-.03.14-.03ZM69.74,128.01c.02-.18.06-.36.12-.54-.1-.47-.18-.95-.23-1.45-.02-.18.02-.32.09-.45-.05-.02-.12-.04-.17-.07-.04.83.03,1.68.19,2.51Z" style="fill: #1d1d1b; stroke-width: 0px;"/>
  <path d="M80.28,89.69c-.96,0-1.92-.03-2.88-.06.9-2.24-.17-6.53-.24-8.38-.23-5.9-.44-11.79-.67-17.69-.46-11.63-.61-23.35-1.62-34.95,1.79-1.41,3.43-3,4.78-4.85.05-.07.07-.15.07-.22h.16c-.71,21.99.07,44.16.4,66.15Z" style="fill: #f9cb61; stroke-width: 0px;"/>
  <path d="M66.64,22.19c3.76,1,7.87,1.62,11.77,1.59-1.17,1.44-2.39,2.81-3.75,4.07-.15-.12-.36-.15-.53-.07-.05-.18-.18-.34-.42-.38-3.98-.71-8.16-.88-12.22-.78.07-.06.14-.11.21-.17.45.23,1.14-.12.99-.76,0,0,0-.02,0-.03,1.2-.97,2.42-1.92,3.72-2.8.21-.15.26-.36.22-.55,0-.04.02-.08.02-.12Z" style="fill: #f9cb61; stroke-width: 0px;"/>
  <path d="M76.25,88.82c-.12,0-.23.03-.35.11-.07.06-.14.11-.21.16-.17.13-.26.28-.3.44-3.82-.22-7.7-.65-11.48-1.47-1.05-20.18-2.58-40.14-2.31-60.38,3.98.33,7.97.75,11.95.96.14,0,.26-.04.36-.12-.12,10.36.51,20.76.88,31.11.19,5.24.39,10.48.59,15.72.1,2.62.19,5.25.29,7.87,0,.32.25,3.72.58,5.6Z" style="fill: #f9cb61; stroke-width: 0px;"/>
  <path d="M65.27,22.33h0c-1,.67-1.97,1.4-2.88,2.2-1.56-6.44-3.36-12.85-5.3-19.19,0-.02,0-.02,0-.03,1.07-1.16,2.16-2.32,3.25-3.47,1.43,6.87,3.24,13.67,4.93,20.49Z" style="fill: #f9cb61; stroke-width: 0px;"/>
  <path d="M61.54,76.84c.39,3.69.85,7.35,1.41,11-4.9-1.16-9.6-2.99-13.76-5.81-2.08-7.58-4.83-15.04-7.5-22.42-2.76-7.62-5.35-15.52-8.94-22.79-.02-.04-.05-.06-.07-.09,3.38-2.34,6.89-4.38,10.6-6.16.04-.02.06-.05.09-.07,5.2,15.47,11.45,30.68,17.4,45.88.14.35.46.48.77.46Z" style="fill: #f9cb61; stroke-width: 0px;"/>
  <path d="M61.27,25.61c-.24.24-.49.48-.71.73-.37.06-.7.33-.71.82-.13,9.68-.12,19.5.26,29.3-3.13-8.33-6.28-16.72-9.89-24.85-.1-.22-.33-.25-.52-.18-.31-.08-.63-.19-.94-.29-.84-4.88-2.11-9.69-3.03-14.56-.68-3.6-.91-5.92,2.6-8.04,2.22-1.35,5.27-2.05,7.8-2.77.05.04.1.06.16.07,1.48,6.63,3.1,13.24,4.98,19.77Z" style="fill: #f9cb61; stroke-width: 0px;"/>
  <path d="M60.3,60.45c.21,4.37.51,8.74.91,13.08-5.4-14.38-10.67-28.9-16.78-42.98,1.61.67,3.28,1.25,4.82,2.05.15.08.29.09.41.06,3.12,9.35,6.89,18.54,10.56,27.68.02.05.05.08.08.11Z" style="fill: #f9cb61; stroke-width: 0px;"/>
  <path d="M59.32,1.38c-.96,1.05-1.93,2.1-2.91,3.15-.11-.05-.24-.08-.4-.04-2.18.58-7.96,1.74-10.94,3.73.21-.43.42-.85.67-1.25.6-.98,1.35-1.79,2.05-2.68.06.01.12,0,.2-.02,3.75-1.17,7.49-2.14,11.33-2.89Z" style="fill: #f9cb61; stroke-width: 0px;"/>
  <path d="M51.3,131.19c1.51,2.42-2.22,3.81-3.96,4.06-1.44.21-7.74-.25-6.42-3.03.21-.46.63-.75,1.12-.95-.09-.27,0-.6.38-.71,2.27-.71,7.24-2.02,8.88.63Z" style="fill: #eea3a2; stroke-width: 0px;"/>
  <path d="M47.46,117.69c1.88.23,3.66,1.82,3.56,3.81-.09,2.02-2.11,3.42-4.01,3.39-1.31-.03-2.39-.76-2.91-1.81-.3-.43-.5-.93-.56-1.47-.23-2.26,1.66-4.19,3.92-3.92Z" style="fill: #1d1d1b; stroke-width: 0px;"/>
  <path d="M47.77,81.04c-.63-.48-1.25-.98-1.84-1.51-1.36-1.19-2.61-2.48-3.88-3.76.05-.13.08-.26.03-.43-3.92-13.97-10.42-27.4-19.36-38.9.3.22.84-.06.69-.47-1.17-3.3-3.51-7.37-3.78-10.85-.23-3.05,2.14-3.61,4.6-4.59,1.78-.71,3.6-1.29,5.44-1.82.29-.08.43-.29.48-.51,0-.02.03-.02.05-.04.03-.03.07-.06.1-.1l.17.17c-.09.1-.13.24-.07.39,1.76,4.81,3.79,9.54,5.8,14.24,0,.01.02.02.02.03-1.65,1.08-3.24,2.25-4.74,3.54-.18.15-.17.37-.07.54-.04.13-.06.27,0,.42,2.67,7.96,6.24,15.66,9.17,23.53,2.49,6.67,4.71,13.45,7.2,20.12Z" style="fill: #f9cb61; stroke-width: 0px;"/>
  <path d="M38.87,31.29c-.51.29-1.03.58-1.53.89-1.94-4.67-3.9-9.36-6.09-13.92-.16-.32-.59-.26-.78-.03l-.17-.17c.88-.82,1.4-1.74,1.63-2.83,2.27,5.37,4.58,10.73,6.94,16.06Z" style="fill: #f9cb61; stroke-width: 0px;"/>
  <path d="M40.22,73.97c-1.64-1.55-3.37-2.98-5.42-4.03.26-.15.43-.42.31-.74-2.74-6.86-5.98-13.51-9.65-19.92-3.35-5.85-6.86-12.32-12.11-16.72.09-.03.17-.08.24-.18.77-1.12,1.19-2.26,1.33-3.51,11.42,13.46,20.1,28.22,25.3,45.1Z" style="fill: #f9cb61; stroke-width: 0px;"/>
  <path d="M31,14.61c-.14,1.05-.61,1.97-1.39,2.73-.1-.02-.2-.01-.31.02-2.52.7-4.99,1.53-7.39,2.59-.71.31-1.96.67-2.94,1.22.08-.21.15-.42.23-.64.78-2.22,1.91-3.07,4.1-3.81,2.52-.86,5.11-1.5,7.7-2.11Z" style="fill: #f9cb61; stroke-width: 0px;"/>
  <path d="M33.72,69.43c-3.65-1.59-7.8-2.12-11.77-2.19-2.79-6.19-6.71-11.86-11.13-17.02-2.18-2.56-5.2-4.73-7.15-7.41-2-2.76-1.7-3.52,1.14-5.42,2.34-1.57,4.82-2.73,7.45-3.73.24-.09.37-.26.44-.46,9.54,9.7,15.76,23.86,21.02,36.23Z" style="fill: #f9cb61; stroke-width: 0px;"/>
  <path d="M13.93,27.86c.09,1.48-.34,2.76-1.19,4.03-.07.09-.08.19-.08.27-.11.02-.21.07-.28.15-.13-.07-.3-.09-.5-.02-2.3.84-8.32,2.88-10.73,5.68.04-.38.1-.76.18-1.14.33-1.48,1.04-2.68,1.78-3.97.1-.19.08-.38,0-.54,3.49-1.83,7.06-3.31,10.83-4.46Z" style="fill: #f9cb61; stroke-width: 0px;"/>
</svg>