<?xml version="1.0" encoding="UTF-8"?>
<svg id="Layer_1" data-name="Layer 1" xmlns="http://www.w3.org/2000/svg" viewBox="0 0 2046.49 1717.58">
  <path d="M60.1,1289.69l1.79,289.55c8.9,28.62,17.8,57.23,40.35,78.48s58.74,35.13,94.93,49.02l1655.17.83c29.69-5.66,59.38-11.33,82.18-30.63s38.73-52.23,54.65-85.16l1.9-224.98L60.1,1289.69Z" style="fill: #e37b25; stroke-width: 0px;"/>
  <path d="M1985.92,1314.14l-1883.27,9.83-29.75,10.24c-2.73,84.46-5.47,168.92,28.55,186.76,5.52,2.89,12,4.03,19.27,4.03,27.28,0,65.73-16.05,106.33-16.05,15.37,0,31.05,2.3,46.55,8.64,66.09,27.03,128.92,127.54,208.09,127.54,1.53,0,3.06-.04,4.6-.12,81.35-4.02,180.08-115.95,240.75-146.63,14.11-7.14,26.17-9.88,36.66-9.88,34.59,0,52.14,29.82,70.34,30.06h.21c21.2,0,43.34-39.87,76.43-39.87,3.83,0,7.81.53,11.95,1.73,40.02,11.53,95.22,84.57,134.15,89.44,1.45.18,2.88.27,4.28.27,32.92,0,54.65-47.71,92.4-47.71,3.94,0,8.07.52,12.4,1.68,42.62,11.35,105.25,83.85,165.73,83.85,6.92,0,13.81-.95,20.63-3.05,66.52-20.43,127.21-149.89,187.61-154.11,1.03-.07,2.07-.11,3.1-.11,59.36,0,118.49,117.27,179.5,137.95,7.09,2.41,14.22,3.5,21.33,3.5,55.14,0,109.93-66.06,149.85-102.42,45.07-41.05,71.17-44.23,97.27-47.41l-4.96-128.16Z" style="fill: #d36e28; stroke-width: 0px;"/>
  <path d="M1989.74,1521.47c-7.37,19.84-14.4,35.75-21.07,47.76-29.14,57.47-70.29,87.88-123.47,91.25-22.23,2.28-76.28,5.06-162.15,8.32l-1371.54-5.47c-60.79-.48-94.64-1.41-101.56-2.78-36.6-2.57-69.14-17.62-97.6-45.15-13.63-12.52-30.51-33.47-50.62-62.86h0l.16,26,5.76,18.73c8.35,49.61,52.31,86.1,131.88,109.48l1655.52.31c37.91-6.23,64.6-16.43,80.05-30.61,15.68-12.31,33.71-40.57,54.07-84.77l.59-70.19h-.01v-.02Z" style="fill: #f7a156; stroke-width: 0px;"/>
  <path d="M181.52,1176.78l-34.92,24.48c-35.9,10.57-71.79,21.14-95.72,32.61s-35.9,23.83-39.34,44.98c-3.43,21.14,1.66,51.07,20.97,63.67,19.32,12.61,52.84,7.89,68.7,16.03,15.85,8.14,14.03,29.13,12.63,49.84s-2.36,41.12,3.12,55.78c5.44,14.53,17.21,23.4,34.02,23.4h.43c17.04-.15,39.19-9.35,64.67-14.73,9.91-2.09,20.33-3.61,31.25-3.61,17.15,0,35.55,3.75,55.2,14.88,32.16,18.24,67.68,56.27,97.16,77.2,29.48,20.93,52.91,24.76,78.55,25.37,2.1.05,4.21.08,6.33.08,23.87,0,49.66-3.55,78.21-20.05,31.09-17.97,65.43-51.3,92.3-83.2,26.87-31.9,46.26-62.38,70.63-67.51,2.65-.56,5.36-.82,8.12-.82,22.5,0,47.55,17.29,63.59,28.75,12.98,9.28,20.07,14.73,29.54,14.73,3.66,0,7.68-.81,12.52-2.53,17.41-6.17,45.56-24.03,61.45-34.68,8.56-5.74,13.56-9.39,19.46-9.39,5.05,0,10.77,2.68,19.96,9,19.91,13.71,56.12,44.58,74.97,64.37,15.16,15.91,19.09,24.66,31.02,24.66,2.9,0,6.28-.52,10.41-1.58,21.09-5.41,61.78-24.95,86.15-39.28,16.69-9.82,25.72-17.2,35.19-17.2,4.36,0,8.8,1.56,14.13,5.16,16.92,11.43,42.71,43.41,62.92,62.23,17.83,16.61,31.31,22.97,49.68,22.97,2.45,0,4.97-.11,7.61-.33,22.47-1.84,52.81-11.18,75.6-35.98,22.8-24.81,38.05-65.1,63.57-87.64,22.06-19.48,51.79-25.7,77.69-25.7,4.06,0,8.02.15,11.84.43,28.24,2.05,48.95,10.94,71.93,30.43,22.98,19.49,48.24,49.58,70.43,68.14,17.29,14.47,32.72,21.92,52.43,21.92,5.58,0,11.5-.6,17.91-1.8,29.02-5.47,67.94-23.43,92.76-46.4,24.82-22.98,35.54-50.97,56.88-61.4,21.34-10.42,53.3-3.28,74.72-9.77,21.42-6.49,32.29-26.62,38.9-50.01,6.6-23.39,8.93-50.03-5.13-72.59-14.06-22.55-44.51-41.02-74.97-59.48l-1755.45-35.45-.02.02Z" style="fill: #a8c838; stroke-width: 0px;"/>
  <path d="M1137.43,1196.09l-1012.67,11.54h0c-43.7,13.08-71.93,23.74-84.7,31.98-16.07,9.24-25.45,21.6-28.14,37.07-3.68,26.57,1.44,47.14,15.35,61.69,5.08,4.82,11.71,8.26,19.91,10.33l13.43,2.23c6.68-.43,12.87-.65,18.55-.65,21.52,0,35.86,3.11,43,9.34,8.65,1.26,15.76,23.8,21.32,67.63,2.76,6.43,6.4,10.7,10.9,12.8,5.74,2.78,13.2,4.17,22.36,4.18,1.91,0,3.89-.06,5.96-.18.18.01.4.02.65.02,5.35,0,26.12-2.44,62.32-7.32,7.26-.83,15.31-1.28,24.17-1.35,13.09.07,25.47,1.79,37.13,5.16,14.62,4.28,29.06,11.02,43.29,20.19l89.11,63.93c17.55,9.48,34.36,14.22,50.43,14.22h.69c20.09-.34,39.71-7.18,58.85-20.53.07.06.17.09.3.09,4.84,0,50.38-39.96,136.63-119.89,17.85-13.95,33.86-21.13,48.04-21.53.88-.06,1.78-.09,2.69-.09,6.29,0,13.34,1.47,21.18,4.39l48.03,27.24c6.79,3.13,13.23,4.69,19.33,4.69.62,0,1.24-.02,1.85-.05,7.57-.52,15.46-2.67,23.68-6.45,37.79-20.61,57.96-30.92,60.52-30.92.11,0,.19.02.24.06,7.77-2.87,15.08-4.3,21.93-4.3,3.21,0,6.31.31,9.32.94,8.59,1.91,17.71,6.71,27.37,14.41l58.53,52.94c8.45,6.14,17.11,9.69,25.99,10.68.86.05,1.71.07,2.57.07,8.02,0,16.33-2.1,24.92-6.3,42.55-26.12,65.45-39.18,68.7-39.18.12,0,.21.02.28.05,9.58-3.32,17.79-4.98,24.64-4.98,3.1,0,5.92.34,8.46,1.02,9.89,1.64,21.86,7.51,35.9,17.62l73.54,62.34c9.65,6.1,17.44,9.15,23.39,9.15.51,0,1-.02,1.48-.07,9.31-.32,18.28-4.32,26.92-12.01,47.68-56.62,81.42-88.97,101.21-97.02,28.97-16.36,57.54-24.53,85.69-24.53,4.9,0,9.79.25,14.67.75,20.59,1.82,42.09,8.7,64.49,20.65l128.44,80.84c9.85,4.87,19.77,7.31,29.77,7.31,4.14,0,8.3-.42,12.47-1.26,7.48-1.73,14.85-4.93,22.1-9.58,41.07-36.3,68.23-55.1,81.48-56.37,17.99-6.55,46.41-10.38,85.26-11.5l26.02-5.31h.01c28.37-43.23,32.37-81.35,12-114.34-9.99-14.88-34.12-33.43-72.4-55.67l-799.57-16.16h.02Z" style="fill: #59a645; stroke-width: 0px;"/>
  <path d="M1941.94,1191.91l-533.11,9.66-1100.52,19.95-167.58-18.58h0c-43.52,12.55-73.95,23.06-91.3,31.51h0l-.08,1.39v.07c.03,28.46,4.78,45.44,14.24,50.93,2.72,1.82,6.49,3.21,11.29,4.18,22.96,2.71,35.17,4.46,36.63,5.25,7.07,1.68,13.12,3.62,18.16,5.82l87,54.62c15.57,8.2,30.27,12.58,44.08,13.14,1.16.07,2.35.11,3.59.11,8.22,0,18.26-1.58,30.13-4.75l75.43-27.46c13.1-4.17,24.69-6.79,34.79-7.88,6.19-.68,12.58-1.01,19.16-1.01s12.81.31,19.48.93c6.53.57,13.59,1.4,21.18,2.5l65.92,10.04c12.61,1.35,23.43,2.02,32.45,2.02,3.09,0,5.98-.08,8.65-.24,11.54-.43,25.37-2.23,41.48-5.4l95.12-21.89c14.73-2.53,28.04-3.8,39.94-3.8h1.24c12.84.12,26.01,1.32,39.51,3.59h.02c3.33,0,31.24,6.01,83.72,18.03,14.82,2.71,26.47,4.07,34.94,4.08,1,.03,2.03.05,3.08.05,7.56,0,16.32-.82,26.26-2.47,41.95-9.82,65.03-14.74,69.24-14.74.15,0,.28,0,.38.02,7.82-.92,15.14-1.38,21.95-1.38,5.98,0,11.58.35,16.79,1.07,10.57,1.32,21.97,3.84,34.21,7.56,65.27,22.78,103.78,35.06,115.52,36.85,22.34,5.29,43.71,7.94,64.12,7.94,3.21,0,6.41-.07,9.58-.19,19.23-.84,40.68-4.14,64.32-9.9,5.72-.5,47.88-13.04,126.48-37.65,17.09-4.76,32.62-8.01,46.58-9.75,6.83-.91,13.98-1.37,21.43-1.37,9.7,0,19.94.77,30.7,2.32,7.41.11,36.77,7.75,88.07,22.93,9.46,2.08,18.45,3.12,26.97,3.12,2.5,0,4.95-.09,7.37-.27,7.06-.38,15.92-1.81,26.59-4.28l72.22-21.55c13.42-3.49,25.47-5.72,36.16-6.69,5.73-.56,11.88-.83,18.47-.83,4.86,0,9.96.15,15.29.45l19.59,1.61,53.39,6.1c5.67.35,10.53.53,14.58.53,5.68,0,9.77-.34,12.27-1.04,14.3-2.14,21.38-11.78,21.23-28.92-.44-16.51-5.71-38.33-15.8-65.46h.01-.01c-3.58-9.62-7.77-19.91-12.57-30.88h-.03Z" style="fill: #44813c; stroke-width: 0px;"/>
  <path d="M139.09,978.54c-24.57,28.41-49.15,56.81-59.25,87.66-10.11,30.84-5.74,64.13-2.47,93.96,3.28,29.83,5.48,56.2,24.63,76.5,19.15,20.3,55.26,34.53,91.37,48.76,11.44,4.51,17.88,5.7,24.19,5.7,7.12,0,14.08-1.51,27.87-1.51h.18l1558.76,1.53c48.89-7.86,97.78-15.72,125.95-37.15,28.16-21.43,35.59-56.44,41.44-89.41,5.85-32.97,10.12-63.9,1.75-92.14s-29.38-53.8-50.38-79.35l-1784.04-14.55h0Z" style="fill: #542911; stroke-width: 0px;"/>
  <path d="M139.09,978.55c-48.08,50.74-69.92,94.88-65.52,132.41.49,11.02,1.09,21.3,1.82,30.84h0c40.65,29.22,76.3,45.09,106.95,47.62,7.56,1.1,15.73,1.64,24.5,1.64,9.64,0,20.01-.66,31.11-1.99,9.38-1.07,21.25-3.02,35.61-5.85l99.45-20.97c12.23-2.06,24.13-3.09,35.69-3.09,6.27,0,12.45.3,18.52.91,15.02,1.62,30.84,6.82,47.47,15.59,8.4,3.24,32.56,20.44,72.5,51.59,8.67,5.66,16.25,8.52,22.75,8.58,7.43-.14,14.75-3.8,21.96-11l42.98-52.79c5.71-4.68,10.85-7.01,15.42-7.01.84,0,1.67.08,2.47.24,4.4.21,10.61,3.54,18.65,9.99,32.29,32.86,50.53,50.06,54.72,51.59,10.49,7.68,21.16,11.56,32.03,11.65,9.6-.48,19.2-3.39,28.8-8.72l71.33-48.51c12.65-7.31,22.9-11.41,30.76-12.31,2.16-.42,4.41-.63,6.76-.63,7.12,0,15.12,1.94,23.99,5.81l73.36,48.31c14,7.3,26.65,11.02,37.95,11.18.43,0,.85.01,1.29.01,12.61,0,26.18-2.77,40.7-8.3,62.31-28.38,95.27-42.57,98.88-42.57.18,0,.29.04.32.11,13.76-4.14,25.59-6.21,35.49-6.21,2.11,0,4.13.09,6.06.28,11.59.49,24.93,5.04,40.02,13.65l87.26,69.03c14.18,9.51,27,14.34,38.47,14.5h.32c10.68,0,21.3-2.36,31.87-7.09l83-46.96c16.41-7.68,30.29-11.91,41.65-12.68,2.84-.34,5.87-.51,9.1-.51,9.58,0,20.88,1.49,33.89,4.48l90.9,28.71c5.43,1.1,10.48,1.65,15.13,1.65,5.83,0,11.04-.86,15.65-2.59,9-3.54,17.1-10.71,24.3-21.54,4.23-4.43,14.67-26.24,31.32-65.41,4.44-7.91,8.26-12.14,11.44-12.69.7-.12,1.41-.18,2.1-.18,4.16,0,8.26,2.07,12.31,6.21,31.48,38.47,51.87,59.5,61.16,63.11,8.26,5.81,18.09,8.72,29.49,8.72,5.53,0,11.44-.68,17.71-2.05,18.58-3.56,44.91-18.15,78.98-43.77h.01c4.99-19.01,8.09-38.93,9.3-59.73v-.04c2.51-35.56-16.97-75.11-58.44-118.65l-1781.72-14.53v-.04Z" style="fill: #632c10; stroke-width: 0px;"/>
  <path d="M139.09,978.54c-.05.06-.09.1-.14.16h0c-20.86,22.03-36.77,42.81-47.73,62.35h0c43.29,36.68,79.61,56.78,108.96,60.31,6.74,1.13,13.7,1.7,20.89,1.7,8.4,0,17.1-.77,26.11-2.32l28.3-6.11c49.21-14.26,76.36-21.64,81.43-22.13,13.46-2.93,26.02-4.4,37.66-4.4,2.75,0,5.45.08,8.09.24,13.4,1.04,26.83,4.56,40.29,10.57l79.25,41.68c11.38,4.21,21.59,6.32,30.63,6.32,1.34,0,2.66-.05,3.95-.14,10.29-.61,20.75-2.77,31.39-6.45l76.86-33.55c10.76-3.85,19.2-5.78,25.32-5.79,1.06,0,2.05.06,2.98.18,7.47.51,14.8,3.33,21.99,8.46l42.09,36.26c7.45,4.02,14.43,6.02,20.96,6.02.97,0,1.93-.04,2.88-.13,7.42-.38,16.35-2.47,26.8-6.25,45.83-19.52,70.2-29.28,73.09-29.28h.11c11.03-3.42,21.25-5.13,30.66-5.13,1.38,0,2.74.03,4.09.11,10.77.88,21.14,4.2,31.13,9.98l62.85,42.53c9.08,4.7,18.56,7.22,28.43,7.57,10.18-.02,21.03-2.4,32.55-7.14,55.18-27.09,85.22-40.74,90.12-40.95,14.59-4.88,28.59-7.32,41.99-7.32,1.77,0,3.52.04,5.26.12,13.86.57,29.8,4.93,47.84,13.09,3.94.07,38.25,20.15,102.92,60.25,15.63,7.98,28.23,12.02,37.79,12.13.6.03,1.19.04,1.79.04,8.97,0,18.02-3.07,27.13-9.22l59.2-58.24c11.09-8.54,21.56-12.82,31.4-12.82h.82c10.96,0,23.82,3.93,38.58,11.8l86.51,56.77c11.34,6.91,21.11,11.13,29.32,12.64,1.73.33,3.42.49,5.07.49,7.76,0,14.71-3.61,20.85-10.84h.06c2.72,0,13.36-21.56,31.94-64.66,5.15-8.35,10.88-13.11,17.19-14.27,1.35-.19,2.74-.29,4.17-.29,6.96,0,14.78,2.33,23.47,6.98l60.82,38.31c8.88,5.29,16.75,9.25,23.6,11.89,9.18,3.3,17.66,4.94,25.41,4.94,5.72,0,11.05-.9,15.99-2.69,19.37-5.02,43.8-25.74,73.3-62.17l-29.15-70.16h.01s-.02-.02-.02-.03l-3.07-7.39-2.98-.1h-.01.01l-758.25-25.41-1039.41-8.47-1.55-.02v-.02Z" style="fill: #7b3919; stroke-width: 0px;"/>
  <path d="M1706,1156.66c-2.73,0-5.67,1.05-8.9,3.61-10.32,8.2-23.61,31.94-24,45.44-.29,10.22,6.81,14.58,13.63,14.58,2.19,0,4.35-.45,6.23-1.3,7.71-3.5,10.62-13.77,13.53-24.04,4.39-15.51,27.01-16.82,15.6-28.21-5.04-5.04-10.08-10.08-16.09-10.08h0Z" style="fill: #894c20; stroke-width: 0px;"/>
  <path d="M906.96,1100.3c-3.9,0-6.48,2.26-6.04,7.81.85,10.48,1.69,20.96,9.29,26.96,4.86,3.84,12.48,5.85,18.58,5.85,3.43,0,6.38-.63,8.08-1.94,4.73-3.62-.15-12.38-5.02-21.15-5.17-9.3-17.44-17.54-24.89-17.54h0Z" style="fill: #7b3919; stroke-width: 0px;"/>
  <path d="M955.54,1163.79c-4,0-7.33,2.09-6.66,6.43.63,4.04,1.25,8.09,6.29,11.16,3.57,2.17,9.34,3.86,13.29,3.86,1.63,0,2.94-.29,3.66-.95,2.47-2.26-2.05-8.89-6.57-15.52-2.24-3.28-6.4-4.99-10.02-4.99h.01Z" style="fill: #7b3919; stroke-width: 0px;"/>
  <path d="M1892.56,1125.32c-7.9,0-17.35,13.88-11.16,21.86,6.95,8.96,13.89,17.91,24.9,21.71,4.23,1.46,9.06,2.16,13.46,2.16,7.05,0,12.99-1.79,13.59-5.11.99-5.39-12.11-14.81-20.37-21.79-8.26-6.97-11.69-11.49-15.12-16.01-1.5-1.98-3.36-2.83-5.3-2.83h0Z" style="fill: #894c20; stroke-width: 0px;"/>
  <path d="M143.7,1129.34c-5.33,0-9.84,1.44-12.56,4.12-7.04,6.94-2.17,22.2-5.67,26.92-3.5,4.71-15.38-1.13-18,7.46-2.61,8.59,4.04,31.61,15.69,38.56,3.19,1.9,6.76,2.6,10.46,2.6,9.8,0,20.54-4.87,27.75-5.08h.48c9.55,0,12.72,8.43,15.88,16.86,1.53,4.08,4.66,5.77,8.29,5.77,9.7,0,22.94-12.09,18.75-22.97-9.55-24.76-19.09-49.51-33.35-62.59-8.75-8.02-19.27-11.64-27.71-11.64h-.01Z" style="fill: #7b3919; stroke-width: 0px;"/>
  <path d="M208.25,1068.2c-.82,0-1.67.07-2.56.21-10.82,1.77-21.64,3.53-25.14,12.62-3.5,9.08.3,25.49,6.86,30.77,1.8,1.45,3.81,2.06,5.97,2.06,5.7,0,12.45-4.24,19.21-8.49,15.16-9.52,12.02-37.17-4.34-37.17h0Z" style="fill: #894c20; stroke-width: 0px;"/>
  <path d="M481.26,1155.36c-1.76,0-3.45.5-5.06,1.7-9.28,6.89-15.83,36.81-7.92,47.93,3.15,4.43,8.59,5.87,15.32,5.87,10.16,0,23.25-3.29,35.79-4.58,4.51-.46,8.95-.66,13.34-.66,15.88,0,31.02,2.67,46.16,5.34,1.16.2,2.32.3,3.46.3,22.33,0,39.43-37.52,17.3-44.26-14.28-4.35-28.57-8.7-41.54-8.7-2.84,0-5.61.21-8.31.67-13.25,2.27-24.65,10.68-35.61,10.68-1.46,0-2.92-.15-4.37-.48-10.19-2.35-20.17-13.79-28.56-13.79h0v-.02Z" style="fill: #7b3919; stroke-width: 0px;"/>
  <path d="M703.35,1107.68c-.64,0-1.32.04-2.04.11-22.55,2.4-45.1,4.79-52.93,13.44-7.83,8.65-.93,23.56,5.96,38.46,2.27,4.9,5.78,6.97,9.98,6.97,22.43,0,64.3-58.98,39.03-58.98h0Z" style="fill: #894c20; stroke-width: 0px;"/>
  <path d="M1213.87,1139.96c-2.54,0-4.93.26-7.14.84-13.93,3.63-20.73,19.69-42.1,22.8-3.19.46-6.7.64-10.41.64-11.91,0-25.92-1.82-38.09-1.82-9.49,0-17.86,1.1-23.23,5.05-14.42,10.57-7.34,41.54,10.95,48.16,2.8,1.01,5.85,1.45,9.13,1.45,18.13,0,42.85-13.56,66.18-19,9.41-2.19,18.6-3.07,27.64-3.07,17.39,0,34.23,3.23,51.07,6.45,1.15.22,2.24.32,3.29.32,20.07,0,22.26-38.43,1.66-47.03-17.73-7.41-35.46-14.81-48.94-14.81h0v.02Z" style="fill: #7b3919; stroke-width: 0px;"/>
  <path d="M1405.16,1192.79c-5.64,0-10.49.94-14.2,3.25-11.9,7.4-12.14,28.85-12.38,50.29-.1,9.05,5.03,12.68,12.74,12.68,28.09,0,90.43-48.12,58.68-57.08-16.21-4.57-32.42-9.14-44.84-9.14h0Z" style="fill: #7b3919; stroke-width: 0px;"/>
  <path d="M1789.91,1110.23c-3.17,0-6.21,1.96-8.94,6.43-8.71,14.25-17.41,28.5-11.95,42.57,5.46,14.07,25.08,27.97,44.7,41.87,3.01,2.14,5.47,3.1,7.43,3.1,19.36,0-9.24-93.98-31.24-93.98h0Z" style="fill: #894c20; stroke-width: 0px;"/>
  <path d="M1300.94,1048.74c-1.66,0-3.23.37-4.69,1.22-6.64,3.87-10.87,17.65-15.11,31.43-1.64,5.33.97,7.47,5.6,7.47,14.49,0,48.74-20.98,34.22-30.68-7.06-4.72-14.11-9.44-20.03-9.44h.01Z" style="fill: #894c20; stroke-width: 0px;"/>
  <path d="M1401.08,1095.58c-.81,0-1.58.11-2.34.34-7.96,2.47-13.09,18.64-18.21,34.81l47.79-14.83c-9.79-10.16-19.57-20.32-27.25-20.32h0Z" style="fill: #894c20; stroke-width: 0px;"/>
  <path d="M972,1041.74c-4.85,0-8.47,1.1-9.77,4.28-2.75,6.73,4.89,22.79,12.53,38.84,1.4,2.93,3.22,4.19,5.24,4.19,11.53,0,29.48-40.99,11.27-44.58-6.93-1.37-13.86-2.73-19.27-2.73h0Z" style="fill: #894c20; stroke-width: 0px;"/>
  <path d="M579.3,1049.74c-6.07,0-10.73,1.65-12.23,6.98-2.7,9.63,4.95,31.29,12.59,52.94,1.48,4.2,3.53,6,5.85,6,13.3,0,35.45-59.15,10.33-63.77-5.82-1.07-11.64-2.15-16.55-2.15h0Z" style="fill: #894c20; stroke-width: 0px;"/>
  <path d="M394.94,1052.1c-.71,0-1.37.08-1.98.23-7,1.83-7.38,14.66-7.75,27.5-.2,6.88,5.76,9.52,13.42,9.52,16.51,0,40.91-12.22,28.6-20.5-12.44-8.37-24.89-16.74-32.29-16.74h0Z" style="fill: #894c20; stroke-width: 0px;"/>
  <path d="M896.25,1236.98c-.66,0-1.34.02-2.01.06-13.96.78-30.5,9.85-48.44,10.31-.49.01-.99.02-1.49.02-13.02,0-26.53-4.18-33.97-4.18-2.56,0-4.41.5-5.25,1.84-3.4,5.38,9.17,24.29,25.12,29.34,3.25,1.03,6.63,1.49,10.13,1.49,13.69,0,29.1-7,44.51-14,7.9-3.59,18.87-4.21,28.61-4.21,5.24,0,10.13.18,14,.18,8.53,0,12.09-.88,3.49-6.56-10.82-7.14-21.65-14.29-34.7-14.29h0Z" style="fill: #7b3919; stroke-width: 0px;"/>
  <path d="M670.87,1235.19c-10.28,0-23.53,7.73-36.77,15.47-15.54,9.07,14.25,16.46,38.38,16.46,17.66,0,32.29-3.96,23.91-14.11-7.19-8.71-14.39-17.41-24.77-17.8-.25-.01-.5-.02-.75-.02h0Z" style="fill: #7b3919; stroke-width: 0px;"/>
  <path d="M348.6,1230.96c-2.4,0-4.88.42-7.47,1.38-11.86,4.41-25.84,20.15-39.81,35.9-6.98,7.86-2.26,11.03,7.57,11.03,25.62,0,85.9-21.54,63.57-37.45-7.61-5.43-15.22-10.85-23.85-10.85h-.01Z" style="fill: #7b3919; stroke-width: 0px;"/>
  <path d="M1563.19,1245.75c-4.06,0-6.88.53-7.58,1.96-1.7,3.47,9.04,12.25,19.78,21.04,1.08.88,2.22,1.27,3.36,1.27,8.34,0,16.95-20.81,6.83-22.12-8.3-1.07-16.61-2.15-22.39-2.15h0Z" style="fill: #7b3919; stroke-width: 0px;"/>
  <path d="M1765.09,1238.72c-4.03,0-7.02.5-8.59,1.7-5.67,4.36,7.55,17.89,20.77,31.41,2.53,2.59,5.78,3.68,9.32,3.68,17.47,0,42.2-26.38,24.71-29.81-17.8-3.49-35.6-6.98-46.21-6.98h0Z" style="fill: #7b3919; stroke-width: 0px;"/>
  <path d="M129.18,918.32l-49.35,29.61c-2.35,9.64-4.71,19.29-.18,32.13,4.52,12.84,15.93,28.89,39.99,33.85,6.19,1.28,13.21,1.82,20.86,1.82,22.1,0,49.39-4.54,76.68-9.08,16.8,9.17,33.6,18.34,30.79,45.03-2.81,26.7-25.24,70.93-26.33,101.8s19.16,48.37,40.2,55.22c7.1,2.31,14.28,3.41,21.23,3.41,13.65,0,26.36-4.23,35.66-11.79,14.04-11.42,20.29-30.44,16.16-60.6s-18.62-71.46-18.41-95.15c.21-23.68,15.12-29.74,30.04-35.8l104.27-1.93c14.6,8.96,29.2,17.92,29.66,36.81.47,18.89-13.19,47.7-12.48,66.06s15.8,26.26,32.36,26.47h.69c16.36,0,33.89-7.49,34.29-23.77.41-16.5-16.8-42.03-16.99-60.44-.18-18.42,16.66-29.74,33.51-41.05l195.84,3.28c10.56,10.45,21.12,20.9,18.53,48.94-2.59,28.04-18.33,73.67-19.39,100.74-1.06,27.06,12.56,35.56,30.79,38.82,5.35.96,11.11,1.46,16.96,1.46,14.07,0,28.73-2.92,39.8-9.49,15.68-9.31,24.18-25.95,20.91-55.88s-18.32-73.16-17.54-96.91c.79-23.75,17.41-28.04,34.04-32.31l185.21.89c14.57,8.16,29.14,16.32,28.99,34.56-.14,18.23-15,46.54-14.45,65.6.56,19.06,16.53,28.86,32.75,30.95,2.08.27,4.16.41,6.22.41,13.96,0,26.59-6.45,27.58-23.27,1.13-19.3-13.06-52.26-11.63-72.04s18.47-26.39,35.52-32.99l177.9-2.49c34.35,21.78,68.71,43.56,99.29,74.7,30.57,31.14,57.37,71.64,79.12,95.27,20.52,22.3,36.54,29.58,52.17,29.58.93,0,1.87-.03,2.8-.08,16.53-.89,32.9-9.44,58.1-37s59.21-74.12,77.95-97.36c12.97-16.1,18.61-21,24.36-21,2.55,0,5.12.97,8.38,2.36,10.56,4.51,28.24,13.44,49.46,24.72,20.62,10.96,44.58,24.13,63.12,24.13.54,0,1.07-.01,1.6-.04,18.75-.8,31.49-16.01,42.83-34.39s21.28-39.94,31.22-61.5c16.71-5.49,33.42-10.98,42.26-22.88,8.84-11.89,9.8-30.18,1.51-42.32-8.28-12.13-25.82-18.11-43.36-24.08l-1801.45-2.95-.04-.03Z" style="fill: #f99f1b; stroke-width: 0px;"/>
  <path d="M155.35,915.73c-22.34,1.33-44.69,2.66-57.93,8.93-13.25,6.27-17.4,17.47-21.54,28.67l.9,27.68c21.65-.54,43.29-1.09,63.61-1.09,41.31,0,77.15,2.25,96.42,11.32,28.75,13.54,20.61,42.25,10.41,73.66-10.2,31.41-22.45,65.5-2.62,83.23,9.05,8.09,24.79,12.77,40.37,12.77,18.56,0,36.9-6.64,43.47-22.07,12.09-28.38-15.66-86.51-14.01-116.44,1.64-29.93,32.67-31.66,68.28-32.88,8.23-.28,16.7-.53,25.03-.53,27.73,0,53.95,2.79,64.58,16.65,13.82,18.02,1.29,54.75,8.84,73.39,3.9,9.61,13.14,14.41,22.2,14.41,8.51,0,16.86-4.23,20.48-12.67,7.48-17.44-5.2-52.87,8.21-70.76,13.41-17.89,52.91-18.24,102.95-18.45,4.39-.02,8.86-.03,13.37-.03,46.94,0,98.56,1.88,112.39,23.9,15.16,24.15-15.09,72.5-1.83,100.53,7.69,16.25,29.99,25.67,50.27,25.67,14.7,0,28.34-4.95,34.56-15.85,14.79-25.92-12.41-85.46.74-114.5,9.75-21.54,41.69-26.31,77.61-26.31,12.51,0,25.5.58,38.21,1.23,49.18,2.51,94.05,6.08,110.07,26.54,16.02,20.46,3.19,57.82,12.04,77.01,4.42,9.58,14.24,14.63,24.08,14.63s19.73-5.08,24.17-15.76c8.86-21.33-3.95-65.01,18.54-84,15.99-13.5,49.82-14.52,88.69-14.52,6.9,0,13.95.04,21.09.04,9.22,0,18.58-.06,27.93-.3,19.12-.5,38.22-1.8,56.85-1.8,37.32,0,72.81,5.21,103.07,32.49,44.55,40.16,77.76,128.16,122.33,128.16.82,0,1.64-.03,2.47-.09,45.82-3.34,103.86-100.53,153.2-121.8,7.99-3.44,15.74-4.89,23.25-4.89,38.95,0,71.43,39.05,95.58,43.05,1.42.23,2.8.35,4.16.35,26.32,0,42.46-42.88,58.59-85.76l74.79-.56-18.45-49.26-82.3-12.3-1725.12-1.69h0Z" style="fill: #f9d316; stroke-width: 0px;"/>
  <path d="M1923.27,912l-1789.7,5.28-49.64,23.15c54.74,15.7,109.48,31.39,172.46,31.39,4.69,0,9.42-.09,14.2-.27,69.04-2.61,148.32-24.67,214.49-25.44,1.21-.02,2.41-.02,3.61-.02,64.49,0,116.48,19.82,163.38,21.14,1.74.05,3.47.08,5.19.08,45.68,0,87.04-16.58,139.82-16.95h1.84c52.63,0,116.29,15.59,173.58,15.59,1.97,0,3.93-.02,5.88-.06,59.45-1.16,111.25-20.56,160.48-22.06,2.18-.07,4.35-.1,6.52-.1,39.16,0,76.61,10.29,111.38,10.29,6.81,0,13.52-.4,20.12-1.34,33.09-4.73,63.41-23.27,98.8-23.27,9.7,0,19.79,1.4,30.42,4.85,49.39,16.05,110.5,76.61,156.39,78.67.82.04,1.64.05,2.45.05,44.54,0,74.81-54.66,112.25-67.85,6.93-2.45,14.11-3.46,21.42-3.46,32.84,0,68.2,20.65,94.96,25.39,4.42.79,8.6,1.13,12.6,1.13,25.61,0,43.68-14.33,67.43-20.94,13.52-3.77,28.89-5.04,45.2-5.04s34.6,1.35,52.4,2.69l-47.96-32.91h.03Z" style="fill: #feec90; stroke-width: 0px;"/>
  <path d="M105.83,733.65c-13.03,32.24-26.07,64.48-29.55,87.94-3.48,23.45,2.59,38.12,12.58,53.3,9.99,15.18,23.91,30.88,37.83,46.57l10.95-1.57,1765.9-3.95c25-10.34,49.99-20.69,59.77-48.5s4.33-73.08-1.12-118.36l-1856.36-15.44h0Z" style="fill: #c82327; stroke-width: 0px;"/>
  <path d="M75.53,735.26l16.35,41.11c8.01,33.47,16.02,66.94,44.07,88.44,19.43,14.89,48.47,24.03,72.94,24.03,10.86,0,20.83-1.81,28.64-5.71,25.43-12.7,28.18-47.61,42.16-50.42.64-.13,1.3-.19,1.99-.19,13.45,0,35.43,23.47,55.85,23.47,1.29,0,2.57-.09,3.85-.29,21.23-3.32,40.04-35.9,66.46-35.9,1.56,0,3.15.11,4.76.35,28.29,4.2,65.35,47.13,97.36,47.13.78,0,1.56-.03,2.34-.08,32.52-2.2,59.38-51.54,86.74-53.65.62-.05,1.25-.07,1.88-.07,26.76,0,53.99,43.09,81.5,44.16.35.02.71.02,1.06.02,27.81,0,55.69-41.87,66.78-42.45h.23c10.92,0,5.22,41.3,33.22,60.44,13.75,9.4,35.61,13.46,57.82,13.46,23.35,0,47.08-4.49,62.15-11.98,29.39-14.62,25.79-40.69,36.78-43.13.6-.14,1.25-.2,1.93-.2,10.79,0,31.72,15.54,52.4,15.54,2.03,0,4.05-.15,6.06-.48,23.7-3.85,45.69-32.47,70.97-32.47h.47c25.09.35,53.42,29.12,80.38,29.12.41,0,.83,0,1.24-.02,26.32-.88,51.26-30.1,69.8-30.1.72,0,1.42.04,2.11.13,18.73,2.43,30.36,38.75,58.81,56.54,13.24,8.27,30.12,12.54,48.11,12.54,20.67,0,42.81-5.62,62.56-17.25,35-20.59,62.5-60.02,90.42-60.02,1.54,0,3.09.12,4.64.38,29.53,4.8,60,57.1,86.73,58.09.26.01.52.01.78.01,26.39,0,49.17-49.37,75.69-50.26.25,0,.5-.01.74-.01,26.23,0,56.11,46.3,92.42,46.3.51,0,1.02,0,1.54-.03,37.35-1.35,81.48-52.57,109.38-52.79h.18c27.77,0,39.46,50.58,61.24,58.65,2.18.81,4.45,1.19,6.82,1.19,21.39,0,50.18-31.16,78.98-62.32l-139.67-70.5-1789.66-.77h0Z" style="fill: #aa2124; stroke-width: 0px;"/>
  <path d="M33.6,714.29l-22.75,48.45,34.26,37.59,70.93-27.28,30.54,62.08,32.45,29.04,50.34-11.96,35.86-73.28,64.86,43.3,89.84-50.18,53.53,41.6,47.96,13.5,87.76-60.13,57.54,47.98,60.58-24.91,50.87-25.1,6.33,71.91,47.79,38.83,56.38-15.45,23.3-49.16,16.06-39.81,51.87,45.41c12.5-1.45,24.99-2.91,40.19-12.94,15.2-10.02,33.1-28.62,45.83-32.47,1.78-.54,3.46-.79,5.07-.79,9.9,0,17.19,9.45,29.43,19.37,11.61,9.41,27.66,19.26,44.36,19.26,3.77,0,7.58-.5,11.38-1.62,20.6-6.1,40.88-30.49,57.73-35.73,2.47-.77,4.87-1.12,7.2-1.12,13.6,0,25.25,12.05,38.08,25.09,15.04,15.29,31.72,31.94,45.39,43.92,10.22,8.96,18.77,15.31,30.87,15.31,4.09,0,8.57-.73,13.67-2.32,20.18-6.31,49.87-26.26,71.44-45.95,21.57-19.69,35.03-39.12,51.75-44.2,3.14-.95,6.4-1.41,9.73-1.41,14.41,0,30.22,8.41,44.17,20.64,17.18,15.07,31.56,35.95,44.82,38.64,1.02.21,2.03.31,3.05.31,12.09,0,23.33-14.27,34.9-28.24,12.54-15.13,25.45-29.88,40.54-30.39.27,0,.53-.02.81-.02,14.89,0,31.84,13.53,48.71,28.22,15.27,13.29,30.46,27.53,50.75,27.53,2.53,0,5.14-.22,7.83-.69,24.33-4.26,55.9-28.93,76.22-42.39,12-7.95,20.08-11.98,27.35-11.98,5.04,0,9.69,1.94,14.98,5.85,12.94,9.56,29.73,30.91,47.46,47.28,16.01,14.79,32.76,25.53,50.32,25.53,1.88,0,3.78-.12,5.68-.38,19.62-2.64,40.22-19.33,50.83-33.63,10.61-14.31,11.25-26.22,4.72-41.24s-20.21-33.14-33.89-51.25l-1967.66-.64v.02Z" style="fill: #a8c838; stroke-width: 0px;"/>
  <path d="M1954.8,712.24l-1112.67,2.78-773.22,1.67c-14.81,14.26-29.61,28.51-30.5,39.34-.68,8.32,6.86,14.62,18.84,14.62,3.61,0,7.63-.57,11.94-1.83,15.19-4.44,34.09-17.41,50.05-17.41,3.62,0,7.09.67,10.33,2.26,17.52,8.59,28.31,44.06,42.49,59.91,5.94,6.64,12.46,9.84,18.94,9.84,8.99,0,17.87-6.16,24.93-17.84,12.14-20.1,18.85-56.54,39.59-56.91h.32c19.98,0,52.72,32.7,81.57,32.7,1.13,0,2.25-.05,3.37-.16,28.38-2.65,52.27-40.21,78.31-40.21,1.29,0,2.59.09,3.9.29,27.31,4.07,57.3,52.65,85.87,52.65.27,0,.55,0,.83-.01,28.82-.95,56.17-52.32,84.9-57.3,1.63-.28,3.26-.42,4.9-.42,26.75,0,54.91,35.41,88.37,35.41.64,0,1.28-.01,1.92-.04,34.02-1.39,73.52-40.31,95.69-40.31,1.54,0,2.99.19,4.35.59,21.02,6.17,20.42,62.91,33.63,90.69,6.58,13.84,16.59,20.5,26.7,20.5s20.42-6.75,27.35-19.71c13.81-25.83,14.41-76.32,31.93-81.8,1.14-.36,2.35-.52,3.62-.52,18.27,0,50.03,34.19,78.76,34.19h.42c30.82-.36,58.02-40.54,85.15-40.54h.06c27.15.06,54.22,40.41,79.48,40.79h.35c22.95,0,44.43-32.71,72.02-32.71,2.61,0,5.29.29,8.02.94,31.01,7.31,69.91,59.68,110.58,59.68.9,0,1.8-.02,2.71-.08,41.64-2.43,84.98-61.82,124.68-69.04,2.94-.54,5.87-.78,8.76-.78,36.24,0,69.06,38.63,94.8,39.55.32.01.63.02.95.02,26.58,0,45.67-39.85,72.4-39.85.71,0,1.43.03,2.16.09,27.76,2.23,63.93,48.4,100.71,48.4.56,0,1.12-.01,1.69-.03,36.9-1.44,74.29-50.69,108.1-50.69.42,0,.84,0,1.25.02,34.15,1.25,64.57,54.2,91.75,71.72,7.72,4.98,15.18,7.1,21.88,7.1,16.88,0,28.94-13.45,28.19-28.46-1.05-20.98-27.07-45.02-53.11-69.06h0v-.04Z" style="fill: #59a645; stroke-width: 0px;"/>
  <path d="M1041.44,9.83c-93.55,0-197.57,8.11-291.25,25.82-99.87,18.88-187.98,48.67-278.44,94.04-90.47,45.37-183.28,106.31-252.16,173.2s-113.83,139.72-139.18,209.29c-25.35,69.57-31.12,135.89-36.88,202.21l195.12-.91,1767.56-7.19c-4.76-45.31-9.52-90.62-19.04-136.05s-23.8-90.97-60.22-145.57c-36.43-54.6-94.99-118.26-158.15-170.76-63.16-52.5-130.9-93.84-205.23-129.04-74.34-35.2-155.27-64.27-238.07-83.91-82.81-19.65-167.49-29.9-265.64-31.03-6.08-.07-12.22-.11-18.4-.11h-.02Z" style="fill: #e37b25; stroke-width: 0px;"/>
  <path d="M173.71,352.24c-1.77,2.13-3.52,4.27-5.25,6.41h0l1.91,2.14c-53.57,90.86-87.17,156.48-100.8,196.89-11.78,32.48-19.53,68.2-23.22,107.17-1.54,16.22-2.38,33-2.51,50.35l1419.11-3.07c-27.65-.92-54.98-2.05-81.98-3.38-325.12-16.07-603.92-62.32-836.41-138.73-100.48-33.65-185.29-74.77-254.41-123.36-35.35-23.67-74.16-55.14-116.42-94.41h-.02Z" style="fill: #f7a156; stroke-width: 0px;"/>
  <path d="M1617.28,153.28c101.71,93.7,169.24,176.32,202.6,247.87,48.27,93.77,32.2,157.2-48.19,190.29-91.97,38.27-231.62,63.72-418.95,76.34-70.1,5.15-164.59,9.7-283.48,13.66-36.22,1.91-267.88,7.64-694.97,17.21-83.82,2.36-164.64,5.69-242.49,10l1175.19,3.82,699.17,2.27c2.12-65.39-8.14-129.09-30.81-191.09-10.02-27.42-22.47-54.5-37.34-81.25h.01c-50.28-80.11-122.7-155.33-217.25-225.67-33.89-23.07-68.37-44.22-103.46-63.43h-.01l-.02-.02Z" style="fill: #d36e28; stroke-width: 0px;"/>
  <path d="M918.95,121.94c-142.52,0-282.17,38.74-365.73,109.98-131.39,112.02-74.27,261.95,127.37,334.96,73.55,26.63,156.21,39.36,237.94,39.36,142.23,0,281.64-38.56,365.27-109.55,131.84-111.91,75.26-262.04-126.59-335.26-73.66-26.72-156.43-39.49-238.26-39.49h0Z" style="fill: #ee8e3b; stroke-width: 0px;"/>
  <path d="M167.85,591.73c-1.01,0-2.06.09-3.14.29-9.82,1.75-22.15,11.74-29.18,24.63-7.03,12.89-8.78,28.66-10.53,44.45l-.18.47c14.69-6.48,29.38-12.95,40.11-22.67s17.49-22.68,17.21-32.41c-.25-8.66-6.08-14.75-14.29-14.75h0Z" style="fill: #fed5b1; stroke-width: 0px;"/>
  <path d="M377.28,428.49c-1.01,0-2.06.09-3.14.29-9.84,1.75-22.18,11.76-29.23,24.67-7.05,12.91-8.82,28.71-10.58,44.52l-.18.47c14.71-6.48,29.43-12.97,40.17-22.71,10.75-9.73,17.53-22.72,17.25-32.46-.24-8.67-6.07-14.78-14.29-14.78h0Z" style="fill: #fed5b1; stroke-width: 0px;"/>
  <path d="M563.71,560.08c-1.01,0-2.06.09-3.14.29-9.84,1.75-22.18,11.75-29.25,24.65-7.06,12.89-8.83,28.68-10.61,44.46l-.18.47c14.72-6.48,29.43-12.96,40.18-22.68,10.75-9.73,17.54-22.69,17.27-32.43-.24-8.66-6.06-14.76-14.27-14.76h0Z" style="fill: #fed5b1; stroke-width: 0px;"/>
  <path d="M564.59,209.09c-8.29,0-17.98,2.35-26.43,6.97-12.92,7.06-22.93,19.42-32.93,31.78l-.41.3c11.38,1.77,22.75,3.55,33.55,3.55,4.33,0,8.56-.28,12.66-.97,14.33-2.39,27.06-9.66,32.08-18.01,5.02-8.35,2.33-17.79-6.93-21.62-3.2-1.33-7.2-1.98-11.58-1.98h0v-.02Z" style="fill: #fed5b1; stroke-width: 0px;"/>
  <path d="M731.66,218.91c-3.1,0-6.32,1.09-9.32,3.4-7.93,6.11-14.3,20.74-14.64,35.5-.34,14.77,5.34,29.67,11.02,44.57l.06.5c10.09-12.58,20.17-25.16,25.25-38.8,5.07-13.64,5.14-28.35.43-36.91-2.93-5.32-7.7-8.27-12.8-8.27h0Z" style="fill: #fed5b1; stroke-width: 0px;"/>
  <path d="M797.52,436.83c-3.78,0-7.6,1.65-10.79,5.07-6.8,7.32-10.68,22.78-8.59,37.38,2.08,14.6,10.12,28.34,18.17,42.08l.14.49c7.87-14.05,15.75-28.1,18.51-42.38,2.76-14.27.41-28.77-5.63-36.43-3.22-4.07-7.48-6.21-11.8-6.21h-.01Z" style="fill: #fed5b1; stroke-width: 0px;"/>
  <path d="M997.6,278.48c-3.3,0-6.71,1.24-9.8,3.87-7.63,6.49-13.29,21.41-12.93,36.16.36,14.76,6.75,29.36,13.13,43.97l.08.5c9.47-13.06,18.95-26.11,23.37-39.98s3.79-28.56-1.33-36.88c-3.04-4.95-7.67-7.64-12.53-7.64h.01Z" style="fill: #fed5b1; stroke-width: 0px;"/>
  <path d="M1011.12,546.7c-8.12,0-14.27,5.69-14.39,14.59-.13,10,7.35,24.07,18.67,33.51,11.32,9.43,26.47,14.23,41.62,19.02l.43.27c-3.58-15.72-7.17-31.43-14.68-43.88-7.52-12.45-18.96-21.62-28.55-23.25-1.06-.18-2.09-.27-3.09-.27h-.01Z" style="fill: #fed5b1; stroke-width: 0px;"/>
  <path d="M1031.99,73.96c-7.67,0-13.67,5.28-14.27,13.84-.7,10.02,5.99,24.55,16.79,34.65,10.79,10.09,25.68,15.76,40.57,21.42l.41.3c-2.69-15.96-5.4-31.92-12.21-44.82-6.81-12.9-17.75-22.75-27.26-24.91-1.38-.32-2.73-.47-4.04-.47h.01Z" style="fill: #fed5b1; stroke-width: 0px;"/>
  <path d="M1197.06,280.53c-3.34,0-6.79,1.27-9.89,3.97-7.57,6.56-13.1,21.53-12.61,36.29.49,14.75,7.01,29.3,13.52,43.84l.09.5c9.36-13.15,18.72-26.29,23.02-40.21,4.3-13.91,3.54-28.6-1.65-36.86-3.06-4.88-7.66-7.52-12.47-7.52h-.01Z" style="fill: #fed5b1; stroke-width: 0px;"/>
  <path d="M1349.54,411.21c-7.73,0-13.76,5.34-14.29,13.94-.62,10,6.18,24.43,17.05,34.39,10.86,9.97,25.78,15.47,40.69,20.98l.42.29c-2.83-15.89-5.65-31.78-12.57-44.58-6.91-12.8-17.91-22.52-27.43-24.59-1.33-.29-2.62-.43-3.88-.43h.01Z" style="fill: #fed5b1; stroke-width: 0px;"/>
  <path d="M1432.12,210.6c-7.84,0-13.91,5.43-14.35,14.13-.5,10.03,6.47,24.4,17.45,34.25,10.98,9.86,25.98,15.2,40.97,20.53l.42.29c-3.01-15.88-6.01-31.76-13.07-44.51-7.06-12.74-18.18-22.35-27.73-24.31-1.26-.26-2.5-.39-3.69-.39h0Z" style="fill: #fed5b1; stroke-width: 0px;"/>
  <path d="M1555.3,550.1c-7.45,0-13.37,5.06-14.19,13.42-.98,9.96,5.29,24.6,15.78,34.93,10.49,10.34,25.19,16.36,39.89,22.39l.41.3c-2.25-15.96-4.49-31.92-10.93-44.94-6.44-13.03-17.07-23.12-26.5-25.52-1.52-.39-3.02-.57-4.45-.57h-.01Z" style="fill: #fed5b1; stroke-width: 0px;"/>
  <path d="M1763.28,409.95c-8.09,0-14.26,5.66-14.45,14.55-.21,10.02,7.16,24.15,18.42,33.65s26.39,14.37,41.52,19.24l.43.27c-3.46-15.76-6.93-31.51-14.35-44.02-7.42-12.5-18.81-21.75-28.41-23.41-1.09-.19-2.14-.28-3.17-.28h0Z" style="fill: #fed5b1; stroke-width: 0px;"/>
  <path d="M1815.09,598.42c-7.55,0-13.52,5.16-14.25,13.6-.86,9.97,5.59,24.52,16.2,34.71s25.39,16.02,40.16,21.84l.41.3c-2.44-15.93-4.88-31.85-11.48-44.78-6.6-12.93-17.36-22.88-26.81-25.16-1.45-.35-2.87-.52-4.24-.52h.01Z" style="fill: #fed5b1; stroke-width: 0px;"/>
  <path d="M800.44,50.48c-3.29,0-6.69,1.24-9.77,3.85-7.64,6.48-13.34,21.41-13.01,36.2s6.69,29.44,13.06,44.09l.08.5c9.5-13.05,19.01-26.11,23.46-40s3.84-28.6-1.26-36.95c-3.04-4.98-7.69-7.69-12.56-7.69h0Z" style="fill: #fed5b1; stroke-width: 0px;"/>
  <path d="M1270.3,52.88c-4.14,0-8.24,1.95-11.42,5.95-6.25,7.86-8.96,23.63-5.78,38.07,3.18,14.45,12.25,27.58,21.32,40.7l.18.48c6.8-14.68,13.61-29.35,15.3-43.85,1.69-14.5-1.75-28.83-8.37-36.02-3.24-3.53-7.25-5.34-11.23-5.34h0Z" style="fill: #fed5b1; stroke-width: 0px;"/>
  <path d="M52.62,1344.04c-.23,1.4-.39,2.84-.47,4.34l.08,14.51,1.01,189.01c.9,23.64,3.98,43.3,9.25,58.97,26.47,67.98,78.24,103.05,155.32,105.22,12.7.72,27.93,1.08,45.7,1.08h3.22l1560.85.41c24.13-.11,44.09-2.19,59.9-6.25,74.79-24.33,112.82-75.86,114.07-154.6l1.32-175.3v-.02l.12-15.74c-.02-5.6-.32-10.7-.9-15.28h-.01c-5.64,11.12-12.6,19.52-20.89,25.2h.01c.12,7.17.23,14.17.33,20.99,1.9,130.16.53,195.23-4.09,195.23-.12,0-.25-.05-.38-.14-18.58,70.35-66.67,105.52-144.26,105.5h-.47l-1568.74-.34c-2.2.02-4.36.02-6.5.02-33.86,0-59.81-2.03-77.84-6.07-51.57-12.4-84.91-44.22-100.03-95.47-3.49-14.03-5.4-30.86-5.74-50.5l-.42-179.01-.04-19.17c-.13-.26-.22-.52-.29-.78h0c-5.69-.59-12.33-1.18-19.91-1.79-.06-.01-.11-.02-.17-.03h-.03Z" style="fill: #412614; stroke-width: 0px;"/>
  <path d="M1943.8,998.88c-5.84,2.31-13.48,3.17-22.92,2.57,46.69,55.97,59.64,118.34,38.85,187.12-17.73,50.68-55.53,79.54-113.39,86.59-11.69,1.31-24.8,1.98-39.35,2.02l-1526.25.25c-51.43-.75-80.16-2.16-86.21-4.24-54.53-8.62-88.87-35.61-103-80.99-18.75-85.94-3.92-149.29,44.48-190.03-12.31.62-21.25-.04-26.81-1.98-50.88,58.26-59.78,132.28-26.71,222.05,24.22,46.36,71.41,71.06,141.56,74.11l1585.73.93c14.77-.13,27.42-.8,37.94-2,69.15-11.31,112.79-44.58,130.9-99.8,10-30.44,12.05-67.86,6.16-112.25-5.43-24.73-19.03-52.72-40.8-83.97l-.19-.37h.01Z" style="fill: #412614; stroke-width: 0px;"/>
  <path d="M119.98,910.31c-2.03.2-4.01.46-5.93.77-30.36,4.88-46.66,23.07-48.93,54.59,2.37,24.5,13.24,40.81,32.62,48.92h0c6.05,2.53,12.92,4.27,20.62,5.2h0c.59.07,1.18.14,1.77.2l97.55.12h0l27.46.04c-4.83-6.27-11.82-12.28-20.98-18.02h0l-43.19.02-59.85.03c-3.5-.18-6.76-.63-9.78-1.35h0c-.74-.18-1.46-.37-2.17-.57-14.8-4.35-23.3-15.68-25.52-34.02,2.3-23.48,15.27-35.55,38.9-36.23l1810.22-.91h.2c21.49,2.58,33.16,14.62,35.01,36.1-1.36,18.24-10.34,29.73-26.92,34.46-2.35.67-4.85,1.21-7.51,1.61h-.04.01-13.24.01c-3.09,7.58-6.03,14.57-8.82,20.98h.01l20.43.02h.47c1.31-.1,2.6-.22,3.87-.36h.01c7.23-.84,13.71-2.46,19.46-4.87h.01c18.97-7.97,29.79-24.55,32.45-49.74-3.36-33.49-21.46-51.76-54.3-54.8l-33.11-.04h-10.75l-13.87-.02-1722.92-2.09-33.18-.04h-.08.01Z" style="fill: #412614; stroke-width: 0px;"/>
  <path d="M1341.77,1001.57l-52.24.03-99.91.05-35.91.02h0c-3.32,1.99-6.64,4.1-9.96,6.33-6.07,4.3-11.02,8.73-14.84,13.27h2.4l23.26.03h0l25.09.03h0l161.34.2h0l42.04.06c-12.08-6.95-25.84-13.62-41.28-20.02h.01Z" style="fill: #412614; stroke-width: 0px;"/>
  <path d="M456.68,1002.02l-29.77.02-69.43.03h-16.56c-10.39,5.01-18.31,11.07-23.77,18.17h0l28.95.04h0l107.45.14h0l26.47.03c-5.46-6.04-13.24-12.18-23.34-18.43h0Z" style="fill: #412614; stroke-width: 0px;"/>
  <path d="M747.44,1001.87l-41.83.02-117.25.06-38.51.02h0c-3.2,1.78-6.31,3.62-9.33,5.54-6.32,4.16-11.45,8.5-15.39,13h0l26.78.03h0l190,.24,25.88.03c-4.45-6.6-11.24-12.92-20.36-18.94h.01Z" style="fill: #412614; stroke-width: 0px;"/>
  <path d="M1059.82,1001.71l-30.67.02-119.28.06h-4.39l-46.52.03c-10.12,5.32-17.66,11.68-22.6,19.09l26.56.03,180.51.23,14.26.02,23.36.03h2.29c-5.4-6.07-13.23-12.57-23.51-19.5h0Z" style="fill: #412614; stroke-width: 0px;"/>
  <path d="M1988.24,823.93c-2.05.7-4.19,1.35-6.4,1.97-3.42.72-6.8,1.08-10.13,1.08-.9,0-1.8-.03-2.69-.08h-.01c-.65,6.72-2.09,13.4-4.31,20.03-2.05,6.13-4.78,12.22-8.17,18.28-9.56,16.96-25.45,29.44-47.68,37.44-7.11,2.96-18.01,6.23-32.69,9.79-20.57,4.99-48.57,10.57-84,16.73l95.25-.05h0c12.84-3.34,23.14-6.6,30.9-9.82,5.29-2.01,10.28-4.27,14.98-6.79h.01l-38.62-.05h-1.37,7.22l32.77.05c17.14-9.18,30.33-21.75,39.57-37.71,5.43-9.73,9.44-19.52,12.02-29.35,1.88-7.15,3-14.31,3.37-21.51h-.02Z" style="fill: #412614; stroke-width: 0px;"/>
  <path d="M1928.82,704.84c-7.52.88-10.59,5.16-9.19,12.83,1.53,2.06,3,4.07,4.44,6.02h23.36c-3.5-4.75-7.4-9.94-11.7-15.56-1.9-2.09-4.18-3.19-6.85-3.29h-.06Z" style="fill: #412614; stroke-width: 0px;"/>
  <path d="M91.6,771.58l-22.88,11.77h0c-1.36,5.88-2.4,11.47-3.1,16.79-.36,2.52-.65,5-.88,7.46h0c-2.53,26.98,2.43,50.26,14.85,69.84,8.42,12.73,19.89,23.93,34.4,33.61h0s.03.02.05.03h0c10.58,7.05,22.77,13.28,36.59,18.71.17.07.33.13.5.2l157.41-.08h0c-.89-1.43-2.17-2.55-3.83-3.37-1.49-.64-2.78-.96-3.88-.96h-.34c-18.06.78-33.74,1.18-47.04,1.18-11.67,0-21.52-.3-29.52-.9-18.73-1.26-35.27-3.96-49.62-8.1-7.47-2.25-14.5-4.72-21.09-7.42h0c-26.21-10.73-45.39-25-57.52-42.8-9.27-14.25-13.44-31.61-12.5-52.06.09-5.28.69-11.1,1.81-17.49,1.4-7.94,3.59-16.75,6.59-26.42h0Z" style="fill: #412614; stroke-width: 0px;"/>
  <path d="M103.13,706.43h-.01c-3.5.15-6.17,1.66-8,4.52l-5.66,13.3h20.18c.94-2.16,1.91-4.34,2.91-6.55.26-6.84-2.88-10.59-9.42-11.26h0Z" style="fill: #412614; stroke-width: 0px;"/>
  <path d="M96.82,1206.26c-3.68.95-7.06,1.88-10.16,2.8-2.75.7-5.43,1.43-8.04,2.19-56.91,16.51-82.93,46.99-78.04,91.44,3.02,22.45,12.01,39.32,26.95,50.59,3.32,3.92,11.54,7.13,24.68,9.62l-.08-14.51.08,14.51h0c5.93,1.12,12.87,2.1,20.8,2.93l-.04-19.17.04,19.17h0c5.38.56,11.21,1.05,17.5,1.48,3.61.78,6.57,2.73,8.88,5.85l5.72,81.43c2.19,12.83,6.54,22.39,13.07,28.67,6.27,6.46,16.17,9.93,29.72,10.41.7,0,1.39.01,2.08.01,7.35,0,14.17-.43,20.46-1.3,39.85-6.46,64.08-9.74,72.66-9.83,3.48-.2,6.84-.3,10.09-.3,12.6,0,23.44,1.5,32.51,4.5,10.61,3.31,22.06,9.48,34.35,18.53,51.72,46.11,80.51,69.62,86.38,70.55,18.17,11.13,40.12,17.47,65.83,19.05,1.72.05,3.44.07,5.15.07,37.02,0,72.01-10.69,104.97-32.09,16.38-6.47,56.83-47.36,121.35-122.7,11.28-10.75,21.75-16.3,31.39-16.65.5-.04,1-.06,1.53-.06,5.27,0,12.13,2.07,20.59,6.22l49.03,29.6c8.39,3.55,15.4,5.33,21.04,5.33.31,0,.61,0,.91-.02,8.31-.11,16.7-2.35,25.17-6.73l52.2-31.83c5.77-2,10.7-3,14.79-3,2.77,0,5.15.46,7.15,1.37,6.44,2.1,13.87,6.91,22.3,14.43l64.82,62.5c12.82,9.71,25.04,15.21,36.68,16.49,1.86.15,3.72.22,5.56.22,9.97,0,19.66-2.14,29.07-6.41,4.51-.4,28.02-14.81,70.52-43.25,7.24-3.63,13.25-5.45,18.04-5.45,1.72,0,3.29.24,4.69.71,5.38,1.2,11.57,4.96,18.57,11.27,31.66,35.94,51.39,55.55,59.2,58.83,14.38,9.63,31.88,14.49,52.52,14.58,26.57-.35,52.04-9.79,76.41-28.31,9.98-5.03,32.61-33.35,67.87-84.97,6.82-8.15,13.96-14.66,21.42-19.52,13.47-8.37,29.55-12.56,48.25-12.56,3.72,0,7.53.16,11.45.5,24.91,2.48,47.05,9.83,66.41,22.05,5.98,1.35,28.85,22.68,68.59,64.01,10.12,8.36,19.85,14.43,29.18,18.23,15.57,6.69,32.33,10.04,50.28,10.04,13.32,0,27.3-1.84,41.92-5.53,18.83-5.67,34.44-14.37,46.84-26.07l66.08-76.18c4.33-2.89,10.45-4.92,18.36-6.07,29.94-1.16,45.73-2.38,47.36-3.67,4.12-.93,7.97-2.14,11.54-3.61h.01c4.22-1.76,8.05-3.9,11.48-6.41,3.5-2.63,6.79-5.55,9.86-8.74h.01l.12-15.75-.12,15.74c9-9.38,16.14-21.18,21.41-35.41,20.61-47.25,2.14-89.69-55.4-127.34-5.47-3.58-11.29-7.11-17.47-10.6h-.01c-3.06,5.91-6.47,11.43-10.24,16.58h.01c6.23,3.63,12,7.17,17.33,10.6h.01c23.85,15.39,38.67,28.81,44.47,40.28,11.45,19.03,12.34,41.38,2.65,67.05-1.12,2.74-2.31,5.35-3.56,7.82-5.64,11.13-12.6,19.53-20.89,25.2-1.73,1.18-3.51,2.25-5.35,3.19-4.72,2.18-10.01,3.61-15.88,4.29-26.32.97-41.02,1.99-44.08,3.06-7.99,1.3-15.75,4.38-23.3,9.23l-66.02,76.2c-11.76,11.05-25.62,18.76-41.56,23.13-10.7,3.09-21.53,4.63-32.48,4.63-15.66,0-31.57-3.16-47.73-9.48-8.45-3.87-16.28-8.94-23.49-15.2-37.76-39.83-61.39-61.67-70.9-65.53-22.16-13.48-46.38-21.53-72.64-24.15-4.83-.41-9.53-.61-14.09-.61-22.68,0-41.98,5.03-57.91,15.09-8.89,5.62-17.57,13.42-26.04,23.39-35.91,51.89-57.1,78.93-63.57,81.13-19.98,16.45-42.49,25.02-67.52,25.7h-1.01c-15.16,0-29.02-4.11-41.58-12.33-.04,0-.09.01-.13.01-3.31,0-22.5-19.35-57.58-58.05-8.6-7.54-17.26-12.23-26-14.08-2.54-.58-5.17-.87-7.89-.88-6.55,0-13.66,1.68-21.3,5.05l-68.88,42.55c-10.46,5.09-19.36,7.63-26.69,7.63-1.17,0-2.3-.07-3.39-.2-8.17-.46-17.92-5-29.23-13.64l-63.73-61.76c-9.79-8.6-19.16-14.39-28.11-17.38-4-1.44-8.32-2.16-12.96-2.16-6.38,0-13.37,1.37-20.95,4.11h-.04c-3.51,0-21.5,10.87-53.98,32.61-5.47,3.1-11.42,4.7-17.84,4.79-4.95-.16-10.96-2.13-18.04-5.93-29.15-18.97-45.04-28.61-47.7-28.93-9.04-4.14-17.68-6.21-25.93-6.21-.49,0-.98,0-1.48.02-.33-.01-.66-.02-.99-.02-11.5,0-24.95,6.69-40.37,20.08-66.42,76.32-105.29,116.2-116.62,119.64-29.11,19.93-60.24,30.52-93.37,31.77-1.13.03-2.26.04-3.38.04-22.49,0-42.91-5.1-61.26-15.28h-.12c-4.85,0-34.5-24.09-88.94-72.25-14.32-10.24-27.78-17.12-40.38-20.65-8.66-2.98-20.74-4.46-36.22-4.46-3.42,0-7,.07-10.75.21-9.04.09-33.26,3.35-72.68,9.79-7.57.92-13.42,1.37-17.55,1.37h-.94c-10.77-.38-17.27-2.13-19.5-5.24-3.65-3.14-6.21-9.51-7.69-19.12.24-57.2-2.39-86.2-7.89-86.99-4.44-6.82-10.31-11.38-17.61-13.67-1.91-1.34-10.31-2.76-25.2-4.29-5.69-.59-12.33-1.18-19.91-1.79-.06-.01-.11-.02-.17-.03-6-1.13-11.25-3.46-15.76-6.98-14.01-12.94-19.81-30.75-17.42-53.43,2.7-17.89,13.62-31.75,32.78-41.56,7.12-4.38,18.4-8.85,33.85-13.42h0c6.07-1.8,12.78-3.61,20.13-5.44h0c-3.56-5.26-6.69-10.91-9.39-16.96h0l.04-.02Z" style="fill: #412614; stroke-width: 0px;"/>
  <path d="M413.62,1002.04l-71.64.04h-1.07c-10.39,5.01-18.31,11.07-23.77,18.17-.67.87-1.3,1.75-1.89,2.65-6.13,9.09-8.58,20.79-7.36,35.11.45,6.14,1.62,13.52,3.51,22.14,9.68,37.14,14.38,56.46,14.11,57.95,1.91,10.7,2.15,19.63.72,26.77-5.19,22.3-19.9,33.69-44.11,34.16-25.53-2.79-41.24-15.66-47.11-38.61-1.36-6.88-.97-15.48,1.16-25.81-.04-2.27,4.94-20.05,14.93-53.33,1.91-7.4,3.21-13.97,3.88-19.71,1.66-12.58.09-23.54-4.68-32.87-1.3-2.9-3.02-5.74-5.17-8.53-4.83-6.27-11.82-12.28-20.98-18.02h0l-43.19.02h0c8.53,3.41,15.08,6.22,19.65,8.44,6.69,3.17,12.32,6.3,16.88,9.41.06.04.12.08.17.12,10.2,6.94,16.3,14.65,18.3,23.14,1.53,6.15,1.26,14.17-.8,24.04.22,1.5-4.79,19.4-15.02,53.68-2.05,8.02-3.41,15.2-4.08,21.56-1.52,13.2.3,25.38,5.49,36.54,12.76,24,33.35,36.87,61.77,38.6,31.35-1.25,51.44-16.22,60.29-44.92,2.57-9.68,2.87-20.93.91-33.78-.06-4.43-4.98-25.13-14.75-62.1-1.64-7.4-2.68-13.52-3.12-18.37-1.06-11.1.17-19.28,3.69-24.54,3.25-5.3,8.5-9.86,15.75-13.7,2.85-1.51,6.01-2.91,9.48-4.19,8.15-3.56,27.5-8.25,58.04-14.06h0Z" style="fill: #412614; stroke-width: 0px;"/>
  <path d="M588.35,1001.95l-38.51.02h0c-3.2,1.78-6.31,3.62-9.33,5.54-6.32,4.16-11.45,8.5-15.39,13-2.37,2.71-4.31,5.48-5.82,8.31-3.75,6.69-5.22,14.8-4.42,24.33.32,4,1.08,8.59,2.26,13.75l7.95,30.68c1,5.19,1.26,9.38.77,12.57-1.9,10.91-8.63,17.05-20.19,18.45-13.93-.45-22.71-6.88-26.34-19.28-.72-3.43-.53-7.7.58-12.8l8.94-30.68c1.25-4.84,2.05-9.32,2.39-13.42.78-8.88-.97-16.83-5.24-23.84-1.52-2.69-3.52-5.39-5.99-8.12-5.46-6.04-13.24-12.18-23.34-18.43h0l-29.77.02h0c.4,1.2,1.09,2.35,2.08,3.46,10.75,6.22,18.93,11.2,24.57,14.93,3.76,2.48,6.38,4.41,7.86,5.79,6.42,5.19,10.44,10.45,12.07,15.8,1.16,3.74,1.16,8.53,0,14.37.15,1.11-2.89,11.63-9.09,31.55-1.23,4.73-2.01,8.89-2.34,12.47-.76,8.19.56,15.61,3.98,22.26,7.97,14.2,20.59,21.87,37.84,23.02,16.24-.53,27.97-7.49,35.2-20.88,3.22-6.36,4.54-13.68,3.97-21.97-.29-3.68-.94-7.75-1.97-12.21-5.81-21.1-8.66-32.44-8.57-34.01-1.09-6.91-.97-12.31.35-16.19,1.72-5.75,6.65-11.44,14.78-17.09,1.3-.9,2.72-1.83,4.27-2.78,2.46-1.51,5.24-3.07,8.33-4.7,5.64-3,14.21-7.03,25.7-12.11.92-.45,1.72-1.04,2.41-1.77h0v-.04Z" style="fill: #412614; stroke-width: 0px;"/>
  <path d="M926.62,1001.78l-58.83.03h-8.82c-10.12,5.32-17.66,11.68-22.6,19.09-.1.15-.19.29-.29.44-6.1,9.01-8.52,20.87-7.25,35.59.46,5.94,1.59,13.03,3.37,21.27,8.34,32.34,12.96,51.18,13.86,56.52,1.98,11.68,2.3,20.94.96,27.78-5.18,22.85-20.01,34.44-44.48,34.8-25.77-2.94-41.43-15.97-46.99-39.09-1.28-7-.74-16.09,1.61-27.25,1.14-5.49,6.1-22.8,14.9-51.93,2-7.75,3.33-14.64,3.98-20.66,1.41-12.64-.39-23.55-5.39-32.72-.81-1.63-1.74-3.24-2.82-4.83-4.45-6.6-11.24-12.92-20.36-18.94l-41.83.02c6.12,2.5,11.05,4.62,14.77,6.39,7.07,3.3,13.02,6.59,17.84,9.84,1.3.88,2.54,1.77,3.71,2.67,8.14,6.27,13.11,13.14,14.89,20.6,1.6,6.21,1.25,14.82-1.06,25.83-1.12,5.34-6.12,22.8-15.01,52.39-2.06,8.03-3.42,15.21-4.08,21.54-1.48,12.44.19,24.19,5,35.24,11.85,23.03,30.62,36.05,56.3,39.06,1.48.06,2.95.09,4.39.09,31.67,0,52.28-14.78,61.85-44.35,2.72-9.5,2.99-21.52.83-36.07-1.02-7.21-5.84-27.28-14.46-60.18l-2.98-17.53c-1.11-11.04.01-19.27,3.35-24.66,2.63-4.43,6.62-8.37,11.97-11.81,4.25-2.74,9.37-5.17,15.34-7.29,7.55-2.98,23.67-6.93,48.36-11.87h-.03Z" style="fill: #412614; stroke-width: 0px;"/>
  <path d="M1189.62,1001.65l-35.91.02h0c-3.32,1.99-6.64,4.1-9.96,6.33-6.07,4.3-11.02,8.73-14.84,13.27-2.42,2.88-4.39,5.81-5.92,8.78-3.67,6.91-5.11,15.03-4.32,24.37.31,4.05,1.05,8.69,2.23,13.93l7.78,30.77c.95,4.95,1.18,9.09.7,12.42-2.14,11.33-9.01,17.56-20.59,18.68-13.95-.72-22.62-7.21-26.02-19.48-.66-3.27-.43-7.39.68-12.34l9.03-30.08c1.3-4.9,2.13-9.43,2.49-13.59.88-9.12-.97-17.45-5.52-25-1.47-2.74-3.51-5.58-6.12-8.52-5.4-6.07-13.23-12.57-23.51-19.5h0l-30.67.02h0c.35.57.77,1.12,1.28,1.65,12.1,7.46,21.19,13.39,27.25,17.8,2.96,2.15,5.2,3.94,6.73,5.36,6.89,5.95,11.12,11.65,12.7,17.09,1.26,4.09,1.29,9.04.1,14.85.18,1.1-2.95,11.74-9.39,31.9-1.21,4.59-1.97,8.59-2.29,12-.74,8.09.57,15.39,3.95,21.91,8.09,14.27,20.77,21.94,38.01,23,16.19-.5,27.97-7.68,35.32-21.54,3.13-6.68,4.38-13.91,3.75-21.68-.28-3.72-.94-7.84-1.96-12.37-5.63-20.86-8.39-32.04-8.28-33.54-1.09-6.96-.99-12.43.28-16.41,1.86-6.17,6.61-12.1,14.24-17.79,1.14-.87,2.39-1.76,3.74-2.68,2.5-1.7,5.36-3.49,8.58-5.35,5.35-3.12,13.56-7.43,24.65-12.9.56-.29,1.17-.76,1.81-1.4h0v.02Z" style="fill: #412614; stroke-width: 0px;"/>
  <path d="M1941.07,999.66c-2.35.67-4.85,1.21-7.51,1.61h-13.28.01c-3.09,7.58-6.03,14.57-8.82,20.98-7.48,17.17-13.86,30.11-19.16,38.82-8.71,14.82-17.16,24.81-25.38,29.98-4.64,3.28-10.04,4.92-16.2,4.92-3.97,0-8.25-.68-12.85-2.04-6.06-1.77-12.85-4.63-20.36-8.6-35.6-21.55-54.87-32.33-57.79-32.33h-.07c-6.85-2.45-13.16-3.68-18.92-3.68-4.57,0-8.8.77-12.68,2.32-8.32,2.89-16.83,9.16-25.55,18.81-42.6,56.89-70.58,90.76-83.93,101.6-19.1,17.66-35.37,26.5-48.83,26.54-.3,0-.6.01-.9.01-12.34,0-26.17-7.54-41.47-22.64-6.43-6.37-13.29-14.13-20.56-23.29-33.61-45.54-53.71-71.58-60.3-78.13-14.06-16.09-28.77-29.62-44.14-40.59-5.88-4.21-12.33-8.34-19.35-12.37-12.08-6.95-25.84-13.62-41.28-20.02h0l-52.24.03h0c19.47,6.83,36.63,13.47,51.48,19.94,26.34,11.46,45.44,22.34,57.3,32.65,12.65,9.84,24.97,21.8,36.98,35.89,5.05,5,24.25,30.06,57.59,75.17,8.3,10.38,15.84,18.8,22.64,25.25,18.77,17.82,36.43,26.73,52.99,26.73h.38c18.45-.01,38.57-9.91,60.35-29.7,15.15-11.94,43.88-46.42,86.19-103.44,7.09-8,13.22-12.88,18.38-14.63,2.25-.95,4.72-1.43,7.43-1.43,4.06,0,8.65,1.07,13.75,3.21,3.59,1.49,7.84,3.64,12.77,6.44,25.28,15.39,39.37,23.66,42.28,24.82,9.26,4.81,17.72,8.18,25.37,10.1,5.09,1.41,10.04,2.11,14.85,2.11,9.53,0,18.53-2.77,27-8.29,16.08-10.44,32.06-33.35,47.94-68.73,2.07-4.55,4.31-9.69,6.72-15.42,2.82-6.72,5.87-14.26,9.16-22.62h-.01l.02.02Z" style="fill: #412614; stroke-width: 0px;"/>
  <path d="M2017.37,702.26h-20.52l-1942.11.62h-20.38c-.1,3.13-.17,6.27-.22,9.41.1,4,.23,7.98.41,11.96h54.89l20.16-.02h.02l1814.41-.54h72.92s20.41-.01,20.41-.01h.01c.12-2.86.21-5.72.29-8.58-.06-4.29-.16-8.57-.3-12.83h-.02.03Z" style="fill: #412614; stroke-width: 0px;"/>
  <path d="M920.12,1404.45c-6.38,0-13.37,1.37-20.95,4.11h-.04c-1.45,0-5.4,1.87-11.83,5.6,22.53,2.28,45.35,4.06,68.46,5.32-7.84-6.14-15.4-10.43-22.68-12.87-4-1.44-8.32-2.16-12.96-2.16h0Z" style="fill: #412614; stroke-width: 0px;"/>
  <path d="M1539.68,1297.12l47.05.03h0l-47.06-.03h.01Z" style="fill: #412614; stroke-width: 0px;"/>
  <path d="M133.4,1020.01l24.33.03h0l-24.34-.03h0Z" style="fill: #412614; stroke-width: 0px;"/>
  <path d="M1025.05,0c-273.48,2.99-507.69,72.71-702.64,209.14C136.41,347.35,40.4,511.93,34.38,702.89c-.1,3.13-.17,6.27-.22,9.41.1,4,.23,7.98.41,11.96h20.48c-.21-4.05-.37-8.11-.5-12.19.04-3.07.11-6.13.19-9.18,5.35-184.63,99.98-344.71,283.9-480.26C527.12,91.55,755.54,24.13,1023.89,20.37h1.28c267.27,2.74,497,70.7,689.2,203.88,180.57,131.86,274.73,291.2,282.5,478.02.17,4.11.3,8.24.39,12.38-.07,3.02-.16,6.03-.28,9.04h20.42c.12-2.86.21-5.72.29-8.58-.06-4.29-.16-8.57-.3-12.83-6.56-189.71-102.15-353.49-286.76-491.31C1535.81,73.87,1301.74,3.55,1028.41,0h-3.36Z" style="fill: #412614; stroke-width: 0px;"/>
  <path d="M1931.44,1001.28h-11.16.01c-3.09,7.58-6.03,14.57-8.82,20.98-4.18,9.59-8.01,17.86-11.51,24.81,11.31-15.02,21.8-30.29,31.49-45.79h-.01Z" style="fill: #412614; stroke-width: 0px;"/>
  <path d="M55.55,684.94c-7.94,5.12-14.97,10.3-21.09,15.54-29.43,25.16-38.01,51.7-25.73,79.59,8.44,19.37,21.09,29.64,37.95,30.81.59.05,1.19.07,1.83.07,4.31,0,9.73-1.12,16.25-3.37.79-.27,1.6-.56,2.42-.86,1.39-.15,7.34-3.05,17.84-8.73h0c5.06-2.74,11.18-6.11,18.35-10.13,3.48-1.76,6.29-2.65,8.44-2.65.28,0,.55.02.8.04,15.91,40.38,26.83,62.14,32.77,65.28,13.69,13.8,29.9,21.57,48.65,23.3,1.86.14,3.68.2,5.47.2,16.28,0,29.54-5.61,39.77-16.83,6.31-3.91,15.16-26.14,26.55-66.68l44.79,30.5c9.22,4.8,17.6,7.2,25.12,7.2.73,0,1.45-.02,2.17-.07,7.32-.36,15.18-3.06,23.59-8.1l43.62-32.12c4.18-2.45,8.42-3.67,12.73-3.67.86,0,1.72.05,2.58.14,4.67.8,10.11,3.46,16.31,7.98l48.77,38.49c9.79,5.45,18.26,8.17,25.39,8.17,1,0,1.98-.05,2.93-.16,8.94-.71,17.96-4.31,27.05-10.79l46.09-41.86c5.88-4.99,10.9-7.79,15.05-8.42.41-.05.82-.07,1.25-.08,3.47,0,7.44,1.68,11.89,5.02,23.27,21.1,36.64,32.14,40.11,33.12,7.69,4.64,15.7,7.15,24.02,7.53h.61c10.02,0,20.79-3.12,32.31-9.35l57.78-37.93c-1.03,70.43,24.45,106.96,76.43,109.6,1.82.1,3.62.14,5.38.14,46.94,0,71.89-34.67,74.84-103.99,24.56,31.16,44.52,46.74,59.88,46.74.3,0,.59,0,.89-.02.27,0,.54.01.82.01,7.24,0,14.92-2.31,23.04-6.93l41.1-31.32c6.12-4.2,10.96-6.58,14.53-7.12.79-.29,1.74-.44,2.83-.44,2.79,0,6.56.94,11.3,2.84l40.75,25.19c8.53,4.24,16.12,6.48,22.77,6.72.77.05,1.54.07,2.32.07,5.41,0,11.32-1.2,17.72-3.6l47.08-25.58c5.75-2.61,10.88-3.91,15.38-3.91,1.28,0,2.52.11,3.71.32,4.78.71,10.41,4.14,16.91,10.27l52.25,54.63c12.26,9.11,23.79,13.69,34.59,13.75.6.03,1.2.04,1.81.04,10.64,0,22.88-4.17,36.72-12.49.03,0,.07.01.11.01,2.77,0,29.29-20.54,79.56-61.63,12.4-8.56,22.25-13.3,29.55-14.23,1.61-.28,3.25-.42,4.91-.42,6.05,0,12.44,1.84,19.17,5.54l49.05,39.45c7.51,4.96,14.61,7.45,21.29,7.44.44,0,.88,0,1.31-.03,6.93-.33,14.14-3.2,21.64-8.62l38.96-37.38c6.19-5.13,11.19-7.8,15.01-8.01.35-.02.7-.03,1.06-.03,4.73,0,9.95,1.91,15.65,5.73l52.49,38c8.86,4.92,18.14,7.7,27.83,8.32.44,0,.88.02,1.32.01,9.75,0,19.77-2.46,30.03-7.39l59.84-37c8.36-4.5,14.91-6.75,19.62-6.75.35,0,.69.01,1.03.03,6.05.36,12.11,3.29,18.16,8.76,31.03,34.66,49.63,52.85,55.79,54.59,8.25,5.35,17.67,8.5,28.26,9.41h.01c2.19.19,4.43.28,6.72.28,3.09,0,6.26-.17,9.53-.52,1.32-.41,2.63-.83,3.91-1.25h.02c69.23-22.84,80.14-65.1,32.72-126.78-6.08-7.91-13.12-16.14-21.12-24.68h-.01c.15,2.76.28,5.52.4,8.29h-20.79.01c6.91,7.62,13.1,14.75,18.56,21.4,19.78,24.1,30.04,41.87,30.79,53.32,2.14,22.16-10.26,37.81-37.2,46.93h.01-.01c-2.05.7-4.19,1.35-6.4,1.97-3.42.72-6.8,1.08-10.13,1.08-.9,0-1.8-.03-2.69-.08-7.4-.43-14.61-2.64-21.61-6.64l-54.94-54.13c-8.77-7.27-17.87-11.36-27.3-12.29-1.06-.13-2.17-.19-3.32-.19-6.28,0-13.83,1.92-22.66,5.75l-60.69,37.43c-10.29,5.36-18.53,8.04-24.73,8.04h-.55c-.45.03-.91.05-1.37.05-6.13,0-13.78-2.66-22.93-7.99l-54.06-38.87c-7.59-3.62-14.28-5.43-20.06-5.43-1.91,0-3.73.2-5.45.6-6.01.95-12.66,4.04-19.93,9.26l-38.95,37.39c-5.48,4.66-9.99,6.98-13.54,6.98-.15,0-.3,0-.44-.01-.12,0-.24.01-.36.01-2.47,0-6.21-1.76-11.2-5.27-27.42-24.81-44.11-38.09-50.07-39.83-9.45-4.9-18.7-7.35-27.74-7.34-2.96,0-5.89.26-8.8.79-10.68,1.94-22.54,7.4-35.6,16.37l-78.86,61.25c-10.88,6.72-19.76,10.16-26.68,10.31-.48.03-.96.05-1.45.05-7.21,0-15.1-3.25-23.66-9.76l-52.05-54.6c-9.18-8.09-17.41-12.7-24.71-13.85-2.44-.59-5.05-.88-7.82-.88-5.49,0-11.63,1.15-18.42,3.45-3.53.32-19.32,8.84-47.33,25.57-5.77,2.74-10.72,4.11-14.87,4.12-.24.01-.48.02-.73.02-3.98,0-8.99-1.52-15.04-4.55l-43.9-26.55c-6.14-2.43-11.9-3.64-17.3-3.63-2.41,0-4.75.24-7.01.73-5.35,1.02-11.31,3.54-17.89,7.54l-40.16,30.88c-6.67,4.37-11.84,6.55-15.51,6.55h-.02c-.36.04-.73.06-1.1.06-4.68,0-10.41-2.87-17.16-8.61l-39.07-40.09c-.89-.61-1.46-.91-1.72-.91h-.07c-1.44-1.13-4.1-1.76-7.99-1.89-6.55.78-10.99,4.68-13.32,11.69-6.24,45.95-12.54,72.03-18.88,78.22-8.23,11.89-20.79,18.15-37.69,18.76-20.72-.11-36.3-6.78-46.75-20-6.24-3.45-11.8-29.2-16.66-77.25-2.88-7.83-8.07-12.16-15.58-12.99-.41-.03-.83-.05-1.25-.05-4.85,0-10.74,2.07-17.68,6.21l-52.84,35.28c-6.93,3.74-13.51,5.87-19.75,6.38-.48.04-.97.06-1.47.06-5.1,0-10.79-2.07-17.07-6.21l-43.07-34.93c-6.66-3.15-12.51-4.73-17.58-4.73-2.16,0-4.18.29-6.06.87-6.57,1.46-13.82,5.37-21.77,11.71l-45.32,41.39c-6.59,4.72-12.3,7.17-17.1,7.36h-.58c-5.19,0-10.86-1.93-16.98-5.79l-47.16-37.6c-8.78-5.99-16.46-9.56-23.05-10.71-2.33-.42-4.68-.63-7.02-.63-6.85,0-13.75,1.81-20.72,5.42-3.18.45-18.07,11.3-44.67,32.54-6.14,3.95-11.42,5.96-15.85,6.03-.3.02-.61.03-.92.03-4.81,0-10.82-2.11-18.03-6.32l-40.74-28.46c-5.12-2.23-9.2-3.35-12.23-3.35-1.12,0-2.11.16-2.94.46-6.08,1.12-10.98,5.33-14.71,12.62-11.74,40.99-19.56,61.53-23.48,61.63-6.71,6.16-14.76,9.24-24.15,9.24-4.2,0-8.66-.61-13.39-1.84-11.66-3.14-21.16-9.39-28.49-18.74l-23.54-53.07c-3.58-6.52-7.82-10.95-12.74-13.29-1.55-1.28-3.96-1.91-7.23-1.91s-7.68.68-12.89,2.05l-32.13,16.52h0l-5.32,2.73c-6.03,2.69-10.35,4.11-12.98,4.26-.62.06-1.23.09-1.83.09-8.8,0-15.78-5.98-20.93-17.93-5.35-14.7-3.77-28.13,4.73-40.28,1.41-2.46,3.5-5.11,6.27-7.95,6.07-6.21,15.4-13.34,28.01-21.38h-11.93c.18-6,.44-11.98.81-17.94h0l.02.05ZM930.11,758.9l-4.39,8.67,4.38-8.67h.01ZM259.85,781.94l.16.18-.16-.18Z" style="fill: #412614; stroke-width: 0px;"/>
</svg>