<?xml version="1.0" encoding="UTF-8"?>
<svg id="Layer_1" data-name="Layer 1" xmlns="http://www.w3.org/2000/svg" viewBox="0 0 3640.04 1975.91">
  <g>
    <path d="M1255.29,1934.19c-418.17,45.75-836.63-.86-1255.29,41.72,293.12-503.23,586.15-1006.4,879.22-1509.58,223.75-41.48,446.83-85.28,669.12-132.44-97.75,503.09-195.41,1097.12-293.05,1600.3Z" style="fill: #4d4d4d; stroke-width: 0px;"/>
    <path d="M1255.29,1934.19c401.03,45.93,802.33-.77,1203.86,41.72-97.75-503.23-195.32-1006.4-293.12-1509.58-206.7-41.44-412.61-85.1-617.68-132.44-97.75,503.09-195.32,1097.12-293.05,1600.3Z" style="fill: #4d4d4d; stroke-width: 0px;"/>
    <path d="M3640.04,1942.49c-383.8,45.93-796.53-9.07-1180.89,33.42-97.75-503.23-195.32-1006.4-293.12-1509.58,189.75-41.17,378.75-84.24,566.4-132.44,292.89,503.09,614.62,1105.33,907.61,1608.6Z" style="fill: #4d4d4d; stroke-width: 0px;"/>
  </g>
  <g>
    <path d="M1255.29,1843.47c-418.17,45.8-836.63,89.87-1255.29,132.44,293.12-503.23,586.15-1006.4,879.22-1509.58,223.75-41.48,446.83-85.28,669.12-132.44-97.75,503.09-195.41,1006.4-293.05,1509.58Z" style="fill: #fff; stroke-width: 0px;"/>
    <path d="M3611.48,1843.47c-383.84,45.88-767.96,89.95-1152.33,132.44-97.75-503.23-195.32-1006.4-293.12-1509.58,189.75-41.17,378.75-84.24,566.4-132.44,292.89,503.09,586.06,1006.4,879.04,1509.58Z" style="fill: #fff; stroke-width: 0px;"/>
    <path d="M1255.29,1843.47c401.03,45.88,802.33,89.95,1203.86,132.44-97.75-503.23-195.32-1006.4-293.12-1509.58-206.7-41.44-412.61-85.1-617.68-132.44-97.75,503.09-195.32,1006.4-293.05,1509.58Z" style="fill: #f2f2f2; stroke-width: 0px;"/>
    <g>
      <polygon points="906.1 1051.87 906.1 489.41 333.2 1478.95 884.21 1081.59 906.1 1051.87" style="fill: #ffe9bb; stroke-width: 0px;"/>
      <polygon points="1401.73 1085.57 1155.28 1190.32 1353.34 1336.17 1401.73 1085.57" style="fill: #98ce85; stroke-width: 0px;"/>
      <path d="M1204.82,1333.23l-134.66,480.25c116.52-12.13,194.89-20.17,194.89-20.17l70.28-363.96-130.52-96.12Z" style="fill: #ffe9bb; stroke-width: 0px;"/>
      <path d="M1131.05,1278.91l-185.01-136.24L228.19,1660.34l-153.24,264.69c19.35-8.45,557.6-65.79,903.54-101.98l152.57-544.15Z" style="fill: #98ce85; stroke-width: 0px;"/>
    </g>
    <g>
      <polygon points="1795.18 825.23 2202.14 652.27 2170.52 489.41 1861.74 426.86 1795.18 825.23" style="fill: #ead1a4; stroke-width: 0px;"/>
      <polygon points="2218.82 738.21 2218.84 738.29 2157.24 764.47 2053.64 1384.48 2392.81 1634.25 2218.82 738.21" style="fill: #dbccb2; stroke-width: 0px;"/>
      <polygon points="1702.98 1700.33 1701.73 1699.4 1659.79 1837.22 1886.88 1862.48 2063.71 804.22 1402.5 1085.24 1353.7 1336.67 1728.14 1612.42 1728.09 1612.6 1728.14 1612.59 1727.33 1615.27 1702.98 1700.33" style="fill: #87c874; stroke-width: 0px;"/>
      <polygon points="1628.55 1645.51 1335.62 1429.79 1265.06 1793.31 1573.15 1827.58 1628.55 1645.51" style="fill: #ead1a4; stroke-width: 0px;"/>
      <polygon points="1701.65 864.98 1777.7 409.84 1542.83 362.26 1422.2 983.75 1701.65 864.98" style="fill: #dbccb2; stroke-width: 0px;"/>
      <polygon points="2037.8 1479.25 1972.19 1871.96 2449.27 1925.03 2416.92 1758.44 2037.8 1479.25" style="fill: #87c874; stroke-width: 0px;"/>
    </g>
    <g>
      <path d="M3300.46,1376.39l-241.23-423.43,4.06,543.03c81.52-41.05,162.89-82.09,237.18-119.61Z" style="fill: #87c874; stroke-width: 0px;"/>
      <path d="M2219.2,740.12l174.27,897.51c49.63,37.53,101.59,76.76,153.62,116,80.02-38.76,249.68-123.61,430.81-214.68l-5.51-738.43-173.24-304.09c-140.91,59.2-373.86,157.08-579.94,243.68Z" style="fill: #f1e7d0; stroke-width: 0px;"/>
      <polygon points="2491.95 528.44 2753.82 416.89 2721.07 359.41 2423.21 429.74 2491.95 528.44" style="fill: #87c874; stroke-width: 0px;"/>
      <polygon points="2416.81 1757.89 2449.27 1925.03 2618.39 1906.08 2416.81 1757.89" style="fill: #98ce85; stroke-width: 0px;"/>
      <polygon points="2411.4 562.74 2333.52 450.92 2170.52 489.41 2202.07 651.91 2411.4 562.74" style="fill: #ffe9bb; stroke-width: 0px;"/>
    </g>
  </g>
  <g>
    <path d="M3116.74,1850.25l426.46-47.78-133.66-234.6c-27.39,8.09-54.38,18.98-80.62,32.79-104.38,54.93-177.52,145.92-212.19,249.59Z" style="fill: #d6d6d1; stroke-width: 0px;"/>
    <path d="M3280.01,1566.92c34.45-18.13,70.22-31.23,106.46-39.56l-47.66-83.65-712.46,369.67c36.18,27.26,71.82,54.09,106.15,79.92l323.9-36.29c27.83-120.23,105.84-228.11,223.62-290.09Z" style="fill: #ead1a4; stroke-width: 0px;"/>
  </g>
  <g>
    <path d="M1402.56,390.2c-18.15,165.23-129.69,313-297.67,369.2-37.47,12.54-75.45,19.74-113.1,22.03v288.5l83.31,61.35,346.21-147.15,121.52-621.87-140.27,27.94Z" style="fill: #f1e7d0; stroke-width: 0px;"/>
    <path d="M1350.94,400.49l-359.14,71.54v263.49c23.48-3.77,46.96-9.5,70.25-17.29,150.32-50.29,255.44-173.91,288.89-317.75Z" style="fill: #ababab; stroke-width: 0px;"/>
  </g>
  <polygon points="1795.18 1084.45 1523.48 1207.03 1747.44 1364.5 1795.18 1084.45" style="fill: #e6e6e6; stroke-width: 0px;"/>
  <g>
    <path d="M1745.97,1230.14c0,5.15-25.04,9.34-55.92,9.34s-55.9-4.19-55.9-9.34,25.04-14.48,55.9-14.48,55.92,9.3,55.92,14.48Z" style="opacity: .57; stroke-width: 0px;"/>
    <g>
      <path d="M1400.71,363.58c0,159.82,129.52,289.39,289.36,289.39.01,0,.02,0,.03,0v-84.51s-.02,0-.03,0c-113.14,0-204.86-91.73-204.86-204.87s91.71-204.85,204.86-204.85c.01,0,.02,0,.03,0v-84.51s-.02,0-.03,0c-159.84,0-289.36,129.51-289.36,289.36Z" style="fill: none; stroke-width: 0px;"/>
      <path d="M1690.06,652.96c-159.84,0-289.36-129.56-289.36-289.39s129.52-289.36,289.36-289.36c.01,0,.02,0,.03,0V0s-.02,0-.03,0c-200.8,0-363.59,162.74-363.59,363.58s363.59,843.46,363.59,843.46c0,0,.02-.04.03-.05v-554.02s-.02,0-.03,0Z" style="fill: #ec2227; stroke-width: 0px;"/>
      <path d="M1690.06,495.64c-72.94,0-132.03-59.11-132.03-132.06s59.1-132.04,132.03-132.04c.01,0,.02,0,.03,0v-72.81s-.02,0-.03,0c-113.14,0-204.86,91.76-204.86,204.85s91.71,204.87,204.86,204.87c.01,0,.02,0,.03,0v-72.81s-.02,0-.03,0Z" style="fill: #ec2227; stroke-width: 0px;"/>
      <path d="M1558.03,363.58c0,72.95,59.1,132.06,132.03,132.06.01,0,.02,0,.03,0V231.54s-.02,0-.03,0c-72.94,0-132.03,59.09-132.03,132.04Z" style="fill: #fff; stroke-width: 0px;"/>
      <path d="M1690.1,0v74.22c159.78.02,289.39,129.52,289.39,289.36s-129.61,289.37-289.39,289.39v554.02c2.56-4.54,363.54-643.27,363.54-843.41S1890.89.02,1690.1,0Z" style="fill: #ec2227; stroke-width: 0px;"/>
      <path d="M1690.1,0v74.22c159.78.02,289.39,129.52,289.39,289.36s-129.61,289.37-289.39,289.39v554.02c2.56-4.54,363.54-643.27,363.54-843.41S1890.89.02,1690.1,0Z" style="fill: #231f20; opacity: .22; stroke-width: 0px;"/>
      <path d="M1894.95,363.58c0-113.08-91.74-204.83-204.86-204.85v72.81c72.94.02,132.06,59.1,132.06,132.04s-59.12,132.05-132.06,132.06v72.81c113.12-.02,204.86-91.74,204.86-204.87Z" style="fill: #ec2227; stroke-width: 0px;"/>
      <path d="M1894.95,363.58c0-113.08-91.74-204.83-204.86-204.85v72.81c72.94.02,132.06,59.1,132.06,132.04s-59.12,132.05-132.06,132.06v72.81c113.12-.02,204.86-91.74,204.86-204.87Z" style="fill: #231f20; opacity: .22; stroke-width: 0px;"/>
      <path d="M1822.16,363.58c0-72.94-59.12-132.02-132.06-132.04v264.1c72.94-.02,132.06-59.12,132.06-132.06Z" style="fill: #fff; stroke-width: 0px;"/>
      <path d="M1822.16,363.58c0-72.94-59.12-132.02-132.06-132.04v264.1c72.94-.02,132.06-59.12,132.06-132.06Z" style="fill: #231f20; opacity: .22; stroke-width: 0px;"/>
    </g>
  </g>
</svg>