<?xml version="1.0" encoding="UTF-8"?>
<svg id="Layer_1" data-name="Layer 1" xmlns="http://www.w3.org/2000/svg" viewBox="0 0 1879.74 1475.11">
  <path d="M1007.03,885.38c-42.65,0-84.5-4.69-124.41-13.94-15.95-3.7-25.99-12.59-29.85-26.45-38.38-137.88,617.95-777.3,645.9-804.45,1.05-1.02,2.45-1.57,3.88-1.57l1.29.15c1.85.44,3.35,1.8,3.97,3.6.32.48,2.93,3.67,5.46,6.75,140.45,171.41,126.37,386.82-39.65,606.55-108.51,143.62-282.94,229.36-466.6,229.36Z" style="fill: #f8e1ce; stroke-width: 0px;"/>
  <path d="M1502.55,44.53c4.17,12.14,246.77,237.36-33.37,608.13-117.32,155.28-296.13,227.15-462.16,227.15-42.29,0-83.75-4.66-123.15-13.8-183.42-42.52,618.68-821.48,618.68-821.48M1502.55,33.4c-2.86,0-5.65,1.11-7.75,3.15-1.71,1.66-172.74,168.01-336.92,348.88-96.57,106.39-171.96,196.97-224.08,269.23-67.87,94.09-96.12,156.84-86.38,191.83,3.06,10.98,11.43,25.16,33.95,30.38,40.32,9.35,82.6,14.09,125.67,14.09,185.39,0,361.48-86.57,471.04-231.57,109.61-145.06,153.86-285.62,131.55-417.76-17.73-104.98-73.66-173.24-92.04-195.66-2-2.44-4.25-5.19-5.01-6.27-1.45-2.98-4.16-5.19-7.43-5.97-.86-.2-1.72-.3-2.58-.3Z" style="fill: #202023; stroke-width: 0px;"/>
  <path d="M1510.63,130.67c8.83,8.53,56.26,150.49-96.6,381.4-105.81,159.84-314.07,303.17-445.95,337.91-131.88,34.74,462.26-796.83,542.55-719.31Z" style="fill: #fcf0e7; stroke-width: 0px;"/>
  <path d="M1432.09,630.59c-144.1,190.72-380.92,255.54-572.94,215.98,3.76,9.79,11.79,16.45,24.72,19.45,194.12,45,438.11-18.52,585.31-213.35,280.14-370.77,37.54-595.99,33.37-608.13,0,0-4.01,3.9-11.4,11.15,55.49,76.45,164.15,279.47-59.06,574.9Z" style="fill: #c2b2a5; stroke-width: 0px;"/>
  <path d="M892.4,872.31c-21.83,0-36.13-10.99-40.27-30.95-2.17-10.45-5.62-22.98-9.61-37.47-33.96-123.2-104.61-379.58,271.14-623.68,9.43-6.09,232.01-149,343.53-149,27.46,0,46.46,8.73,56.49,25.94,21.4,36.71.71,109.42-63.23,222.28-229.13,404.46-468.46,592.89-558.06,592.89Z" style="fill: #f8e1ce; stroke-width: 0px;"/>
  <path d="M1457.2,36.77c68.75-.02,92.27,56.6-11.58,239.91-223.97,395.35-464.06,590.07-553.22,590.07-19.02,0-31.16-8.85-34.82-26.51-20.81-100.44-157.28-384.85,259.12-655.36,0,0,229.34-148.08,340.5-148.1M1457.23,25.64h-.03c-113.14.03-337.06,143.76-346.53,149.88-379.2,246.35-307.81,505.37-273.51,629.85,3.97,14.41,7.4,26.85,9.53,37.12,4.66,22.49,21.32,35.39,45.72,35.39,51.51,0,138.94-56.07,233.88-150,79.41-78.56,200.96-219.65,329.02-445.71,65-114.74,85.67-189.26,63.19-227.84-11.1-19.04-31.71-28.69-61.27-28.69Z" style="fill: #202023; stroke-width: 0px;"/>
  <path d="M1093.43,222.4s503.23-324.96,275.56,76.91c-227.67,401.87-475.2,556.27-492.63,472.12-17.43-84.14-131.76-322.41,217.08-549.04Z" style="fill: #202023; stroke-width: 0px;"/>
  <path d="M1050.98,608.1c-14.29,0-33.27-6.29-42.57-36.22-52.85-170.23-157.25-188.61-199.68-188.61-16.46,0-28.82,2.47-36.29,4.54-5.73,1.6-12.06,2.4-18.82,2.4-24.63,0-57.16-11.15-74.6-42.44-17.24-30.91-23.89-90.23,42.27-197.31,14.96-24.2,94.07-144.9,182.54-144.9,21.16,0,41.33,7,59.93,20.8,19.84,14.69,38.35,37.55,55,67.94,82.9,151.51,197.77,167.87,243.31,167.87h2.03c8.5-.11,13.43-.79,13.48-.79l.77-.05.97.09c11.32,2.01,29.87,10.3,26.98,43.24-3.76,42.77-42.71,115.46-99.22,185.18-60.02,74.04-118.36,118.25-156.08,118.26h-.01Z" style="fill: #f8e1ce; stroke-width: 0px;"/>
  <path d="M903.83,11.13c18.84,0,37.91,5.83,56.62,19.71,18.39,13.61,36.36,34.98,53.43,66.14,85.18,155.67,205.04,170.76,248.19,170.76.72,0,1.42,0,2.09-.01,9.04-.11,14.19-.84,14.19-.84,94.29,16.74-129.58,335.64-227.35,335.64-17.04,0-30.23-9.67-37.26-32.31-49.37-159.03-144.07-192.52-205-192.52-15.05,0-28.04,2.04-37.78,4.75-5.15,1.43-11.05,2.2-17.34,2.2-53.68,0-135.92-55.97-27.6-231.26,27.51-44.5,100.69-142.26,177.81-142.26M903.83,0c-91.42,0-172.04,122.9-187.28,147.54-67.59,109.37-60.36,170.73-42.4,202.94,18.62,33.4,53.26,45.3,79.47,45.3,7.26,0,14.1-.88,20.32-2.61,7.13-1.98,18.96-4.34,34.79-4.34,41.2,0,142.61,17.99,194.37,184.69,10.3,33.17,31.73,40.14,47.89,40.14,58.35,0,137.52-92.08,160.4-120.3,57.16-70.52,96.59-144.39,100.45-188.2,3.41-38.77-20.92-47.34-31.55-49.23-.64-.11-1.29-.17-1.95-.17-.52,0-1.04.04-1.55.11-.02,0-4.7.63-12.77.73h-1.96c-44.55.01-156.95-16.06-238.42-164.96-17.04-31.1-36.07-54.57-56.58-69.74-19.58-14.53-40.86-21.89-63.24-21.89Z" style="fill: #202023; stroke-width: 0px;"/>
  <path d="M1300.51,290.64c-1.81-12.82-8.74-21.36-22.16-23.75,0,0-5.15.73-14.19.84-14.72.17-39.8-1.41-69.89-10.66,41.87,24.17,80.57,31.65,106.23,33.57Z" style="fill: #c2b2a5; stroke-width: 0px;"/>
  <path d="M749.58,384.54c-127-110.07,61.9-393.72,216.13-349.51-1.75-1.45-3.5-2.88-5.26-4.19-95.25-70.65-200.19,67.18-234.42,122.55-105.63,170.94-30.05,228.4,23.55,231.15Z" style="fill: #c2b2a5; stroke-width: 0px;"/>
  <path d="M888.49,279.91c183.54-131.07,71.96-249.07,71.96-249.07,18.39,13.61,36.36,34.98,53.43,66.14,86.6,158.27,209.05,171.22,250.28,170.75,55.09,186.73-226.13,282.85-171.89,236.03,54.25-46.83,38.56-79.59,5.5-152.02-33.07-72.42-392.78,59.23-209.28-71.83Z" style="fill: #c2b2a5; stroke-width: 0px;"/>
  <path d="M56.58,1204.49c-.89,0-1.77-.21-2.58-.64-1.58-.83-2.67-2.37-2.92-4.12-.33-1.11-2.03-4.73-3.67-8.24-93.98-200.69-27.35-406.01,187.61-578.16,102.73-82.27,227.97-125.75,362.17-125.75,93.48,0,184.65,21.55,263.66,62.31,14.55,7.5,22.09,18.6,22.42,32.98,3.29,143.09-790.14,601.44-823.91,620.88-.86.49-1.82.74-2.78.74Z" style="fill: #f8e1ce; stroke-width: 0px;"/>
  <path d="M597.19,493.15c93.73,0,184.44,22.13,261.11,61.69,167.33,86.32-801.72,644.09-801.72,644.09-1.06-12.79-180.81-290.76,181.91-581.25,108.07-86.55,235.96-124.53,358.7-124.53M597.22,482.02h-.03c-135.5,0-261.94,43.92-365.65,126.97C89.62,722.64,12.15,848,1.28,981.57c-8.64,106.11,28.79,186.03,41.08,212.29,1.34,2.86,2.84,6.07,3.32,7.32.67,3.24,2.76,6.05,5.73,7.61,1.62.85,3.4,1.27,5.17,1.27,1.92,0,3.84-.49,5.56-1.48,2.06-1.19,208.75-120.36,412.38-255.3,119.77-79.37,215.12-148.62,283.41-205.84,88.92-74.51,131.74-128.38,130.91-164.69-.26-11.39-4.89-27.2-25.44-37.8-79.8-41.17-171.84-62.92-266.18-62.92Z" style="fill: #202023; stroke-width: 0px;"/>
  <path d="M69.94,1113.46c-6.46-10.44-17.52-159.71,187.43-345.93,141.87-128.91,378.99-216.61,515.36-217.85,136.37-1.24-644.04,658.67-702.79,563.78Z" style="fill: #fcf0e7; stroke-width: 0px;"/>
  <path d="M269.02,648.21c186.58-149.42,432.07-154.01,608.46-68.44-1.24-10.41-7.38-18.84-19.18-24.93-177.09-91.36-429.21-89.79-619.81,62.84C-124.23,908.17,55.52,1186.14,56.58,1198.93c0,0,4.85-2.79,13.79-8-34.98-87.75-90.37-311.26,198.64-542.72Z" style="fill: #c2b2a5; stroke-width: 0px;"/>
  <path d="M149.76,1228.49c-54.59,0-87.86-13.1-98.88-38.94-17.19-40.27,20.09-107.49,113.97-205.48,309.22-322.79,566.45-439.96,663.91-439.96,20.54,0,35.58,4.83,44.7,14.37,6.84,7.15,10.06,16.59,9.55,28.07-.47,10.66-.21,23.65.1,38.68,2.61,127.77,8.04,393.64-416.21,537.84-1.96.66-195.62,65.42-317.13,65.42Z" style="fill: #f8e1ce; stroke-width: 0px;"/>
  <path d="M828.75,549.67c32.3,0,49.75,12.56,48.69,36.62-4.53,102.47,57.8,411.71-412.34,571.51,0,0-193.33,65.12-315.34,65.12-106.42,0-158.58-49.53,19.1-235.01,291.84-304.65,554.62-438.22,659.89-438.24M828.78,538.54h-.03c-59.7.01-156.59,38.85-265.84,106.56-91.01,56.4-234.64,160.32-402.08,335.12-95.59,99.78-133.23,168.97-115.07,211.52,11.99,28.08,46.98,42.32,104,42.32,122.43,0,310.93-63.02,318.9-65.7,428.14-145.52,422.65-414.14,420.01-543.24-.3-14.94-.57-27.85-.11-38.32.57-12.86-3.26-23.98-11.09-32.16-10.21-10.67-26.6-16.09-48.7-16.09Z" style="fill: #202023; stroke-width: 0px;"/>
  <path d="M496.89,1127.15s-567.69,191.21-248.18-142.32c319.51-333.54,597.42-422.31,593.62-336.46-3.8,85.84,48.42,344.91-345.44,478.78Z" style="fill: #202023; stroke-width: 0px;"/>
  <path d="M653.35,1387.09c-31.83,0-58.41-12.8-79-38.05-15.62-19.12-27.94-45.83-36.6-79.38-43.54-168.98-151.93-212.27-196.52-223.04-8.26-1.99-13.21-2.55-13.26-2.55-.58-.07-1.15-.22-1.68-.46-11.05-4.99-23.14-15.94-18-39.8,7.85-36.48,57.61-95.52,126.76-150.41,55.69-44.21,132.87-91.44,182.49-91.44,29.57,0,46.07,16.37,47.7,47.35,12.08,229.83,163.95,236.47,181.23,236.47l3.54-.04c27.36,0,62.33,17.97,76.23,52.31,14.17,35.03,10.69,96.48-86.34,190.34-17.05,16.48-106.15,98.69-186.55,98.7Z" style="fill: #f8e1ce; stroke-width: 0px;"/>
  <path d="M617.54,767.53c24.48,0,40.57,12.29,42.14,42.08,10.74,204.25,134.36,241.74,186.79,241.74.8,0,1.58,0,2.34-.03h1.2c51.35-.02,150.19,74.26-13.98,233.07-33.58,32.47-112.88,97.13-182.68,97.13-27.49,0-53.51-10.03-74.68-35.99-14.47-17.71-26.64-42.86-35.53-77.25-45.02-174.71-160.52-217.38-200.6-227.06-8.79-2.11-13.96-2.68-13.96-2.68-83.35-37.65,182.32-271.02,288.95-271.02M617.54,756.4c-43.35,0-112.87,34.63-185.95,92.65-55.78,44.28-118.89,107.89-128.74,153.6-4.62,21.45,2.9,37.8,21.16,46.04,1.07.48,2.21.79,3.37.92.02,0,4.71.55,12.56,2.43,43.59,10.53,149.63,52.95,192.43,219.01,8.86,34.34,21.54,61.76,37.68,81.52,21.68,26.6,49.71,40.08,83.3,40.08,82.55,0,173.11-83.52,190.42-100.26,99.26-96.02,102.44-159.82,87.63-196.44-14.81-36.62-52.15-55.78-81.38-55.78l-1.46.02c-.67.02-1.37.02-2.09.02-13.03,0-58.86-2.99-101.59-41.42-44.65-40.17-69.58-104.02-74.09-189.78-1.79-33.94-20.7-52.63-53.26-52.63Z" style="fill: #202023; stroke-width: 0px;"/>
  <path d="M312.95,1010.08c-1.4,12.88,3.22,22.86,15.64,28.47,0,0,5.17.56,13.96,2.68,14.31,3.45,38.23,11.16,65.12,27.52-34.64-33.72-70.31-50.49-94.71-58.67Z" style="fill: #c2b2a5; stroke-width: 0px;"/>
  <path d="M870.06,1054.56c96.02,137.93-156.83,366.4-295.45,285.62,1.34,1.83,2.68,3.66,4.07,5.35,74.95,91.91,210.56-15.88,257.37-61.14,144.43-139.71,85.3-213.99,34.02-229.84Z" style="fill: #c2b2a5; stroke-width: 0px;"/>
  <path d="M709.68,1121.81c-210.14,81.9-131.01,223.72-131.01,223.72-14.47-17.72-26.64-42.86-35.52-77.25-45.02-174.71-160.52-217.38-200.6-227.06-7.47-194.54,288.75-218.55,224.66-186.5-64.09,32.05-56.95,67.67-42.71,146,14.24,78.33,395.28,39.19,185.19,121.09Z" style="fill: #c2b2a5; stroke-width: 0px;"/>
  <path d="M1821.23,1279.36c-161.08,0-771.88-611.91-797.8-637.95-1.34-1.35-1.9-3.3-1.48-5.15.42-1.86,1.76-3.38,3.56-4.02.47-.32,3.63-2.98,6.69-5.54,78.61-66.02,166.92-99.49,262.49-99.49,109.9,0,225.8,44.33,344.49,131.75,209.05,153.99,262.44,406.45,222.61,588.34-4.6,20.98-18.61,32.07-40.54,32.07Z" style="fill: #f8e1ce; stroke-width: 0px;"/>
  <path d="M1294.68,532.77c92.42,0,207.02,31.84,341.19,130.67,196.6,144.82,263.1,388.02,220.47,582.67-4.19,19.12-16.47,27.69-35.1,27.69-160.62,0-793.86-636.31-793.86-636.31,7.75-2.78,102-104.7,267.31-104.71M1294.71,521.64v11.13-11.13h-.03c-62.19,0-121.88,14.02-177.41,41.65-44.75,22.27-74.41,47.17-88.66,59.15-2.42,2.03-5.13,4.31-6.21,5.09-2.96,1.48-5.14,4.23-5.88,7.5-.84,3.71.28,7.6,2.97,10.31,1.58,1.59,160.58,161.13,337.18,318.61,238.84,212.99,395.14,320.98,464.57,320.98,24.5,0,40.83-12.94,45.98-36.44,22.17-101.25,14.76-213.49-20.88-316.06-39.04-112.36-109.54-208.48-203.86-277.95-119.66-88.14-236.66-132.83-347.76-132.83Z" style="fill: #202023; stroke-width: 0px;"/>
  <path d="M1113.4,628.35c8.42-8.94,149.8-58.09,382.55,91.94,161.11,103.85,306.97,310.35,343.32,441.8,36.35,131.44-802.41-452.52-725.87-533.74Z" style="fill: #fcf0e7; stroke-width: 0px;"/>
  <path d="M1614.24,700.8c192.46,141.76,260.17,377.78,222.95,570.26,9.74-3.88,16.31-11.99,19.15-24.96,42.63-194.65-23.86-437.85-220.47-582.67-374.16-275.6-596.41-30.28-608.49-25.96,0,0,3.95,3.97,11.29,11.26,75.77-56.42,277.45-167.55,575.58,52.05Z" style="fill: #c2b2a5; stroke-width: 0px;"/>
  <path d="M1616.69,1318.75c-167.71,0-318.75-98.94-448.92-294.06-7.89-11.9-192.52-292.18-145.32-380.13,9.57-17.83,27.53-26.87,53.38-26.87,40.93,0,103.86,23.22,187.05,69.02,405.55,223.27,611.66,472.69,599.09,559.75-2.45,16.97-12.79,27.93-29.9,31.69-10.42,2.29-22.9,5.89-37.35,10.07-44.64,12.89-105.77,30.54-178.02,30.54Z" style="fill: #f8e1ce; stroke-width: 0px;"/>
  <path d="M1075.83,623.25c37.39,0,96.25,19.82,184.36,68.33,482.97,265.89,670.85,559.09,570.68,581.13-42.89,9.43-119.26,40.48-214.18,40.48-126.8,0-286.7-55.36-444.29-291.59,0,0-264.13-398.31-96.57-398.34M1075.85,612.12h-.02c-28.06,0-47.66,10.04-58.28,29.82-20.97,39.08-2.44,116.38,55.09,229.76,41.84,82.47,90,155.32,90.48,156.05,72.87,109.23,152.75,189.25,237.43,237.88,67.81,38.94,140.54,58.69,216.14,58.69s134.61-17.78,179.57-30.76c14.35-4.14,26.76-7.72,37-9.98,19.3-4.24,31.45-17.15,34.22-36.33,6.98-48.37-46.38-135.26-142.76-232.41-79.99-80.63-224.58-203.86-459.16-333-85.2-46.9-147.26-69.71-189.72-69.71Z" style="fill: #202023; stroke-width: 0px;"/>
  <path d="M1210.21,1044.41s-331.07-499.23,73.55-276.48c404.62,222.75,562.02,468.39,478.09,486.85-83.93,18.46-320.78,135.68-551.64-210.37Z" style="fill: #202023; stroke-width: 0px;"/>
  <path d="M1289.98,1469.54c-40.09,0-89.61-17.55-147.16-52.15-21.33-12.83-128.54-80.9-145-161.41-5.78-28.3.26-55.06,17.95-79.53,14.45-20.02,37.08-38.8,67.26-55.82,152.05-85.62,165.94-201.51,164.85-247.36-.21-8.49-.94-13.42-.95-13.47-.09-.58-.08-1.17.01-1.74,2.95-17.89,16.1-27.73,37.02-27.73,39.53,0,111.06,35.1,182.26,89.41,74.82,57.08,123.21,114.76,129.46,154.3,2.73,17.27-1.13,40.15-34.99,51.13-226.25,73.28-183.12,231.5-181.17,238.2,5.53,18.96,3.13,48.74-14.71,72.52-11.52,15.36-33.86,33.67-74.84,33.67Z" style="fill: #f8e1ce; stroke-width: 0px;"/>
  <path d="M1283.97,835.89c102.06-.03,404.93,241.87,275.01,283.97-197.55,63.98-199.03,196.07-184.8,245.05,9.77,33.51-8.46,99.08-84.2,99.08-34.91,0-82.04-13.93-144.29-51.36-55.79-33.56-194.89-136.81-125.4-232.91,13.39-18.55,34.54-36.79,65.49-54.24,157.2-88.52,168.66-211.12,167.68-252.34-.22-9.04-1.01-14.18-1.01-14.18,2.66-16.1,14.21-23.07,31.53-23.07M1283.99,824.75v11.13-11.13h-.02c-23.62,0-39.11,11.81-42.51,32.39-.19,1.16-.2,2.34-.02,3.5,0,.02.69,4.69.88,12.76,1.06,44.84-12.59,158.23-162.02,242.37-30.89,17.42-54.12,36.74-69.05,57.42-18.64,25.78-25,54.01-18.89,83.9,16.92,82.79,125.9,152.02,147.58,165.06,58.44,35.13,108.92,52.95,150.03,52.95,43.28,0,67.01-19.52,79.29-35.9,18.99-25.31,21.51-57.13,15.59-77.42-7.43-25.56-8.1-67.58,12.28-108.85,26.91-54.48,82.51-95.69,165.27-122.49,29.34-9.51,43.11-29.85,38.77-57.29-14.21-89.94-231.07-248.4-317.2-248.4Z" style="fill: #202023; stroke-width: 0px;"/>
  <path d="M1275.92,836.51c-12.8,1.97-21.26,9-23.48,22.45,0,0,.79,5.14,1.01,14.18.35,14.71-.93,39.82-9.81,70.01,23.65-42.16,30.66-80.95,32.28-106.63Z" style="fill: #c2b2a5; stroke-width: 0px;"/>
  <path d="M1376.53,1386.26c-108.52,128.33-394.45-57.1-352.12-211.86-1.42,1.77-2.84,3.54-4.12,5.31-69.49,96.11,69.61,199.36,125.4,232.91,172.21,103.54,228.75,27.26,230.84-26.36Z" style="fill: #c2b2a5; stroke-width: 0px;"/>
  <path d="M1270.21,1248.63c-133.3-181.93-249.93-68.92-249.93-68.92,13.38-18.55,34.54-36.79,65.49-54.23,157.2-88.52,168.66-211.12,167.68-252.34,186.04-57.36,285.59,222.67,238.11,169-47.48-53.67-80.06-37.59-152.07-3.64-72.02,33.94,64.01,392.02-69.27,210.14Z" style="fill: #c2b2a5; stroke-width: 0px;"/>
</svg>