<?xml version="1.0" encoding="UTF-8"?>
<svg id="Layer_1" data-name="Layer 1" xmlns="http://www.w3.org/2000/svg" viewBox="0 0 2724.05 2167.61">
  <path d="M2182.95,1161.37c-57.02-170.18-167.96-309.47-283.87-417.67-9.88-9.22-20.15-17.99-30.7-26.43l-144.38-115.38c-28.31-13.25-56.47-26.88-84.42-41.01-18-9.01-35.83-18.4-53.63-27.88-17.73-9.6-35.42-19.34-52.88-29.54-17.45-10.22-34.81-20.67-51.84-31.77-4.27-2.73-8.47-5.62-12.71-8.42-2.13-1.46-4.22-2.75-6.37-4.31l-6.41-4.58c-8.52-6.12-16.67-12.81-24.58-19.77-15.77-13.97-29.94-29.84-42.19-47.18-1.51-2.19-3.11-4.31-4.54-6.56l-4.24-6.76-2.13-3.38-.36-.64c-54.27,26.08-102.63,64.5-140.29,111.48l-28.2,35.2c-25.57,31.9-58.83,57.55-96.2,74.15l-13.7,6.09c-76.81,34.16-141.38,93.56-181.8,167.26l-3,5.45c-10.44,19.03-23,36.97-37.33,53.29-23.57,26.84-53.49,47.94-88.94,62.73-2.03.84-4.07,1.72-6.07,2.59-1.74.78-3.48,1.55-5.21,2.34-1.64.75-3.28,1.51-4.88,2.29-1.52.72-3.04,1.46-4.55,2.22-.89.43-1.78.87-2.65,1.33-1.27.65-2.55,1.3-3.81,1.97-.19.09-.37.19-.56.3-1.29.68-2.57,1.36-3.84,2.07-.53.27-1.04.56-1.57.85-1.56.85-3.1,1.73-4.62,2.61-1.68.97-3.35,1.95-5,2.95-1.65.99-3.3,2-4.92,3.02-3.05,1.94-6.04,3.9-8.98,5.93-.75.51-1.5,1.03-2.23,1.56-.72.49-1.46.99-2.17,1.53-.73.52-1.47,1.05-2.18,1.59-.65.45-1.3.94-1.93,1.42-1.15.85-2.29,1.71-3.42,2.59-1.33,1.03-2.65,2.07-3.96,3.11-1.3,1.04-2.6,2.11-3.88,3.18-1.27,1.05-2.53,2.12-3.77,3.2-.11.08-.22.18-.33.29-1.16,1-2.3,2.01-3.43,3.04-2.46,2.23-4.88,4.49-7.24,6.81-1.18,1.15-2.35,2.31-3.51,3.49-1.01,1.02-2,2.05-2.97,3.09-.21.2-.41.42-.62.66-.95.98-1.88,1.99-2.8,3.02-.21.21-.43.44-.63.7-.91.98-1.8,1.97-2.67,2.99-.25.24-.48.53-.72.83-.89,1.01-1.76,2.03-2.62,3.07-.22.24-.42.48-.6.72-.84,1-1.69,2.02-2.52,3.06-5.28,6.54-10.23,13.36-14.87,20.47-3.26,4.96-6.34,10.07-9.3,15.34-2.05,3.63-4.01,7.33-5.89,11.1-1.69,3.33-3.32,6.71-4.88,10.15l-42.19,110.91s-5.43-1.18-7.85-1.71l-4.88,12.82-38.08-2.03,26.4-69.45c2.42.52,7.85,1.71,7.85,1.71l42.19-110.91c1.56-3.44,3.19-6.82,4.88-10.15,1.88-3.77,3.84-7.47,5.89-11.1,2.95-5.27,6.04-10.38,9.3-15.34,4.64-7.11,9.59-13.93,14.87-20.47.83-1.03,1.67-2.05,2.52-3.06.17-.24.38-.48.6-.72.86-1.04,1.73-2.06,2.62-3.07.24-.3.48-.59.72-.83.87-1.02,1.76-2.02,2.67-2.99.2-.27.42-.49.63-.7.92-1.03,1.85-2.04,2.8-3.02.2-.24.41-.46.62-.66.98-1.04,1.97-2.08,2.97-3.09,1.16-1.18,2.33-2.34,3.51-3.49,2.37-2.32,4.78-4.58,7.24-6.81,1.13-1.03,2.27-2.04,3.43-3.04.11-.11.22-.21.33-.29,1.24-1.08,2.5-2.15,3.77-3.2,1.27-1.07,2.57-2.14,3.88-3.18,1.3-1.04,2.62-2.08,3.96-3.11,1.12-.88,2.26-1.74,3.42-2.59.63-.48,1.28-.96,1.93-1.42.72-.53,1.45-1.07,2.18-1.59.72-.53,1.45-1.04,2.17-1.53.73-.53,1.48-1.05,2.23-1.56,2.94-2.03,5.93-3.99,8.98-5.93,1.62-1.02,3.27-2.03,4.92-3.02,1.65-1.01,3.31-1.99,5-2.95,1.52-.88,3.06-1.76,4.62-2.61.53-.29,1.04-.59,1.57-.85,1.27-.71,2.56-1.39,3.84-2.07.19-.1.37-.21.56-.3,1.26-.66,2.53-1.32,3.81-1.97.87-.46,1.76-.9,2.65-1.33,1.5-.76,3.02-1.5,4.55-2.22,1.61-.78,3.25-1.54,4.88-2.29,1.73-.79,3.47-1.57,5.21-2.34,2-.87,4.03-1.75,6.07-2.59,35.45-14.79,65.37-35.88,88.94-62.73,14.33-16.32,26.89-34.25,37.33-53.29l3-5.45c40.42-73.7,104.99-133.1,181.8-167.26l13.7-6.09c37.36-16.6,70.62-42.25,96.2-74.15l28.2-35.2c37.66-46.98,86.02-85.4,140.29-111.48l.36.64,2.13,3.38,4.24,6.76c1.43,2.24,3.02,4.37,4.54,6.56,12.25,17.34,26.42,33.21,42.19,47.18,7.9,6.96,16.05,13.65,24.58,19.77l6.41,4.58c2.15,1.56,4.25,2.85,6.37,4.31,4.24,2.8,8.44,5.68,12.71,8.42,17.03,11.1,34.38,21.55,51.84,31.77,17.47,10.2,35.15,19.94,52.88,29.54,17.8,9.48,35.63,18.86,53.63,27.88,27.95,14.13,56.11,27.76,84.42,41.01l144.38,115.38c10.55,8.44,20.82,17.21,30.7,26.43,125.85,117.49,245.85,271.62,297.32,462.16,1.26,4.71,2.3,9.44,3.11,14.17h0Z" style="fill: #fbe599; stroke-width: 0px;"/>
  <path d="M801.83,1214.49c-7.87,4.43-15.98,8.42-24.23,12-21.88,9.45-44.86,16.1-68.24,20.08-23.37,3.96-47.23,5.37-71.02,3.78-11.89-.85-23.75-2.38-35.47-4.89l-8.77-2.04c-2.91-.78-5.81-1.53-8.69-2.37-5.75-1.74-11.46-3.69-17.09-5.93-11.22-4.48-22.15-9.95-32.35-16.83-10.09-6.98-19.53-15.27-27.26-25.16-1.33-1.74-2.6-3.52-3.8-5.36-6.32,3.89-12.53,7.97-18.28,12.6-3.61,2.62-6.85,5.66-10.27,8.51-1.66,1.49-3.23,3.07-4.85,4.58l-2.41,2.3c-.79.78-1.53,1.61-2.3,2.41l-4.59,4.84-4.32,5.06c-.72.86-1.46,1.69-2.17,2.55l-2.04,2.65c-1.35,1.77-2.75,3.51-4.07,5.31-5.23,7.25-10.04,14.8-14.46,22.66-4.32,7.91-8.44,15.96-11.97,24.35-1.9,4.13-3.46,8.43-5.19,12.65l-2.35,6.46-2.49,6.78-2.67,7.14-3,7c-.51,1.16-.98,2.34-1.51,3.49l-1.65,3.44c-1.12,2.28-2.17,4.59-3.34,6.84-2.44,4.45-4.73,9-7.42,13.3-1.34,2.16-2.56,4.39-3.97,6.49l-4.21,6.36c-5.8,8.33-11.92,16.46-18.75,23.99-3.28,3.89-6.91,7.44-10.42,11.12l-5.5,5.26-2.76,2.63-2.87,2.5-5.76,4.99-5.96,4.74c-1.97,1.6-4.02,3.1-6.09,4.57-2.06,1.49-4.08,3.02-6.19,4.43-4.25,2.79-8.42,5.68-12.84,8.2l-6.41,3.85-5.93,3.59c-16.05,9.35-31.04,19.62-45.27,31.09l-10.48,8.81-10.04,9.29-2.51,2.33-2.39,2.44-4.78,4.89-4.79,4.89-4.54,5.12c-6.19,6.71-11.81,13.91-17.49,21.06l-8.04,11.07c-1.38,1.82-2.56,3.76-3.83,5.68l-3.74,5.72c-9.8,15.39-18.52,31.49-25.83,48.21-7.2,16.79-13.14,34.08-17.78,51.74l-3.22,13.3-3.02,13.97-6.13,28.12c-4.58,20.09-12.08,39.52-22.27,57.45-5.07,8.98-10.82,17.58-17.18,25.7l-4.4,5.62-2.07,2.63-1.96,2.7c-1.33,1.79-2.64,3.59-3.86,5.43-1.26,1.81-2.5,3.64-3.63,5.51-4.71,7.4-8.81,15.05-12.03,22.84-1.54,3.9-2.98,7.83-4.01,11.77-.22.79-.44,1.57-.63,2.36-2.63-2.21-5.06-4.64-7.17-7.26-4.68-5.72-8.01-12.31-9.89-19.41-.96-3.54-1.48-7.26-1.67-11.04-.19-3.77-.11-7.63.42-11.55.5-3.9,1.25-7.84,2.38-11.77,1.03-3.94,2.47-7.86,4.01-11.77,3.22-7.79,7.32-15.44,12.03-22.84,1.13-1.88,2.38-3.7,3.63-5.51,1.23-1.84,2.53-3.64,3.86-5.43l1.96-2.7,2.07-2.64,4.4-5.62c6.36-8.12,12.11-16.72,17.18-25.7,10.2-17.93,17.7-37.36,22.27-57.45l6.13-28.13,3.02-13.97,3.22-13.3c4.63-17.66,10.57-34.95,17.78-51.74,7.31-16.72,16.03-32.82,25.83-48.21l3.74-5.71c1.26-1.92,2.45-3.86,3.83-5.68l8.04-11.07c5.68-7.15,11.3-14.35,17.49-21.06l4.54-5.12,4.78-4.89,4.78-4.89,2.39-2.44,2.51-2.33,10.04-9.29,10.48-8.81c14.23-11.47,29.22-21.74,45.27-31.09l5.93-3.59,6.41-3.85c4.42-2.52,8.59-5.41,12.84-8.2,2.11-1.42,4.13-2.95,6.19-4.43,2.07-1.47,4.12-2.97,6.09-4.57l5.96-4.74,5.76-4.99,2.87-2.5,2.76-2.63,5.5-5.26c3.51-3.69,7.13-7.23,10.42-11.12,6.83-7.54,12.95-15.66,18.75-23.99l4.21-6.36c1.41-2.11,2.64-4.33,3.97-6.49,2.69-4.31,4.98-8.85,7.42-13.3,1.16-2.25,2.22-4.57,3.34-6.84l1.65-3.44c.54-1.14,1.01-2.33,1.51-3.48l3-7,2.67-7.14,2.49-6.78,2.35-6.46c1.72-4.22,3.29-8.52,5.19-12.65,3.53-8.39,7.65-16.45,11.97-24.35,4.42-7.85,9.23-15.41,14.46-22.66,1.32-1.8,2.72-3.53,4.07-5.31l2.04-2.65c.71-.86,1.45-1.69,2.17-2.55l4.32-5.06,4.59-4.84c.77-.81,1.51-1.64,2.3-2.41l2.41-2.3c1.62-1.51,3.2-3.1,4.85-4.58,3.41-2.84,6.66-5.88,10.27-8.51,5.76-4.64,11.96-8.71,18.28-12.61,1.2,1.84,2.47,3.62,3.8,5.36,7.73,9.89,17.17,18.18,27.26,25.16,10.19,6.87,21.12,12.34,32.35,16.83,5.63,2.24,11.34,4.19,17.09,5.93,1.37.4,2.76.78,4.14,1.15l-6.98,18.35,235.81,12.6.02.02Z" style="fill: #fbe599; stroke-width: 0px;"/>
  <path d="M2125.71,1307.09c-17.24,12.96-37.18,25.02-59.62,36.28-63.57,31.89-137.1,37.07-204.8,15.32-19.67-6.32-40.26-12.11-61.95-14.65-53.6-6.25-106.6,15.56-141.63,56.61-19.39,22.76-36.69,50.27-51.88,82.5-4.94,10.47-11.73,20.03-20.41,27.7-43.71,38.67-87.69,6.8-150.21-6.58-70.34-15.05-142.32,21.19-169.63,87.73-4.04,9.85-6.79,19.76-7.56,29.52-1.39,17.97-21.9,27.63-36.35,16.85-1.08-.81-2.15-1.59-3.24-2.35-61.42-43.43-147.32-21.02-181.53,45.98l-8.79,17.21c-30.12,58.96-99.65,81.02-155.84,51.46l-21.94-11.54c-55.83-29.37-123.07-40.62-181.27-16.26-127.01,53.14-165.39,69.69-357.15,105.49-3.89,0-7.76.03-11.61.06l.35-1,2.34-6.48,2.64-6.4c.87-2.14,1.7-4.32,2.75-6.4l2.9-6.38c1.93-4.26,4.17-8.4,6.21-12.69l6.71-12.61c2.37-4.15,4.71-8.35,6.99-12.66-14.92,12.42-27.89,27.21-38.64,43.83-1.33,2.09-2.67,4.17-3.96,6.3l-3.6,6.54-1.78,3.28-1.59,3.4-.74,1.61-2.42,5.22c-2.89,7.08-5.49,14.34-7.49,21.81-.64,2.33-1.21,4.68-1.71,7.05-.64,2.46-.99,4.98-1.44,7.49l-.64,3.76-.46,3.79c-.26,2.52-.65,5.06-.81,7.58l-.39,7.61c-.28,10.16.31,20.29,1.51,30.25,2.44,19.95,7.29,39.15,12.55,57.71,5.24,18.58,10.92,36.63,14.96,54.56.52,2.24,1.02,4.48,1.45,6.71.43,2.24.93,4.48,1.27,6.71.35,2.21.78,4.5,1.07,6.65.24,2.14.6,4.27.71,6.39.44,4.27.41,8.5.33,12.69-.24,4.17-.61,8.33-1.38,12.35-.8,4.02-1.8,7.99-3.19,11.78-1.39,3.77-3.07,7.42-5.03,10.87-3.96,6.89-9.19,12.93-15.3,17.82-12.21,9.77-28.4,14.46-43.24,12.19-7.4-1.09-14.38-3.86-20.31-8.12-2.52-1.8-4.84-3.85-6.98-6.16-2.91-3.15-5.43-6.72-7.56-10.59-7.41-13.55-9.83-30.72-9.01-48,.39-8.76,1.64-17.21,3.22-26.79l4.63-28.19c3.09-18.92,6.16-38.02,7.96-57.77.64-7.09,1.09-14.26,1.18-21.61.03-2.89,0-5.81-.08-8.77-.17-5.21-.59-10.56-1.44-16.05s-2.13-11.15-4.43-17.02c-.64-1.47-1.18-2.92-1.95-4.4l-1.17-2.2c-.37-.73-.79-1.47-1.29-2.19-1.86-3.04-3.91-5.46-6.15-7.98-4.53-4.99-10.76-9.25-17.35-11.72-6.6-2.52-13.25-3.32-19.23-3.38-6.01-.05-11.51.58-16.73,1.34-5.21.8-10.06,1.79-14.78,2.74s-9.26,1.9-13.67,2.67c-4.42.78-8.74,1.43-12.88,1.78-2.1.22-4.11.26-6.14.36-2,0-4,.05-5.91-.12-1.95-.04-3.8-.37-5.67-.55-1.8-.39-3.67-.62-5.39-1.17-1.77-.4-3.45-1.07-5.16-1.65-.84-.29-1.64-.72-2.47-1.07s-1.66-.7-2.45-1.18l-2.4-1.3c-.78-.46-1.54-1.03-2.31-1.52-1.55-.95-3.09-2.14-4.55-3.34-.26-.22-.52-.42-.78-.65.19-.79.41-1.57.63-2.36,1.03-3.94,2.47-7.86,4.01-11.77,3.22-7.79,7.32-15.44,12.03-22.84,1.13-1.88,2.38-3.7,3.63-5.51,1.23-1.84,2.53-3.64,3.86-5.43l1.96-2.7,2.07-2.63,4.4-5.62c6.36-8.12,12.11-16.72,17.18-25.7,10.2-17.93,17.7-37.36,22.27-57.45l6.13-28.12,3.02-13.97,3.22-13.3c4.63-17.66,10.57-34.95,17.78-51.74,7.31-16.72,16.03-32.82,25.83-48.21l3.74-5.72c1.26-1.92,2.45-3.86,3.83-5.68l8.04-11.07c5.68-7.15,11.3-14.35,17.49-21.06l4.54-5.12,4.79-4.89,4.78-4.89,2.39-2.44,2.51-2.33,10.04-9.29,10.48-8.81c14.23-11.47,29.22-21.74,45.27-31.09l5.93-3.59,6.41-3.85c4.42-2.52,8.59-5.41,12.84-8.2,2.11-1.42,4.13-2.95,6.19-4.43,2.07-1.47,4.12-2.97,6.09-4.57l5.96-4.74,5.76-4.99,2.87-2.5,2.76-2.63,5.5-5.26c3.51-3.69,7.13-7.23,10.42-11.12,6.83-7.54,12.95-15.66,18.75-23.99l4.21-6.36c1.41-2.11,2.64-4.33,3.97-6.49,2.69-4.31,4.98-8.85,7.42-13.3,1.16-2.25,2.22-4.57,3.34-6.84l1.65-3.44c.54-1.14,1.01-2.33,1.51-3.49l3-7,2.67-7.14,2.49-6.78,2.35-6.46c1.72-4.22,3.29-8.52,5.19-12.65,3.53-8.39,7.65-16.45,11.97-24.35,4.42-7.85,9.23-15.41,14.46-22.66,1.32-1.8,2.72-3.53,4.07-5.31l2.04-2.65c.71-.86,1.45-1.69,2.17-2.55l4.32-5.06,4.59-4.84c.77-.81,1.51-1.64,2.3-2.41l2.41-2.3c1.62-1.51,3.2-3.1,4.85-4.58,3.41-2.84,6.66-5.88,10.27-8.51,5.76-4.64,11.96-8.71,18.28-12.6,1.2,1.84,2.47,3.62,3.8,5.36,7.73,9.89,17.17,18.18,27.26,25.16,10.19,6.87,21.12,12.34,32.35,16.83,5.63,2.24,11.34,4.19,17.09,5.93,2.88.85,5.78,1.59,8.69,2.37l8.77,2.04c11.72,2.51,23.58,4.03,35.47,4.89,23.79,1.59,47.65.18,71.02-3.78,23.37-3.98,46.35-10.64,68.24-20.08,8.25-3.58,16.36-7.57,24.23-12l-235.81-12.6,6.98-18.35c1.51.42,3.03.81,4.55,1.22l8.77,2.04c11.72,2.51,23.58,4.03,35.47,4.89,23.79,1.59,47.65.18,71.02-3.78,23.37-3.98,46.35-10.64,68.23-20.08,8.25-3.58,16.36-7.57,24.23-12l-197.73-10.57,4.88-12.82c2.42.52,7.85,1.71,7.85,1.71l42.19-110.91c1.56-3.44,3.19-6.82,4.88-10.15,1.88-3.77,3.84-7.47,5.89-11.1,2.95-5.27,6.04-10.38,9.3-15.34,4.64-7.11,9.59-13.93,14.87-20.47.83-1.03,1.67-2.05,2.52-3.06.17-.24.38-.48.6-.72.86-1.04,1.73-2.06,2.62-3.07.24-.3.48-.59.72-.83.87-1.02,1.76-2.02,2.67-2.99.2-.27.42-.49.63-.7.92-1.03,1.85-2.04,2.8-3.02.2-.24.41-.46.62-.66.98-1.04,1.97-2.08,2.97-3.09,1.16-1.18,2.33-2.34,3.51-3.49,2.37-2.32,4.78-4.58,7.24-6.81,1.13-1.03,2.27-2.04,3.43-3.04.11-.11.22-.21.33-.29,1.24-1.08,2.5-2.15,3.77-3.2,1.27-1.07,2.57-2.14,3.88-3.18,1.3-1.04,2.62-2.08,3.96-3.11,1.12-.88,2.26-1.74,3.42-2.59.63-.48,1.28-.96,1.93-1.42.72-.53,1.45-1.07,2.18-1.59.72-.53,1.45-1.04,2.17-1.53.73-.53,1.48-1.05,2.23-1.56,2.94-2.03,5.93-3.99,8.98-5.93,1.62-1.02,3.27-2.03,4.92-3.02,1.65-1.01,3.31-1.99,5-2.95,1.52-.88,3.06-1.76,4.62-2.61.53-.29,1.04-.59,1.57-.85,1.27-.71,2.56-1.39,3.84-2.07.19-.1.37-.21.56-.3,1.26-.66,2.53-1.32,3.81-1.97.87-.46,1.76-.9,2.65-1.33,1.5-.76,3.03-1.5,4.55-2.22,1.61-.78,3.25-1.54,4.88-2.29,1.73-.79,3.47-1.57,5.21-2.34,2-.87,4.03-1.75,6.07-2.59,35.45-14.79,65.37-35.88,88.94-62.73,14.33-16.32,26.89-34.25,37.33-53.29l3-5.45c40.42-73.7,104.99-133.1,181.8-167.26l13.7-6.09c37.36-16.6,70.62-42.25,96.2-74.15l28.2-35.2c37.66-46.98,86.02-85.4,140.29-111.48l.36.64,2.13,3.38,4.24,6.76c1.43,2.24,3.02,4.37,4.54,6.56,12.25,17.34,26.42,33.21,42.19,47.18,7.9,6.96,16.05,13.65,24.58,19.77l6.41,4.58c2.15,1.56,4.25,2.85,6.37,4.31,4.24,2.8,8.44,5.68,12.71,8.42,17.03,11.1,34.38,21.55,51.84,31.77,17.47,10.2,35.15,19.94,52.88,29.54,17.8,9.48,35.63,18.86,53.63,27.88,27.95,14.13,56.11,27.76,84.42,41.01l144.38,115.38c10.55,8.44,20.82,17.21,30.7,26.43,115.91,108.2,226.85,247.49,283.87,417.67,9.43,55.11-11.96,111.71-57.25,145.72v-.02Z" style="fill: #febb12; stroke-width: 0px;"/>
  <path d="M2130.01,1313.15c-17.24,12.96-37.18,25.02-59.62,36.28-63.57,31.89-137.1,37.07-204.8,15.32-19.67-6.32-40.26-12.11-61.95-14.65-53.6-6.25-106.6,15.56-141.63,56.61-19.39,22.76-36.69,50.27-51.88,82.5-4.94,10.47-11.73,20.03-20.41,27.7-43.71,38.67-87.69,6.8-150.21-6.58-70.34-15.05-142.32,21.19-169.63,87.73-4.04,9.85-6.79,19.76-7.56,29.52-1.39,17.97-21.9,27.63-36.35,16.85-1.08-.81-2.15-1.59-3.24-2.35-61.42-43.43-147.32-21.02-181.53,45.98l-8.79,17.21c-30.12,58.96-99.65,81.02-155.84,51.46l-21.94-11.54c-55.83-29.37-123.07-40.62-181.27-16.26-127.01,53.14-165.39,69.69-357.15,105.49-3.89,0-7.76.03-11.61.06l.35-1,2.34-6.48,2.64-6.4c.87-2.14,1.7-4.32,2.75-6.4l2.9-6.38c1.93-4.26,4.17-8.4,6.21-12.69l6.71-12.61c2.37-4.15,4.71-8.35,6.99-12.66-14.92,12.42-27.89,27.21-38.64,43.83-1.33,2.08-2.67,4.17-3.96,6.3l-3.6,6.54-1.78,3.28-1.59,3.4-.74,1.61-2.42,5.22c-2.89,7.08-5.49,14.34-7.49,21.81-.64,2.33-1.21,4.68-1.71,7.05-.64,2.46-.99,4.98-1.44,7.49l-.64,3.76-.46,3.79c-.26,2.52-.65,5.06-.8,7.58l-.39,7.61c-.27,10.16.31,20.29,1.51,30.25,2.44,19.95,7.29,39.15,12.55,57.71,5.24,18.58,10.92,36.63,14.96,54.56.52,2.24,1.02,4.48,1.45,6.71.43,2.24.93,4.48,1.27,6.71.35,2.21.78,4.5,1.07,6.65.24,2.14.6,4.27.71,6.39.44,4.27.41,8.5.33,12.69-.24,4.17-.61,8.33-1.38,12.35-.8,4.02-1.8,7.99-3.19,11.78-1.39,3.77-3.07,7.42-5.03,10.87-3.96,6.89-9.19,12.93-15.3,17.82-12.21,9.77-28.4,14.46-43.24,12.19-7.4-1.09-14.38-3.86-20.31-8.12-2.52-1.8-4.84-3.85-6.98-6.16-2.91-3.15-5.43-6.72-7.56-10.59-7.41-13.55-9.83-30.72-9.01-48,.39-8.76,1.64-17.21,3.22-26.79l4.63-28.19c3.09-18.92,6.16-38.02,7.96-57.77.64-7.09,1.09-14.26,1.18-21.61.03-2.89,0-5.81-.08-8.77-.17-5.21-.59-10.56-1.44-16.05s-2.13-11.15-4.43-17.02c-.64-1.47-1.18-2.92-1.95-4.4l-1.17-2.2c-.37-.73-.79-1.47-1.29-2.19-1.86-3.04-3.91-5.46-6.15-7.98-4.53-4.99-10.76-9.25-17.35-11.72-6.6-2.52-13.25-3.32-19.23-3.38-6.01-.05-11.51.58-16.73,1.34-5.21.8-10.06,1.79-14.78,2.74s-9.26,1.9-13.67,2.67c-4.42.78-8.73,1.43-12.88,1.78-2.1.22-4.11.26-6.14.36-2,0-4,.05-5.91-.12-1.95-.04-3.8-.37-5.67-.55-1.8-.39-3.67-.62-5.39-1.17-1.77-.4-3.45-1.07-5.16-1.65-.84-.29-1.64-.72-2.47-1.07s-1.66-.7-2.45-1.18l-2.4-1.3c-.78-.46-1.54-1.03-2.31-1.52-1.55-.95-3.09-2.14-4.55-3.34-.26-.22-.52-.42-.78-.65.19-.79.41-1.57.63-2.36,1.03-3.94,2.47-7.86,4.01-11.77,3.22-7.79,7.32-15.44,12.03-22.84,1.13-1.88,2.38-3.7,3.63-5.51,1.23-1.84,2.53-3.64,3.86-5.43l1.96-2.7,2.07-2.63,4.4-5.62c6.36-8.12,12.11-16.72,17.18-25.7,10.2-17.93,17.7-37.36,22.27-57.45l6.13-28.12,3.02-13.97,3.22-13.3c4.63-17.66,10.57-34.95,17.78-51.74,7.31-16.72,16.03-32.82,25.83-48.21l3.74-5.72c1.26-1.92,2.45-3.86,3.83-5.68l8.04-11.07c5.68-7.15,11.3-14.35,17.49-21.06l4.54-5.12,4.79-4.89,4.78-4.89,2.39-2.44,2.51-2.33,10.04-9.29,10.48-8.81c14.23-11.47,29.22-21.74,45.27-31.09l5.93-3.59,6.42-3.85c4.42-2.52,8.59-5.41,12.84-8.2,2.11-1.42,4.13-2.95,6.19-4.43,2.07-1.47,4.12-2.97,6.09-4.57l5.96-4.74,5.76-4.99,2.87-2.5,2.76-2.63,5.5-5.26c3.51-3.69,7.13-7.23,10.42-11.12,6.83-7.54,12.95-15.66,18.75-23.99l4.21-6.36c1.41-2.11,2.64-4.33,3.97-6.49,2.69-4.31,4.98-8.85,7.42-13.3,1.16-2.25,2.22-4.57,3.34-6.84l1.65-3.44c.54-1.14,1.01-2.33,1.51-3.48l3-7,2.67-7.14,2.49-6.78,2.35-6.46c1.72-4.22,3.29-8.52,5.19-12.65,3.53-8.39,7.65-16.45,11.97-24.35,4.42-7.85,9.23-15.41,14.46-22.66,1.32-1.8,2.72-3.53,4.07-5.31l2.04-2.65c.71-.86,1.45-1.69,2.17-2.55l4.32-5.06,4.59-4.84c.77-.81,1.51-1.64,2.3-2.41l2.41-2.3c1.62-1.51,3.2-3.1,4.85-4.58,3.41-2.84,6.66-5.88,10.27-8.51,5.76-4.64,11.96-8.71,18.28-12.61,1.2,1.84,2.47,3.62,3.8,5.36,7.73,9.89,17.17,18.18,27.26,25.16,10.19,6.87,21.12,12.34,32.34,16.83,5.63,2.24,11.34,4.19,17.09,5.93,2.88.85,5.78,1.59,8.69,2.37l8.77,2.04c11.72,2.51,23.58,4.03,35.47,4.89,23.79,1.59,47.65.18,71.02-3.78,23.37-3.98,46.35-10.64,68.24-20.08,8.25-3.58,16.36-7.57,24.23-12l-235.81-12.6,6.98-18.35c1.51.42,3.03.81,4.55,1.22l8.77,2.04c11.72,2.51,23.58,4.03,35.47,4.89,23.79,1.59,47.65.18,71.02-3.78,23.37-3.98,46.35-10.64,68.23-20.08,8.25-3.58,16.36-7.57,24.23-12l-197.73-10.57,4.88-12.82c2.42.52,7.85,1.71,7.85,1.71l42.19-110.91c1.56-3.44,3.19-6.82,4.88-10.15,1.88-3.77,3.84-7.47,5.89-11.1,2.95-5.27,6.04-10.38,9.3-15.34,4.64-7.11,9.59-13.93,14.87-20.47.83-1.03,1.67-2.05,2.52-3.06.17-.24.38-.48.6-.72.86-1.04,1.73-2.06,2.62-3.07.24-.3.48-.59.72-.83.87-1.02,1.76-2.01,2.67-2.99.2-.27.42-.49.63-.7.92-1.03,1.85-2.04,2.8-3.02.2-.24.41-.46.62-.66.98-1.04,1.97-2.08,2.97-3.09,1.16-1.18,2.33-2.34,3.51-3.49,2.37-2.32,4.78-4.58,7.24-6.81,1.13-1.03,2.27-2.04,3.43-3.04.11-.11.22-.21.33-.29,1.24-1.08,2.5-2.15,3.77-3.2,1.27-1.07,2.57-2.14,3.88-3.18,1.3-1.04,2.62-2.08,3.96-3.11,1.12-.88,2.26-1.74,3.42-2.59.63-.48,1.28-.96,1.93-1.42.72-.53,1.45-1.07,2.18-1.59.72-.53,1.45-1.04,2.17-1.53.73-.53,1.48-1.05,2.23-1.56,2.94-2.03,5.93-3.99,8.98-5.93,1.62-1.02,3.27-2.03,4.92-3.02,1.65-1.01,3.31-1.99,5-2.95,1.52-.88,3.06-1.76,4.62-2.61.53-.29,1.04-.59,1.57-.85,1.27-.71,2.56-1.39,3.84-2.07.19-.1.37-.21.56-.3,1.26-.66,2.53-1.32,3.81-1.97.87-.46,1.76-.9,2.65-1.33,1.5-.76,3.02-1.5,4.55-2.22,1.61-.78,3.25-1.54,4.88-2.29,1.73-.79,3.47-1.57,5.21-2.34,2-.87,4.03-1.75,6.07-2.59,35.45-14.79,65.37-35.88,88.94-62.73,14.33-16.32,26.89-34.25,37.33-53.29l3-5.45c40.42-73.7,104.99-133.1,181.8-167.26l13.7-6.09c37.36-16.6,70.62-42.25,96.2-74.15l28.2-35.2c37.66-46.98,86.02-85.4,140.29-111.48l.36.64,2.13,3.38,4.24,6.76c1.43,2.24,3.02,4.37,4.54,6.56,12.25,17.34,26.42,33.21,42.19,47.18,7.9,6.96,16.05,13.65,24.58,19.77l6.41,4.58c2.15,1.56,4.25,2.85,6.37,4.31,4.24,2.8,8.44,5.68,12.71,8.42,17.03,11.1,34.38,21.55,51.84,31.77,17.47,10.2,35.15,19.94,52.88,29.54,17.8,9.48,35.63,18.86,53.63,27.88,27.95,14.13,56.11,27.76,84.42,41.01l144.38,115.38c10.55,8.44,20.82,17.21,30.7,26.43,115.91,108.2,226.85,247.49,283.87,417.67,9.43,55.11-11.96,111.71-57.25,145.72l-.02-.02Z" style="fill: #febb12; stroke-width: 0px;"/>
  <path d="M1224.41,1808.59c-2.29.24-4.57.45-6.88.7-16.29,1.74-32.58,2.87-48.88,3.7l-12.22.45c-4.08.21-8.14.13-12.22.21-8.14.18-16.26-.09-24.38-.21-11.2-.37-22.38-.95-33.5-1.93,2.45-3.71,5.09-7.38,7.96-10.96,5.6-6.96,12.16-13.59,19.88-19.13,3.85-2.78,8.02-5.23,12.35-7.34,4.37-2.09,8.94-3.73,13.59-5.03,4.66-1.2,9.38-2.03,14.09-2.47,4.71-.37,9.35-.55,14.08-.19,9.43.53,19.07,2.76,28,6.8,8.89,4.08,17.03,9.92,23.59,16.88,1.22,1.26,2.38,2.55,3.5,3.88.04.39.09.77.13,1.16l.48,5.63.42,7.86h.01Z" style="fill: #be543a; stroke-width: 0px;"/>
  <path d="M1939.86,1582.94c-.1,1.8-.25,3.59-.42,5.41-.83,9.34-2.3,18.86-4.02,28.47-3.47,19.21-7.94,38.74-11.73,58.74-2.46,13.07-4.72,26.34-6.15,39.94-47.72,9.46-86.88,3.04-130.21-4.04-7.39-1.23-14.85-2.45-22.45-3.61,1.59-.89,3.16-1.81,4.77-2.72,7.19-4.07,14.6-7.74,22.2-11.67l-.18-.71c-17.11.4-34.12,4.62-50.16,10.51-.88.33-1.78.67-2.66,1h-.01c-14.12,5.35-27.56,11.95-40.6,18.84-.95.49-1.87.99-2.81,1.48-14.7,7.91-28.96,16.17-43.49,23.3-14.51,7.25-29.27,13.32-44.31,17.89-15.06,4.4-30.41,7.32-45.91,7.97-15.49.64-31.03-.59-46.42-3.52-32.89-6.74-69.21-10.53-104.58-3.94-17.66,3.15-34.52,8.92-50.25,14.57-4.93,1.78-9.77,3.5-14.55,5.14-1.05-3.99-2.03-7.96-2.93-11.94-.47-1.86-.8-3.71-1.16-5.57l-1.05-5.55c-.62-3.7-1.08-7.4-1.63-11.09l-.49-5.52c-.15-1.84-.42-3.7-.4-5.51l-.16-5.51c-.03-.92-.1-1.83-.07-2.75l.1-2.72c.06-2.17.16-4.34.31-6.49h.01s.01-.03.03-.04l1.97-2.6,3.98-5.17.49-.64.61-.7,1.23-1.38,2.49-2.75c6.98-7.02,15.25-12.37,23.59-16.29,8.39-3.95,16.85-6.55,25.14-8.63,14.85-3.65,43.64-14.23,61.09-13.02,13.65.95,31.98,8.42,41.61,13.38,1.8.94,3.58,1.86,5.36,2.78,7.01,3.59,13.9,7.07,20.76,10.19,8.64,3.93,17.22,7.35,25.96,9.61,8.75,2.27,17.6,3.53,26.53,3.61,2.24-.07,4.48-.04,6.71-.18,2.27-.19,4.48-.27,6.77-.55,2.3-.31,4.59-.51,6.86-.92l3.43-.55c1.13-.19,2.26-.45,3.39-.65,18.13-3.59,35.53-10.63,51.93-20,16.42-9.37,31.87-21.01,46.91-33.53,15.06-12.53,29.73-26.03,45.18-39.28,15.47-13.2,31.75-26.33,50.59-36.93,4.69-2.66,9.58-5.11,14.63-7.31,5-2.24,10.23-4.16,15.59-5.79,10.68-3.28,21.98-5.12,33.29-5.36,5.66-.09,11.32.22,16.88.86,5.57.7,11.08,1.66,16.45,3.04,5.39,1.26,10.63,2.97,15.77,4.8,2.58.92,5.09,1.96,7.62,2.95l4.04,1.8c1.32.61,2.64,1.35,3.98,2.03,3.61,1.95,7.17,4.2,10.54,6.8v.02Z" style="fill: #be543a; stroke-width: 0px;"/>
  <path d="M2693.11,1184.77c-9.35,12.07-19.32,22.76-29.74,32.06-77.79,69.28-201.51,31.03-227.68-69.79-115.06-443.59-451.52-705.23-926.39-848.68-.25-.07-.52-.16-.79-.24-39.93-12.06-82.2-12.67-122.18-2.3l-1.11-1.96-3.43-6.1c-1.13-2.06-2.09-4.17-3.15-6.27-43.15-106.66,43.58-193.78,136.97-191.31,50.31,1.32,101.67,8.66,153.37,21.07l1.01,1.65c1.34,2,2.45,4.14,3.62,6.27,1.11,2.14,2.36,4.23,3.46,6.4l3.18,6.59c1.14,2.17,2.05,4.44,3.01,6.7,4.1,9.01,7.05,18.47,10.33,28.15.8-17.05-1.46-34.45-6.53-51.21,269.76,70.75,546.53,276.47,728.42,485.38.06.06.1.1.15.16,77.84,97.14,141.15,197.21,186.66,291.69,49.76,103.33,80.15,201.88,90.8,291.75h.02Z" style="fill: #f07925; stroke-width: 0px;"/>
  <path d="M2338.55,1570.43c-1.9.03-3.8.04-5.72.04-74.45.27-146.38,21.49-207.19,60.51-.37-.94-.73-1.87-1.11-2.81l-2.58-6.5-2.2-6.68-2.2-6.67-1.81-6.86c-1.17-4.56-2.49-9.07-3.33-13.81-.92-4.68-1.93-9.34-2.79-14.03l-2.08-14.3c-.34-2.41-.77-4.75-1.01-7.17l-.71-7.28-.07-.82c8.51-6.33,17.18-11.46,25.75-16.24,9.12-5.06,18.15-9.68,27.02-14.26,17.74-9.15,34.94-18.16,50.63-28.64,15.68-10.44,29.79-22.33,40.76-36.31,1.89-2.36,3.64-4.8,5.32-7.29.22,3.09.5,6.19.86,9.28.42,4.78,1.35,9.52,2.14,14.28.36,2.38,1.02,4.72,1.56,7.08.59,2.38,1.04,4.75,1.75,7.07,1.47,4.69,2.72,9.4,4.62,13.99.92,2.3,1.69,4.62,2.75,6.89l3.18,6.79c4.59,8.91,9.84,17.68,16.62,25.66.82,1.01,1.62,2.05,2.46,3.04l2.7,2.88,2.73,2.9c.91.95,1.78,1.93,2.79,2.81l5.97,5.39c.96.92,2.08,1.74,3.15,2.55l3.22,2.49,3.25,2.47c1.11.79,2.29,1.51,3.43,2.27,2.32,1.47,4.57,3.04,6.96,4.44l7.34,3.99,1.77.97s.07.03.1.04l1.86.88,2.11.95h0Z" style="fill: #be543a; stroke-width: 0px;"/>
  <path d="M1857.73,1232.5c1.09,6.48,1.24,12.98.46,19.43-.92,6.46-2.91,12.83-5.46,19.07-5.55,12.45-13.94,24.14-24.08,34.68-20.44,21.12-46.65,38.04-74.48,51.96-27.92,13.97-58.02,24.7-88.8,33.37-15.46,4.2-31.12,7.84-46.96,10.98-15.83,3.08-31.88,5.55-47.97,7.59-16.06,2.26-32.19,4.28-48.45,5.6-16.23,1.25-32.55,2.01-48.92,2.18-32.73.11-65.66-1.79-98.04-7.41-32.28-5.59-64.46-14.04-93.23-28.36-14.32-7.17-27.56-15.92-38.56-26.28-5.3-5.31-10.1-10.94-13.96-16.98-3.71-6.09-6.54-12.55-8.43-19.23-1.6-6.72-2.21-13.64-1.82-20.58.55-6.95,2.21-13.87,4.54-20.67,5.13-13.45,13.2-26.3,23.34-37.63,10.12-11.41,21.84-21.73,34.43-31.08,12.6-9.33,26.05-17.82,40.19-25.28,28.14-15.22,58.66-26.7,89.97-35.89,15.71-4.47,31.65-8.34,47.74-11.75,16.11-3.33,32.4-6.08,48.78-8.37,16.49-1.83,32.97-3.6,49.59-4.56,16.64-.91,33.29-1.41,50.01-1.24,33.39.62,67,3.48,99.93,10.46,32.82,6.73,65.37,17.45,93.75,33.98,14.12,8.23,26.93,18.14,37.1,29.31,4.94,5.63,9.3,11.53,12.64,17.68,3.17,6.21,5.42,12.57,6.72,19.04l-.03-.02Z" style="fill: #c17a2a; stroke-width: 0px;"/>
  <path d="M1748.99,1184.28l-.42-3.27-.66-3.21c-.48-2.13-.88-4.32-1.41-6.41-.51-2.08-1.1-4.06-1.71-6.05-1.18-3.97-2.45-7.87-3.83-11.75-1.01-2.66-2.05-5.37-3.15-8.02-.3-3.24-.71-6.46-1.39-9.63-1.9-7.71-4.97-15.04-8.94-21.68-4.08-6.57-8.99-12.35-14.33-17.52-10.91-9.97-23.22-17.3-35.87-22.87-12.69-5.56-25.75-9.49-38.86-12.59-13.09-3.1-26.3-5.24-39.52-6.78-13.24-1.54-26.49-2.21-39.74-2.47-13.22-.26-26.44.09-39.62.84-13.17.87-26.32,2.17-39.38,3.96-13.03,1.87-26.04,4.08-38.9,6.93-51.6,10.67-101.72,28.61-147.93,54.8-22.9,13.33-45.09,28.7-63.54,49.09-9.12,10.2-17.32,21.7-23.11,34.94-2.71,6.71-4.88,13.81-5.99,21.24-.94,7.46-.85,15.17.4,22.74.9,4.59,2.26,9.04,3.96,13.39.51,3.34,1.08,6.64,1.66,9.89l2.12,11.55c.23,1.61.69,3.86,1.13,6,.48,2.13.75,4.31,1.41,6.39l1.82,6.31c.64,2.1,1.52,4.09,2.3,6.15l1.17,3.06c.45,1.02.94,1.99,1.41,2.98.96,1.97,1.9,3.96,2.88,5.9,4.25,7.65,9.11,14.96,14.69,21.64,11.23,13.29,24.74,24.24,39.11,33.34,14.48,8.93,29.9,15.91,45.68,21.48,7.91,2.8,15.92,5.19,23.98,7.28,4.02,1,8.09,1.86,12.16,2.8l12.23,2.34c16.35,2.8,32.86,4.27,49.37,4.79,32.99.9,65.95-2.37,98.07-9.16s63.56-17.26,93.32-31.54c14.87-7.17,29.33-15.3,43.12-24.55,13.82-9.19,26.93-19.58,39.08-31.14,12.13-11.57,23.47-24.26,32.74-38.62,1.14-1.78,2.34-3.57,3.46-5.39l3.21-5.57,1.58-2.78,1.46-2.9,2.87-5.77,2.56-5.96,1.27-2.99,1.12-3.06,2.16-6.15,1.73-6.3c.29-1.05.6-2.11.82-3.16l.67-3.25c.39-2.13.88-4.26,1.19-6.43.52-4.37,1.17-8.71,1.24-13.13.32-4.38.01-8.79-.11-13.19-.17-2.17-.49-4.36-.76-6.54h.02ZM1228.32,1256.95c-2.8-4.61-4.89-9.54-6.29-14.71-1.15-5.21-1.56-10.62-1.2-16.1.5-5.51,1.84-11.04,3.68-16.52,4.06-10.84,10.37-21.36,18.25-30.81,7.86-9.51,16.95-18.24,26.68-26.25,9.75-8,20.14-15.38,31.05-21.97,21.72-13.44,45.23-24.05,69.31-32.89,12.08-4.33,24.34-8.2,36.7-11.73,12.37-3.45,24.89-6.45,37.47-9.11,12.65-2.29,25.3-4.54,38.05-6.14,12.77-1.58,25.54-2.83,38.36-3.57,25.58-1.24,51.31-.72,76.48,3.08,25.1,3.6,49.95,10.36,71.54,21.91,10.74,5.74,20.46,12.9,28.17,21.16,3.73,4.16,7.01,8.59,9.52,13.26,2.37,4.72,4.03,9.61,4.96,14.63.77,5.06.84,10.14.17,15.27-.77,5.14-2.35,10.25-4.37,15.3-4.37,10.08-10.91,19.71-18.78,28.54-15.88,17.69-36.14,32.35-57.59,44.74-21.55,12.44-44.71,22.44-68.39,30.86-11.89,4.09-23.94,7.78-36.1,11.06-12.16,3.24-24.49,6.01-36.86,8.46-12.32,2.6-24.71,5.01-37.19,6.9-12.44,1.82-24.97,3.26-37.52,4.24-25.09,1.76-50.3,1.99-75.06-.77-24.7-2.74-49.29-7.73-71.2-17.52-10.9-4.9-20.98-11.1-29.31-18.68-4-3.92-7.63-8.11-10.52-12.64h-.01ZM1725.78,1202.11c-.32,3.49-1.15,6.9-1.83,10.33-.4,1.7-.95,3.37-1.4,5.08l-.71,2.55c-.29.83-.61,1.66-.9,2.48l-1.8,4.97-2.11,4.91-1.05,2.45-1.19,2.38-2.45,4.77c-3.58,6.2-7.3,12.35-11.78,18.11-4.31,5.82-9.16,11.32-14.07,16.74-2.62,2.62-5.11,5.29-7.8,7.81-2.71,2.5-5.29,5.12-8.18,7.45-22.45,19.36-48.35,35.04-75.71,47.52-27.43,12.42-56.33,21.83-85.98,28.05-14.82,3.08-29.76,5.53-44.81,7.06-15.04,1.59-30.13,2.4-45.2,2.27-30.09-.14-60.15-4.01-88.63-12.33-14.21-4.21-27.93-9.75-40.8-16.62-12.79-6.9-24.68-15.33-34.59-25.48-5.02-5.03-9.43-10.56-13.39-16.38-1.28-2.07-2.47-4.16-3.65-6.29,6.1,4.45,12.49,8.34,19.07,11.71,12.53,6.42,25.53,11.28,38.73,15.11,13.19,3.85,26.54,6.69,39.99,8.64,53.77,7.77,108.03,4.52,160.73-5.49,52.32-11.67,103.51-29.96,150.06-58.14,11.59-7.08,22.87-14.83,33.59-23.51,10.73-8.66,20.91-18.22,30.09-29.05,6.13-7.29,11.69-15.27,16.39-24-.11,2.3-.22,4.6-.61,6.9h0Z" style="fill: #340d3b; stroke-width: 0px;"/>
  <path d="M1726.39,1195.21c-.1,2.3-.22,4.61-.61,6.91-.31,3.48-1.15,6.89-1.82,10.33-.4,1.7-.96,3.39-1.4,5.08l-.71,2.54c-.27.83-.61,1.66-.9,2.49l-1.78,4.98-2.12,4.91-1.04,2.45-1.21,2.39-2.44,4.76c-3.58,6.21-7.31,12.36-11.8,18.11-4.29,5.82-9.16,11.32-14.06,16.74-2.62,2.61-5.11,5.29-7.8,7.81-2.72,2.49-5.3,5.11-8.19,7.45-22.45,19.34-48.35,35.03-75.7,47.52-27.43,12.43-56.35,21.82-85.98,28.05-14.83,3.08-29.77,5.53-44.82,7.06-15.03,1.59-30.13,2.4-45.19,2.26-30.1-.14-60.16-4-88.64-12.33-14.22-4.21-27.93-9.76-40.8-16.61-12.8-6.9-24.68-15.34-34.59-25.48-5.03-5.04-9.44-10.56-13.39-16.39-1.29-2.07-2.48-4.16-3.67-6.3,6.11,4.47,12.5,8.36,19.07,11.71,12.53,6.42,25.55,11.29,38.73,15.12,13.19,3.85,26.54,6.69,39.99,8.65,53.76,7.76,108.03,4.51,160.73-5.5,52.34-11.66,103.51-29.95,150.07-58.13,11.6-7.08,22.87-14.84,33.59-23.51s20.91-18.23,30.08-29.06c6.14-7.28,11.7-15.28,16.39-24h.01Z" style="fill: #a21e21; stroke-width: 0px;"/>
  <path d="M1711.04,1141.2c.77,5.05.83,10.15.17,15.27-.77,5.13-2.36,10.25-4.37,15.29-4.37,10.09-10.92,19.72-18.79,28.54-15.87,17.67-36.12,32.35-57.59,44.74-21.54,12.44-44.71,22.44-68.39,30.85-11.89,4.1-23.93,7.78-36.1,11.07-12.16,3.24-24.49,6.01-36.84,8.45-12.33,2.6-24.71,5.03-37.19,6.91-12.45,1.82-24.97,3.26-37.52,4.24-25.09,1.78-50.31,1.98-75.07-.77-24.69-2.73-49.28-7.73-71.19-17.51-10.91-4.91-20.97-11.11-29.3-18.7-4.01-3.9-7.64-8.09-10.54-12.64-2.78-4.61-4.89-9.54-6.28-14.7-1.16-5.21-1.57-10.62-1.2-16.1.49-5.5,1.83-11.03,3.67-16.5,4.06-10.85,10.37-21.38,18.25-30.82,7.87-9.5,16.95-18.23,26.69-26.24,9.74-8,20.14-15.37,31.04-21.97,21.72-13.43,45.22-24.04,69.31-32.9,12.08-4.33,24.34-8.2,36.7-11.71,12.38-3.45,24.89-6.45,37.47-9.11,12.66-2.29,25.31-4.54,38.05-6.15,12.76-1.57,25.53-2.83,38.34-3.56,25.59-1.24,51.32-.72,76.5,3.08,25.1,3.6,49.94,10.36,71.53,21.91,10.75,5.75,20.47,12.88,28.16,21.15,3.73,4.18,7.02,8.59,9.52,13.26,2.37,4.73,4.04,9.62,4.97,14.64v-.02Z" style="fill: #ee2f24; stroke-width: 0px;"/>
  <path d="M978.45,1260.2c1.09,6.48,1.24,12.98.46,19.43-.92,6.46-2.91,12.83-5.46,19.07-5.55,12.45-13.94,24.14-24.08,34.68-20.44,21.12-46.65,38.04-74.48,51.96-27.92,13.97-58.02,24.7-88.8,33.37-15.46,4.2-31.12,7.84-46.96,10.98-15.83,3.08-31.88,5.55-47.97,7.59-16.06,2.25-32.19,4.28-48.45,5.6-16.23,1.25-32.55,2.01-48.92,2.18-32.73.11-65.66-1.79-98.04-7.41-32.28-5.59-64.46-14.04-93.23-28.36-14.32-7.17-27.56-15.92-38.56-26.28-5.3-5.31-10.1-10.94-13.96-16.98-3.71-6.1-6.54-12.55-8.43-19.23-1.6-6.72-2.21-13.64-1.82-20.58.55-6.95,2.21-13.87,4.54-20.67,5.13-13.45,13.2-26.3,23.34-37.63,10.12-11.41,21.84-21.73,34.43-31.08,12.6-9.33,26.05-17.82,40.19-25.28,28.14-15.22,58.66-26.7,89.97-35.89,15.71-4.47,31.65-8.34,47.74-11.75,16.11-3.33,32.4-6.08,48.78-8.37,16.49-1.83,32.97-3.6,49.59-4.56,16.64-.91,33.29-1.41,50.01-1.24,33.39.62,67,3.48,99.93,10.46,32.82,6.73,65.37,17.45,93.75,33.98,14.12,8.23,26.93,18.14,37.1,29.31,4.94,5.63,9.3,11.53,12.64,17.68,3.17,6.21,5.42,12.57,6.72,19.04l-.03-.02Z" style="fill: #c17a2a; stroke-width: 0px;"/>
  <path d="M861.57,1204.63l-.28-3.28-.55-3.24c-.39-2.15-.71-4.37-1.14-6.44-.43-2.12-.94-4.11-1.47-6.13-1.01-4.01-2.12-7.97-3.37-11.89-.89-2.72-1.83-5.45-2.82-8.14-.15-3.24-.45-6.47-1.01-9.67-1.59-7.78-4.37-15.23-8.05-22.02-3.83-6.74-8.51-12.73-13.63-18.1-10.5-10.38-22.53-18.19-34.92-24.25-12.47-6.06-25.36-10.51-38.32-14.14-12.98-3.61-26.07-6.3-39.23-8.36-13.17-2.06-26.37-3.27-39.59-4.05-13.2-.8-26.45-.95-39.63-.74-13.22.33-26.39,1.11-39.51,2.38-3.8.39-7.62.82-11.42,1.28-9.28,1.11-18.55,2.45-27.72,4.1-.97.16-1.93.33-2.9.49-4.5.77-8.97,1.59-13.44,2.47-15.99,3.15-31.82,6.99-47.47,11.58h.01c-29.65,8.72-58.53,20.09-86.2,34.32-23.42,12.4-46.19,26.89-65.44,46.54-9.52,9.83-18.17,20.98-24.5,34-2.98,6.58-5.42,13.57-6.83,20.97-1.23,7.41-1.46,15.12-.5,22.73.71,4.63,1.92,9.13,3.44,13.56.36,3.34.79,6.65,1.25,9.93l1.68,11.61c.15,1.62.53,3.91.88,6.04.39,2.15.58,4.34,1.17,6.44l1.4,5.75.15.62c.55,2.15,1.37,4.17,2.05,6.25l1.04,3.12c.42,1.02.88,1.99,1.29,3.01.13.31.28.62.42.94.74,1.71,1.47,3.43,2.24,5.09,2.55,5.09,5.39,10.05,8.52,14.79,1.6,2.45,3.3,4.83,5.06,7.16.06.09.13.19.21.28,10.71,13.69,23.77,25.17,37.76,34.84,14.11,9.52,29.25,17.11,44.78,23.31,7.8,3.1,15.71,5.79,23.67,8.21,3.99,1.17,8.02,2.2,12.04,3.28l12.13,2.82c16.24,3.47,32.67,5.58,49.13,6.77,32.95,2.2,65.99.25,98.36-5.24,32.36-5.51,64.19-14.73,94.5-27.81,15.13-6.58,29.92-14.11,44.06-22.81,14.2-8.64,27.72-18.49,40.33-29.56,12.55-11.08,24.38-23.3,34.23-37.27,1.22-1.75,2.48-3.47,3.67-5.24l3.43-5.45,1.68-2.73,1.6-2.82,3.1-5.66,2.79-5.85,1.38-2.93,1.23-3.03,2.41-6.04,1.99-6.25c.33-1.02.68-2.06.95-3.12l.8-3.21c.47-2.14,1.05-4.22,1.44-6.39.71-4.34,1.5-8.66,1.75-13.07.5-4.37.37-8.79.42-13.19-.07-2.18-.3-4.38-.49-6.56h0ZM332.16,1225.4c.7-5.48,2.27-10.97,4.32-16.35,4.51-10.69,11.21-20.95,19.47-30.07,8.24-9.19,17.67-17.54,27.71-25.15,10.05-7.62,20.74-14.57,31.9-20.71,17.79-10.05,36.65-18.23,55.97-25.15,2.79-1.01,5.6-1.99,8.42-2.93,2.05-.7,4.11-1.38,6.18-2.05,7.83-2.45,15.72-4.72,23.65-6.83h.03c4.48-1.17,8.97-2.32,13.47-3.4,3.71-.88,7.41-1.72,11.12-2.51,8.85-1.92,17.74-3.59,26.67-5.11,12.76-1.78,25.47-3.52,38.27-4.63,12.83-1.05,25.63-1.8,38.46-2.02,25.63-.21,51.33,1.34,76.32,6.12,24.93,4.6,49.49,12.35,70.59,24.75,10.51,6.16,19.96,13.68,27.31,22.26,3.56,4.32,6.68,8.86,8.98,13.63,2.18,4.81,3.64,9.76,4.38,14.82.56,5.06.43,10.17-.45,15.25-.97,5.11-2.75,10.16-4.96,15.12-4.78,9.9-11.72,19.29-19.91,27.77-16.57,17.03-37.39,30.89-59.34,42.42-22.02,11.57-45.57,20.62-69.57,28.08-12.04,3.65-24.22,6.83-36.51,9.64-12.29,2.75-24.69,5.02-37.14,6.96-12.43,2.11-24.9,4.04-37.45,5.42-12.5,1.34-25.08,2.27-37.66,2.75-25.12.77-50.35-.03-74.99-3.77-23.74-3.59-47.29-9.27-68.26-19.29-.73-.33-1.46-.68-2.17-1.04-8.32-4.13-16.08-9.04-22.9-14.74-1.96-1.63-3.85-3.34-5.64-5.11-3.85-4.04-7.31-8.37-10.02-13.05-2.6-4.71-4.51-9.71-5.69-14.94-.95-5.24-1.14-10.68-.56-16.13h0ZM837.66,1221.51c-.45,3.46-1.43,6.85-2.23,10.25-.48,1.69-1.1,3.34-1.6,5.02l-.82,2.51c-.31.83-.68,1.65-1.01,2.45l-1.96,4.93-2.3,4.8-1.16,2.42-1.31,2.33-2.61,4.66c-3.82,6.07-7.81,12.06-12.5,17.63-4.53,5.66-9.61,10.94-14.72,16.17-2.73,2.51-5.32,5.08-8.12,7.48-2.81,2.39-5.49,4.91-8.48,7.13-23.21,18.44-49.7,33.08-77.54,44.47-27.89,11.31-57.17,19.56-87.01,24.6-14.94,2.48-29.98,4.32-45.07,5.26-15.09,1.01-30.2,1.2-45.24.46-30.07-1.34-59.96-6.4-88.08-15.84-14.03-4.78-27.51-10.87-40.11-18.25-12.5-7.39-24.06-16.3-33.54-26.82-1.01-1.1-1.97-2.21-2.93-3.34-3.62-4.29-6.85-8.85-9.8-13.59-1.2-2.11-2.32-4.26-3.42-6.44,5.94,4.72,12.16,8.86,18.59,12.47.07.04.13.07.21.12,12.21,6.86,24.95,12.19,37.89,16.53,13.04,4.38,26.25,7.74,39.6,10.25,53.43,9.89,107.77,8.81,160.83.89,52.76-9.56,104.61-25.81,152.26-52.1,11.88-6.61,23.45-13.9,34.51-22.14,11.08-8.26,21.62-17.39,31.21-27.84,6.43-7.04,12.31-14.8,17.33-23.33-.18,2.29-.4,4.59-.88,6.88v-.02Z" style="fill: #340d3b; stroke-width: 0px;"/>
  <path d="M838.55,1214.63c-.19,2.29-.4,4.59-.89,6.88-.45,3.46-1.43,6.84-2.23,10.24-.47,1.69-1.09,3.35-1.61,5.02l-.81,2.51c-.3.82-.67,1.63-1,2.45l-1.97,4.9-2.31,4.82-1.14,2.4-1.3,2.34-2.63,4.66c-3.83,6.06-7.8,12.06-12.51,17.63-4.52,5.65-9.6,10.94-14.72,16.17-2.72,2.5-5.32,5.08-8.11,7.5-2.82,2.38-5.5,4.89-8.48,7.12-23.2,18.44-49.7,33.07-77.53,44.46-27.9,11.32-57.18,19.55-87.03,24.6-14.94,2.48-29.97,4.34-45.06,5.27-15.08.99-30.2,1.19-45.25.46-30.08-1.34-59.96-6.4-88.08-15.86-14.04-4.78-27.52-10.86-40.11-18.23-12.51-7.41-24.05-16.31-33.55-26.84-4.83-5.24-9.01-10.93-12.73-16.91-1.21-2.11-2.31-4.25-3.41-6.44,5.93,4.71,12.15,8.85,18.59,12.46,12.26,6.92,25.08,12.3,38.1,16.65,13.03,4.37,26.25,7.74,39.61,10.23,53.41,9.9,107.77,8.81,160.82.91,52.76-9.57,104.62-25.8,152.27-52.11,11.87-6.61,23.44-13.92,34.5-22.15s21.62-17.38,31.22-27.84c6.42-7.03,12.3-14.8,17.34-23.33v.03Z" style="fill: #a21e21; stroke-width: 0px;"/>
  <path d="M825.37,1160.06c.57,5.07.42,10.17-.44,15.27-.97,5.1-2.76,10.14-4.98,15.11-4.77,9.91-11.69,19.27-19.91,27.77-16.56,17.03-37.38,30.88-59.32,42.41-22.01,11.57-45.57,20.64-69.56,28.1-12.04,3.63-24.22,6.82-36.51,9.62-12.28,2.75-24.71,5.03-37.15,6.98-12.42,2.11-24.89,4.04-37.44,5.42-12.51,1.33-25.08,2.27-37.66,2.74-25.14.77-50.35-.02-74.98-3.76-24.56-3.71-48.93-9.68-70.44-20.33-10.7-5.34-20.51-11.93-28.53-19.85-3.86-4.06-7.31-8.39-10.03-13.05-2.6-4.71-4.51-9.73-5.69-14.94-.95-5.25-1.14-10.67-.56-16.14.71-5.48,2.26-10.95,4.33-16.34,4.49-10.68,11.21-20.95,19.46-30.07,8.24-9.18,17.66-17.54,27.71-25.16,10.05-7.6,20.74-14.55,31.89-20.71,22.23-12.55,46.14-22.22,70.56-30.11,12.24-3.85,24.65-7.22,37.14-10.24,12.51-2.96,25.13-5.46,37.8-7.61,12.74-1.79,25.47-3.53,38.27-4.63,12.81-1.06,25.62-1.81,38.45-2.03,25.62-.22,51.31,1.33,76.31,6.12,24.93,4.6,49.49,12.34,70.6,24.74,10.51,6.17,19.94,13.69,27.29,22.26,3.56,4.32,6.67,8.87,8.98,13.63,2.18,4.82,3.65,9.77,4.38,14.82l.03-.02Z" style="fill: #ee2f24; stroke-width: 0px;"/>
  <path d="M1630.52,608.17c1.09,6.48,1.24,12.98.46,19.43-.92,6.46-2.91,12.83-5.46,19.07-5.55,12.45-13.94,24.14-24.08,34.68-20.44,21.12-46.65,38.04-74.48,51.96-27.92,13.97-58.02,24.7-88.8,33.37-15.46,4.2-31.12,7.84-46.96,10.98-15.83,3.08-31.88,5.55-47.97,7.59-16.06,2.25-32.19,4.28-48.45,5.6-16.23,1.25-32.55,2.01-48.92,2.18-32.73.11-65.66-1.79-98.04-7.41-32.28-5.59-64.46-14.04-93.23-28.36-14.32-7.17-27.56-15.92-38.56-26.28-5.3-5.31-10.1-10.94-13.96-16.98-3.71-6.1-6.54-12.55-8.43-19.23-1.6-6.72-2.21-13.64-1.82-20.58.55-6.95,2.21-13.87,4.54-20.67,5.13-13.45,13.2-26.3,23.34-37.63,10.12-11.41,21.84-21.73,34.43-31.08,12.6-9.33,26.05-17.82,40.19-25.28,28.14-15.22,58.66-26.7,89.97-35.89,15.71-4.47,31.65-8.34,47.74-11.75,16.11-3.33,32.4-6.08,48.78-8.37,16.49-1.83,32.97-3.61,49.59-4.56,16.64-.91,33.29-1.41,50.01-1.24,33.39.62,67,3.48,99.93,10.46,32.82,6.73,65.37,17.45,93.75,33.98,14.12,8.23,26.93,18.14,37.1,29.31,4.94,5.63,9.3,11.53,12.64,17.68,3.17,6.21,5.42,12.57,6.72,19.04l-.03-.02Z" style="fill: #c17a2a; stroke-width: 0px;"/>
  <path d="M479.06,1103.48c-.68.4-1.37.79-2.05,1.2-1.84,1.08-3.67,2.17-5.49,3.28,2.79-1.01,5.6-1.99,8.42-2.93l-.88-1.56h0ZM2626.39,881.44c-91.56-190.09-239.48-378.69-416.52-531.05-180.7-155.51-377.68-262.36-572.04-310.64-3.5-3.1-7.17-6.04-11.02-8.78l-3.27-2.41-3.4-2.18c-2.29-1.46-4.51-2.97-6.86-4.34-4.77-2.58-9.44-5.32-14.46-7.42-4.89-2.38-10.05-4.11-15.13-6.04-2.58-.85-5.21-1.57-7.81-2.35-1.31-.39-2.61-.82-3.93-1.14l-3.98-.89c-10.59-2.61-21.52-3.79-32.41-4.14l-8.18-.06c-2.72.06-5.43.3-8.17.46l-4.08.27c-1.35.16-2.7.37-4.05.55l-8.09,1.11-11.98,2.54-3.92,1.13-7.83,2.27-7.63,2.79-3.82,1.4c-1.26.48-2.48,1.07-3.71,1.62l-7.38,3.33c-1.26.5-2.44,1.17-3.62,1.8l-3.56,1.9c-2.35,1.31-4.78,2.48-7.07,3.89-9.16,5.52-18.12,11.6-26.25,18.25-16.41,13.07-31.61,28.03-44.55,45.04-12.89,16.99-23.68,35.96-30.59,56.53l-2.54,7.72c-.8,2.58-1.38,5.24-2.08,7.85-1.48,5.23-2.3,10.62-3.28,15.95l-.37,1.99-.22,2.03-.46,4.04-.43,4.05c-.16,1.34-.33,2.69-.34,4.05-.21,5.42-.62,10.84-.36,16.26.1,2.7.07,5.43.27,8.12l.73,8.09c.13,1.35.21,2.7.4,4.04l.62,3.99,1.26,8,1.74,7.91.88,3.95,1.1,3.88,2.21,7.77c.82,2.55,1.75,5.08,2.64,7.62,1.65,5.11,3.86,9.98,5.91,14.95.06.16.12.34.19.52-57.6,27.8-108.93,68.63-148.92,118.52l-28.21,35.21c-1.93,2.42-3.93,4.8-5.98,7.13-31.97,9.22-63.09,21.58-92.69,37.33-22.6,12.4-44.62,26.83-63.08,46.18-8.98,9.5-17.09,20.31-23.06,32.77-44.64,34.61-82.2,78.24-109.48,127.95l-2.98,5.45c-9.5,17.33-20.95,33.65-33.99,48.51-20.85,23.74-47.49,42.5-79.14,55.68-74.97,31.26-127,80.12-159,149.29,0,0-39.35,91.41-46.4,120.72-1.53,6.41-1.53,9.84.77,8.72l17.94-7.62,9,1.96,2.91-7.65,39.29-103.26c1.56-3.45,3.19-6.82,4.87-10.16,1.89-3.76,3.85-7.47,5.89-11.09,29.48-52.59,73.86-90.76,135.02-116.24,35.44-14.79,65.36-35.89,88.94-62.72,14.33-16.32,26.89-34.26,37.33-53.29l3-5.45c20.55-37.46,47.34-71.21,78.8-99.86.09.85.19,1.68.31,2.51.77,4.59,2,9.07,3.59,13.39.42,3.18.86,6.31,1.31,9.38l1.78,11.3c.18,1.54.58,3.77.92,5.87.42,2.06.62,4.22,1.22,6.25l1.62,6.21c.56,2.06,1.38,4.04,2.06,6.07l1.08,3c.39,1.01.86,1.96,1.29,2.94.89,1.95,1.72,3.92,2.66,5.85,3.92,7.57,8.49,14.83,13.75,21.49,10.63,13.25,23.51,24.25,37.27,33.48,13.87,9.09,28.72,16.26,43.95,22.1,7.62,2.93,15.35,5.43,23.15,7.69,3.92,1.07,7.86,2.02,11.79,3.03l11.85,2.58c15.84,3.18,31.9,5,47.93,5.94,32.1,1.69,64.24-.7,95.7-6.47,31.45-5.84,62.29-15.22,91.62-28.42,14.67-6.59,28.96-14.15,42.6-22.84,13.71-8.6,26.71-18.43,38.83-29.39,12.1-10.94,23.42-23.03,32.82-36.81,4.84-6.76,8.94-14.09,12.81-21.53l2.66-5.76,1.31-2.87,1.14-2.97,2.26-5.94,1.86-6.1c.3-1.04.62-2.03.89-3.07l.71-3.13c.43-2.08.97-4.14,1.32-6.25.61-4.26,1.35-8.46,1.51-12.77.43-4.26.24-8.57.21-12.86-.1-2.14-.36-4.29-.56-6.41l-.36-3.19-.58-3.15c-.39-2.09-.74-4.23-1.19-6.28-.48-2.03-.99-3.99-1.51-5.92-1.07-3.91-2.23-7.72-3.49-11.55-.86-2.51-1.78-5.02-2.73-7.54-.19-3.24-.53-6.49-1.14-9.7-1.66-7.59-4.5-14.82-8.21-21.41-3.83-6.53-8.49-12.29-13.54-17.46-10.41-9.99-22.24-17.42-34.45-23.15-12.22-5.72-24.84-9.84-37.51-13.2-12.7-3.31-25.48-5.72-38.31-7.54-12.83-1.81-25.72-2.81-38.59-3.39-12.86-.58-25.73-.56-38.56-.15-12.86.49-25.66,1.44-38.41,2.85-12.74,1.51-25.42,3.33-38.01,5.79-3.24.58-6.44,1.19-9.67,1.83l12.15-15.16c37.66-46.98,86.02-85.41,140.29-111.48l.36.65,2.14,3.37,4.23,6.76c1.43,2.24,3.03,4.37,4.54,6.56,12.24,17.34,26.42,33.2,42.19,47.17,7.9,6.96,16.05,13.65,24.57,19.78l6.4,4.57c2.15,1.56,4.25,2.85,6.37,4.31,4.25,2.81,8.45,5.69,12.71,8.42,17.03,11.11,34.39,21.55,51.84,31.78,17.48,10.2,35.16,19.94,52.89,29.53,17.79,9.47,35.62,18.86,53.63,27.89,35.93,18.18,72.24,35.49,108.74,52.31,9.12,4.23,18.26,8.37,27.4,12.52l6.88,3.1,6.68,3.13,13.33,6.22c17.6,8.66,35.04,17.61,51.96,27.57,68.01,39.16,129.75,88.93,183.07,146.42l9.83,10.94,4.92,5.46c1.62,1.84,3.16,3.74,4.75,5.6l9.5,11.23c3.15,3.79,6.27,7.69,9.41,11.54,6.31,7.68,12.44,15.49,18.64,23.25,6.12,7.81,12.29,15.59,18.29,23.49,12.12,15.71,23.8,31.7,35.37,47.78,11.4,16.17,22.59,32.49,33.31,49.08,10.65,16.62,21.04,33.38,30.75,50.49,9.68,17.14,18.98,34.43,27.49,52.09,8.46,17.67,16.27,35.59,23.25,53.78,6.95,18.2,12.89,36.72,17.83,55.43,4.89,18.72,8.85,37.64,11.21,56.74,2.41,19.07,3.45,38.25,2.94,57.36l-.19,7.17c-.03,2.38-.31,4.75-.45,7.13l-.53,7.16c-.1,1.17-.15,2.38-.28,3.56l-.42,3.55-.86,7.11c-.31,2.36-.52,4.77-.97,7.04-.8,4.6-1.54,9.3-2.36,13.81l-.77,3.04-.39,1.53-.48,1.59-.94,3.16-1.07,3.12c-.67,2.11-1.56,4.11-2.33,6.18-.88,2-1.71,4.04-2.69,6-1.87,3.96-4.04,7.78-6.33,11.54-2.39,3.68-4.86,7.35-7.62,10.81-10.97,13.97-25.08,25.88-40.76,36.31-15.7,10.48-32.89,19.51-50.63,28.64-8.88,4.59-17.92,9.19-27.02,14.25-9.09,5.06-18.28,10.56-27.28,17.4-4.5,3.43-8.94,7.22-13.14,11.61-4.2,4.4-8.17,9.43-11.43,15.22-3.3,5.73-5.79,12.28-7.01,18.99-.62,3.36-1.01,6.74-1.05,10.07-.04,1.66-.07,3.33.04,4.92l.15,2.42c.01.43.04.71.07,1.04l.1.95,1.56,15.32.79,7.66c.27,2.55.74,5.14,1.08,7.69l2.33,15.4c.95,5.14,2.06,10.26,3.12,15.4.92,5.14,2.42,10.23,3.76,15.35l2.06,7.66,2.54,7.57,2.52,7.57,2.97,7.44c1.02,2.46,1.93,4.99,3.04,7.39l1.1,2.36,2.24,4.87,1.68,3.61,1.78,3.47,3.56,6.96,2.94,5.46,4.2,7.84,3.44,6.46,3.15,6.33,1.57,3.16,1.34,3.15,2.75,6.28c3.12,8.49,5.88,17.06,7.53,26.09.82,4.53,1.84,8.97,2.21,13.68l.79,6.98.4,3.47.15,3.15c.18,4.19.07,8.35-.45,12.44-.49,4.08-1.29,8.12-2.49,12.04-2.3,7.87-6.07,15.29-10.93,22.08-9.76,13.57-24.17,24.26-40.3,31.18-16.16,6.93-34.14,10.17-51.61,9.16-17.46-1-34.42-6.4-48.18-16.2-13.81-9.74-24.26-23.82-30.51-40.23-.39-1.02-.8-2.03-1.16-3.09l-1.04-3.15c-.74-2.06-1.25-4.26-1.87-6.38-.58-2.17-1.02-4.41-1.53-6.59-.45-2.21-.89-4.42-1.22-6.62-1.37-8.85-1.8-18.06-1.62-27.38.01-.65.03-1.32.06-1.97.27-9.46,1.17-19.01,2.45-28.64,1.16-8.82,2.64-17.69,4.28-26.58,3.55-19.38,7.9-38.92,11.42-59.11,1.74-10.13,3.28-20.4,4.17-31.02.88-10.6,1.16-21.53-.24-32.9-.71-5.69-1.84-11.46-3.67-17.22-1.81-5.73-4.31-11.48-7.65-16.82-3.33-5.35-7.45-10.29-12.1-14.49-4.65-4.22-9.79-7.72-15.06-10.57-1.34-.67-2.66-1.41-3.98-2.02l-4.04-1.81c-2.52-.98-5.03-2.02-7.62-2.95-5.14-1.81-10.38-3.52-15.77-4.8-5.38-1.38-10.88-2.33-16.45-3.04-5.57-.64-11.23-.95-16.88-.85-11.31.22-22.61,2.06-33.29,5.35-5.36,1.65-10.59,3.56-15.59,5.81-5.05,2.2-9.93,4.65-14.63,7.29-18.84,10.6-35.12,23.74-50.59,36.93-15.46,13.24-30.13,26.74-45.18,39.28-15.04,12.53-30.48,24.17-46.91,33.53-16.39,9.37-33.8,16.41-51.93,20.02-1.13.21-2.26.46-3.39.65l-3.43.55c-2.27.42-4.56.61-6.86.91-2.29.28-4.5.37-6.77.56-2.23.13-4.47.09-6.71.16-8.94-.07-17.79-1.32-26.53-3.61-8.73-2.24-17.31-5.67-25.96-9.59-6.86-3.12-13.75-6.61-20.76-10.2-1.78-.92-3.56-1.83-5.36-2.76-9.62-4.96-19.51-9.96-29.71-14.51-8.52-3.82-17.27-7.31-26.24-10.19-19.63-6.39-40.24-10.01-60.6-9.5,9.55,3.59,18.84,7.2,27.9,11.21,9.07,3.98,17.85,8.36,26.45,12.98.89.49,1.78.97,2.67,1.48-13.96,2.39-28.32,4.51-43.17,8.17-8.29,2.08-16.75,4.68-25.14,8.63-8.35,3.92-16.62,9.25-23.59,16.27l-2.49,2.75-1.23,1.4-.61.68-.49.65-3.98,5.17-1.97,2.6c-.65.86-1.32,1.72-1.89,2.66l-3.59,5.49c-4.78,7.35-8.72,15.31-12.18,23.45-6.74,16.41-9.96,34.18-10.42,51.59l-.12,3.27c-.03,1.1.03,2.15.04,3.25l.18,6.49c.01,2.17.3,4.29.45,6.44l.56,6.4c.58,4.23,1.13,8.46,1.83,12.64l1.17,6.22c.4,2.09.77,4.17,1.29,6.21,1.02,4.59,2.14,9.13,3.36,13.62.94,3.56,1.95,7.07,3.01,10.56,1.23,3.99,2.27,7.77,3.95,12.24.83,2.24,1.71,4.42,2.63,6.56h.01c.83,1.92,1.69,3.79,2.58,5.64,3.74,7.78,7.78,14.94,11.58,21.87,3.8,6.92,7.37,13.63,10.32,20.3,2.97,6.68,5.29,13.33,6.76,20.02.3,1.68.67,3.34.94,5.02l.59,5.02c.25,3.39.4,6.8.18,10.14-.61,13.41-5.14,26.19-13.16,36.65-7.97,10.41-19.3,18.52-31.88,22.81-12.52,4.34-26.28,4.83-38.01.77-11.78-3.99-21.25-12.55-27.04-24.14-2.94-5.76-5-12.22-6.34-19.01-.34-1.69-.59-3.43-.86-5.15-.19-1.77-.49-3.47-.58-5.29l-.42-5.38-.1-5.33c.01-7.14.7-14.24,1.87-21.74,1.16-7.45,2.73-15.38,4.02-23.61.65-4.1,1.17-8.27,1.69-12.47.4-4.22.88-8.42,1.07-12.67,0-.09.01-.18,0-.27.58-8.38.5-16.72.33-25.02-.07-2.02-.18-4.05-.27-6.09-.8-14.67-2.64-29.7-6.71-44.5-2.3-8.45-5.35-16.84-9.47-24.98-.98-2.05-2.15-4.04-3.27-6.04-1.25-1.96-2.39-3.95-3.77-5.87-2.61-3.86-5.61-7.56-8.94-11.02-6.56-6.96-14.7-12.8-23.59-16.88-8.94-4.04-18.58-6.25-28-6.8-4.72-.34-9.37-.18-14.08.19-4.71.43-9.43,1.26-14.09,2.48-4.65,1.31-9.22,2.93-13.59,5.03-4.34,2.11-8.51,4.54-12.35,7.32-7.72,5.55-14.28,12.18-19.88,19.14-5.6,6.98-10.33,14.3-14.54,21.71-8.43,14.79-14.92,29.89-21.29,44.61-2.54,5.88-5.05,11.7-7.59,17.43l-12.47,25.76c-7.02,12.9-15.23,24.71-25.3,32.37-2.57,1.93-5.23,3.59-7.99,5-2.81,1.35-5.69,2.42-8.67,3.24-3,.79-6.13,1.23-9.33,1.5l-2.42.09c-.42,0-.82.04-1.23.04l-1.28-.06-5.2-.18c-6.83-.61-13.56-1.87-20.08-4.08-6.49-2.32-12.81-5.38-19.02-9.06-12.38-7.5-24.11-17.49-36.31-27.71-6.12-5.06-12.31-10.33-18.75-15.37-3.74-2.91-7.54-5.79-11.43-8.63-2.82-2.03-5.7-4.04-8.66-5.98-6.09-4.08-12.43-7.86-18.98-11.28h-.01c-8.39-4.4-17.09-8.18-26.03-11.24-15.95-5.42-32.62-8.12-49.06-8.72-16.47-.53-32.77,1.1-48.53,4.5,16.11,1.1,31.93,2.84,47.2,6.19,3.85.73,7.6,1.77,11.34,2.76,3.77.86,7.41,2.23,11.08,3.39.91.31,1.83.58,2.73.91l2.69,1.02,5.36,2.05c1.78.67,3.5,1.53,5.24,2.27,1.75.79,3.5,1.5,5.21,2.33,2.54,1.23,5.05,2.52,7.53,3.88-118.11,40.11-249.04,34.87-376.34,29.77-46.95-1.87-94.97-3.79-141.88-3.3l.36-.99,2.33-6.49,2.64-6.4c.88-2.14,1.71-4.32,2.75-6.4l2.9-6.37c1.93-4.26,4.17-8.4,6.21-12.7l6.71-12.61c2.38-4.14,4.71-8.35,6.99-12.65-14.91,12.41-27.89,27.2-38.64,43.82-1.32,2.09-2.67,4.17-3.96,6.31l-3.59,6.53-1.78,3.28-1.59,3.4-.74,1.6-2.42,5.23c-2.88,7.08-5.49,14.34-7.5,21.81-.64,2.33-1.2,4.68-1.71,7.04-.64,2.47-.99,4.99-1.44,7.5l-.64,3.76-.46,3.79c-.27,2.52-.65,5.05-.82,7.59l-.39,7.6c-.27,10.17.31,20.3,1.51,30.26,2.45,19.94,7.29,39.14,12.56,57.7,5.23,18.59,10.91,36.65,14.95,54.57.52,2.24,1.02,4.48,1.46,6.71.43,2.24.92,4.48,1.26,6.7.36,2.21.79,4.5,1.07,6.65.25,2.14.61,4.28.71,6.4.45,4.26.42,8.49.33,12.7-.24,4.17-.61,8.33-1.38,12.34-.8,4.02-1.8,8-3.19,11.79-1.38,3.77-3.06,7.41-5.03,10.85-3.95,6.9-9.18,12.93-15.29,17.83-12.21,9.77-28.41,14.45-43.24,12.19-7.39-1.08-14.37-3.86-20.3-8.12-5.98-4.22-10.85-10.04-14.55-16.75-7.41-13.56-9.82-30.71-9-47.99.39-8.76,1.63-17.21,3.21-26.8l4.63-28.18c3.09-18.92,6.16-38.01,7.96-57.78.88-9.87,1.41-19.93,1.1-30.38-.16-5.21-.58-10.56-1.43-16.05-.85-5.48-2.14-11.15-4.44-17.02-.64-1.47-1.19-2.91-1.96-4.4l-1.16-2.21c-.37-.73-.79-1.47-1.29-2.18-1.87-3.04-3.92-5.46-6.15-7.97-4.54-5-10.77-9.27-17.36-11.73-6.59-2.51-13.25-3.31-19.21-3.37-6.01-.04-11.52.58-16.73,1.34-5.21.8-10.07,1.8-14.77,2.75-4.72.95-9.27,1.9-13.68,2.66-4.42.79-8.75,1.44-12.89,1.78-2.09.24-4.1.27-6.13.37-1.99-.01-3.99.04-5.91-.12-1.95-.04-3.79-.37-5.67-.55-1.8-.4-3.67-.62-5.39-1.17-1.78-.4-3.44-1.07-5.17-1.65-.85-.3-1.63-.73-2.46-1.07-.83-.36-1.66-.71-2.45-1.19l-2.39-1.29c-.79-.46-1.54-1.04-2.32-1.53-1.54-.95-3.07-2.14-4.54-3.33-2.94-2.39-5.63-5.05-7.94-7.91-4.68-5.73-8.02-12.31-9.9-19.41-.95-3.55-1.47-7.26-1.66-11.05-.19-3.76-.1-7.63.42-11.54.5-3.91,1.25-7.84,2.39-11.78,1.02-3.93,2.46-7.87,4.01-11.78,3.21-7.78,7.32-15.43,12.03-22.84,1.13-1.87,2.38-3.7,3.62-5.51,1.23-1.84,2.54-3.64,3.88-5.42l1.96-2.7,2.06-2.64,4.41-5.61c6.36-8.12,12.1-16.72,17.18-25.7,10.2-17.92,17.7-37.36,22.27-57.45l6.13-28.12,3.01-13.97,3.22-13.3c4.63-17.66,10.57-34.94,17.77-51.73,7.31-16.72,16.02-32.82,25.82-48.21l3.74-5.72c1.26-1.92,2.45-3.85,3.83-5.67l8.03-11.08c5.69-7.14,11.3-14.34,17.49-21.06l4.54-5.12,4.78-4.89,4.78-4.89,2.39-2.45,2.51-2.32,10.05-9.3,10.47-8.81c14.24-11.46,29.22-21.74,45.27-31.09l5.92-3.59,6.41-3.85c4.42-2.52,8.6-5.42,12.84-8.21,2.11-1.41,4.13-2.94,6.19-4.42,2.06-1.47,4.11-2.97,6.09-4.57l5.95-4.75,5.76-4.99,2.87-2.51,2.76-2.63,5.51-5.26c.85-.89,1.71-1.77,2.55-2.66,2.69-2.76,5.36-5.51,7.85-8.46,3.24-3.56,6.31-7.26,9.25-11.05-3.62-4.29-6.85-8.85-9.8-13.59-1.2-2.11-2.32-4.26-3.42-6.44,5.94,4.72,12.16,8.86,18.59,12.47.07.04.13.07.21.12,1.34-1.81,2.63-3.65,3.92-5.51l4.2-6.36c1.41-2.11,2.64-4.34,3.98-6.49.74-1.19,1.46-2.41,2.14-3.62-.73-.33-1.46-.68-2.17-1.04-8.32-4.13-16.08-9.04-22.9-14.74-.79,1.38-1.6,2.76-2.48,4.1-1.2,1.89-2.27,3.83-3.55,5.67l-3.76,5.54c-5.2,7.26-10.62,14.36-16.66,20.94-.42.48-.83.95-1.25,1.43-2.55,2.85-5.3,5.52-7.96,8.3l-4.86,4.59-2.45,2.3-2.54,2.17-5.09,4.35-5.26,4.14c-1.74,1.4-3.56,2.69-5.38,3.98-1.83,1.29-3.61,2.63-5.46,3.86-3.76,2.42-7.44,4.96-11.33,7.13l-12.22,7.26c-16.99,9.76-33.66,20.98-49.22,33.37-15.65,12.34-29.98,26.28-43.34,41.04-6.74,7.32-12.9,15.15-19.11,22.96l-8.79,12.06c-1.51,1.99-2.82,4.11-4.2,6.18l-4.1,6.25c-10.72,16.78-20.27,34.32-28.27,52.55-7.91,18.28-14.43,37.15-19.51,56.41l-3.53,14.49-3.04,14-6.04,27.83c-3.86,17.14-10.2,33.69-18.83,48.97-4.31,7.65-9.16,14.97-14.55,21.89l-4.41,5.67-2.33,2.98-2.26,3.09c-1.5,2.05-3,4.13-4.41,6.27-1.44,2.11-2.88,4.23-4.23,6.43-5.49,8.72-10.44,17.95-14.49,27.81-1.96,4.97-3.79,10.02-5.18,15.32-1.47,5.24-2.52,10.69-3.21,16.26-.73,5.54-.89,11.27-.56,17,.31,5.75,1.16,11.55,2.69,17.21,2.98,11.34,8.52,22.14,15.96,31.17,3.71,4.53,7.87,8.58,12.32,12.24,2.24,1.8,4.51,3.52,6.99,5.09,1.23.8,2.44,1.65,3.7,2.38l3.89,2.12c1.28.73,2.63,1.32,4.01,1.92,1.35.59,2.69,1.25,4.08,1.75,2.81.99,5.6,2,8.48,2.67,2.84.82,5.73,1.23,8.61,1.77,2.85.33,5.75.73,8.57.8,2.84.19,5.6.13,8.4.1,2.73-.15,5.49-.25,8.14-.55,5.35-.49,10.48-1.32,15.46-2.24,4.97-.89,9.77-1.95,14.39-2.9,4.63-.98,9.12-1.93,13.33-2.58,4.22-.68,8.23-1.11,11.78-1.1,3.53,0,6.5.45,8.84,1.32,2.35.89,4.26,2.08,6.19,4.16.89,1.04,1.99,2.27,2.58,3.31.73,1.1,1.4,2.46,2.02,3.95,1.23,3.01,2.14,6.7,2.78,10.62.64,3.93,1.01,8.14,1.2,12.44.31,8.64-.07,17.67-.82,26.79-1.51,18.28-4.35,36.91-7.28,55.68l-4.44,28.33c-1.46,9.27-2.98,19.73-3.33,30.05-.45,10.38.15,21.01,2.06,31.64.98,5.32,2.29,10.63,4.14,15.86,1.81,5.26,4.02,10.44,6.86,15.38,5.61,9.9,13.38,19.05,23.12,25.73,9.65,6.76,20.97,11.05,32.47,12.59,23.07,3.12,46.36-4.32,63.78-18.55,8.72-7.13,16.05-15.89,21.49-25.61,2.7-4.87,4.96-9.95,6.79-15.16,1.81-5.2,3.12-10.53,4.1-15.86.95-5.36,1.4-10.75,1.62-16.1.06-5.35-.01-10.66-.59-15.9-.19-2.64-.62-5.21-.97-7.81-.4-2.55-.86-4.97-1.31-7.47-.4-2.48-.99-4.89-1.48-7.34-.5-2.45-1.05-4.87-1.65-7.26-4.62-19.26-10.65-37.57-15.99-55.65-5.36-18.07-10.04-35.95-12.46-53.9-1.17-8.95-1.78-17.92-1.86-26.86.12-4.44.15-8.91.5-13.35l.21-3.34.39-3.33.39-3.31c.1-1.11.21-2.23.42-3.33l1.05-6.62c.28-1.66.65-3.3,1.02-4.94,47.78-.79,96.99,1.16,148.25,3.22,74.48,2.97,150.18,5.98,224.31.16,62.07-4.87,123.02-15.93,181.23-38.38.92.7,1.86,1.41,2.78,2.15,6,4.75,11.88,9.74,17.7,14.92,5.81,5.24,11.64,10.48,17.57,15.95,2.98,2.69,6,5.39,9.09,8.08l4.65,4.05,4.83,3.95c6.55,5.23,13.33,10.36,20.83,14.94,7.48,4.57,15.58,8.57,24.16,11.61,8.64,2.95,17.71,4.69,26.79,5.48l6.82.27,1.69.06c.58,0,1.19-.03,1.78-.06l3.56-.1c4.77-.37,9.58-1.07,14.31-2.3,4.74-1.26,9.37-2.97,13.78-5.11,4.38-2.2,8.49-4.8,12.32-7.65,7.62-5.81,13.93-12.64,19.3-19.73,5.38-7.11,9.86-14.51,13.9-21.95,1.26-2.32,2.46-4.63,3.65-6.93.48.07.97.16,1.44.22,17,2.49,34.06,3.94,51.11,4.89,34.14,1.34,68.2.34,101.91-3.15,1.1-.12,2.21-.22,3.33-.34-.19,2.18-.43,4.37-.64,6.56-.48,3.73-.95,7.47-1.57,11.26-1.2,7.57-2.76,15.35-4.08,23.67-1.32,8.29-2.24,17.15-2.26,26.02l.12,6.64.48,6.59c.13,2.17.49,4.42.73,6.64.34,2.23.68,4.44,1.13,6.67,1.77,8.89,4.54,17.82,8.86,26.31,2.18,4.23,4.66,8.37,7.62,12.25,2.94,3.88,6.27,7.51,9.92,10.82,7.34,6.62,16.13,11.64,25.38,14.82,9.25,3.21,18.96,4.5,28.47,4.26,9.52-.22,18.84-2,27.69-5.06,17.68-6.04,33.5-17.31,44.98-32.25,5.69-7.51,10.32-15.89,13.45-24.77,1.62-4.44,2.84-9,3.71-13.6.94-4.59,1.44-9.24,1.66-13.87.28-4.65.1-9.24-.24-13.82l-.8-6.87c-.37-2.29-.85-4.51-1.28-6.77-1.96-8.94-4.99-17.43-8.51-25.36-7.02-15.87-15.9-29.67-22.27-42.94-.28-.56-.55-1.16-.82-1.74l3.28-1.13,11.88-4.31c3.85-1.37,7.78-2.88,11.55-4.13l5.7-1.97c1.9-.67,3.77-1.19,5.66-1.8l5.64-1.72,5.66-1.47c3.74-1.1,7.53-1.81,11.29-2.61,15.1-3.04,30.57-3.99,46.27-3.39l5.9.28c1.96.07,3.91.15,5.88.42l11.85,1.26c1.96.15,3.95.5,5.92.82l5.92.97,12.21,1.99c4.37.68,8.7,1.5,13.14,1.89l6.61.73c2.2.22,4.43.28,6.65.43,2.21.12,4.42.27,6.65.31l6.68.02c4.44.1,8.89-.3,13.35-.49,17.8-1.19,35.34-4.96,52.09-10.35,16.7-5.6,32.64-12.78,47.71-20.88,15.12-8.08,29.61-16.7,43.7-25.55,7.45-4.68,14.77-9.44,22.08-14.15h.01c18.96,2,36.71,4.93,54.06,7.77,35.13,5.75,69.18,11.33,107.76,8.3,8.17-.64,16.54-1.66,25.18-3.16-.01,8.89.5,17.92,1.86,27,.37,2.73.91,5.45,1.41,8.17.61,2.67,1.13,5.35,1.83,8.03.76,2.66,1.37,5.38,2.27,8.02l1.31,3.99c.46,1.31.98,2.63,1.46,3.95,3.95,10.51,9.4,20.65,16.24,29.92,6.87,9.24,15.19,17.54,24.62,24.26,9.38,6.77,19.81,12.01,30.63,15.65,10.84,3.68,22.07,5.78,33.32,6.52,22.5,1.43,44.99-2.51,65.68-11.21,10.34-4.35,20.24-9.96,29.33-16.85,4.53-3.46,8.86-7.23,12.95-11.3,4.05-4.1,7.81-8.54,11.27-13.23,6.85-9.44,12.32-20.09,15.7-31.44,1.75-5.66,2.94-11.46,3.65-17.3.77-5.84.94-11.73.73-17.54l-.22-4.34-.43-3.99-.86-7.94c-.43-5.29-1.56-10.63-2.51-15.96-.82-5.33-2.45-10.62-3.82-15.92-.37-1.32-.64-2.67-1.13-3.95l-1.35-3.89-2.72-7.78-3.21-7.5-1.62-3.74-1.77-3.58-3.5-7.13-3.58-6.8-6.27-11.79c57.15-37.45,125.18-57.85,195.71-58.1,85.6-.3,157.59-11.4,213.96-33.05,60.43-23.18,105.13-59.19,132.85-106.99l.39-.73c73.47-146.29,54.39-350.49-53.72-574.99l.03-.03ZM1049.27,518.68c9.65-7.54,19.94-14.46,30.71-20.6,20.82-12.16,43.22-21.68,66.15-29.56-17.97,16.14-38.43,29.5-60.51,39.32l-13.72,6.1c-14.28,6.36-28.17,13.54-41.59,21.47,5.91-5.92,12.28-11.49,18.96-16.73ZM1491.97,572.88c-.13,1.71-.31,3.42-.65,5.11-.4,3.36-1.29,6.67-2.05,9.96-.4,1.63-.99,3.25-1.48,4.9l-.76,2.44c-.27.8-.62,1.59-.94,2.39l-1.84,4.77-2.17,4.71-1.08,2.33-1.25,2.29-2.47,4.57c-3.65,5.94-7.42,11.8-11.92,17.25-4.31,5.55-9.19,10.74-14.06,15.89-2.61,2.45-5.09,5-7.78,7.38-2.72,2.33-5.27,4.83-8.12,7.02-22.27,18.19-47.83,32.77-74.72,44.21-26.94,11.4-55.27,19.79-84.21,25.09-14.46,2.64-29.06,4.65-43.7,5.76-14.61,1.19-29.3,1.59-43.92,1.08-29.24-.88-58.33-5.36-85.77-14.12-13.69-4.44-26.86-10.14-39.19-17.11-12.25-6.99-23.58-15.46-32.96-25.52-4.75-5-8.89-10.45-12.58-16.22-.95-1.59-1.87-3.24-2.76-4.89,5.48,4.16,11.24,7.81,17.14,11.02,12.06,6.56,24.62,11.64,37.36,15.72,12.74,4.07,25.69,7.17,38.71,9.43,52.15,8.91,105.04,7.14,156.57-1.31,51.23-10.05,101.48-26.59,147.51-52.88,11.46-6.62,22.63-13.91,33.29-22.08,10.63-8.18,20.8-17.24,29.99-27.56,5.84-6.59,11.21-13.78,15.81-21.65v.02ZM1220.76,449.44c12.37-1.9,24.72-3.8,37.14-5.05,12.43-1.2,24.9-2.09,37.34-2.49,24.92-.56,49.94.61,74.3,4.9,24.29,4.14,48.24,11.36,68.91,23.12,10.28,5.84,19.53,13.04,26.74,21.23,3.5,4.16,6.56,8.49,8.86,13.08,2.15,4.62,3.65,9.38,4.42,14.26.62,4.89.53,9.8-.22,14.74-.91,4.94-2.54,9.83-4.63,14.67-4.48,9.62-11.06,18.81-18.93,27.16-15.83,16.75-35.85,30.47-57.02,41.98-42.66,22.88-90.3,37.27-138.54,45.35-12.06,2.24-24.16,4.29-36.31,5.82-12.16,1.47-24.35,2.57-36.57,3.19-24.4,1.11-48.91.71-72.91-2.57-23.89-3.27-47.65-8.67-68.68-18.71-10.45-5.02-20.06-11.26-27.96-18.8-3.79-3.88-7.19-8.02-9.89-12.49-2.58-4.53-4.5-9.33-5.73-14.36-.99-5.06-1.26-10.3-.79-15.59.03-.22.07-.43.1-.65,25.2-19.93,52.86-36.77,82.35-49.88l13.69-6.09c37.37-16.6,70.62-42.26,96.21-74.16l2.76-3.46c8.4-1.92,16.85-3.65,25.33-5.21h.03ZM1217.54,1809.28c-16.29,1.74-32.58,2.87-48.88,3.7l-12.22.45c-4.08.21-8.14.13-12.22.21-8.14.18-16.26-.09-24.38-.21-13.75-.46-27.49-1.23-41.12-2.66,1.53-3.52,3.04-7.02,4.56-10.5,6.36-14.6,12.62-28.91,20.06-41.9,7.39-12.92,16.1-24.59,26.7-32.12,2.64-1.9,5.41-3.47,8.24-4.87,2.87-1.38,5.85-2.39,8.89-3.27,3.07-.77,6.24-1.34,9.5-1.63,3.25-.22,6.62-.37,9.89-.1,6.52.4,12.7,1.9,18.35,4.44,5.6,2.61,10.72,6.22,15.1,10.91,8.84,9.29,14.95,22.21,18.68,36.17,1.89,6.98,3.25,14.24,4.2,21.63.22,1.84.4,3.71.62,5.57l.48,5.63.42,7.86c-2.29.24-4.57.45-6.88.7h0ZM1939.44,1588.35c-.83,9.34-2.3,18.86-4.02,28.47-3.47,19.21-7.94,38.74-11.73,58.74-2.46,13.07-4.72,26.34-6.15,39.94-47.72,9.46-86.88,3.04-130.21-4.04-7.39-1.23-14.85-2.45-22.45-3.61,1.59-.89,3.16-1.81,4.77-2.72,7.19-4.07,14.6-7.74,22.2-11.67l-.18-.71c-17.11.4-34.12,4.62-50.16,10.51-.88.33-1.78.67-2.66,1h-.01c-14.12,5.35-27.56,11.95-40.6,18.84-.95.49-1.87.99-2.81,1.48-14.7,7.91-28.96,16.17-43.49,23.3-14.51,7.25-29.27,13.32-44.31,17.89-15.06,4.4-30.41,7.32-45.91,7.97-15.49.64-31.03-.59-46.42-3.52-32.89-6.74-69.21-10.53-104.58-3.94-17.66,3.15-34.52,8.92-50.25,14.57-4.93,1.78-9.77,3.5-14.55,5.14-1.05-3.99-2.03-7.96-2.93-11.94-.47-1.86-.8-3.71-1.16-5.57l-1.05-5.55c-.62-3.7-1.08-7.4-1.63-11.09l-.49-5.52c-.15-1.84-.42-3.7-.4-5.51l-.16-5.51c-.03-.92-.1-1.83-.07-2.75l.1-2.72c.37-14.52,2.9-28.73,8.27-41.95,2.79-6.56,5.91-13.02,9.84-19.1l2.94-4.54c.46-.79,1.01-1.5,1.59-2.23l1.65-2.17,3.3-4.38.42-.53c.13-.18.27-.28.39-.45l.77-.83,1.51-1.72c8.54-8.69,21.37-14.14,35.84-17.71,14.46-3.64,30.17-5.89,46.17-8.79,8.18-1.46,16.47-3.1,24.78-5.11,4.45,2.79,8.95,5.61,13.53,8.4,8.58,5.27,17.48,10.45,26.95,15.1,9.43,4.65,19.51,8.72,30.14,11.54,10.6,2.87,21.71,4.5,32.79,4.66,2.76-.04,5.54-.01,8.29-.16,2.73-.19,5.52-.31,8.2-.61,2.69-.33,5.36-.56,8.03-1.01l3.99-.62c1.32-.24,2.64-.5,3.96-.76,21.22-4.05,41.46-12.16,59.84-22.54,18.44-10.38,35.16-22.88,50.93-35.86,15.8-12.98,30.69-26.52,45.72-39.22,15.03-12.68,30.23-24.63,46.4-33.56,4.04-2.26,8.12-4.28,12.28-6.04,4.13-1.83,8.33-3.33,12.56-4.59,8.48-2.54,17.11-3.88,25.81-4.01,8.72-.07,17.46.99,26.12,3.25,4.34,1.04,8.63,2.48,12.9,4.01,2.12.79,4.25,1.69,6.36,2.52l2.84,1.29c.92.43,1.78.94,2.69,1.4,7.05,3.85,12.59,8.86,16.45,15.18,3.89,6.31,6.12,14.11,7.13,22.61,1.01,8.52.79,17.7-.06,27.03v.02ZM2332.83,1570.47c-74.45.27-146.38,21.49-207.19,60.51-.37-.94-.73-1.87-1.11-2.81l-2.58-6.5-2.2-6.68-2.2-6.67-1.81-6.86c-1.17-4.56-2.49-9.07-3.33-13.81-.92-4.68-1.93-9.34-2.79-14.03l-2.08-14.3c-.34-2.41-.77-4.75-1.01-7.17l-.71-7.28-1.43-14.55-.09-.92c-.03-.3-.07-.62-.07-.82l-.06-1.35c-.09-.91-.03-1.74-.03-2.57.04-1.69.24-3.28.53-4.86.58-3.13,1.69-6.07,3.39-9.01,3.33-5.87,9.06-11.6,16.02-16.84,6.98-5.24,14.98-10.11,23.39-14.76,8.39-4.65,17.2-9.13,26.1-13.71,17.85-9.16,36.22-18.69,53.87-30.43,9.46-6.27,18.74-13.23,27.46-21.04-.53,12.15-.22,24.37,1.19,36.57.42,4.78,1.35,9.52,2.14,14.28.36,2.38,1.02,4.72,1.56,7.08.59,2.38,1.04,4.75,1.75,7.07,1.47,4.69,2.72,9.4,4.62,13.99.92,2.3,1.69,4.62,2.75,6.89l3.18,6.79c4.59,8.91,9.84,17.68,16.62,25.66.82,1.01,1.62,2.05,2.46,3.04l2.7,2.88,2.73,2.9c.91.95,1.78,1.93,2.79,2.81l5.97,5.39c.96.92,2.08,1.74,3.15,2.55l3.22,2.49,3.25,2.47c1.11.79,2.29,1.51,3.43,2.27,2.33,1.48,4.57,3.04,6.96,4.44l7.34,3.99,1.77.97s.07.03.1.04l1.86.88,2.11.95c-1.9.03-3.8.04-5.72.04v.02ZM2656.4,1444.09c-9.93,17.08-22.18,32.37-36.81,45.93,9.84-15.03,17.57-30.94,22.81-47.37,3.03-9.59,5.26-19.33,6.58-29.15,1.25-9.83,1.72-19.72,1.01-29.55-1.26-19.65-6.93-39.13-17.43-56.54-5.3-8.66-11.72-16.81-19.24-24.1-7.57-7.35-15.9-13.66-25.17-19.18-9.3-5.45-19.5-9.95-30.35-12.99-10.84-3.07-22.18-4.83-33.54-5.36-11.39-.49-22.75.24-33.84,1.84-11.08,1.66-21.89,4.28-32.31,7.6-10.75,3.55-25.45,11.26-37.15,17.86-2.06,1.17-.58,3.77,1.68,2.95,2.78-.98,5.57-1.95,8.36-2.85,9.9-3.12,19.94-5.66,29.96-7.5,10.04-1.8,20.12-2.81,29.99-2.94,9.89-.04,19.57.88,28.78,2.67,18.41,3.83,34.75,11.11,48.91,20.8,7.07,4.83,13.85,10.26,19.6,16.07,5.79,5.85,10.68,12.37,14.7,19.27,7.94,13.9,12.21,29.59,12.87,45.75.4,8.08-.19,16.29-1.41,24.46-1.29,8.2-3.33,16.35-6.09,24.38-10.97,32.15-32.95,62.39-62.59,84.24-7.42,5.43-15.22,10.42-23.49,14.67-8.24,4.25-16.79,7.96-25.64,10.91-8.85,2.95-17.94,5.21-27.14,6.76-2.26.33-4.37.7-6.7.94l-7.2.58c-4.78.51-9.67.61-14.54.8l-3.59.15h-.1l-3.56-.03-7.22-.04c-1.22.03-2.39-.04-3.58-.13l-3.56-.19c-2.36-.16-4.75-.22-7.1-.46l-6.98-.77c-1.16-.13-2.33-.22-3.47-.4l-3.42-.56-6.74-1.14s-.09,0-.12-.01l-6.56-1.51-3.24-.74s-.09-.03-.13-.03l-3.13-.94c-2.11-.64-4.25-1.22-6.33-1.9-.03-.01-.07-.03-.12-.04-4.05-1.56-8.24-2.9-12.03-4.78l-2.94-1.32-1.4-.64c-.06-.03-.1-.03-.13-.06l-1.32-.73-5.55-3.04c-1.83-1.04-3.5-2.24-5.27-3.36-.86-.56-1.75-1.11-2.6-1.69l-2.44-1.89-2.44-1.87c-.83-.62-1.66-1.23-2.39-1.93l-4.5-4.08c-.8-.65-1.44-1.43-2.14-2.17l-2.06-2.2-2.09-2.2c-.64-.76-1.25-1.56-1.89-2.33-1.22-1.59-2.54-3.12-3.71-4.74l-3.37-4.97c-1.2-1.6-2.08-3.41-3.1-5.14-.97-1.77-2.09-3.41-2.9-5.27l-2.61-5.45c-.86-1.81-1.5-3.74-2.27-5.6-1.59-3.71-2.63-7.68-3.89-11.52-.61-1.94-.99-3.96-1.51-5.94-.45-2-1.07-3.95-1.35-6-.68-4.08-1.54-8.09-1.92-12.25-2.03-16.48-1.97-33.53-.24-50.69,1.66-16.42,3.12-33.16,7.23-49.64l.34-1.02,1.2-4.02.61-2.02.53-2.09,1.07-4.25c1.01-5.32,1.84-10.51,2.75-15.78.52-2.63.76-5.21,1.08-7.81l.95-7.8.49-3.91c.13-1.31.19-2.6.33-3.91l.56-7.84c.18-2.6.48-5.23.52-7.83l.24-7.84c.58-20.92-.53-41.81-3.1-62.47-2.54-20.67-6.73-41.03-11.97-61.01-5.29-20-11.63-39.65-18.96-58.85-7.38-19.18-15.58-37.97-24.44-56.4-8.88-18.41-18.55-36.39-28.58-54.11-10.05-17.71-20.77-34.97-31.75-52.06-11.03-17.03-22.5-33.74-34.18-50.26-11.81-16.42-23.77-32.74-36.11-48.72-3.04-4.04-6.16-8-9.28-11.97l-9.34-11.92c-6.33-7.84-12.58-15.77-18.99-23.54-3.21-3.89-6.34-7.81-9.62-11.69l-9.92-11.67c-1.66-1.95-3.28-3.92-4.99-5.82l-5.12-5.7-10.28-11.37c-55.73-59.74-120.22-111.38-191.15-151.96-17.61-10.3-35.83-19.59-54.17-28.54l-13.91-6.43-6.92-3.19-6.85-3.06c-9.1-4.07-18.19-8.15-27.26-12.29-36.29-16.53-72.36-33.51-107.97-51.3-17.85-8.84-35.47-18.01-53.07-27.25-17.51-9.38-34.94-18.87-52.1-28.79-17.14-9.92-34.15-20.05-50.71-30.74-4.17-2.63-8.24-5.4-12.35-8.11-2.02-1.35-4.19-2.69-6.09-4.07l-5.82-4.11c-7.77-5.52-15.15-11.52-22.29-17.76-14.27-12.49-26.97-26.64-37.92-41.92-1.34-1.93-2.78-3.79-4.04-5.78l-3.79-5.92-.58-.89-1.31-2.08-1.74-3.04-3.43-6.1c-1.13-2.06-2.09-4.17-3.15-6.27-.98-2.03-2.11-4.04-2.94-6.15-.03-.06-.06-.1-.07-.15-1.78-4.31-3.76-8.52-5.2-12.95-.77-2.18-1.6-4.35-2.32-6.55l-1.96-6.67-.95-3.34-.77-3.36-1.54-6.76-1.1-6.82-.56-3.42c-.18-1.13-.24-2.29-.36-3.43l-.68-6.86c-.16-2.29-.15-4.59-.25-6.88-.64-18.35,2.35-36.68,8.18-54.09,5.7-17.46,14.86-33.81,26.03-48.75,11.23-14.94,24.65-28.41,39.47-40.34,7.34-6.07,14.97-11.27,22.9-16.16,1.96-1.25,4.05-2.24,6.06-3.39l3.04-1.65c1.02-.55,2.03-1.13,3.09-1.57l6.3-2.87c1.04-.46,2.08-1.01,3.15-1.41l3.22-1.19,6.46-2.42,6.58-1.95,3.3-.98,3.34-.71,6.7-1.48,6.76-.97c1.14-.16,2.26-.36,3.39-.49l3.42-.24c2.27-.13,4.53-.37,6.8-.45h6.83c9.09.3,18.19,1.17,27.05,3.31l3.36.71c1.11.27,2.2.64,3.28.94,2.18.67,4.4,1.25,6.58,1.93,4.26,1.63,8.64,3,12.78,4.99l3.15,1.37c1.05.43,2.08.94,3.1,1.47l4.26,2.18,1.87.97c2.03,1.05,3.98,2.3,5.97,3.44l3,1.72,2.88,1.93c6.21,3.92,12.03,8.43,17.66,13.23,1.47,1.23,2.91,2.49,4.35,3.76l5.11,4.8c1.71,1.62,3.25,3.39,4.9,5.06l2.45,2.52c.8.86,1.51,1.8,2.3,2.67l4.63,5.36,4.34,5.64c.73.94,1.48,1.86,2.18,2.82l2.02,2.94c1.35,1.96,2.76,3.91,4.08,5.89l3.76,6.15c1.34,2,2.45,4.14,3.62,6.27,1.11,2.14,2.36,4.23,3.46,6.4l3.18,6.59c1.14,2.17,2.05,4.44,3.01,6.7,4.1,9.01,7.05,18.47,10.33,28.15,1.48-31.32-7.41-63.82-24.96-91.45,429.21,122.03,781.27,501.06,933.66,817.47,104.34,216.69,123.56,412.37,54.09,551.07l-.02.02Z" style="fill: #340d3b; stroke-width: 0px;"/>
  <path d="M1491.97,572.88c-.13,1.7-.31,3.41-.65,5.1-.4,3.35-1.29,6.66-2.05,9.96-.41,1.64-1,3.26-1.49,4.9l-.76,2.43c-.27.8-.62,1.6-.93,2.4l-1.85,4.77-2.17,4.71-1.08,2.33-1.24,2.28-2.47,4.57c-3.66,5.94-7.43,11.8-11.93,17.25-4.31,5.56-9.18,10.75-14.06,15.89-2.61,2.45-5.09,5-7.78,7.38-2.72,2.34-5.27,4.83-8.13,7.03-22.27,18.19-47.82,32.77-74.71,44.21-26.93,11.39-55.28,19.79-84.21,25.09-14.46,2.64-29.05,4.65-43.69,5.76-14.61,1.19-29.31,1.6-43.93,1.09-29.24-.88-58.32-5.37-85.76-14.13-13.69-4.43-26.87-10.15-39.19-17.1-12.25-7-23.57-15.46-32.96-25.53-4.75-5.01-8.89-10.46-12.58-16.22-.95-1.6-1.86-3.24-2.75-4.88,5.48,4.15,11.23,7.8,17.14,11.01,12.05,6.56,24.61,11.64,37.35,15.72,12.74,4.08,25.69,7.18,38.72,9.44,52.14,8.91,105.04,7.13,156.56-1.31,51.23-10.06,101.48-26.61,147.5-52.89,11.47-6.61,22.63-13.9,33.29-22.08,10.64-8.18,20.8-17.23,30-27.56,5.84-6.58,11.21-13.77,15.82-21.64v.02Z" style="fill: #a21e21; stroke-width: 0px;"/>
  <path d="M1478.26,533.24c-.89,4.94-2.53,9.83-4.63,14.66-4.48,9.63-11.07,18.81-18.93,27.17-15.83,16.75-35.85,30.47-57.02,41.97-42.66,22.88-90.29,37.28-138.54,45.36-12.06,2.25-24.15,4.29-36.3,5.82-12.16,1.47-24.35,2.57-36.57,3.2-24.4,1.11-48.91.7-72.91-2.57-23.89-3.26-47.65-8.68-68.67-18.71-10.46-5.02-20.07-11.26-27.96-18.81-3.79-3.87-7.19-8.02-9.89-12.49-2.58-4.52-4.51-9.32-5.73-14.36-.99-5.06-1.26-10.3-.79-15.59.62-5.31,2.03-10.64,3.95-15.88,4.19-10.44,10.56-20.49,18.46-29.48,7.85-9.03,16.9-17.27,26.54-24.83,9.66-7.54,19.95-14.46,30.71-20.6,21.44-12.51,44.54-22.24,68.17-30.27,11.86-3.9,23.87-7.36,35.98-10.47,12.12-3.03,24.35-5.64,36.63-7.91,12.37-1.9,24.72-3.8,37.15-5.04,12.43-1.2,24.9-2.1,37.35-2.5,24.91-.57,49.92.6,74.29,4.9,24.29,4.14,48.25,11.36,68.91,23.12,10.28,5.84,19.52,13.03,26.75,21.23,3.5,4.16,6.57,8.5,8.86,13.08,2.16,4.62,3.64,9.39,4.42,14.26.63,4.88.54,9.8-.23,14.75h0Z" style="fill: #ee2f24; stroke-width: 0px;"/>
  <path d="M2278.58,1267.76l-.2,7.16c-.04,2.39-.31,4.76-.45,7.14l-.53,7.15c-.1,1.18-.16,2.38-.29,3.57l-.42,3.55-.86,7.11c-.31,2.36-.52,4.76-.97,7.05-.8,4.59-1.53,9.3-2.36,13.8l-.77,3.05-.39,1.52-.47,1.59-.94,3.17-1.07,3.12c-.67,2.11-1.55,4.11-2.33,6.17-.87,2-1.71,4.04-2.69,6-1.86,3.96-4.04,7.78-6.32,11.53-2.39,3.69-4.86,7.35-7.63,10.82-10.97,13.97-25.08,25.87-40.75,36.31-15.7,10.48-32.89,19.5-50.64,28.64-8.88,4.58-17.91,9.19-27.02,14.26-9.09,5.06-18.28,10.55-27.28,17.39-4.5,3.44-8.94,7.22-13.15,11.62-4.2,4.4-8.17,9.43-11.44,15.21-3.29,5.74-5.78,12.28-7,19-.63,3.36-1.01,6.74-1.06,10.06-.05,1.66-.07,3.33.04,4.91l.14,2.42c.02.43.06.73.08,1.05l.1.95,1.56,15.32.78,7.67c.27,2.56.74,5.12,1.09,7.69l2.32,15.4c.95,5.14,2.07,10.26,3.11,15.39.92,5.14,2.43,10.24,3.77,15.36l2.06,7.66,2.53,7.58,2.53,7.58,2.97,7.44c1.03,2.47,1.94,4.99,3.05,7.39l1.09,2.36,2.24,4.87,1.68,3.61,1.78,3.48,3.57,6.96,2.93,5.47,4.2,7.83,3.44,6.46,3.15,6.32,1.57,3.17,1.35,3.14,2.74,6.29c3.11,8.48,5.88,17.05,7.53,26.09.82,4.52,1.84,8.97,2.21,13.68l.8,6.97.39,3.48.16,3.15c.16,4.19.07,8.35-.45,12.44-.48,4.09-1.28,8.13-2.5,12.04-2.3,7.88-6.07,15.3-10.93,22.08-9.75,13.57-24.18,24.27-40.3,31.19-16.15,6.93-34.13,10.17-51.61,9.16-17.47-1-34.43-6.4-48.19-16.21-13.81-9.73-24.27-23.8-30.52-40.22-.38-1.03-.8-2.04-1.16-3.08l-1.04-3.15c-.74-2.07-1.24-4.27-1.87-6.39-.57-2.16-1.02-4.4-1.53-6.6-.44-2.2-.88-4.41-1.2-6.62-1.38-8.84-1.8-18.04-1.63-27.37,0-.66.03-1.33.05-1.99.27-9.45,1.18-19.01,2.46-28.64,1.16-8.82,2.63-17.68,4.28-26.58,3.54-19.37,7.9-38.91,11.42-59.12,1.74-10.12,3.29-20.4,4.17-31.01.88-10.6,1.16-21.54-.23-32.91-.71-5.68-1.85-11.46-3.67-17.21-1.81-5.74-4.31-11.49-7.65-16.83-3.32-5.35-7.45-10.29-12.1-14.5-4.65-4.22-9.78-7.72-15.05-10.57-1.33-.67-2.66-1.42-3.99-2.03l-4.03-1.8c-2.54-.99-5.04-2.03-7.62-2.96-5.15-1.82-10.37-3.52-15.78-4.79-5.37-1.38-10.88-2.33-16.44-3.04-5.58-.63-11.23-.95-16.88-.85-11.32.23-22.63,2.07-33.3,5.35-5.35,1.64-10.58,3.56-15.59,5.8-5.04,2.2-9.93,4.65-14.62,7.3-18.84,10.61-35.12,23.74-50.59,36.93-15.46,13.25-30.13,26.75-45.19,39.28-15.04,12.53-30.48,24.17-46.91,33.53-16.39,9.37-33.79,16.41-51.92,20.01-1.13.21-2.26.46-3.39.65l-3.43.55c-2.28.42-4.57.61-6.87.91-2.29.28-4.5.37-6.76.56-2.24.13-4.48.1-6.72.17-8.94-.07-17.78-1.33-26.53-3.61-8.74-2.25-17.32-5.67-25.95-9.6-6.87-3.12-13.76-6.61-20.76-10.2-1.78-.92-3.57-1.83-5.37-2.77-9.62-4.96-19.5-9.97-29.7-14.5-8.52-3.81-17.27-7.31-26.24-10.19-19.64-6.4-40.24-10.01-60.61-9.52,9.55,3.6,18.86,7.2,27.91,11.22,9.07,3.98,17.84,8.36,26.44,12.98.89.48,1.77.96,2.66,1.47-13.95,2.39-28.32,4.51-43.16,8.17-8.28,2.08-16.75,4.68-25.14,8.63-8.35,3.92-16.61,9.26-23.6,16.28l-2.5,2.74-1.23,1.39-.6.69-.5.65-3.97,5.17-1.97,2.6c-.66.86-1.32,1.73-1.89,2.67l-3.59,5.49c-4.79,7.35-8.72,15.3-12.18,23.45-6.74,16.41-9.96,34.17-10.43,51.58l-.12,3.27c-.03,1.09.04,2.16.05,3.24l.18,6.49c0,2.17.29,4.3.45,6.44l.56,6.41c.59,4.23,1.13,8.46,1.83,12.64l1.17,6.22c.4,2.08.77,4.17,1.29,6.2,1.03,4.58,2.15,9.13,3.36,13.62.93,3.56,1.94,7.07,3,10.56,1.24,3.98,2.28,7.76,3.95,12.23.83,2.24,1.72,4.42,2.63,6.56h.01c.84,1.91,1.7,3.8,2.59,5.65,3.74,7.78,7.78,14.94,11.58,21.87,3.81,6.93,7.37,13.63,10.32,20.31,2.97,6.68,5.29,13.33,6.75,20.01.31,1.67.68,3.34.94,5.02l.59,5.02c.25,3.39.4,6.81.18,10.14-.62,13.41-5.14,26.19-13.15,36.64-7.99,10.41-19.31,18.52-31.89,22.8-12.51,4.35-26.28,4.83-38.01.78-11.78-3.99-21.26-12.54-27.05-24.14-2.94-5.77-5-12.22-6.33-19.02-.34-1.69-.6-3.42-.87-5.15-.18-1.77-.48-3.48-.58-5.29l-.41-5.37-.11-5.34c0-7.13.7-14.23,1.87-21.73,1.16-7.46,2.72-15.39,4.02-23.61.66-4.1,1.18-8.28,1.7-12.48.4-4.22.87-8.42,1.06-12.67,0-.09.02-.18,0-.27.58-8.37.49-16.72.32-25.02-.07-2.02-.17-4.05-.27-6.09-.79-14.67-2.64-29.7-6.71-44.5-2.3-8.44-5.34-16.84-9.47-24.98-.98-2.05-2.16-4.03-3.27-6.04-1.24-1.96-2.4-3.95-3.77-5.86-2.61-3.86-5.61-7.56-8.94-11.02-6.56-6.96-14.71-12.8-23.61-16.89-8.94-4.04-18.57-6.26-28-6.8-4.72-.34-9.37-.17-14.07.2-4.7.43-9.43,1.26-14.09,2.48-4.65,1.3-9.23,2.93-13.59,5.03-4.33,2.11-8.5,4.55-12.35,7.33-7.73,5.55-14.28,12.17-19.89,19.14-5.59,6.98-10.33,14.3-14.53,21.71-8.43,14.8-14.92,29.89-21.3,44.61-2.53,5.87-5.04,11.7-7.58,17.43l-12.47,25.76c-7.02,12.91-15.23,24.71-25.3,32.37-2.57,1.93-5.23,3.6-7.99,5.01-2.8,1.35-5.68,2.43-8.67,3.24-3.01.79-6.13,1.23-9.32,1.51l-2.42.09c-.42,0-.82.03-1.23.04l-1.28-.05-5.18-.19c-6.84-.61-13.57-1.87-20.09-4.08-6.48-2.31-12.81-5.37-19.02-9.05-12.38-7.5-24.12-17.49-36.31-27.7-6.12-5.08-12.31-10.34-18.75-15.37-3.74-2.91-7.54-5.8-11.43-8.62-2.83-2.04-5.71-4.05-8.66-5.99-6.08-4.08-12.43-7.86-18.98-11.28h-.01c-8.39-4.41-17.09-8.19-26.02-11.24-15.95-5.42-32.63-8.12-49.06-8.72-16.47-.53-32.77,1.1-48.53,4.51,16.11,1.09,31.93,2.83,47.21,6.19,3.84.73,7.6,1.77,11.34,2.76,3.78.87,7.41,2.23,11.08,3.39.9.3,1.83.57,2.74.9l2.69,1.03,5.36,2.05c1.78.66,3.5,1.53,5.24,2.27,1.74.79,3.5,1.5,5.2,2.33,2.54,1.23,5.05,2.52,7.53,3.88-118.1,40.09-249.04,34.86-376.34,29.77-43.08-1.72-87.06-3.48-130.26-3.37,191.76-35.8,230.14-52.35,357.15-105.49,58.2-24.36,125.44-13.12,181.27,16.26l21.94,11.54c56.19,29.57,125.72,7.51,155.84-51.46l8.79-17.21c34.22-67,120.11-89.4,181.53-45.98,1.09.76,2.16,1.54,3.24,2.35,14.44,10.78,34.96,1.12,36.35-16.85.77-9.76,3.52-19.67,7.56-29.52,27.31-66.55,99.3-102.79,169.63-87.73,62.52,13.39,106.5,45.25,150.21,6.58,8.68-7.67,15.46-17.22,20.41-27.7,15.2-32.23,32.49-59.74,51.88-82.5,35.03-41.06,88.03-62.86,141.63-56.61,21.69,2.54,42.28,8.33,61.95,14.65,67.7,21.75,141.23,16.57,204.8-15.32,22.44-11.26,42.38-23.33,59.62-36.28,49.19-36.94,70.18-100.52,54.14-159.89-51.47-190.54-171.47-344.67-297.32-462.16-9.88-9.22-20.15-17.99-30.7-26.43l-144.38-115.38c8.09,3.8,16.2,7.56,24.32,11.3,9.12,4.23,18.26,8.38,27.4,12.52l6.87,3.11,6.68,3.13,13.34,6.22c17.58,8.66,35.04,17.61,51.96,27.58,68,39.16,129.75,88.93,183.07,146.43l9.82,10.94,4.91,5.47c1.62,1.84,3.17,3.74,4.76,5.6l9.5,11.23c3.14,3.79,6.26,7.69,9.41,11.53,6.31,7.68,12.44,15.48,18.64,23.25,6.11,7.82,12.29,15.6,18.29,23.5,12.12,15.7,23.82,31.7,35.37,47.78,11.41,16.17,22.6,32.48,33.31,49.07,10.64,16.62,21.04,33.38,30.76,50.49,9.68,17.13,18.98,34.44,27.48,52.09,8.46,17.67,16.27,35.59,23.25,53.78,6.95,18.21,12.89,36.73,17.83,55.44,4.89,18.73,8.85,37.64,11.21,56.73,2.4,19.07,3.45,38.25,2.95,57.37l.08-.05Z" style="fill: #c5832a; stroke-width: 0px;"/>
  <path d="M2656.4,1444.09c-9.93,17.08-22.18,32.37-36.81,45.93,9.84-15.03,17.57-30.94,22.81-47.37,3.03-9.59,5.26-19.33,6.58-29.15,1.25-9.83,1.72-19.72,1.01-29.55-1.26-19.65-6.93-39.13-17.43-56.54-5.3-8.66-11.72-16.81-19.24-24.1-7.57-7.35-15.9-13.66-25.17-19.18-9.3-5.45-19.5-9.95-30.35-12.99-10.84-3.07-22.18-4.83-33.54-5.36-11.39-.49-22.75.24-33.84,1.84-11.08,1.66-21.89,4.28-32.31,7.6-10.75,3.55-25.45,11.26-37.15,17.86-2.06,1.17-.58,3.77,1.68,2.95,2.78-.98,5.57-1.95,8.36-2.85,9.9-3.12,19.94-5.66,29.98-7.5,10.02-1.8,20.11-2.81,29.98-2.94,9.89-.04,19.57.88,28.78,2.67,18.41,3.83,34.75,11.11,48.91,20.8,7.07,4.83,13.85,10.26,19.6,16.07,5.79,5.85,10.68,12.37,14.7,19.27,7.94,13.9,12.21,29.59,12.87,45.75.4,8.08-.19,16.29-1.41,24.46-1.29,8.2-3.34,16.35-6.09,24.38-10.97,32.15-32.95,62.39-62.59,84.24-7.42,5.43-15.22,10.42-23.49,14.67-8.24,4.25-16.79,7.96-25.64,10.91-8.85,2.95-17.94,5.21-27.14,6.76-2.26.33-4.37.7-6.7.94l-7.2.58c-4.78.51-9.67.61-14.54.8l-3.59.15h-.1l-3.56-.03-7.22-.04c-1.22.03-2.39-.04-3.58-.13l-3.56-.19c-2.36-.16-4.75-.22-7.1-.46l-6.98-.77c-1.16-.13-2.33-.22-3.47-.4l-3.42-.56-6.74-1.14s-.09,0-.12-.01l-6.56-1.51-3.24-.74s-.09-.03-.13-.03l-3.13-.94c-2.11-.64-4.25-1.22-6.33-1.9-.03-.01-.07-.03-.12-.04-4.05-1.56-8.26-2.9-12.03-4.78l-2.94-1.32-1.4-.64c-.06-.03-.1-.03-.13-.06l-1.32-.73-5.55-3.04c-1.83-1.04-3.5-2.24-5.27-3.36-.86-.56-1.75-1.11-2.6-1.69l-4.87-3.77c-.83-.61-1.66-1.22-2.39-1.92l-4.5-4.08c-.8-.65-1.44-1.43-2.14-2.17l-2.06-2.2-2.09-2.2c-.64-.76-1.25-1.56-1.89-2.33-1.22-1.59-2.54-3.12-3.71-4.74l-3.37-4.97c-1.2-1.6-2.08-3.41-3.1-5.14-.97-1.77-2.09-3.41-2.9-5.27l-2.61-5.45c-.86-1.81-1.5-3.74-2.27-5.6-1.59-3.71-2.63-7.68-3.89-11.52-.61-1.94-.99-3.96-1.51-5.94-.45-2-1.07-3.95-1.35-6-.68-4.08-1.54-8.09-1.92-12.25-2.03-16.48-1.97-33.53-.24-50.69,1.66-16.42,3.12-33.16,7.23-49.64l.34-1.02,1.2-4.02.61-2.02.53-2.09,1.07-4.25c1.01-5.32,1.84-10.51,2.75-15.78.52-2.63.76-5.21,1.08-7.81l.95-7.8.49-3.91c.13-1.31.19-2.6.33-3.91l.56-7.84c.18-2.6.48-5.23.52-7.83l.24-7.84c.58-20.92-.53-41.81-3.1-62.47-2.54-20.67-6.73-41.03-11.97-61.01-5.29-20-11.63-39.65-18.96-58.85-7.38-19.18-15.58-37.97-24.44-56.4-8.88-18.41-18.55-36.39-28.58-54.11-10.05-17.71-20.77-34.97-31.75-52.06-11.03-17.03-22.5-33.74-34.18-50.26-11.81-16.42-23.77-32.74-36.11-48.72-3.04-4.04-6.16-8-9.28-11.97l-9.34-11.92c-6.33-7.84-12.58-15.77-18.99-23.54-3.21-3.89-6.34-7.81-9.62-11.69l-9.92-11.67c-1.66-1.95-3.28-3.92-4.99-5.82l-5.12-5.7-10.28-11.37c-55.73-59.74-120.22-111.38-191.15-151.96-17.61-10.3-35.83-19.59-54.17-28.54l-13.91-6.43-6.92-3.19-6.85-3.06c-9.1-4.07-18.19-8.15-27.26-12.29-36.29-16.53-72.36-33.51-107.97-51.3-17.85-8.84-35.47-18.01-53.07-27.25-17.51-9.38-34.94-18.87-52.1-28.79-17.14-9.92-34.15-20.05-50.71-30.74-4.17-2.63-8.24-5.4-12.35-8.11-2.02-1.35-4.19-2.69-6.09-4.07l-5.82-4.11c-7.77-5.52-15.15-11.52-22.29-17.76-14.27-12.49-26.97-26.64-37.92-41.92-1.34-1.93-2.78-3.79-4.04-5.78l-3.79-5.92-.58-.89-1.31-2.08-.62-1.08c39.97-10.36,82.25-9.76,122.18,2.3.27.07.53.16.79.24,474.87,143.45,811.33,405.09,926.39,848.68,26.16,100.82,149.88,139.07,227.68,69.79,10.42-9.3,20.39-19.99,29.74-32.06,11.7,98.6-.37,186.75-36.71,259.32l-.04-.03Z" style="fill: #bc553d; stroke-width: 0px;"/>
  <path d="M1223.39,1793.95c-1.13-1.32-2.29-2.61-3.5-3.88-6.56-6.96-14.7-12.8-23.59-16.88-8.94-4.04-18.58-6.27-28-6.8-4.72-.36-9.37-.18-14.08.19-4.71.43-9.43,1.26-14.09,2.47-4.65,1.31-9.22,2.94-13.59,5.03-4.34,2.11-8.51,4.56-12.35,7.34-7.72,5.54-14.28,12.16-19.88,19.13-2.87,3.58-5.51,7.25-7.96,10.96-2.55-.22-5.08-.46-7.62-.73,1.53-3.52,3.04-7.02,4.56-10.5,6.36-14.6,12.62-28.91,20.06-41.9,7.39-12.92,16.1-24.59,26.7-32.12,2.64-1.9,5.41-3.47,8.24-4.87,2.87-1.38,5.85-2.39,8.89-3.27,3.07-.77,6.24-1.34,9.5-1.63,3.25-.22,6.62-.37,9.89-.1,6.52.4,12.7,1.9,18.35,4.44,5.6,2.61,10.72,6.22,15.1,10.91,8.84,9.29,14.95,22.21,18.68,36.17,1.89,6.98,3.25,14.24,4.2,21.63.18,1.46.33,2.94.49,4.41h0Z" style="fill: #942b1f; stroke-width: 0px;"/>
  <path d="M1939.86,1582.94c-3.37-2.6-6.93-4.86-10.54-6.8-1.34-.68-2.66-1.43-3.98-2.03l-4.04-1.8c-2.52-1-5.03-2.03-7.62-2.95-5.14-1.83-10.38-3.53-15.77-4.8-5.38-1.38-10.88-2.35-16.45-3.04-5.57-.64-11.23-.95-16.88-.86-11.31.24-22.61,2.08-33.29,5.36-5.36,1.63-10.59,3.55-15.59,5.79-5.05,2.2-9.93,4.65-14.63,7.31-18.84,10.6-35.12,23.73-50.59,36.93-15.46,13.25-30.13,26.74-45.18,39.28-15.04,12.52-30.48,24.16-46.91,33.53-16.39,9.37-33.8,16.41-51.93,20-1.13.21-2.26.46-3.39.65l-3.43.55c-2.27.42-4.56.61-6.86.92-2.29.28-4.5.36-6.77.55-2.23.13-4.47.1-6.71.18-8.94-.07-17.79-1.34-26.53-3.61-8.73-2.26-17.31-5.67-25.96-9.61-6.86-3.12-13.75-6.59-20.76-10.19-1.78-.92-3.56-1.84-5.36-2.78-9.62-4.96-27.96-12.43-41.61-13.38-17.45-1.2-46.24,9.37-61.09,13.02-8.29,2.08-16.75,4.68-25.14,8.63-8.35,3.92-16.62,9.27-23.59,16.29l-2.49,2.75-1.23,1.38-.61.7-.49.64-3.98,5.17-1.97,2.6s-.01.01-.03.04c.86-12.25,3.37-24.22,7.94-35.46,2.79-6.56,5.91-13.02,9.84-19.1l2.94-4.54c.46-.79,1.01-1.5,1.57-2.23l1.66-2.17,3.3-4.38.42-.53c.13-.18.27-.28.39-.45l.77-.83,1.51-1.72c8.54-8.69,21.37-14.14,35.84-17.71,14.46-3.64,30.17-5.89,46.17-8.79,8.18-1.46,16.47-3.1,24.78-5.11,4.45,2.79,8.95,5.61,13.53,8.4,8.58,5.27,17.48,10.45,26.95,15.1,9.43,4.66,19.51,8.72,30.14,11.54,10.6,2.87,21.71,4.5,32.79,4.66,2.76-.04,5.54-.01,8.29-.16,2.73-.19,5.52-.31,8.2-.61,2.69-.33,5.36-.56,8.03-1.01l3.99-.62c1.32-.24,2.64-.5,3.96-.76,21.22-4.05,41.46-12.16,59.84-22.54,18.44-10.38,35.16-22.88,50.93-35.86,15.8-12.98,30.69-26.52,45.72-39.22,15.03-12.68,30.23-24.63,46.4-33.56,4.04-2.26,8.12-4.28,12.28-6.04,4.13-1.83,8.33-3.33,12.56-4.59,8.48-2.54,17.11-3.88,25.81-4.01,8.72-.07,17.46.99,26.12,3.25,4.34,1.04,8.63,2.48,12.9,4.01,2.12.79,4.25,1.69,6.36,2.52l2.84,1.29c.92.43,1.78.94,2.69,1.4,7.05,3.85,12.59,8.86,16.45,15.18,3.89,6.31,6.12,14.11,7.13,22.61.82,6.88.83,14.17.36,21.62h0Z" style="fill: #942b1f; stroke-width: 0px;"/>
  <path d="M2255.23,1441.29v.03c-1.68,2.49-3.43,4.93-5.32,7.29-10.97,13.97-25.08,25.87-40.76,36.31-15.7,10.48-32.89,19.5-50.63,28.64-8.88,4.57-17.91,9.19-27.02,14.26-8.57,4.78-17.24,9.92-25.75,16.24l-1.35-13.74-.09-.92c-.03-.3-.07-.62-.07-.82l-.06-1.35c-.09-.91-.03-1.74-.03-2.57.04-1.69.24-3.28.53-4.86.58-3.13,1.69-6.07,3.39-9.01,3.33-5.87,9.06-11.6,16.02-16.84,6.98-5.24,14.98-10.11,23.39-14.76,8.39-4.65,17.2-9.13,26.1-13.71,17.85-9.16,36.22-18.69,53.87-30.43,9.46-6.27,18.74-13.23,27.46-21.04-.4,9.06-.33,18.16.33,27.26v.02Z" style="fill: #942b1f; stroke-width: 0px;"/>
  <path d="M1668.99,111.25c-51.7-12.41-103.07-19.75-153.37-21.07-93.38-2.46-180.12,84.65-136.97,191.31-.98-2.03-2.11-4.04-2.94-6.15-.03-.06-.06-.1-.07-.15-1.78-4.31-3.76-8.52-5.2-12.95-.77-2.18-1.6-4.35-2.32-6.55l-1.96-6.67-.95-3.34-.77-3.36-1.54-6.76-1.1-6.82-.56-3.42c-.18-1.13-.24-2.29-.36-3.43l-.68-6.86c-.16-2.29-.15-4.59-.25-6.88-.64-18.35,2.35-36.68,8.18-54.09,5.7-17.46,14.86-33.81,26.03-48.75,11.23-14.94,24.65-28.41,39.47-40.34,7.34-6.07,14.97-11.27,22.9-16.16,1.96-1.25,4.05-2.24,6.06-3.39l3.04-1.65c1.02-.55,2.03-1.13,3.1-1.57l6.28-2.87c1.04-.46,2.08-1.01,3.15-1.41l3.22-1.19,6.46-2.42,6.58-1.95,3.3-.98,3.34-.71,6.7-1.48,6.76-.97c1.14-.16,2.26-.36,3.39-.49l3.42-.24c2.27-.13,4.53-.37,6.8-.45h6.83c9.09.3,18.19,1.17,27.05,3.31l3.36.71c1.11.27,2.2.64,3.28.94,2.18.67,4.4,1.25,6.58,1.93,4.26,1.63,8.64,3,12.78,4.99l3.15,1.37c1.05.43,2.08.94,3.1,1.47l4.26,2.18,1.87.97c2.03,1.05,3.98,2.3,5.97,3.44l3,1.72,2.88,1.93c6.21,3.92,12.03,8.43,17.66,13.23,1.47,1.23,2.91,2.49,4.35,3.76l5.11,4.8c1.71,1.62,3.25,3.39,4.9,5.06l2.45,2.52c.8.86,1.51,1.8,2.3,2.67l4.63,5.36,4.34,5.64c.73.94,1.48,1.86,2.18,2.82l2.02,2.94c1.35,1.96,2.76,3.91,4.08,5.89l2.75,4.5-.02.06Z" style="fill: #fcc9aa; stroke-width: 0px;"/>
  <path d="M2415.5,601.17c-181.9-208.91-458.67-414.62-728.42-485.38-4.23-14.05-10.42-27.65-18.43-40.24,300.97,85.57,564,297.51,746.85,525.62Z" style="fill: #fcc9aa; stroke-width: 0px;"/>
  <path d="M1944.55,1139.59c-23.89,0-23.93,37.12,0,37.12s23.93-37.12,0-37.12Z" style="fill: #c5832a; stroke-width: 0px;"/>
  <path d="M1009.65,1499.75c-23.89,0-23.93,37.12,0,37.12s23.93-37.12,0-37.12Z" style="fill: #c5832a; stroke-width: 0px;"/>
  <path d="M1176.46,1420.89c-23.89,0-23.93,37.12,0,37.12s23.93-37.12,0-37.12Z" style="fill: #c5832a; stroke-width: 0px;"/>
  <path d="M1121.87,1339c-23.89,0-23.93,37.12,0,37.12s23.93-37.12,0-37.12Z" style="fill: #c5832a; stroke-width: 0px;"/>
  <path d="M984.47,1033.39c-23.89,0-23.93,37.12,0,37.12s23.93-37.12,0-37.12Z" style="fill: #c5832a; stroke-width: 0px;"/>
  <path d="M1491.89,884.06c-23.89,0-23.93,37.12,0,37.12s23.93-37.12,0-37.12Z" style="fill: #c5832a; stroke-width: 0px;"/>
  <path d="M1697.86,939.02c-23.89,0-23.93,37.12,0,37.12s23.93-37.12,0-37.12Z" style="fill: #c5832a; stroke-width: 0px;"/>
  <path d="M1679.93,708.15c-23.89,0-23.93,37.12,0,37.12s23.93-37.12,0-37.12Z" style="fill: #c5832a; stroke-width: 0px;"/>
  <path d="M508.91,1625.6c-.88-3.14-2.47-5.87-4.77-8.19-1.25-.97-2.5-1.93-3.76-2.9-2.9-1.68-6.02-2.52-9.37-2.53h-3.03c-2.56-.1-4.94.44-7.15,1.6-2.3.75-4.29,2.03-5.97,3.84-1.81,1.68-3.09,3.67-3.84,5.97-1.16,2.21-1.7,4.6-1.6,7.15.22,1.64.44,3.29.66,4.93.88,3.14,2.47,5.87,4.77,8.19,1.25.97,2.5,1.93,3.76,2.9,2.89,1.68,6.02,2.52,9.37,2.53h3.03c2.56.1,4.94-.44,7.15-1.6,2.3-.75,4.29-2.03,5.97-3.84,1.81-1.68,3.09-3.67,3.84-5.97,1.16-2.21,1.69-4.6,1.6-7.15-.22-1.64-.44-3.29-.66-4.93Z" style="fill: #c5832a; stroke-width: 0px;"/>
  <path d="M610.29,1574.95c-3.63-3.33-8.1-5.44-13.12-5.44h-6.07c-4.76,0-9.76,2.07-13.12,5.44-1.81,1.68-3.09,3.67-3.84,5.97-1.16,2.21-1.7,4.6-1.6,7.15.22,4.8,1.79,9.78,5.44,13.12,3.63,3.33,8.1,5.44,13.12,5.44h6.07c4.76,0,9.76-2.07,13.12-5.44,1.81-1.68,3.09-3.67,3.84-5.97,1.16-2.21,1.7-4.6,1.6-7.15-.22-4.8-1.79-9.78-5.44-13.12Z" style="fill: #c5832a; stroke-width: 0px;"/>
  <path d="M1249.25,1429.87c-16.24,0-16.27,25.24,0,25.24s16.27-25.24,0-25.24Z" style="fill: #c5832a; stroke-width: 0px;"/>
  <path d="M1528.28,947.63c-16.24,0-16.27,25.24,0,25.24s16.27-25.24,0-25.24Z" style="fill: #c5832a; stroke-width: 0px;"/>
  <path d="M1245.15,1051.3c-16.24,0-16.27,25.24,0,25.24s16.27-25.24,0-25.24Z" style="fill: #c5832a; stroke-width: 0px;"/>
  <path d="M566.83,1623.98c-16.24,0-16.27,25.24,0,25.24s16.27-25.24,0-25.24Z" style="fill: #c5832a; stroke-width: 0px;"/>
  <path d="M709.38,1511.76c-16.24,0-16.27,25.24,0,25.24s16.27-25.24,0-25.24Z" style="fill: #c5832a; stroke-width: 0px;"/>
  <path d="M1260.93,991.82c-16.24,0-16.27,25.24,0,25.24s16.27-25.24,0-25.24Z" style="fill: #c5832a; stroke-width: 0px;"/>
  <path d="M1239.49,960.25c-16.24,0-16.27,25.24,0,25.24s16.27-25.24,0-25.24Z" style="fill: #c5832a; stroke-width: 0px;"/>
  <path d="M356.45,1218.31c-2.84,2.72-7.25-.89-5.05-4.16,5.07-7.56,10.79-14.74,16.94-21.52,12.18-13.44,26.26-25.11,41.19-35.41,29.99-20.52,63.47-35.35,97.89-45.9,34.48-10.51,70.09-16.78,105.81-19.04,17.86-1.11,35.76-1.27,53.57-.32,9.04.5,18.06,1.24,27.04,2.31,3.91.46,3.85,6.16-.07,6.55-26.46,2.62-52.57,5.74-78.43,10.07-34.28,5.62-68.06,13.21-100.98,23.21-32.89,10.05-64.98,22.55-95.02,39-22.65,12.32-43.96,27.08-62.89,45.22h0Z" style="fill: #f7a29d; stroke-width: 0px;"/>
  <path d="M1032.12,579.86c-2.84,2.72-7.25-.89-5.05-4.16,5.07-7.56,10.79-14.74,16.94-21.52,12.18-13.44,26.26-25.11,41.19-35.41,29.99-20.52,63.47-35.35,97.89-45.9,34.48-10.51,70.09-16.78,105.81-19.04,17.86-1.11,35.76-1.27,53.57-.32,9.04.5,18.06,1.24,27.04,2.31,3.91.46,3.85,6.16-.07,6.55-26.46,2.62-52.57,5.74-78.43,10.07-34.28,5.62-68.06,13.21-100.98,23.21-32.89,10.05-64.98,22.55-95.02,39-22.65,12.32-43.96,27.08-62.89,45.22h0Z" style="fill: #f7a29d; stroke-width: 0px;"/>
  <path d="M1258.08,1212.7c-2.84,2.72-7.25-.89-5.05-4.16,5.07-7.56,10.79-14.74,16.94-21.52,12.18-13.44,26.26-25.11,41.19-35.41,29.99-20.52,63.47-35.35,97.89-45.9,34.48-10.51,70.09-16.78,105.81-19.04,17.86-1.11,35.76-1.27,53.57-.32,9.04.5,18.06,1.24,27.04,2.31,3.91.47,3.85,6.16-.07,6.55-26.46,2.62-52.57,5.74-78.43,10.07-34.28,5.62-68.06,13.21-100.98,23.21-32.89,10.05-64.98,22.55-95.02,39-22.65,12.32-43.96,27.08-62.89,45.22h0Z" style="fill: #f7a29d; stroke-width: 0px;"/>
  <path d="M1298.53,538.23c-19.11,0-19.14,29.7,0,29.7s19.14-29.7,0-29.7Z" style="fill: #a21e21; stroke-width: 0px;"/>
  <path d="M1214.37,567.8c-19.11,0-19.14,29.7,0,29.7s19.14-29.7,0-29.7Z" style="fill: #a21e21; stroke-width: 0px;"/>
  <path d="M488.74,1202.44c-19.11,0-19.14,29.7,0,29.7s19.14-29.7,0-29.7Z" style="fill: #a21e21; stroke-width: 0px;"/>
  <path d="M597.92,1241.11c-19.11,0-19.14,29.7,0,29.7s19.14-29.7,0-29.7Z" style="fill: #a21e21; stroke-width: 0px;"/>
  <path d="M625.22,1193.34c-19.11,0-19.14,29.7,0,29.7s19.14-29.7,0-29.7Z" style="fill: #a21e21; stroke-width: 0px;"/>
  <path d="M1450.94,1220.64c-19.11,0-19.14,29.7,0,29.7s19.14-29.7,0-29.7Z" style="fill: #a21e21; stroke-width: 0px;"/>
  <path d="M1507.81,1154.67c-19.11,0-19.14,29.7,0,29.7s19.14-29.7,0-29.7Z" style="fill: #a21e21; stroke-width: 0px;"/>
  <path d="M1171.15,538.13c-13.38,0-13.4,20.79,0,20.79s13.4-20.79,0-20.79Z" style="fill: #a21e21; stroke-width: 0px;"/>
  <path d="M1253.04,579.03c-10.51,0-10.53,16.33,0,16.33s10.53-16.33,0-16.33Z" style="fill: #a21e21; stroke-width: 0px;"/>
  <path d="M575.18,1165.91c-10.51,0-10.53,16.33,0,16.33s10.53-16.33,0-16.33Z" style="fill: #a21e21; stroke-width: 0px;"/>
  <path d="M1387.25,1175c-10.51,0-10.53,16.33,0,16.33s10.53-16.33,0-16.33Z" style="fill: #a21e21; stroke-width: 0px;"/>
  <path d="M1448.67,1181.83c-10.51,0-10.53,16.33,0,16.33s10.53-16.33,0-16.33Z" style="fill: #a21e21; stroke-width: 0px;"/>
  <path d="M243.44,2123.97c3.34.39,3.59,4.38.27,4.8-.11.01-.21.03-.32.04-3.11.31-6.39.35-9.67-.16-3.27-.51-6.51-1.49-9.54-2.84-2.98-1.41-5.69-3.18-8.14-5.15-2.39-1.99-4.45-4.2-6.3-6.48-3.62-4.59-6.19-9.55-8.15-14.55-3.81-10.04-5.17-20.33-5.17-30.46-.03-2.52.11-5.11.3-7.52.18-2.44.33-4.9.59-7.32.49-4.86,1.16-9.66,1.83-14.44,2.91-19.11,7.07-37.71,11.23-56.32l6.36-27.93c1.11-4.76,2.17-9.53,3.28-14.32.63-2.73,5.43-2.49,5.77.29,1.82,14.59,1.82,29.27,1.03,43.79-1.14,19.24-3.91,38.29-6.79,56.97-.75,4.67-1.43,9.33-2.05,13.96-.69,4.62-1.24,9.28-1.64,13.68-.72,8.91-.5,17.88,1.25,26.48,1.85,8.48,5.23,16.87,12.32,22.29,1.78,1.34,3.8,2.43,6.04,3.34,2.24.92,4.74,1.43,7.35,1.84.05,0,.11.01.16.02h-.01Z" style="fill: #fbe599; stroke-width: 0px;"/>
  <path d="M1996.18,1079.26c-64.71-27.13-139.63-41.23-204.34-14.1l10.22-79.42c71.05-17.95,135.19-16.34,194.12,0v93.52Z" style="fill: #68be60; stroke-width: 0px;"/>
  <path d="M1996.18,1089.66c-1.36,0-2.73-.27-4.02-.81-52.45-21.99-129.08-42.29-196.3-14.1-3.43,1.44-7.36.93-10.32-1.32s-4.49-5.91-4.01-9.6l10.22-79.42c.55-4.23,3.62-7.71,7.76-8.75,69.18-17.48,136.28-17.45,199.44.06,4.5,1.25,7.62,5.35,7.62,10.02v93.52c0,3.48-1.74,6.73-4.64,8.65-1.73,1.15-3.74,1.74-5.76,1.74h.01ZM1868.33,1040.18c42.43,0,83.63,10.9,117.46,23.74v-70.19c-55.97-14.19-113.15-14.05-174.33.41l-7.13,55.4c21.12-6.62,42.71-9.36,64-9.36Z" style="fill: #340d3b; stroke-width: 0px;"/>
  <path d="M788.3,1518c59.22-26.02,116.22-67.14,139.17-127.61l46.59,57.26c-33.12,58.89-74.92,100.73-123.26,129.74l-62.51-59.39h.01Z" style="fill: #68be60; stroke-width: 0px;"/>
  <path d="M850.81,1587.78c-2.6,0-5.18-.97-7.16-2.86l-62.51-59.39c-2.52-2.4-3.68-5.9-3.08-9.32.6-3.43,2.87-6.33,6.06-7.73,47.86-21.03,109.89-59.23,133.64-121.79,1.32-3.47,4.39-5.98,8.06-6.57s7.37.82,9.72,3.7l46.59,57.26c2.7,3.31,3.09,7.93,1,11.66-32.32,57.46-75.04,102.39-126.97,133.56-1.66,1-3.51,1.48-5.35,1.48ZM806.57,1521.02l45.6,43.32c44.52-28.2,80.39-66.15,109.34-115.67l-31.35-38.53c-26.95,53.95-78.87,89.21-123.58,110.88h0Z" style="fill: #340d3b; stroke-width: 0px;"/>
  <path d="M901.27,912.91c59.51-21.38,126.72-28.91,180.89,3.7l-1.16-79.92c-60.65-24.03-117.16-28-170.53-16.85l-9.2,93.07h0Z" style="fill: #68be60; stroke-width: 0px;"/>
  <path d="M1082.16,927.01c-1.86,0-3.71-.5-5.36-1.49-55.56-33.45-124.21-20-172.02-2.83-3.36,1.2-7.09.61-9.91-1.58-2.81-2.19-4.3-5.67-3.95-9.22l9.2-93.07c.45-4.52,3.77-8.22,8.22-9.15,57.64-12.04,117.01-6.2,176.48,17.36,3.91,1.55,6.5,5.31,6.56,9.51l1.16,79.92c.06,3.77-1.94,7.28-5.21,9.16-1.61.92-3.39,1.38-5.18,1.38h0ZM997.06,884.13c24.92,0,50.35,4.22,74.45,15.16l-.81-55.43c-51.49-19.28-100.92-24.3-150.66-15.31l-6.86,69.39c25.08-7.8,54.1-13.83,83.87-13.83v.02Z" style="fill: #340d3b; stroke-width: 0px;"/>
  <path d="M1603.15,928.01c-25.66-52.33-64.83-102.1-120.14-120.49l49.79-44.11c54.27,27.6,93.52,63.65,121.46,106.08l-51.11,58.52h0Z" style="fill: #68be60; stroke-width: 0px;"/>
  <path d="M1603.15,938.4c-.45,0-.9-.03-1.36-.09-3.45-.45-6.44-2.6-7.97-5.73-20.65-42.12-57.21-96.29-114.09-115.2-3.53-1.17-6.16-4.14-6.9-7.78-.75-3.64.51-7.4,3.29-9.87l49.79-44.11c3.2-2.83,7.8-3.42,11.6-1.48,53.11,27.01,95.31,63.89,125.43,109.63,2.57,3.9,2.22,9.04-.85,12.55l-51.11,58.52c-1.99,2.28-4.85,3.56-7.83,3.56h0ZM1502.56,804.09c48.52,22.32,81.72,66.67,102.82,105.57l35.78-40.97c-26.79-38.39-61.85-68.83-106.81-92.76l-31.79,28.16Z" style="fill: #340d3b; stroke-width: 0px;"/>
</svg>