<?xml version="1.0" encoding="UTF-8"?>
<svg id="Layer_1" data-name="Layer 1" xmlns="http://www.w3.org/2000/svg" viewBox="0 0 1885.78 1170.94">
  <path d="M1856.45,652.72c-18.79-44.42-45.68-84.31-79.93-118.56-34.25-34.25-74.14-61.14-118.56-79.93-37.09-15.69-76.03-25.14-116.11-28.22-2.87-28.06-9.87-55.34-20.9-81.43-14.35-33.93-34.89-64.4-61.05-90.55-26.16-26.16-56.62-46.69-90.55-61.05-35.14-14.86-72.46-22.4-110.91-22.4-45.46,0-89.73,10.7-129.69,31.17-38.01-56.55-88.45-104.2-147.3-138.9C911.7,21.73,831.82,0,750.43,0c-61.48,0-121.13,12.05-177.31,35.81-54.24,22.94-102.95,55.78-144.78,97.6-41.82,41.82-74.66,90.53-97.6,144.78-20.85,49.29-32.68,101.27-35.27,154.8-78.28,16.59-149.57,58.21-202.89,118.96-29.23,33.3-52.08,71.08-67.9,112.27C8.31,706.87,0,751.85,0,797.92c0,50.34,9.87,99.2,29.33,145.2,18.79,44.42,45.68,84.31,79.93,118.56,34.25,34.25,74.14,61.14,118.56,79.93,46.01,19.46,94.86,29.33,145.2,29.33h1139.75c50.34,0,99.2-9.87,145.2-29.33,44.42-18.79,84.31-45.68,118.56-79.93,34.25-34.25,61.14-74.14,79.93-118.56,19.46-46.01,29.33-94.86,29.33-145.2s-9.87-99.2-29.33-145.2ZM1512.76,1109.75H373.01c-171.94,0-311.83-139.89-311.83-311.83,0-154.84,115.46-287.62,268.56-308.85,15.22-2.11,26.51-15.18,26.39-30.54v-.85c-.01-.73-.02-1.46-.02-2.19,0-217.42,176.89-394.31,394.31-394.31,140.36,0,271.25,75.57,341.6,197.23,4.22,7.3,11.26,12.53,19.46,14.46,8.2,1.93,16.84.4,23.87-4.24,36.53-24.11,79.09-36.86,123.07-36.86,123.36,0,223.73,100.36,223.73,223.73,0,16.9,13.7,30.59,30.59,30.59,171.94,0,311.83,139.89,311.83,311.83s-139.89,311.83-311.83,311.83Z" style="fill: #3c3c3b;"/>
  <path d="M1111.88,813.99c-22.43-22.43-48.55-40.04-77.64-52.34-30.14-12.75-62.13-19.21-95.1-19.21s-64.96,6.46-95.1,19.21c-29.09,12.31-55.22,29.92-77.64,52.34s-40.04,48.55-52.34,77.64c-12.75,30.14-19.21,62.13-19.21,95.1,0,16.9,13.7,30.59,30.59,30.59s30.59-13.7,30.59-30.59c0-100.97,82.14-183.11,183.11-183.11s183.11,82.14,183.11,183.11c0,16.9,13.7,30.59,30.59,30.59s30.59-13.7,30.59-30.59c0-32.97-6.46-64.96-19.21-95.1-12.31-29.09-29.92-55.22-52.34-77.64Z" style="fill: #3c3c3b;"/>
  <path d="M808.29,635.16c5.97,5.97,13.8,8.96,21.63,8.96s15.66-2.99,21.63-8.96c11.95-11.95,11.95-31.32,0-43.26l-59.67-59.67,59.67-59.67c11.95-11.95,11.95-31.32,0-43.26-11.95-11.95-31.32-11.95-43.26,0l-59.67,59.67-59.67-59.67c-11.95-11.95-31.32-11.95-43.26,0-11.95,11.95-11.95,31.32,0,43.26l59.67,59.67-59.67,59.67c-11.95,11.95-11.95,31.32,0,43.26,5.97,5.97,13.8,8.96,21.63,8.96s15.66-2.99,21.63-8.96l59.67-59.67,59.67,59.67Z" style="fill: #3c3c3b;"/>
  <path d="M1240.08,429.3c-11.95-11.95-31.32-11.95-43.26,0l-59.67,59.67-59.67-59.67c-11.95-11.95-31.32-11.95-43.26,0-11.95,11.95-11.95,31.32,0,43.26l59.67,59.67-59.67,59.67c-11.95,11.95-11.95,31.32,0,43.26,5.97,5.97,13.8,8.96,21.63,8.96s15.66-2.99,21.63-8.96l59.67-59.67,59.67,59.67c5.97,5.97,13.8,8.96,21.63,8.96s15.66-2.99,21.63-8.96c11.95-11.95,11.95-31.32,0-43.26l-59.67-59.67,59.67-59.67c11.95-11.95,11.95-31.32,0-43.26Z" style="fill: #3c3c3b;"/>
</svg>