<?xml version="1.0" encoding="UTF-8"?>
<svg id="Layer_1" data-name="Layer 1" xmlns="http://www.w3.org/2000/svg" viewBox="0 0 2279.48 1950.91">
  <g>
    <path d="M138.4,1591.82c-13.48,13.09-82.27,100.6-82.27,100.6l-18.18,100.6h68.51s249.27-43.3,244.76-57.13-45.08-26.64-45.08-26.64l-82.01-35.41-54.63-43.58-31.09-38.43h-.01Z" style="fill: #ffcd5d; stroke-width: 0px;"/>
    <polygon points="801 1573.66 955.17 1455.87 1094.86 1442.17 1298.9 1382.59 1354.2 1331.52 1506.77 1358.12 1620.77 1362.47 1473.97 1391.13 779.22 1611.66 801 1573.66" style="fill: #ffcd5d; stroke-width: 0px;"/>
    <polygon points="2038.01 1180.27 2160.59 1005.76 2227.09 1098.92 2196.66 1147.69 2038.01 1180.27" style="fill: #ffcd5d; stroke-width: 0px;"/>
    <polygon points="28.17 1766.78 28.17 1908 56.18 1933.38 448.56 1839.53 1535.42 1492.54 2240.52 1267.56 2227.09 1128.23 2010.56 1198.98 1907.18 1284.86 1779.48 1347.13 1659.01 1434.24 1626.83 1401.81 1607.69 1347.13 1506.77 1376.85 748.07 1613.17 537.16 1705.1 389.98 1726.6 242.08 1769.02 106.45 1793.02 28.17 1766.78" style="fill: #d88d4a; stroke-width: 0px;"/>
    <path d="M108.77,1637.25s42.92,123.23,105.19,118.96c62.27-4.27,154.08-29.36,154.08-29.36l-164.39-57.02-65.25-78.01s-29.63,45.43-29.63,45.43Z" style="fill: #e0ad47; stroke-width: 0px;"/>
    <path d="M2177.69,1038.86s-20.41,119.04-63.16,125.7c-42.76,6.67-54.42,7.5-54.42,7.5l54.42-90.44,34.43-67.51,28.74,24.75h-.01Z" style="fill: #e0ad47; stroke-width: 0px;"/>
    <path d="M779.22,1591.82l175.95-135.95,119.56-13.5s108.01-24.42,125.27-30.18,154.2-80.67,154.2-80.67c0,0,181.79,29.43,190.23,29.72,8.43.29-211.35,73-211.35,73l-553.85,177.42v-19.84h-.01Z" style="fill: #e0ad47; stroke-width: 0px;"/>
    <path d="M213.96,1756.21s117.79,130.23,154.08,117.42c36.29-12.81,1664.73-546.6,1664.73-546.6l107.11-167.68-119.35,39.63-113.34,85.88-127.71,62.27-120.46,87.11-32.18-32.44-20.49-32.54-99.57,7.59-823.82,260.41-145.79,89.6-194.74-4.8-128.46,34.16h-.01Z" style="fill: #bf7436; stroke-width: 0px;"/>
    <path d="M1552.86,1361.53h-.04c-273.7,91.15-587.33,193.58-856.92,275.72" style="fill: none; stroke: #651a27; stroke-miterlimit: 10; stroke-width: 35px;"/>
    <path d="M2156.79,990.3c18.19,41.04,47.41,73.5,57.32,94.54,11.64,24.75-.83,54.11-26.77,62.87-39.23,13.19-100.05,33.87-176.75,59.84h-.04" style="fill: none; stroke: #651a27; stroke-miterlimit: 10; stroke-width: 35px;"/>
    <path d="M138.4,1591.82s-148.26,135.03-84.56,195.85c18.37,17.55,148.18-9.48,336.14-61.07" style="fill: none; stroke: #651a27; stroke-miterlimit: 10; stroke-width: 35px;"/>
    <path d="M44.04,1718.53s-55.43,127.67-6.09,209.55c41.13,68.25,1784.54-539.91,2139.75-643.22,40.81-11.87,59.24-19.24,61.95-61.66,2.68-42,.2-93.43-21.15-128.17" style="fill: none; stroke: #651a27; stroke-miterlimit: 10; stroke-width: 35px;"/>
  </g>
  <g>
    <g>
      <path d="M119.21,1446.58s19.3,158.96,50.28,183.67c30.98,24.71,115.29,78.99,115.29,78.99l160.12,8.54,123.44-25.36,179.73-79.25,175.07-141.58-174-37.35-227.96,147.15-139.26,88.44-45.9-67.34-104.68-124.34-112.13-31.58h0Z" style="fill: #f7b8ba; stroke-width: 0px;"/>
      <path d="M150.88,1442.92s37.82,549.53,780.8,12.95l-35.24,48.65s-240.17,168.07-246.58,165.31c-6.4-2.75-182.55,55.3-182.55,55.3,0,0-137.23-3.86-144.1,0-6.87,3.86-128.61-66.11-128.61-66.11,0,0-50.67-96.5-56.87-106.98s-28.97-124.1-28.97-124.1l42.11,14.98h0Z" style="fill: #fcd7d9; stroke-width: 0px;"/>
      <path d="M896.44,1493.18s-170.66-20.74-426.57,121.14l131.95-84.15,113.81-74.3,98.68-18.42,108.83,17.69-26.7,38.04h0Z" style="fill: #d69297; stroke-width: 0px;"/>
      <path d="M120.93,1420.47s-36.83,254.61,225.77,301.58c262.6,46.97,608.47-266.18,608.47-266.18" style="fill: none; stroke: #651a27; stroke-miterlimit: 10; stroke-width: 35px;"/>
    </g>
    <g>
      <path d="M1373.77,1320.98l78.27-53.42,141.15,63.96s41.35,35.93,32.36,36.12-98.21-4.91-98.21-4.91l-153.57-41.75h0Z" style="fill: #f7b8ba; stroke-width: 0px;"/>
      <path d="M1817.1,1327.04c-6.14-3.72,69.44-185.01,69.44-185.01l274.05-173.69-14.22,85.23-86.26,118.49-197.07,145.36-45.94,9.61h0Z" style="fill: #f7b8ba; stroke-width: 0px;"/>
      <path d="M1373.77,1320.98c9.33-6.37,80.06-55.31,85.08-60.62,5.02-5.3,144.98,77.75,144.98,77.75,0,0,11.05,35.96,2.51,31.15-8.54-4.82-225.96-42.22-225.96-42.22l-6.61-6.05h0Z" style="fill: #d69297; stroke-width: 0px;"/>
      <path d="M1849.99,1267.56c16.82-8.8,189.76-112.01,244.36-182.73,0,0-123.47,167.03-129.87,171.28s-118.71,58.69-118.71,58.69h-26.51l30.73-54.44v7.2h0Z" style="fill: #d69297; stroke-width: 0px;"/>
      <path d="M2159.82,957.26c11.17,52.38-99.26,264.66-312.22,359.13-19.42,8.61-39.41,15.82-59.7,21.72" style="fill: none; stroke: #651a27; stroke-miterlimit: 10; stroke-width: 35px;"/>
      <path d="M1354.2,1331.52s122.21,34.59,266.57,30.95" style="fill: none; stroke: #651a27; stroke-miterlimit: 10; stroke-width: 35px;"/>
    </g>
  </g>
  <g>
    <g>
      <polygon points="231.35 1463.92 381.92 1669.83 601.83 1530.18 749.14 1434.24 682.96 1391.81 548.45 1463.72 282.65 1478.16 231.35 1463.92" style="fill: #fdbf22; stroke-width: 0px;"/>
      <path d="M682.96,1391.81s-339.08,276.34-301.03,278.03c10.14.45,168.2-112.9,178.04-113.07,9.84-.17,206.74-111.5,201.93-119.78s-78.94-45.17-78.94-45.17h0Z" style="fill: #d8a128; stroke-width: 0px;"/>
      <path d="M323.21,1530.82s55.42,60.65,55.73,80.84,77.17-80.86,77.17-80.86l-132.9.02Z" style="fill: #ffdb93; stroke-width: 0px;"/>
      <path d="M224.12,1464.41s116.86,132.31,148.8,194.78c5.49,10.74,19.34,13.94,29.11,6.86,76.38-55.37,335.44-240.25,377.19-231.51" style="fill: none; stroke: #651a27; stroke-miterlimit: 10; stroke-width: 35px;"/>
    </g>
    <g>
      <path d="M1444.79,1266.07l156.21,65.45,38.13,88.95,69.16-14.4s103.87-97.7,109.26-105.97,47.94-163.18,47.94-163.18l-155.6,13.39-148.92-35.66-38.43,56.04-77.75,95.38h0Z" style="fill: #fdbf22; stroke-width: 0px;"/>
      <path d="M1447.81,1256.11s342.92-18.95,427.93-96.75h-179.73l-143.15-57.59-30.19,91.13-70.62,74.67-4.23-11.45h-.01Z" style="fill: #d8a128; stroke-width: 0px;"/>
      <path d="M1612.21,1286.09s54.29,57.52,49.56,90.51c-4.73,32.98,137.78-89.33,136.18-113.57-1.6-24.25-185.74,23.07-185.74,23.07h0Z" style="fill: #ffdb93; stroke-width: 0px;"/>
      <path d="M1437.97,1265.15c1.66-1.49,195.03,35.43,198.45,146.71.35,11.23,11.36,18.95,21.9,15.06,54.76-20.22,187.97-89.28,221.73-289.99" style="fill: none; stroke: #651a27; stroke-miterlimit: 10; stroke-width: 35px;"/>
    </g>
  </g>
  <g>
    <path d="M125.24,1270.7s-36.6,120.62-6.09,146.14c30.51,25.53,156.02,60.8,163.49,61.31,7.47.51,314.91-27.25,314.91-27.25l98.34-61.91,83.32,45.55s276.29,23.09,279.49,21.33,295.48-114.22,295.48-114.22l181.22-191.34v-55.28l131.12,50.6,161.84,9.63,249.17-123.15,100.14-106.41-17.1-154.84-46.07,5.39-76.51,66.55-98.62,10.31-89.67,73.66-117.42-12.81-136.64,81.13-108.18-30.96-121.33,78.99-133.45-12.26-157.98,97.36-119.56-23.14-175.95,108.44-169.43-20.64-166.48,67.48-160.66-37.29-88.04,69.31-69.36-21.69h.02Z" style="fill: #c93029; stroke-width: 0px;"/>
    <path d="M252.76,1245.95s235.82,147.94,357.03-53.06l-143.53,61.6-105.36-8.84-78.24-22.57-29.89,22.87h0Z" style="fill: #8d201f; stroke-width: 0px;"/>
    <path d="M693.66,1184.06s38.48,9.67,108.27,15.31c188.6,15.24,451.57-11.21,737.16-237.99l-162.44,65.39s-127.19-1.01-140.7-3.15-138.77,95.77-138.77,95.77l-122.76-29.3-193.3,118.18-87.45-24.22h0Z" style="fill: #8d201f; stroke-width: 0px;"/>
    <path d="M1595.66,995.09s318.56,7.36,564.93-224.23l-150.03,82.66-96.78,3.86-57.22,70.24-124.25-13.66-136.64,81.13h-.01Z" style="fill: #8d201f; stroke-width: 0px;"/>
    <ellipse cx="944.31" cy="1183.12" rx="47.87" ry="33.03" style="fill: #e96665; isolation: isolate; opacity: .47; stroke-width: 0px;"/>
    <ellipse cx="1320.25" cy="1064.7" rx="60.13" ry="41.49" style="fill: #e96665; isolation: isolate; opacity: .47; stroke-width: 0px;"/>
    <ellipse cx="1880.06" cy="968.34" rx="30.06" ry="20.75" style="fill: #e96665; stroke-width: 0px;"/>
    <ellipse cx="420.05" cy="1299.05" rx="30.06" ry="20.75" style="fill: #e96665; stroke-width: 0px;"/>
    <ellipse cx="599.39" cy="1217.29" rx="30.06" ry="20.75" style="fill: #e96665; isolation: isolate; opacity: .47; stroke-width: 0px;"/>
    <ellipse cx="1134.35" cy="1211.66" rx="41.35" ry="28.54" style="fill: #e96665; stroke-width: 0px;"/>
    <ellipse cx="294.11" cy="1256.11" rx="41.35" ry="28.54" style="fill: #e96665; isolation: isolate; opacity: .47; stroke-width: 0px;"/>
    <ellipse cx="1974.25" cy="874.74" rx="41.35" ry="28.54" style="fill: #e96665; isolation: isolate; opacity: .47; stroke-width: 0px;"/>
    <ellipse cx="1736.44" cy="968.34" rx="29.5" ry="19.59" style="fill: #e96665; isolation: isolate; opacity: .47; stroke-width: 0px;"/>
    <path d="M515.65,1394.14c-.48,11.09-66.3,43.4-127.26,40.74-60.96-2.66-124.56-43.44-124.08-54.54s64.87,11.7,125.83,14.36c60.96,2.66,126-11.66,125.51-.57h0Z" style="fill: #e96665; stroke-width: 0px;"/>
    <polygon points="1570.66 987.93 1586.25 1114.65 1538.09 1106.19 1522.67 974.2 1570.66 987.93" style="fill: #8d201f; stroke-width: 0px;"/>
    <path d="M631.66,1298.41l16.61,107.77s47.56-11.18,45.4-28.86c-2.16-17.68-10.71-121.21-10.71-121.21l-51.3,42.3h0Z" style="fill: #8d201f; stroke-width: 0px;"/>
    <path d="M698.2,1375.55c-125.12,152.29-545.25,106.35-577.28,44.93-32.57-62.44,0-146.24,0-146.24,0,0,277.56,191.09,573.78-13.87" style="fill: none; stroke: #651a27; stroke-miterlimit: 10; stroke-width: 35px;"/>
    <path d="M695.9,1216.15s-14.14,21.14-12.84,44.21c.99,17.59,9.34,37.82,35.66,54.44,60.85,38.43,711.44,41.95,788.05-345.71" style="fill: none; stroke: #651a27; stroke-miterlimit: 10; stroke-width: 35px;"/>
    <path d="M682.96,1287.49l18.12,104.7c2.06,11.92,10.41,21.75,21.82,25.76,89.07,31.26,481.12,139.16,803.45-244.86,8.85-10.55,12.97-24.31,11.42-37.99l-17.93-156.71" style="fill: none; stroke: #651a27; stroke-miterlimit: 10; stroke-width: 35px;"/>
    <path d="M1565.32,986.99s123.75,135.67,368.74,10.77c244.99-124.9,228.98-214.57,228.98-214.57l14.21,121.39c2.26,19.28-4.15,38.54-17.44,52.68-72.23,76.84-323.86,305.86-624.38,137.77" style="fill: none; stroke: #651a27; stroke-miterlimit: 10; stroke-width: 35px;"/>
  </g>
  <g>
    <polygon points="122.52 1109.31 67.84 1180.27 108.77 1267.3 182.14 1282.43 282.65 1223.08 415.28 1260.37 537.16 1216.85 605.03 1180.27 758.67 1217.11 872.29 1147.69 933.74 1109.31 1074.73 1128.23 1200 1030.32 1364.94 1033.07 1471.84 969.1 1587.82 1005.76 1714.49 927.62 1856.55 927.62 1954.91 848.85 2057.89 835.89 2132.55 776.39 2240.52 765.7 2256.3 686.99 2197.73 603.32 2132.55 610.94 2114.52 678.04 501.67 1093.02 293.95 1121.52 122.52 1109.31" style="fill: #55b948; stroke-width: 0px;"/>
    <path d="M122.52,1109.31l10.5,83.34c2.64,20.96,25.05,33.16,44.09,24l21.08-10.14c35.25-16.95,75.35-20.97,113.26-11.35l66.29,16.82c28.01,7.11,57.69,3.01,82.73-11.42l61.42-35.41c31.6-18.22,68.69-24.5,104.53-17.72l93.18,17.65c24.26,4.6,49.35-1.04,69.31-15.57l74.92-54.51c32.56-23.69,73.07-33.8,112.94-28.17l61.32,8.65c27.36,3.86,55.07-4.22,76.07-22.17l28.43-24.31c28.94-24.75,66.68-36.7,104.6-33.13l63.89,6.02c26.28,2.48,52.46-5.71,72.64-22.73l20-16.86c31.99-26.96,75.11-36.62,115.54-25.89l39.6,10.51c24.4,6.48,50.41,1.09,70.23-14.54,34.06-26.86,85.29-46.97,91.2-47.52,7.66-.71,55.2-12.83,86.81-8.17,17.66,2.61,35.57-2.53,49.18-14.07l40.97-34.74c23.07-19.56,52.33-30.3,82.58-30.3h15.63c24.09,0,47.4-8.53,65.81-24.07l19.2-16.22c36.12-30.51,81.87-47.25,129.15-47.25h42.05l-11.15,55.63-104.12,17.49-98.39,70.48-98.62-.56-82.84,74.51-124.25-13.66-119.39,76.33-125.43-26.16-122.54,68.94-137.56,4.72-141.98,90.44-133.44-29.3s-140.19,90.95-140.02,94.43c.18,3.49-62.81,21.47-62.81,21.47l-151.98-16.82-153.86,62.36-160.66-37.29-88.04,55.22-106.78-10.74-28.82-69.65,63.52-88.6v.03Z" style="fill: #81c452; stroke-width: 0px;"/>
    <path d="M134.99,1114.65c2.64,2.95,53.12,43.07,119.37,44.7s1818.88-324.92,1878.19-497.85l-65.59,32.02-1676.98,421.13h-254.99,0Z" style="fill: #2db34a; stroke-width: 0px;"/>
    <path d="M122.52,1109.31s-113.28,93.77-13.75,157.99c55.63,35.9,99.46,10.07,126.48-17.97,22.56-23.42,56.84-31.21,87.03-19.13l51.95,20.78c39.21,15.68,83.47,12.38,119.91-8.96l42.59-24.93c47.35-27.72,104.55-32.99,156.17-14.41l24.26,8.73c33.72,12.14,71.35,5.57,98.96-17.27l75.45-62.4c28.04-23.19,65.14-32.3,100.73-24.72l62.59,13.33c23.13,4.93,47.21-1.78,64.46-17.96l30.2-28.32c39.94-37.45,96-52.35,149.26-39.68h0c43.93,10.45,90.15-2.32,122.47-33.84h0c31.97-31.18,79.44-40.32,120.7-23.24l23.34,9.66c20.16,8.34,43.22,5.52,60.77-7.43l30.97-22.85c45.1-33.27,102.38-45.44,157.11-33.38h0c24.43,5.38,49.82-3.43,65.66-22.79l6.02-7.36c28.12-34.37,71.56-52.4,115.76-48.06l1.25.12c36.26,3.57,71.83-11.68,94.25-40.41l3.47-4.45c17.71-22.69,46.62-33.58,74.9-28.22l21.3,4.04c34.29,6.5,65.66-20.18,65.19-55.07-.67-48.99-33.61-108.89-118.93-117.83" style="fill: none; stroke: #651a27; stroke-miterlimit: 10; stroke-width: 35px;"/>
  </g>
  <g>
    <polygon points="138.39 974.81 607.17 501.55 955.17 208.35 1201.93 40.05 1256.2 17.5 1401.04 51.1 1737.79 257.56 2103.79 515.8 2084.29 560.09 1821.67 644.16 896.15 896.52 318.94 1014.11 180.04 1012.48 138.39 974.81" style="fill: #ffcd5d; stroke-width: 0px;"/>
    <polygon points="138.39 974.81 106.45 1057 138.39 1121.52 356.65 1113.36 1144.65 957.26 1787.9 755.97 1982.57 711.14 2103.79 670.38 2136.41 622.53 2103.79 524.44 2071.77 567.02 1685.87 674.31 689.17 944.09 316.81 1004.16 180.04 1012.48 138.39 974.81" style="fill: #d88d4a; stroke-width: 0px;"/>
    <path d="M1392.84,73.84s781.57,492.42,559.37,516.28l132.08-30.04,4.01-44.28L1552.86,125.08l-200.69-80.3,40.67,29.06Z" style="fill: #e0ad47; stroke-width: 0px;"/>
    <path d="M1974.25,594.14s-13.5,107.39-41.25,126.61l179.62-63.3,19.94-46.5-28.76-61-129.55,44.19h0Z" style="fill: #bf7436; stroke-width: 0px;"/>
    <path d="M1292.5,17.5S146.97,957.26,231.35,957.26c70.52,0,245.58,11.08,245.58,11.08l-125.66,30.26-147.62,15.51-48.14-23.82s-10.58-22.08.26-33.02c10.84-10.95,230.11-252.81,230.11-252.81L933.78,216.18,1215.64,31.14l76.86-13.64Z" style="fill: #ffd684; stroke-width: 0px;"/>
    <g>
      <circle cx="521.18" cy="814.89" r="38.79" transform="translate(-272.17 261.48) rotate(-22.5)" style="fill: #efaa30; stroke-width: 0px;"/>
      <circle cx="1134.35" cy="266.55" r="31.7" style="fill: #efaa30; stroke-width: 0px;"/>
      <circle cx="1005.67" cy="735.81" r="13.43" style="fill: #efaa30; stroke-width: 0px;"/>
      <circle cx="779.27" cy="558.48" r="21.6" style="fill: #efaa30; stroke-width: 0px;"/>
      <circle cx="1373.84" cy="578.36" r="21.6" style="fill: #efaa30; stroke-width: 0px;"/>
      <circle cx="1777.03" cy="501.62" r="10.98" style="fill: #efaa30; stroke-width: 0px;"/>
      <circle cx="1487.48" cy="296.76" r="17.66" transform="translate(37.1 740.66) rotate(-28.3)" style="fill: #efaa30; stroke-width: 0px;"/>
    </g>
    <path d="M146.56,955.86C285.7,793.92,883.65,185.93,1227.38,27.75c29.99-13.8,64.9-11.96,97.07-4.49,98.05,22.76,299.15,138.73,757.14,485.72,22.23,16.84,13.83,52.61-12.82,60.79-297.09,91.2-1596.77,482.39-1901.22,441.34-26.43-3.56-38.36-35.01-20.99-55.24h0Z" style="fill: none; stroke: #651a27; stroke-miterlimit: 10; stroke-width: 35px;"/>
    <path d="M138.39,974.81s-54.3,42.7-15.87,134.5,1084.57-180.41,1084.57-180.41l865.79-243.13c52.68-14.79,81.42-72.63,59.68-122.84-7.42-17.12-41.91-57.62-60.79-61.38" style="fill: none; stroke: #651a27; stroke-miterlimit: 10; stroke-width: 35px;"/>
  </g>
</svg>