<?xml version="1.0" encoding="UTF-8"?>
<svg xmlns="http://www.w3.org/2000/svg" viewBox="0 0 1400 1157.35">
  <g style="isolation: isolate;">
    <g id="Layer_1" data-name="Layer 1">
      <g>
        <path d="M1399.99,390.62c0,1.24-.01,2.47-.02,3.71,0,1.72-.02,3.43-.04,5.15-3.75,307.58-176.79,550.3-422.85,654.63-3.03,1.29-6.07,2.55-9.11,3.8-4.69,1.91-9.39,3.76-14.12,5.56-13.96,5.34-28.13,10.22-42.51,14.66-66.68,20.61-137.68,31.54-211.34,31.54s-144.66-10.94-211.34-31.54c-19.25-5.94-38.14-12.69-56.63-20.22-3.04-1.25-6.08-2.51-9.11-3.8C176.86,949.78,3.82,707.06.07,399.48c-.02-1.72-.04-3.43-.04-5.15-.01-1.24-.02-2.47-.02-3.71.02.74.04,1.47.08,2.21,6.28,116.49,317.23,210.35,699.91,210.35s693.63-93.85,699.91-210.35c.04-.74.06-1.47.08-2.21Z" style="fill: #faf4f2; stroke-width: 0px;"/>
        <path d="M726.13,1108.14c-11.05.87-22.19,1.37-33.41,1.49-24.67-.23-49.04-1.71-73.03-4.37-37.61-4.97-74.13-14.12-109.21-27.13-16.04-5.94-31.79-12.69-47.21-20.22-2.53-1.25-5.06-2.51-7.6-3.8-181.17-92.16-314.86-292.29-345.73-549.74,67.01,32.02,161.13,58.22,272.47,75.57,30,220.88,111.58,391.24,218.34,474.17,1.65,1.29,3.31,2.55,4.97,3.8,10.09,7.53,20.4,14.28,30.91,20.22,28.54,16.15,58.51,26.37,89.49,30.01Z" style="fill: #fff; opacity: .58; stroke-width: 0px;"/>
        <path d="M1399.99,390.62c-.5,311.78-174.49,558.15-422.91,663.48-3.03,1.29-6.07,2.55-9.11,3.8-4.69,1.91-9.39,3.76-14.12,5.56,2.22-1.8,4.41-3.65,6.61-5.56,1.42-1.25,2.85-2.51,4.27-3.8,93.29-84.5,164.16-259.78,188.66-486.77,147.75-38.12,245.39-102.99,246.61-176.71Z" style="fill: #e9c6be; stroke-width: 0px;"/>
        <path d="M690.7,1109.6c-1.83.05-3.68.07-5.51.07-7.22,0-14.4-.3-21.53-.9,8.97.45,17.98.73,27.04.83Z" style="fill: #54afac; opacity: .36; stroke-width: 0px;"/>
        <path d="M1399.99,390.62c-.5,311.78-174.49,558.15-422.91,663.48-3.03,1.29-6.07,2.55-9.11,3.8-18.49,7.53-37.38,14.28-56.63,20.22-66.68,20.61-137.68,31.54-211.34,31.54-1.55,0-3.1,0-4.66-.02,67.61-.45,132.79-11.36,194.08-31.52,18.07-5.94,35.82-12.69,53.18-20.22,2.86-1.25,5.71-2.51,8.56-3.8,212.32-95.87,366.75-308.57,393.12-581.1,35.31-25.32,55.09-53.16,55.7-82.39Z" style="fill: #e9c6be; stroke-width: 0px;"/>
        <path d="M711.74,1109.57c-3.9.07-7.82.1-11.74.1-73.66,0-144.66-10.94-211.34-31.54-19.25-5.94-38.14-12.69-56.63-20.22-3.04-1.25-6.08-2.51-9.11-3.8C174.5,948.78.51,702.4.01,390.62c.41,19.39,9.25,38.17,25.48,56.02,19.9,285.15,187.58,508.52,420.92,607.46,3.03,1.29,6.07,2.55,9.11,3.8,18.49,7.53,37.38,14.28,56.63,20.22,63.13,19.5,130.13,30.35,199.59,31.44Z" style="fill: #e9c6be; stroke-width: 0px;"/>
        <path d="M977.08,1054.11v24.02c0,43.76-124.05,79.22-277.08,79.22s-277.08-35.46-277.08-79.22v-24.02c3.03,1.29,6.07,2.55,9.11,3.8,18.49,7.53,37.38,14.28,56.63,20.22,66.68,20.61,137.68,31.54,211.34,31.54s144.66-10.94,211.34-31.54c19.25-5.94,38.14-12.69,56.63-20.22,3.04-1.25,6.08-2.51,9.11-3.8Z" style="fill: #faf4f2; stroke-width: 0px;"/>
        <path d="M422.92,1054.11c3,1.28,6.01,2.53,9.03,3.77v40.38c-5.89-6.42-9.03-13.17-9.03-20.13v-24.02Z" style="fill: #e9c6be; stroke-width: 0px;"/>
        <path d="M488.66,1078.13c22.17,6.85,44.81,12.63,67.87,17.29v50.5c-37.31-6.46-68.86-15.38-91.9-25.96v-49.74c7.94,2.79,15.96,5.42,24.04,7.91Z" style="fill: #fff; opacity: .58; stroke-width: 0px;"/>
        <path d="M977.08,1054.11v24.02c0,31.46-64.15,58.64-157.09,71.43v-49.8c31.21-5.22,61.71-12.47,91.35-21.63,19.25-5.94,38.14-12.69,56.63-20.22,3.04-1.25,6.08-2.51,9.11-3.8Z" style="fill: #e9c6be; stroke-width: 0px;"/>
        <path d="M977.08,1054.11v12.85c-3.03,1.07-6.07,2.12-9.11,3.16-4.69,1.58-9.39,3.12-14.12,4.62-13.96,4.43-28.13,8.48-42.51,12.17-66.68,17.09-137.68,26.17-211.34,26.17s-144.66-9.08-211.34-26.17c-19.25-4.94-38.14-10.54-56.63-16.79-3.04-1.03-6.08-2.08-9.11-3.16v-12.85c3.03,1.29,6.07,2.55,9.11,3.8,18.49,7.53,37.38,14.28,56.63,20.22,66.68,20.61,137.68,31.54,211.34,31.54s144.66-10.94,211.34-31.54c19.25-5.94,38.14-12.69,56.63-20.22,3.04-1.25,6.08-2.51,9.11-3.8Z" style="fill: #e9c6be; mix-blend-mode: multiply; opacity: .52; stroke-width: 0px;"/>
        <ellipse cx="700" cy="396.34" rx="700" ry="221.03" style="fill: #faf4f2; stroke-width: 0px;"/>
        <ellipse cx="700" cy="380.05" rx="666.35" ry="190.52" style="fill: #eed4cb; stroke-width: 0px;"/>
        <path d="M33.65,380.05c0,27.65,20.6,53.92,57.65,77.64,103.95,66.52,337.39,112.88,608.7,112.88,312.63,0,574.97-61.56,646.85-144.59,12.74-14.71,19.5-30.1,19.5-45.93,0-51.07-70.28-97.44-184.71-131.65-121.31-36.27-292.25-58.86-481.64-58.86-277.94,0-516.14,48.65-616.09,117.79-32.38,22.41-50.26,46.97-50.26,72.72Z" style="fill: #eed4cb; stroke-width: 0px;"/>
        <path d="M82.66,331.08c5.59,40.03,13.18,77.88,22.52,113.67,2.22,8.49,4.52,16.84,6.92,25.09,89.3,47.71,247.54,83.27,436.63,95.82-.59-6.21-1.13-12.38-1.63-18.49-13.11-160.74,5.32-288.87,13.53-335.11-123.04,7.51-235.94,24.96-326.77,50.92-68.74,19.66-120.76,43.4-151.2,68.09Z" style="fill: #fff; opacity: .59; stroke-width: 0px;"/>
        <path d="M1165.92,516.28c123.68-34.59,200.44-82.84,200.44-136.22,0-49.38-65.69-94.37-173.43-128.23-.02,33-2.25,137.82-27.01,264.45Z" style="fill: #e0afa2; stroke-width: 0px;"/>
        <path d="M33.64,380.05c0,.38,0,.76.01,1.13,2.32-103.38,299.77-186.98,666.35-186.98s664.03,83.6,666.35,186.98c.01-.38.01-.76.01-1.13,0-105.24-298.34-190.55-666.36-190.55S33.64,274.82,33.64,380.05Z" style="fill: #fff; stroke-width: 0px;"/>
        <path d="M1399.06,407.87c-19,116.71-324.71,209.5-699.06,209.5S19.94,524.58.94,407.87c44.99,109.65,340.83,194.35,699.06,194.35s654.07-84.7,699.06-194.35Z" style="fill: #fff; stroke-width: 0px;"/>
        <path d="M62.45,376.93c0,44.54,24.09,75.15,28.85,80.76,103.95,66.52,337.39,112.88,608.7,112.88,312.63,0,574.97-61.56,646.85-144.59.18-20.91-2.95-44.31-13.32-66.2-18.42-39.38-60.09-73.78-147.62-80.1,0,0-.08-12.89-4.27-31.28-4.09-17.96-12.09-41.17-27.76-62.74-26.49-36.53-74.96-68.4-163.68-62.07,0,0-13.68-31.87-46.33-61.68-38.35-35.03-102.88-67.13-202.11-41.51C557.92,67.84,490.71,54.01,453.86,0c0,0-32.34,79.7,19.77,117.26,0,0-289.33-30.91-251.77,127.23,0,0-94.44,3.51-137.95,62.84-7.92,10.81-14.15,23.47-17.82,38.29-2.37,9.49-3.64,19.93-3.64,31.31Z" style="fill: #d8272f; stroke-width: 0px;"/>
        <path d="M62.45,376.93c0,44.54,24.09,75.15,28.85,80.76,103.95,66.52,337.39,112.88,608.7,112.88,312.63,0,574.97-61.56,646.85-144.59.18-20.91-2.95-44.31-13.32-66.2-24.75,29.54-63.72,69.92-119.53,105.55-75.63,48.28-272,80-464.59,75.1-410-10.44-505.68-46.54-564.41-86.1-56.19-37.85-95-79.54-118.91-108.71-2.15,8.92-3.64,19.48-3.64,31.31Z" style="fill: #83161b; mix-blend-mode: multiply; opacity: .57; stroke-width: 0px;"/>
        <path d="M1219.51,330.12c-4.3,2.92-8.39,5.29-12.72,7.38l-6.25,3.2c-2.18.94-4.34,1.87-6.41,2.86-4.07,2.04-8.46,3.66-12.64,5.48l-6.22,2.73-6.44,2.43c-16.72,6.96-33.89,13.23-51.07,19.87-17.48,5.94-35.26,11.38-53.52,15.52l-13.59,3.44-13.78,2.89-27.62,5.72-27.95,4.49c-9.31,1.62-18.6,3.4-28.03,4.44l-28.21,3.66-14.11,2.06-14.18,1.51c-9.46,1.04-18.94,1.89-28.41,3.08-9.48,1.14-18.96,2.4-28.49,3.05-19.03,1.74-38.1,3.6-57.24,6,19.11,1.98,38.28,3.43,57.49,4.75,19.21,1.26,38.45,1.23,57.73,1.45,38.55.2,77.18-2.39,115.72-6.95,38.48-5.36,76.9-12.85,114.45-25.49,18.75-6.37,37.4-13.94,53.93-25.98,4.16-2.85,8.23-5.89,11.97-9.5,3.83-3.41,7.57-6.85,10.83-10.98,6.7-7.61,12.68-16.93,14.75-27.12Z" style="fill: #fff; opacity: .46; stroke-width: 0px;"/>
        <path d="M1027.76,174.95c-22.31,9.95-42.38,19.01-62.82,28.46-20.33,9.27-40.01,19.84-60.85,28.39-41.54,17.22-84.96,30.78-129.24,41.25-22.02,5.74-44.48,9.87-66.85,14.55-11.16,2.53-22.57,3.64-33.83,5.73l-33.93,5.69c-22.78,2.59-45.54,6.06-68.42,8.8-22.91,2.23-45.87,4.67-68.91,7.48,23.09,1.3,46.25,2.22,69.45,2.94,23.16-.16,46.39-.65,69.63-1.43,23.15-1.85,46.44-3.11,69.56-6.04,23.05-3.4,46.36-5.63,69.19-10.9,11.43-2.48,23.02-4.26,34.35-7.32l34.12-8.72c11.27-3.35,22.4-7.22,33.61-10.82,11.25-3.48,22.09-8.32,33.16-12.42,11.1-4.05,21.7-9.54,32.57-14.26,10.64-5.3,21.07-11.14,30.91-17.95,4.85-3.55,9.66-7.13,14.31-10.9,4.57-3.94,8.93-8.18,13.19-12.42,8.21-8.91,16.04-18.49,20.79-30.1Z" style="fill: #fff; opacity: .46; stroke-width: 0px;"/>
        <path d="M825.14,93.9l-29.76,20.64c-4.55,3.47-9.57,6.41-14.04,9.9-4.72,3.21-9.44,6.45-14.02,9.88-18.96,12.99-40.18,22.81-61.86,31.52-10.84,4.43-22.06,7.96-33.3,11.65-5.57,2.01-11.34,3.34-17.08,4.83l-17.21,4.74-35.07,7.76c-11.83,2.03-23.7,4.28-35.64,6.82,12.1.69,24.28,1.11,36.5,1.3,12.15-.49,24.38-1.08,36.59-2.15,12.11-1.73,24.4-2.91,36.4-5.71l18.09-4.03c6.02-1.4,11.85-3.61,17.79-5.38,23.67-7.47,46.69-17.81,67.86-31.71,5.18-3.65,10.43-7.22,15.23-11.4,4.69-4.35,9.36-8.64,13.27-13.8,7.92-9.92,14.73-21.57,16.24-34.87Z" style="fill: #fff; opacity: .46; stroke-width: 0px;"/>
        <path d="M340.87,386.42c795.62,72.19,845.04-106.75,845.04-106.75,0,0-.32-50.37-32.02-94.02-150.63,189.61-813.02,200.76-813.02,200.76Z" style="fill: #83161b; mix-blend-mode: multiply; opacity: .57; stroke-width: 0px;"/>
        <path d="M349.72,270.82c321.19,8.86,500.13-24.67,640.48-147.23,0,0-13.68-31.87-46.34-61.68-193.65,199.26-594.15,208.91-594.15,208.91Z" style="fill: #83161b; mix-blend-mode: multiply; opacity: .57; stroke-width: 0px;"/>
        <path d="M730.88,109.38s-157.07,59.91-257.25,7.88c0,0,81.57,87.17,238.17,21.18,11.62-4.9,19.08-16.45,19.08-29.06h0Z" style="fill: #83161b; mix-blend-mode: multiply; opacity: .65; stroke-width: 0px;"/>
      </g>
    </g>
  </g>
</svg>