<?xml version="1.0" encoding="UTF-8"?>
<svg xmlns="http://www.w3.org/2000/svg" xmlns:xlink="http://www.w3.org/1999/xlink" viewBox="0 0 129.03 228.21">
  <defs>
    <linearGradient id="linear-gradient" x1="18.87" y1="5.54" x2="43.64" y2="15.11" gradientUnits="userSpaceOnUse">
      <stop offset="0" stop-color="#747574"/>
      <stop offset=".01" stop-color="#7a7b7a"/>
      <stop offset=".03" stop-color="#8b8c8b"/>
      <stop offset=".05" stop-color="#a7a7a7"/>
      <stop offset=".05" stop-color="#b0b0b0"/>
      <stop offset=".08" stop-color="#b6b6b6"/>
      <stop offset=".1" stop-color="#c7c7c7"/>
      <stop offset=".13" stop-color="#e3e3e3"/>
      <stop offset=".16" stop-color="#fff"/>
      <stop offset=".45" stop-color="#919291"/>
      <stop offset=".68" stop-color="#d7d5d7"/>
      <stop offset=".77" stop-color="#fff"/>
      <stop offset=".94" stop-color="#9c979c"/>
      <stop offset="1" stop-color="#747574"/>
    </linearGradient>
    <linearGradient id="linear-gradient-2" x1="22.73" y1="6.85" x2="35.83" y2="11.91" xlink:href="#linear-gradient"/>
  </defs>
  <g style="isolation: isolate;">
    <g id="Layer_1" data-name="Layer 1">
      <g>
        <g>
          <g>
            <path d="M6.24,207.03s3.38,6.01,6.21,10.34c2.63,4.32,25.94,10.34,42.86,10.34h20.49c16.92,0,40.23-6.01,42.86-10.34,2.82-4.33,6.21-10.34,6.21-10.34H6.24Z" style="fill: #dfe0e0; stroke-width: 0px;"/>
            <path d="M75.8,228.21h-20.49c-16.53,0-40.4-5.83-43.28-10.58-2.79-4.28-6.18-10.3-6.21-10.36-.09-.15-.09-.34,0-.5.09-.15.25-.25.43-.25h118.62c.18,0,.34.09.43.25.09.15.09.34,0,.5-.03.06-3.43,6.08-6.22,10.37-2.88,4.73-26.75,10.57-43.28,10.57ZM7.1,207.53c1,1.74,3.57,6.2,5.77,9.57,2.49,4.09,25.26,10.11,42.44,10.11h20.49c17.17,0,39.95-6.02,42.43-10.1,2.2-3.38,4.78-7.84,5.77-9.58H7.1Z" style="fill: #9fa1a3; stroke-width: 0px;"/>
          </g>
          <g style="mix-blend-mode: multiply;">
            <path d="M6.24,207.03s3.38,6.01,6.21,10.34c1.3,2.13,7.65,4.68,15.78,6.71,0-1.72.44-3.22,2.24-2.35,3.64,1.75,43.26,6.41,67.01,1.31,7.19-1.61,8.37-1.47,8.49.22,6.61-1.87,11.56-4.04,12.69-5.89,2.82-4.33,6.21-10.34,6.21-10.34H6.24Z" style="fill: #b4b5b6; stroke-width: 0px;"/>
          </g>
        </g>
        <g>
          <path d="M115.38,12.89s6.45,12.12,9.54,17.28c3.1,5.16,3.61,8,3.61,15.48v154.93c0,5.8-3.4,10.58-15.4,16.03-12.34,5.61-31.12,7.31-44.94,6.9h-6.24c-9.49,0-32.73-2.88-45.13-7.36-12.4-4.48-16.32-9.76-16.32-15.56V45.65c0-7.48.52-10.32,3.61-15.48,3.1-5.16,9.54-17.28,9.54-17.28h101.72Z" style="fill: #d44128; stroke-width: 0px;"/>
          <path d="M72.2,224.06c-1.38,0-2.72-.02-4.02-.06h-6.23c-9.9,0-33.02-2.95-45.3-7.39-11.36-4.11-16.65-9.2-16.65-16.03V45.65c0-7.43.48-10.4,3.68-15.73,3.05-5.09,9.47-17.14,9.53-17.26.09-.16.26-.27.44-.27h101.72c.18,0,.35.1.44.27.06.12,6.48,12.17,9.53,17.26,3.2,5.33,3.68,8.3,3.68,15.73v154.93c0,6.65-4.55,11.42-15.69,16.48-9.64,4.38-25.02,7-41.14,7ZM13.96,13.39c-.96,1.81-6.6,12.35-9.42,17.04-3.08,5.13-3.54,8-3.54,15.22v154.93c0,6.35,5.08,11.15,15.99,15.09,12.18,4.41,35.13,7.33,44.96,7.33h6.24c1.31.04,2.64.06,4.01.06,15.98,0,31.2-2.58,40.72-6.91,13.28-6.03,15.11-11.04,15.11-15.57V45.65c0-7.33-.44-10.06-3.54-15.22-2.81-4.69-8.45-15.23-9.42-17.04H13.96Z" style="fill: #992a20; stroke-width: 0px;"/>
        </g>
        <path d="M101.8,91.48c-8.77,22.81-17.04,23.06-37.85,16.8-23.05-7.27-37.6,3.26-48.62,19.8-6.63,9.95-11.72,24.87-14.73,35.2v22.12c3.15-7.66,8.79-18.19,16.16-18.78,11.66-.94,17.49,24.06,41.73,21.62,24.25-2.45,30.64-22,42.3-39.29,10.46-15.52,20.91-14.38,27.16-4.88V63.26c-9.5,1.83-19.06,9.76-26.16,28.22Z" style="fill: #fff; stroke-width: 0px;"/>
        <path d="M12.07,38.6s62.41,17.3,108.66-1.13c0,0-38.72,22.56-108.66,1.13Z" style="fill: #acdfe8; mix-blend-mode: screen; stroke-width: 0px;"/>
        <g>
          <path d="M75.11,171.44c-3.04,3.57-7.39,4.87-9.72,2.89-2.33-1.98-1.75-6.48,1.29-10.06,3.04-3.57,7.39-4.87,9.72-2.89,2.33,1.98,1.75,6.48-1.29,10.05Z" style="fill: #d44128; stroke-width: 0px;"/>
          <path d="M20.43,150.54c-.53,1.92-1.97,3.2-3.22,2.86s-1.84-2.18-1.31-4.1c.53-1.92,1.97-3.2,3.21-2.86,1.25.34,1.84,2.18,1.31,4.1Z" style="fill: #d44128; stroke-width: 0px;"/>
          <path d="M24.28,133.16c-.27,1-1.02,1.66-1.67,1.48-.65-.18-.96-1.13-.68-2.13.27-1,1.02-1.67,1.67-1.49.65.18.95,1.13.68,2.13Z" style="fill: #d44128; stroke-width: 0px;"/>
          <path d="M9.74,160.23c-.27,1-1.02,1.67-1.67,1.49-.65-.18-.95-1.13-.68-2.13.27-1,1.03-1.66,1.67-1.48.65.18.95,1.13.68,2.13Z" style="fill: #d44128; stroke-width: 0px;"/>
          <path d="M84.93,157.22c-.27,1-1.02,1.66-1.67,1.48-.65-.18-.95-1.13-.68-2.13s1.02-1.67,1.67-1.49c.65.18.95,1.13.68,2.13Z" style="fill: #d44128; stroke-width: 0px;"/>
          <path d="M113,93.81c-.27,1-1.02,1.67-1.67,1.49-.65-.18-.95-1.13-.68-2.13.27-1,1.02-1.67,1.67-1.49.65.18.95,1.13.68,2.13Z" style="fill: #d44128; stroke-width: 0px;"/>
          <path d="M117.51,85.54c-.27,1-1.02,1.66-1.67,1.48-.65-.18-.96-1.13-.68-2.13.27-1,1.02-1.66,1.67-1.48.65.18.95,1.13.68,2.13Z" style="fill: #d44128; stroke-width: 0px;"/>
          <path d="M120.19,93.97c-.2.72-.74,1.2-1.2,1.07-.47-.13-.69-.82-.49-1.53.2-.72.73-1.2,1.2-1.07.47.13.69.81.49,1.53Z" style="fill: #d44128; stroke-width: 0px;"/>
          <path d="M28.71,138.83c-.2.72-.73,1.2-1.2,1.07-.47-.13-.69-.81-.49-1.53.2-.72.73-1.2,1.21-1.07.46.13.68.82.49,1.53Z" style="fill: #d44128; stroke-width: 0px;"/>
          <path d="M14.12,158.16c-.17.61-.62,1.01-1.02.91-.39-.11-.58-.69-.41-1.3.16-.61.62-1.01,1.01-.9.4.11.58.69.42,1.3Z" style="fill: #d44128; stroke-width: 0px;"/>
          <path d="M65.42,112.98c-.17.61-.62,1.01-1.02.9-.4-.11-.58-.69-.42-1.3.17-.6.62-1.01,1.02-.9.39.11.58.68.42,1.29Z" style="fill: #d44128; stroke-width: 0px;"/>
        </g>
        <g>
          <path d="M38.26,153.51s-4.65,6.78.63,10.55c5.27,3.77,14.57.88,13.69-10.43-.88-11.31-11.77-13.14-15.58-15.07-8.16-4.15-10.42-9.93-6.91-17.59,3.52-7.66,14.95-8.54,18.72-3.89,3.77,4.64,1.38,9.42-.88,9.92-2.26.51-3.9-.75-4.27-3.01-.38-2.26-4.52-1.38-3.77,1.88.75,3.27,3.15,5.01,7.79,6.53,9.69,3.19,16.65,13.34,13.83,27.25-2.82,13.91-12.78,17.67-21.43,15.42-8.65-2.26-14.85-11.66-13.92-19.37.94-7.71,5.83-10.53,10.15-9.21,4.32,1.31,2.75,5.56,1.94,7.01Z" style="fill: #2c4297; stroke-width: 0px;"/>
          <path d="M77.8,136.14c-.39-7.45-4.64-13.28-9.48-13.03-4.84.25-8.45,6.5-8.05,13.95.4,7.45,4.64,13.28,9.48,13.02,4.84-.25,8.45-6.5,8.05-13.95ZM69.44,138.76c-1.51.08-2.84-1.74-2.96-4.07-.12-2.33,1-4.28,2.52-4.36,1.51-.08,2.84,1.74,2.96,4.07.12,2.33-1,4.28-2.52,4.36Z" style="fill: #2c4297; stroke-width: 0px;"/>
          <path d="M102.59,137.04c-.62-8.47-2.05-17.96-2.55-22.44-.5-4.48-.87-8.09-2.99-8.22-2.12-.13-3.11.25-3.11,5.48s.68,9.74.68,9.74c-7.72-6.35-18.18,7.34-12.95,19.3,5.58,12.76,13.82,4.23,14.94-1.24,2.24,4.86,6.6,3.86,5.98-2.62ZM89.46,139.9c-2.44,0-4.42-2.68-4.42-5.98s1.98-5.98,4.42-5.98,4.42,2.68,4.42,5.98-1.98,5.98-4.42,5.98Z" style="fill: #2c4297; stroke-width: 0px;"/>
          <path d="M118.59,125.07c-1.88-1.63-2.38-4.39-2.76-10.28-.38-5.89-1.25-11.66-5.26-12.16-4.01-.5-6.39,5.64-6.39,5.64-.38,1.38-1.51,5.52,1,6.14,2.5.63,1.75-4.01,4.51-3.89,3.13.13,3.01,6.52,3.01,6.52-1.76-2.25-5.76-1.37-7.14,1.75-1.38,3.13-2.51,12.66,3.51,14.16,6.01,1.51,6.39-5.01,6.39-5.01-.12,1.88,1,4.64,3.13,3.89,2.13-.75,1.88-5.14,0-6.77ZM110.32,127.2c-1.31,0-2.38-1.48-2.38-3.32s1.07-3.32,2.38-3.32,2.38,1.48,2.38,3.32-1.07,3.32-2.38,3.32Z" style="fill: #2c4297; stroke-width: 0px;"/>
        </g>
        <path d="M124.92,30.17c-3.1-5.16-9.54-17.28-9.54-17.28H13.66s-6.45,12.12-9.54,17.28c-3.1,5.16-3.61,8-3.61,15.48v154.93c0,5.8,3.92,11.08,16.32,15.56,12.4,4.49,35.64,7.36,45.13,7.36h6.24c13.82.41,32.6-1.29,44.94-6.9,12-5.45,15.4-10.22,15.4-16.03V45.65c0-7.48-.51-10.32-3.61-15.48ZM73.12,53.06v149.45c-6.7,18.75-39.91,12.05-54.96,6.43-15.05-5.62-12.27-14.73-12.27-14.73V46.1c0-8.3,2.67-11.78,2.67-11.78l8.31-11.13c19.55,9.76,48.04,8.72,48.04,8.72,0,0,3.65,4.02,5.99,9.11,2.33,5.09,2.22,12.05,2.22,12.05Z" style="fill: #afb0b2; mix-blend-mode: multiply; stroke-width: 0px;"/>
        <path d="M124.92,30.17c-3.1-5.16-9.54-17.28-9.54-17.28H22.56c6.07,4.03,13.45,6.61,19.96,8.36,5.93,1.6,11.96,2.79,18.04,3.62,6.68.9,13.58.1,20.3.3,6.7.2,15.73.41,20.94,5.36,5.88,5.58,8.36,13.44,9.21,21.32.97,8.96.28,17.93.02,26.91,0,.34-.02.67-.03,1.01-.33,13.18-.04,65.91.06,79.09.05,6.64-.09,13.3.11,19.93.16,5.44.64,10.91.4,16.35-.41,9.31-3.07,16.93-9.92,23.44-.87.83-1.78,1.62-2.72,2.41,5.17-1.07,10.04-2.5,14.19-4.39,12-5.45,15.4-10.22,15.4-16.03V45.65c0-7.48-.51-10.32-3.61-15.48Z" style="fill: #afb0b2; mix-blend-mode: multiply; stroke-width: 0px;"/>
        <g>
          <g>
            <path d="M117.34,14.04c0,6.92-23.79,12.52-53.15,12.52S11.04,20.96,11.04,14.04,34.84,1.52,64.19,1.52s53.15,5.61,53.15,12.52Z" style="fill: #dfe0e0; stroke-width: 0px;"/>
            <path d="M64.19,27.07c-30.08,0-53.65-5.72-53.65-13.02S34.11,1.02,64.19,1.02s53.65,5.72,53.65,13.02-23.57,13.02-53.65,13.02ZM64.19,2.02C35.65,2.02,11.54,7.53,11.54,14.04s24.11,12.02,52.65,12.02,52.65-5.51,52.65-12.02S92.73,2.02,64.19,2.02Z" style="fill: #9fa1a3; stroke-width: 0px;"/>
          </g>
          <g>
            <path d="M117.34,11.53c0,6.44-23.79,11.66-53.15,11.66S11.04,17.96,11.04,11.53,34.84.5,64.19.5s53.15,4.59,53.15,11.03Z" style="fill: #dfe0e0; stroke-width: 0px;"/>
            <path d="M64.19,23.68c-26.37,0-53.65-4.55-53.65-12.16S37.53,0,64.19,0s53.65,3.96,53.65,11.53-27.28,12.16-53.65,12.16ZM64.19,1C34.67,1,11.54,5.62,11.54,11.53c0,5.39,21.16,11.16,52.65,11.16s52.65-5.77,52.65-11.16c0-5.9-23.13-10.53-52.65-10.53Z" style="fill: #9fa1a3; stroke-width: 0px;"/>
          </g>
          <g>
            <path d="M64.01,4.91c24.8,0,45.33,3.27,48.82,7.52.34-.42.53-.85.53-1.29,0-4.86-22.1-8.81-49.35-8.81S14.67,6.28,14.67,11.15c0,.44.18.87.53,1.29,3.49-4.26,24.01-7.52,48.82-7.52Z" style="fill: #959899; stroke-width: 0px;"/>
            <path d="M15.2,12.94c-.15,0-.29-.07-.39-.18-.43-.52-.64-1.06-.64-1.61C14.17,6.63,31.64,1.84,64.01,1.84s49.85,4.8,49.85,9.31c0,.54-.22,1.09-.65,1.61-.09.12-.24.18-.39.18h0c-.15,0-.29-.07-.39-.18-3.43-4.18-24.25-7.34-48.43-7.34s-45,3.16-48.43,7.34c-.09.12-.24.18-.39.18h0ZM64.01,4.41c23.95,0,44.03,3.01,48.74,7.22.07-.17.11-.33.11-.49,0-4.01-19.63-8.31-48.85-8.31S15.17,7.13,15.17,11.15c0,.16.04.32.11.49,4.71-4.21,24.8-7.22,48.74-7.22Z" style="fill: #9fa1a3; stroke-width: 0px;"/>
          </g>
          <g>
            <path d="M64.01,19.96c24.8,0,45.33-3.27,48.82-7.53-3.49-4.26-24.01-7.52-48.82-7.52s-45.33,3.27-48.82,7.52c3.49,4.26,24.01,7.53,48.82,7.53Z" style="fill: #dfe0e0; stroke-width: 0px;"/>
            <path d="M64.01,20.46c-24.85,0-45.54-3.24-49.21-7.71-.15-.18-.15-.45,0-.63,3.67-4.46,24.36-7.71,49.21-7.71s45.54,3.24,49.21,7.71c.15.18.15.45,0,.63-3.66,4.47-24.36,7.71-49.21,7.71ZM15.88,12.44c4.2,4.03,24.58,7.03,48.14,7.03s43.94-3,48.14-7.03c-4.2-4.03-24.57-7.02-48.14-7.02s-43.94,3-48.14,7.02Z" style="fill: #9fa1a3; stroke-width: 0px;"/>
          </g>
          <g>
            <path d="M24.14,10.97s-2.23.64.1,2.34c2.34,1.7,8.6,5.31,30.79,5.62,22.61.74,26.01-4.46,18.68-4.67-7.32-.21-32.16,5.41-49.57-3.29Z" style="fill: #b4b4b4; mix-blend-mode: multiply; opacity: .6; stroke-width: 0px;"/>
            <g>
              <path d="M45.06,14.6c-13.02-.43-18.65-3.31-21.08-5.76-.73,1.6.69,3.89,5.11,5.76,7.06,3,17.12,3.29,30.57,3.39,10.81.08,15.25-3.03,16.01-6.52-3.25,3.04-12.43,3.74-30.62,3.13Z" style="fill: #dfe0e0; stroke-width: 0px;"/>
              <path d="M60.07,18.49h-.4c-13.52-.1-23.64-.4-30.77-3.43-2.91-1.24-4.78-2.73-5.39-4.32-.28-.73-.28-1.47.02-2.11.07-.15.21-.25.37-.28.16-.03.33.02.44.14,2.3,2.32,7.77,5.18,20.74,5.61,4.03.13,7.46.2,10.47.2,11.49,0,17.41-.96,19.79-3.2.16-.15.4-.18.59-.07.19.11.29.33.24.54-.57,2.58-3.42,6.91-16.11,6.91ZM24.31,9.81c.01.18.06.37.14.57.29.76,1.31,2.26,4.85,3.76,6.96,2.95,16.98,3.25,30.38,3.35h.39c7.58,0,12.73-1.67,14.53-4.65-3.15,1.71-9.07,2.46-19.05,2.46-3.02,0-6.45-.07-10.5-.2-12.19-.4-17.99-2.97-20.74-5.29Z" style="fill: #9fa1a3; stroke-width: 0px;"/>
            </g>
            <g>
              <g>
                <path d="M75.64,8.89c-1.06-4.35-7.84-4.54-23.8-3.87-15.96.68-24.38,1.93-24.38,1.93-1.81.22-3.03.93-3.47,1.88,2.43,2.46,8.06,5.33,21.08,5.76,18.19.6,27.37-.09,30.62-3.13.19-.85.16-1.72-.04-2.58ZM41.58,11.5c-4.16,0-7.72-.58-9.26-1.41,1.54-.83,5.1-1.41,9.26-1.41s7.72.58,9.25,1.41c-1.53.83-5.1,1.41-9.25,1.41ZM64.92,11.83c-3.21,0-5.98-.65-7.29-1.59,1.24-1,4.1-1.69,7.43-1.69s5.98.65,7.29,1.59c-1.24,1-4.1,1.69-7.43,1.69Z" style="fill: #fff; stroke-width: 0px;"/>
                <path d="M55.55,15.3h0c-3.02,0-6.46-.07-10.5-.2-13.3-.44-18.99-3.46-21.42-5.91-.15-.15-.19-.37-.1-.56.52-1.15,1.93-1.94,3.86-2.17.07-.01,8.61-1.27,24.42-1.94,4.87-.21,8.06-.29,10.69-.29,7.92,0,12.69.74,13.62,4.54.23.96.25,1.91.05,2.8-.02.1-.07.19-.15.26-2.62,2.46-8.56,3.47-20.48,3.47ZM24.62,8.75c2.45,2.27,7.98,4.94,20.47,5.35,4.03.13,7.46.2,10.47.2,11.31,0,17.22-.93,19.68-3.09.13-.7.11-1.44-.07-2.2-.67-2.75-4.1-3.78-12.64-3.78-2.62,0-5.8.09-10.65.29-15.75.67-24.25,1.92-24.33,1.93-1.39.17-2.42.63-2.91,1.3ZM64.92,12.33c-3.23,0-6.14-.64-7.58-1.68-.13-.09-.2-.24-.21-.39,0-.16.07-.31.19-.4,1.36-1.1,4.4-1.8,7.75-1.8s6.14.64,7.58,1.68c.13.09.2.24.21.39,0,.16-.07.31-.19.4-1.38,1.11-4.35,1.8-7.75,1.8ZM58.59,10.23c1.43.68,3.79,1.11,6.33,1.11s5.07-.46,6.47-1.17c-1.43-.68-3.79-1.11-6.33-1.11s-5.07.46-6.47,1.17ZM41.58,12c-4.11,0-7.84-.58-9.5-1.47-.16-.09-.26-.26-.26-.44s.1-.35.26-.44c1.66-.89,5.38-1.47,9.5-1.47s7.84.58,9.49,1.47c.16.09.26.26.26.44s-.1.35-.26.44c-1.65.89-5.38,1.47-9.49,1.47ZM33.66,10.09c1.82.56,4.78.91,7.92.91s6.1-.35,7.92-.91c-1.81-.56-4.78-.91-7.92-.91s-6.1.35-7.92.91Z" style="fill: #9fa1a3; stroke-width: 0px;"/>
              </g>
              <g>
                <path d="M50.83,10.09c.52-.28.81-.59.81-.91,0-1.28-4.51-2.32-10.06-2.32s-10.06,1.04-10.06,2.32c0,.32.29.63.8.91,1.54-.83,5.1-1.41,9.26-1.41s7.72.58,9.25,1.41Z" style="fill: #dfe0e0; stroke-width: 0px;"/>
                <path d="M32.32,10.59c-.08,0-.16-.02-.24-.06-.71-.38-1.07-.84-1.07-1.35,0-2.23,6.91-2.82,10.56-2.82s10.56.59,10.56,2.82c0,.52-.36.97-1.07,1.35-.15.08-.32.08-.47,0-1.5-.81-5.12-1.35-9.02-1.35s-7.52.54-9.02,1.35c-.07.04-.16.06-.24.06ZM41.58,8.18c3.91,0,7.47.52,9.24,1.34.26-.17.33-.3.33-.34,0-.54-3.25-1.82-9.56-1.82s-9.56,1.28-9.56,1.82c0,.04.06.17.33.34,1.76-.82,5.33-1.34,9.24-1.34Z" style="fill: #9fa1a3; stroke-width: 0px;"/>
              </g>
            </g>
            <g>
              <path d="M72.35,10.14c.42-.34.65-.71.65-1.1,0-1.55-3.62-2.8-8.09-2.8s-8.09,1.25-8.09,2.8c0,.43.29.84.8,1.21,1.24-1,4.1-1.69,7.43-1.69s5.98.65,7.29,1.59Z" style="fill: #dfe0e0; stroke-width: 0px;"/>
              <path d="M57.63,10.75c-.1,0-.2-.03-.29-.09-.67-.48-1.01-1.03-1.01-1.62,0-2.14,4.43-3.3,8.59-3.3s8.59,1.15,8.59,3.3c0,.54-.28,1.04-.84,1.49-.17.14-.42.15-.61.02-1.26-.91-4.01-1.49-7-1.49s-5.94.64-7.12,1.58c-.09.07-.2.11-.31.11ZM64.92,6.74c-4.7,0-7.59,1.34-7.59,2.3,0,.21.15.41.32.58,1.49-.96,4.32-1.56,7.41-1.56s5.7.55,7.23,1.45c.12-.14.21-.3.21-.47,0-.96-2.89-2.3-7.59-2.3Z" style="fill: #9fa1a3; stroke-width: 0px;"/>
            </g>
            <g>
              <path d="M29.87,8.95c0,.52-.98.94-2.19.94s-2.19-.42-2.19-.94.98-.94,2.19-.94,2.19.42,2.19.94Z" style="fill: url(#linear-gradient); stroke-width: 0px;"/>
              <path d="M29.68,8.97c-.19,1.2-3.79,1.24-3.99-.03-.17-1.06,3.78-1.29,3.99.03.02.11.4.07.38-.03-.23-1.45-4.53-1.44-4.76.03-.2,1.27,4.52,1.51,4.76-.03.01-.09-.36-.09-.38.03Z" style="fill: #6c696d; stroke-width: 0px;"/>
            </g>
            <path d="M28.55,8.65c0,.28-.52.5-1.16.5s-1.16-.22-1.16-.5.52-.5,1.16-.5,1.16.22,1.16.5Z" style="fill: url(#linear-gradient-2); mix-blend-mode: screen; stroke-width: 0px;"/>
            <path d="M24.43,5.04s-7.7,1.56-10.09,4.47c-2.39,2.91,3.22,6.55,18.41,9.15-7.38.73-21.53-3.85-20.49-8.42,1.04-3.54,12.17-5.2,12.17-5.2Z" style="fill: #fff; stroke-width: 0px;"/>
          </g>
        </g>
        <path d="M23.18,27.82s-8.84,6.17-9.78,14.84c-.94,8.67,0,155.71,0,155.71,0,0-.69,5.69,8.42,8.67V46.1s.62-5.52,2.17-9.44c2.25-5.69,3.4-7.84,3.4-7.84l-4.21-1Z" style="fill: #605da9; mix-blend-mode: color-dodge; stroke-width: 0px;"/>
      </g>
    </g>
  </g>
</svg>