<?xml version="1.0" encoding="UTF-8"?>
<svg id="Layer_1" data-name="Layer 1" xmlns="http://www.w3.org/2000/svg" viewBox="0 0 543.61 521.86">
  <path id="star1" d="M278,521.81c-4.48-25.65-7.57-51.64-13.84-76.85-6.51-26.19-15.13-51.97-24.59-77.27-10.96-29.33-32.99-48.63-61.39-61.08-36.78-16.13-75.54-24.84-114.97-31.04-14.77-2.33-29.58-4.45-46.98-7.06,34.41-6.35,66.29-10.95,97.49-18.4,22.93-5.47,45.39-13.65,67.32-22.45,27.09-10.87,45.97-30.92,58.17-57.58,20-43.69,28.94-90.14,35.39-137.28.8-5.81,1.83-11.6,2.89-17.37.08-.44,1.24-.67,3.86-1.99,2.74,17.59,4.42,34.86,8.25,51.64,6.6,28.85,13.4,57.75,22.2,85.97,13.26,42.48,42.13,70.02,84.36,84.89,41.87,14.75,85.05,22.6,128.72,28.76,4.96.7,9.93,1.3,18.7,2.44-35.85,6.69-68.08,11.4-99.61,19.01-22.91,5.53-45.28,13.94-67.2,22.78-26.26,10.59-44.43,30.23-56.41,55.92-20.31,43.56-29.32,90-35.76,137.14-.9,6.62-1.72,13.24-2.57,19.87-1.35-.02-2.71-.03-4.06-.05Z" style="fill: #100d18; stroke-width: 0px;"/>
  <path id="star1-2" data-name="star1" d="M84.94,0c9.29,25.29,6.88,52.31,26.69,65.46,17.69,11.74,39.79,16.85,61.93,25.68-51.75,2.19-84.08,25.01-88.61,80.15-1.3-3.91-3.08-7.74-3.83-11.76-8.63-45.85-21.03-58.28-67.03-66.68-4.97-.91-10.01-1.42-14.09-1.99,20.35-8.48,43.26-14.01,61.18-26.62,18.44-12.98,17.42-38.48,23.77-64.24Z" style="fill: #100d18; stroke-width: 0px;"/>
</svg>