<?xml version="1.0" encoding="UTF-8"?>
<svg id="Layer_1" data-name="Layer 1" xmlns="http://www.w3.org/2000/svg" viewBox="0 0 450.83 386.2">
  <path id="star2" d="M183.95,12.11c3.35,6,5.74,10.28,8.13,14.56,11.37,20.38,22.54,40.87,34.15,61.11,16.51,28.78,39.16,51.63,67.95,68.17,19.73,11.33,39.7,22.27,59.58,33.34,4.88,2.72,9.84,5.28,16.83,9.02-5.21,2.98-8.86,5.12-12.56,7.17-20.89,11.61-41.92,22.97-62.65,34.85-29.82,17.09-53.25,40.7-70.2,70.65-13.44,23.74-26.78,47.54-40.91,72.62-2.23-3.27-4.45-6.11-6.22-9.2-14.72-25.66-28.8-51.71-44.19-76.96-16.69-27.41-41.13-46.51-69.27-61.5-21.54-11.47-42.48-24.08-64.58-36.7,3.86-7.59,12.15-9.07,18.62-12.79,21.64-12.42,43.66-24.2,65.05-37.03,22.38-13.42,40.03-31.98,53.32-54.38,13.06-22.02,25.43-44.45,38.07-66.72,2.71-4.77,5.28-9.62,8.89-16.24Z" style="fill: #100d18; stroke-width: 0px;"/>
  <path id="star2-2" data-name="star2" d="M319.43,100.71c-8.28-12.05-13.74-22.91-21.9-31.07-8.18-8.19-19.05-13.69-28.79-20.4,9.82-6.73,20.76-12.28,29.07-20.49,7.88-7.78,13-18.36,20.03-28.74,6.72,9.8,12.06,20.54,20.13,28.54,8.29,8.23,19.24,13.78,30.61,21.59-23.1,9.91-40.53,25.08-49.15,50.57Z" style="fill: #100d18; stroke-width: 0px;"/>
  <path id="star2-3" data-name="star2" d="M329.72,283.65c10.54,22.97,26.89,38.79,53.26,49.48-26.52,10.67-42.89,27.01-53.2,53.07-10.23-26.15-26.76-42.35-52.85-53.06,25.54-10.65,42.34-26.03,52.79-49.49Z" style="fill: #100d18; stroke-width: 0px;"/>
  <path id="star2-4" data-name="star2" d="M450.83,124.53c-16.99,7.58-28.8,19.09-36.63,37.3-9.37-16.66-19.41-30.11-35.63-35.84,12.29-12.22,24.28-24.14,36.44-36.23,4.24,5.94,8.32,13.53,14.17,19.31,5.89,5.81,13.55,9.82,21.65,15.47Z" style="fill: #100d18; stroke-width: 0px;"/>
</svg>